<mxfile host="app.diagrams.net" modified="2022-11-11T13:01:40.321Z" agent="5.0 (Windows NT 10.0; Win64; x64) AppleWebKit/537.36 (KHTML, like Gecko) Chrome/107.0.0.0 Safari/537.36" etag="rvc2DpbOpjITuB_hWfuS" version="20.5.3" type="github">
  <diagram id="sFzHqf1ZbriA_wvJRpDE" name="第 1 页">
    <mxGraphModel dx="1052" dy="497" grid="1" gridSize="10" guides="1" tooltips="1" connect="1" arrows="1" fold="1" page="1" pageScale="1" pageWidth="827" pageHeight="1169" math="0" shadow="0">
      <root>
        <mxCell id="0" />
        <mxCell id="1" parent="0" />
        <mxCell id="rCl-pQb8tw7mzpqOau90-1" value="" style="shape=image;verticalLabelPosition=bottom;labelBackgroundColor=default;verticalAlign=top;aspect=fixed;imageAspect=0;image=data:image/png,iVBORw0KGgoAAAANSUhEUgAAAggAAAFHCAYAAADEGrRHAAAAAXNSR0IArs4c6QAAIABJREFUeF7svQeYXeWVpvvucGLlKFUplFTKCQmhiCSQCAKDSQbb2HQbY7dDu9P07Z55Jtx5Znqm55meO9Oe292+7Xbb2G6DDcaAyRlEkISEckA5ValUqqTK4YQd7rP+f29VCWMLjwskwT52IVXVOXv/e+1ztL5/rW99n+H7vk/0iCIQRSCKAKD+MZD/+J76i4H+U30ZBj5m8FNL/Sbv+Qxl8/T0DdF+pofjJ9s51tBC25keurr7ae3oYiDnkPN8HMfBG/HPjW1ZxONx0ukUxYVFVBbGqS0vYlLdBCZOrGJsdQnlJSnScYukaRAzXAxc8H18LJC1GLIsWaX6C+BhQrBuuRj5Tr6iRxSBKAK/bQSMCCD8tiGLnh9F4OMbAYECnuvjey6m4WOa8ncH3/MxLBsPC9c36B3yaO/PcPzkGQ4eaeDoiVOcbuuis3eQ7v4sec/EtBMqcau0LkldgQ55GCqpy5cCHvI7z8PGJW4apBIJiovSjK+pZNL4cmbUjWHO1FpqS5Ok4za2KTBFH0sBBFmz72PZdgASRt6fCBx8fN+t0ZV92BGIAMKHHeHo+FEELqEIKICgigYuhiFVA0nssi83yDsGnb0Zmtu62X3wFOt3N9LU2kl3dy+5vItnmLiYOJ6Pb5gYdkyBgpgBlhxrxEOOKb8bLmBKFUCqEhaeb+B5Hpbpk7R9ygtsJteWc9nU8SycO5lJtSVUFadJxExM38M0ZMEehilVBcEfBn5Q7QhrCJfQLYiWGkXgoolABBAumlsRLSSKwIWPgBTv1c7c9/DkCwPHN+geyHOiuZNN246y+8AJjp3soK3fw/HAtkyk+SAp3rbAsg3iMYtkKkFRQYqihE06HiMWi6sugOu66hyu55HLZRgYGGIok6Ev66uvnCvntHCx1PMNz8H2chQlDOrHVzNzSi3LFkxhxqRqqopTpGJgeQ5GWCyQloNhqRVJdSGqIVz491W0gkszAhFAuDTvW7TqKAIfMALhzl1S5fkeAg88BRE8Hxwf+jJ5Gk53sHnXcbbsbuBAQyc9gz6OZyoWAH4e2/QoSJhUlRcwpqKQ2upSxlaVUllWRFlJIcXpFEkBCIIeJHmrEoXQHDyyuRz9/QP09A5wpi/DqTO9NLV109I5QEt3hr4hh7zgCUdqEx4x0yeVsJg4rpz5MyawauE05kyqpjwlrQeBM5oroSoR0sYIAMIHufrzRSf6fRSBT1oEIoDwSbvj0fVewAi8hw8sDXS1W1dteZXMFB1Qdtm+J9V9TFP2v7IXlt8HZEF5QkD289Xvg4eU7cO/q5K+JHyV7gEbI9xLB0xEfV7hAsjhdCtBcQ58yPrQOZhly95jvLFpDzv3NdHalcMxCnCtJL6Tp5QhKooTTBxfqXb10yaPZVx1MWPLCyktShG3TSxTdvAhgVAvTrgHqrWgyIb6ol0fci70DGXp6O6jqa2Hgw1tHG2Ur1aa23rJ5iU2tuYdmC4lqThzJtdy9aIZrFk0lXGVSSzfwTR1BUHoijpu+ktHyjsbu/CnIY/hAr4xolNHEbgoIxABhIvytkSL+nhGQE8EhOleZ0fJzkHiVGBB+vfgSoLXm2GduNVuOHjiWRTg46rsF4CEEfhD8f8UMHB1VcCPYZ5NmPrYGkKYeglnk7VB3vU42tbJuq37eGPrPk40dTM0JOewMU0L1/AYU5pm2ZRqLp9bz5RJ1VRXFlNSkCQVN7CF3BgAALWHN4P0rBc1jGdGTDQIZ0CqFkJmlAt2XJfegQxdfUMcbTrDtn2N7D54muPN3QzmHRzhHfgWqViCMSVprlo4iZuumsOsSeUkLB/DkAkHPc8gp9crCMDS2fMGkxDBbYiqDB/PT110Vf/nEYgAwv957KJXRhH4LSMQlNZDDr7KhT6GL0ksGCmU8rvhq/K47wvZTgrrehJAEmgu7zE4mCWbzakkKgBB0p5tWiQTCdKJuCLvxW1UohZQofbpqlqhv1ePoHqg5gHUuTw8T3becOhEO4++vJG3dh6itTeHTwLD9TGdHJUlSWZOr2f1stksnF5LRUmKRNwiZhlI198WPHAWfQR7d/VHkKV/TcTCOodMI2iqo8RK2hEGQ3lo789xqOEMb75zgC27DtDS3UfWjeGZCVUZKE/D5dMquevGJSyaM5GCuIUhUxPqvBpcnQUAITB7L0MhQgi/5fs5evrHPQIRQPi43+Ho+i6iCOiSeqguoPK0Agio5Gr4eZCRQkmxVhzHMxjMerT1ZjnZ2kXj6XY6ugZoa++kp7uXTM7BI656+clYjPLSQqrLiqguSzOxtowJtRVUlKZJpWxipjQYQnCgd+nqIQDEkDFEyHlwvLmLR57ZwEsbdtHnxHCthBp5TBlZJlUVcOOqK7hq2RxqKosUEVE6HJKgZUpBji+VDlX5kJ8GHZFz6vy/ASCoUUjVGPAwZYpCVRMEtMRwMMm6Hm3dGXbsbeCplzax73gL/X6cjGcRt0ySXj+X1Vfwpc+sZtm8yRQlTT2JEUIDBQACqODr9sNIsDT8g4voLRMtJYrABYxABBAuYPCjU3/yIhDmzLAbEMwMaN2BIFtlHIuOvhwHjraweddhdh9upLVb9AVyirCnQIU817RxfUtpGsm4n+gIxNSXQ0FSSIOFzJg2ictmT2f+zLFUl6coSNiImoE8XyVgw1JTClnD4GBDBz/+xSus33GUwXwc7DSu51AQd1gyZxy3X3cFKy6bRLGQDSV320Jo9DQnQL73RDdBJg/k9yFQGEEC+A23W47k+AJ4ZCzSwJKLUj0Huc6gDSLEQ9Mkm/M53NDFU+u28dLmvZzJWkjMYhgKJEwbm+Deu67hmmWzSMeleqCrEVpISbgJurKhpjjPchKk9BHNO3zyPpHRFf+mCEQAIXp/RBH4iCOgN+86sUqqF+Ehx/fJeR7tXYPsOdTG+q1H2PnuEboGcww4euxPCHpC8FNNB18yp5Qewn2wEBcCYqPqtxv4rottGhQVpphcW8CKxdNZumA69WMLKbRN7GAQMOfD0ZYeHnhyHS+8tYdBvwDDTwjjgIKEz7LLJ3HHDZczr76KQssnJhoHvosf04wKXQnRQTQFHAS9f/zhhPse+sGvRFyAhivHlPaCGm1UKRxDjqEqCTJPKX8XKGGTy5uc7Ojj8de28fz6PZzukQUkMV2HlNHHvGlVfOXu67li5jjSdthaCQCC8BNC4qLEUb5kzbL2qIzwEX8aotNdzBGIAMLFfHeitX2sIhAy97WMsfT8fTzTJuMZnO4ZYM/RZl5+azs79zfTPWDjmpLmTfU8eW3MgpjpkbIhFbOI2zaeJ8DBxPFdco5DJp8n57rkXVftlGUTrlQLcSmMmUyfNJYbr5zLinkTmVBRrNoEJ9v7eOi5t/nla1sY8NM4nk3McakuiHPt8jncfsMC6icUk7R01SEYcNRZ/CzpMiBUnq3ZD4MHuQZhKPym5KuZEtJeEbaFBgb6NfqhKy+hEiMYrlQ+oKlzgOff3MVTr27nZHsO30zh+lkScYflCybzpU8vZcHUWpKWECc9Vd1wLWno6NVYCmjlVWUBw44AwsfqExddzO8agQgg/K4RjF4fReADRkC4AuH4gIgQSWLvz3mcaO3h1Xf288rmdznZ3kvOkbaBpcrfMcMnFTOoLElTU1GsdAbGVhRRUVJCYWFaaQpIJWIwk+VMTx9tXb20dvbR3N5DT3+O3oEsedfAs5O4nkvCdBlbaLNy3mRuWDWfunHVrHt7Lw8/v4HjnTm8WBpyOSoTsHrhND534xJmTq4gEZPJACFPmvi+rE1zDgK2Y5BYA+VFlcjDL3mOFP/Pl3w1/0C/bqR6wVlaZaDQoEUaDEfWAw4GrV1DPPnKdp58dTstvR4ZSfYWlBTALStm8Pkbl1JXXUzc0BUW39KjkvKQsUgDJwIIH/A9HD3tkxWBCCB8su53dLUXLALa30C1FrDJeyhw8O6xFl5ev4sNO49yuieLYyQxfIe4n6GsMM6kmgrmTKllZv146moqqCoroCBpIUZHliWJWidQ0U3Iui4DOZeu/iwnT3dx7EQLB480cvh4M20DLn2OhWlIa8GhJGmwYPoEZk2ZyJad+9h7oo1+P4UVs0mT5co54/niTctYOG0sKdvQXQNTExqlMiGVhLP7cJVtAxUHlXj1deoKg3zFdQL+jeX7kayMEBQMg4ORt024DuIPoWyjfBPPN2lsG+AXL2ziqTd30pm1yFsxfDfH1Jo0d9+0nBuWz6KqIKa4Db6pRZTkoSYmfCdoi5wPxFywN0904igCFyQCEUC4IGGPTvrJi4CP7+QQ5aCcZzPgwa5DLTz2/Ga2v3tMqxMSUy6FCTPD1HGFXLV0FgtmTmLauErKC+PETV8JD0m7QZK0aeqEFqbWUPVAvhcAMjCYp6Ojk117j7Bh5wl2Hmmlc8jHseLqVYUxKIwZ5HJ5+vKQNRLETJepNQV87a41rLxsPKVxPbqoyu9Kvlj4h7LjlmkDWUzglhhuyQN+hdqqnwUJ8lqtSfAbHyMLEvLEoIUx3GPQQEQRGpUQM1iuPn/ONzhw8gwPPL2elzftYciL45ui3uiwfN5E7r1lJYumjSGpcIqBG1yLCDrrIVI1i3H+NX7y3rjRFX+CIxABhE/wzY8u/aOMgK92tJLEB4mx+3gHjzz7Dhu2H2FgSMYDbQzPpawkzdIFk7l66RTmT6+htCChrI5lQkGIgWqKUBKc6pnrpKsIgjLZEGgiyA47oPgpMDE4lKXhdA+vbj7Aa1v3c7RtkKzs6l1fTT0I6VHK7nnfoLIQvvCpJdy1dgEVaZO4DBiq88SC8wnhL6urBIrUJxML7wEJIyFLOGb4QQHC2Vui2xXqPCOLC2rsUVoL2tbZEg6Ga+BbBgOuz/aDzXz3J09x8GQnGdJ4pkF1scFd1y3k82uvoKowhiWVED2UqQmfEttgwuG8IOajfMtE54oicIEjEAGEC3wDotN/UiIgZfG8Ssen+3L84PG3eP6td+kZsPEdk5ThUF1icu2qeXxqzeXU15aQjOl9rSqlD4son9VSOCeZjRj3V2AhMCrS0wW+MkZqOTPIui37+MXLWzjaMkTGTaoqhCRJy/LJulnWLJjAv7rnGqZPKBNjZ7WnVrLFQYK31LFzAUAIgIFaZdBmCASZQsWHYB5zWOb5t7rdYUkheNHZCkPAV1BrsfD9IEK+T28mx8PPbOShFzZxeiAGdhKbQRbNHsMf/95a5tVVkFLq1fI6zaUQgKCXH1UQfqvbEz35Yx+BCCB87G9xdIEXQwQUS9/36c96vLL5AH/3k2do67fxjBS261JV4HPdytncdsMVTKoppcBWBfxReoiegIPrm7T0DPHc+nd5/KXtNLZncfwEpnJjzFKYMvmje67h9hXTKYxLVUN28Xq3rQGCkPpk3y0tBkmqIfcg/HN4xSMnDvTQ5ehdzbl+ChocaBVlTwlL7zxymu889Crr957GjJVg+BnKC/J8/e413Hb1fErjwXpkUuJsSyTQWxiliEeHiSLwcYhABBA+DncxuoaLPgIhL2Df0TN898FneWtXA16sWE0GFMVdVl1Rz923LGfKxArStvAQRij9/c5X54Pn4okgEhZNnYM89fIOnnl1B619oi+QwMj3s2DmWP7jH99JXWWcuMACkWoOrJO1uJCuZsi4oOYXvJdTMPL7sC+gYMXo9/ZH8BXCM8nZPdelbcjhp89v4YFnNjOQSaj2S8zv55ar5/L1u69hUmWBtocQ/BMMlgSlmt850tEBogh8nCIQAYSP092MruWijYAksd6syy9f3Ms/PfgMGaucwaxD3MoyfUIhX/7calZdMY2UJaRAA8uQ8vdoPYT/4CrOQd6OkfV8jjR08JNH3+S1bccZdC2K4g6/f/NS/uDzV6lxQLFVVnoNyinKUsz/s+JC54w3yhp1tj535kCRJYILONfNcTSuSolABgvSZxcQpImNg77Bm3tO8g8PvsTRxgGcvE3MyLNwehV/eu+1XDFjrNJc0oaXWlHxvbYMo7HG6BhRBC71CEQA4VK/g9H6L4kIyODfwZO9/P2PXuDtnY0MGUWYpkdlYZ5br5nDZ29aTE2Z9Mt1X91SEwqj9JBsKhUEz1DiS7JbFtOnt7Yd5Ue/3Mj+hnamjq/gP3/zVubUVyjCnyGaDapSoPkMCiSoEUf9kJx67lCgrioMg5oQIASthdFDO/r8QdkgKARoR0qlM+GRNUyOtvfynQdfYf2WRnJuSrUfxhT6fOue1dy6ZjZJWyYXBCTYyixLPUazCzJKty46TBSBCxmBCCBcyOhH5/7YRkAEjKQ8r3wT1NSBwWtbj/PtHzxNU5fPkJsgFYcZ4xN85a4VrLp8MoVx8B3xM7AxRtMXIOjPS4vBE1MlU/MhTndmeey1PTzz2jssnT+NP/3c1VSWJPCV14KuCKgErICC2CcbatJBhhakICHqBlKqV1YJymhJpgECnwglkRwIHoUUhVG62wq2SGFDeSno04gLpKzTNDzyhkVzzxAPPLWRp1/bTc9QQrU5iuwMX7x5MV/+zFJKkhpMiCqE4clEiBFMMozSIqPDRBH4GEQgAggfg5sYXcLFF4GRAEFWl3F8Hnl5B9996BX6nBQ5L0465nLVglq+dfdqpo8rVtUD1zUwRQBJNclH6aEAgtJcVgDBEB0D31cuiHuOdfH861uZN20iNy6dTlqmHy1dvdB5XbcaBFCI8mNeaQ7A0FCOlGmSTMgUhBxajwsqYqMymQgnHILrGEWQcJY2oJwwZV3DlQ2hVAqFsnPQ4anXd/DTZzZxqlMUIG2KYnnWXFHPn9+3ljElcSWQJNURkY5WctABEXOUoh4dJorAJR+BCCBc8rcwuoCLMQIqoQZ1cKkgdPUOcf8TG/npc1vImgVqJ16S8Ln9qtl89TMrqCnW4kVqut/Uu9lRgwgjpgV9NZkg3gOy37fpGYLG052UFiQZV54mZml/iHMAgueq3bmYReUMkzODeXbtPsS40mJmTB2vKgiWAgiimRBaPYciSuoHw1+jcLP03t9XqohKNimYtNAOjZ6qJvTnPV7ZtJ/7H3+Lwy1DqqpQYLssnVnLv//D2xgv16qIljKVIa/UqpTRI4pAFIHhCEQAIXo3RBH4ECIQAgT50zRN2s708b1HNvD4G/sYMmL4pkdFgcE9axfzhbWLKC8Qm2RwpS0hBfFRnWIIFI9VOV523GKK5CuJYk/UDlyZTNBmiaalGwvnEBJd2ZPLLtwiZ1g0dQ/x04ee5rLJE7jh2mVIR0IStWk6ylxSOTB6IwDCCJmE0Qi1FnIWe2upAMhgo1g4S/1FRkOlggFDeZc3th3hn37xJu829ZIzLeJGjkVTa/mPf3gb48rSJG2TmMhESpskcMAcjfVFx4gi8HGJQAQQPi53MrqODykCI4fofv0pdEIdHu1TYoa+L4MDKgG1nennHx/eyDMbDzMg/ATLpSLt8eWbV/L5666gTNR7DB9HUIKaYvgAY45BhUJ1/dX/JTmGKwl+FlT8hwcPJNFLeg37+JJWtRqj7MTD1kZ4JUpp0HXU70ULIWfaNPfk+NFPHmd+/XhuXruSmBQcfKkeuEoK+v0Awlm7hrNxCmcP3k+CWeDLCLpjwIcIhaGkTSJXYCmAoGoJYmsVAAT9rJzjsnFXA//w8JvsauzCsYRtkGNiSYLbV11ObUmKuvFjmTChkgJRq4wZeu1nBzJHrkBTNX/d4+x9V0HTcQ8B1of0powOG0XgI4lABBA+kjBHJ7n0IjBcl9eqgMOJTIvr6IfeiWu2XKh4KFUDxxM5YIv+nEtb9xDvHm3h0Re3suNYKzmlH+BQlYIvrl3CPTcsobIwrsvj4pYoEwJKvOg8D2HtiwCSEVOSwjJ5YPt5lehdw8YVlCLOh7LFPzvWpxWTZd9tKsMloU/qMr0jhD0BJ/rChs2WwqY/PnnT4nR3nvt/8kvmTpvAp9euICFiAiIDLVUPWUeQ0LXCoc66Ye7UkfQw3axqW7hmnJwvttWi9qg5DHHbJOuiYhhTmhA+cS+nlQ7VsVwNZkISpYq8jGHKhQk51CSbc1i/4wjf+cUm9p/uU/ZRcq0J36E8aVJgG5SXFlFdXcbEcWOZVl9L/cQKKstTpGK2OqchjIsAsKnWj+JVGKqNEsIb5WoprY5gZFKCqzgRQVXivPfwfPc4+n0UgQsYgQggXMDgR6e+mCMQOhGGVgCh34Bes/6HX/rdHo4nJkpi0eximgaub9A75HKwsZ139h5nz+EmTrR009I1xJAXU8DB8POUxh0+vXwG37hrter/a35fUPIOWve/MUJi9ex5OC54lklnf57TXUNUlxdQWhijoy/HwWMtLJhWQ0WhjPMFiUyZFemOu7D+BRpIflMAIaDsqZxvSCKWc2jhZpl+yHk+7X3w8ydeZUpdNdetuJykHEPxEnVy1EBJIIjEztYTEaoCYeCEE4W+Q0dvlh0NHbRmY3R2D5Lta2Pa2AKWLJjFrsMtnDrdxvIFU6mvLqaIvCIaagfHwH1RAa2R/QsDx5EqhsVQJscrm97lHx9/h2NtQ2pFtlqkp4WefB9b+iFoQFJelGT82BLmzapj4dzJzKiroiiJ4mRowKOvTZEZQwfNoHYhQEsLLslNC8ZBg2pENDl5MX/Go7WdLwIRQDhfhKLffwIjEGj9a2NjDQeC3eNwF0HbGYfsfunnS0rMuz5HT/bx9o79vLX1XQ41tdGfh7xvY3opLKuAnCPHzZFmgKvmj+Nbv3cD0yeUY1ngBG0D+4NwEHyfXD6nUlYGm5febeX7L77L2kX13Hp5La9uPcpjGw/y5Rvm8ZllU4gr1r6AAakZSNXBVjt2WXmY0GWfrWoIgeiQAARXtsOell52DJNBz6K1q49UPEZ1YYqEVCCC6odUEZQCYwAQtJmTqxKoVEfk9RInYTXsONrGf/r+85zyyhhyXCrsAW5dNI5br1nKI6/s5MiR43zjc9eydOoYik1ZuXZilIaCNlkKoZqpKhCaFGoqkNbbM8DTr2ziJy/u4FSXBhSmaeGoLkzQmLBjquqRz+fxnSESlkM6bjB+TBmrr1zA8stnMn1iGUnTw/QcYqqAYeCHICDUVwpFm4KxTgES8nYZxcGNT+BnMLrkiyECEUC4GO5CtIaLLAIhQAhsgH1JciOLxUH7QQCCJDuRMHZMOvqybNpxnF88u4FDTe3kzJgi9rmSMH1I5nxSVgI7nqCkJEV5oc+S2eO45dqF1NUUY9vaxlkz6s+xYnrf+Pi+iB85DBpxtjV28g+/fIcut4A/uXEWa6cXsP3UIP/psb3khwb5m/uu5oratAIJumJg45q22hXr4ry2cNayyOcCBFW6V6OSLq5pcWbQZ9f+k1SVFjCzroqUJVUGESYwVRVhZAVBySmpCkIgsaRGCT0cJ0/bgM+21gGe232KbbsO89XPr2H1zDL6Wnv43pMbFC/gW3deRX15IYnA4NmVRK9WeK4okwAE/ZBxRRgcHOKdHQfYuOs4nQMurq8Np2TctHdgiO7+Qbp6BhjKh4BJWkUeruPiew7pmEX9+EpuXHU5a5fPoKYkoUiOSp7CEGdLAQr6fFqNMaxmKPWl4OZFDYaL7IMdLee3jEAEEH7LgEVP/yREQIv+SKdemQz5kuTCRnqQAIICumtAX97nSGMnz63byVtb99F8JodrJXCVSJJLIu4rEaS68kJmTJ7AmNpx1E0YS1V5guqSOFWFCZK2ysCqt66snz/A0J0AhIzrcTzjc/8L+3hry35uXD6De1bNoCrhMxRP8t2XDvHIundZNaeOb9w0j9nVCdLKU1ImJqQcrqwNg6Su762qmoysICizQxPL9Mn70NyV5/4HnmT61HHcvnYFBZYmRyr+hCkES3m+bjFogCCtDXVAdT6Jbt732d3Uy8PvHOftZo+jp3pYOG0Ma6amGVeW4mev7uKKWXV8afU0JiQtEuT1dIWsOZhWODf9alEqXUWQe+UzMJhlMOMELAvhBRjkHBhy8nR0ZzjR1M6xE00cOd7IyfZOejMuOc/G8WzlW2F7LtVFJtcvn8WnrprPnEkVpGJSidDvAdUOCrgJipipHoHBgyIlhFoQn4TPTHSNH8cIRADh43hXo2v6HSMQAgTZpcrIXlBBCDapMiooVXf5tnswx7bDLTzx4iY27ThI1ovjksTzXRKWy9jSJDMnV3H57DrmzailbnwV8UQSKyAh2jKg50vC1oqLkgA/aAVB6hfdGY9Htxzle49tYNHsOj5/7WWcOtVOX85j2YJ6Ncb3z09s49UNO/m9W1dxzzUzGZcylYaAnMszFSXxHKkClXiVsJI8R3gWGjBIYsy6Lq298KOfPsmsaRO4ec0y0rbezct/3wsQznIQzhIKtdqDtFJ2NHTxnWd38uYpg568yfSaIpbXxalM27y+9xR3XD+bJeMKmVpaQKmalPDxTYmYTCToeI18iDiVupZQwVJdhxsQLvV0iMhNi5S0TJcIdySTdTjV0sXOQw1s23eCfcdaaOtxGHBiwnckYbgU2xkunzWO265fwqLZEykviAdOlwEYEcKkUo6UU2g2h2YtyqIjFsLv+GGMXn4BIxABhAsY/OjUF2sERnAQ1D/8AhDC/aGPVA2kID+QcVm/7TCPrdvJ7oONZB1f5SPREyhOWsyur2HlwuksnjORCWNLSCVNRcSXAb1gn36Wfx/20/VeXk8wnK9ALTm8N+fx0Gs7OHT8NDeuuZx+x+THz+4imU5x780LmDWmkPb2Hh56fiPT68dzx8pZjEnLxIOPb8WCaQA9gRGOSKrE+ysAQdj7nqogtPa6fP8nTzB7+gRuue5KEriqaiDlf2ErjqwgCEBQtQPpQKgQyneuKuV3uiZvnujjv/98h7KhvmbZbFbNLufQu/s4eHqA5ZdNpqfxCHeuWcb88UUa1IiIkyEA4X3MJMMdfPjnCD+J4WiGxlHBcKIuNtCf82hs7WXL3gY27jzKzsOtdA9o8mbcdEnaDjMtem6VAAAgAElEQVTra7j1miu4+vIplBcnVJtDkR5N0bAIAIJ6RX4EQNAALHpEEbgUIxABhEvxrkVr/pAjEJT7Ve98RPVAkqCU2THoHsixbU8jjz7/DtuPtjLoyqBdXo3v1VUXsfSyqVy7/DLmTBpDcUrY97IFNxQpTpHYRu7aR4xNqt72B2gvSACknJ51PNoGs3R3D+Al0vzwtYMqud22cjqVaYP+gSxrFtQpHkJ1SQEVaRNbVQakvRDTio0i5iSTAeE4p1QVRrQYpIIQcvdFg7GlO8+TL2xg0vhKrlk+X405qpaFLMo0fwUgqGsNfROC5J1zXVqyLj98/Qjfe+kwGT/GjAllzKgtoKe7izFVRcybXMWzT73ODSsX8bVrp5NWZQoXU8iFIYT6FRQ1wk4qdHQ6B2qNDHYI+vQEgnBJRKL5yKlOXt6wnze37qflTK+Kk4yyJmIWs+qq+MzahaxaNIWygjgxX8DRyFZCIGWtAhiLKggf8ic1OvyHG4EIIHy48Y2OfslGQHaHkjikxRBmc5+84dPn+Gzbd4pHn9zM9gOn6fNtXD+P5fYyoTLJ7dct5urFs5lcU04q0CdQUglKJ2DEjvI3lQjOVz5QCMEj7+TVBEOvA89sOcmD6/azeFYNn7tyMpv2NPDk5qN8esVsfv/qqZSZOb3rVVyBuKpkSEffkCkDX9K7HtNTQgmBDkLYYtAQQXwOfPpyJg0tPRSnY9SWFQbTEVJoEb2FXyUpKjVJLXAY9O11BeadI6f4rz99i2Z7PJ09A9xy9Swyne00tXZy85VTmFtfxf2Pb8HJ5fm7P1hDddoSaqXercs6A1Gic99ioWiDBgKhkLKWkQrIpe99T6opBA3ZRAI7h8HJtj7WbXqXl9/awbFTXeT9hJr6iBkO82eM5Qu3rmD53AkUxw0MGa20tA+nbi3ItEjUYrhkP/rRws9GIAII0ZshisD7RSDMJepPvf0VeeRBDw42tfHIM5t5651GugZjeJZoIPQxsTrOZz+1lBuunElVUYK4EifSUwm6bSBaAsFGPTznrwMCHwAgyK4263v0uT7P7W7mwXVHwbb5zPJ6ptakOdCR5UfP7SGWG+Avbr2MmxZMxDZ8LNW7t4JpgBAcSPKW8r0m3qmEabjK3EkEjzRL31VthJ6MwTu7j1JVUcisiWNJmSLEIOV/C8Oy3jPmKGDDUy0N/dDsf5kYONDUxY9e3YE3djJvvH2Qu29dxb5DDew90cHNSycxvqKIJ985xfHGVv7h3itYNLWSZGgzrdb5XrGIc25aIGM13KzRKxgOrK57aBih1idOlYGcgbRSzvQN8eY7B3j0uY0ca+oh4yfxLZN00lXTJ1//7GrmTq4m5ntaByO4Nk1uFUZGxEGI/nG5tCMQAYRL+/5Fq/+QIqDsg2X2XyV2EQxylOFPa1+eJ9dt4/HnN9HWZeL6BbjuENUlJl/5/Bquu3I6YwotbCPYkUuLIhDz0cJE7wEIv279HwAgyJTEEHCyP8e//d5LvH1igMKiQsYXCg/Cp48kJ9r6MXJDLKpy+S/fuJVJ1cUkfV+BFwELokoQthbEz0DZHquWgFAgRdlR8JEk+WBSwTQ53ZXnRw89w6zp47lpzRJShoAMIRmMqCD4wRRDWI1QkwzhRYm2Qp5+z+ZIV4b1Bxt55Nmt3H3XzWzYtpPth1sYW2BRnEzR7hVzqqWVP7luKvfdtIi0YZK0xKvi/SYJQxDy/pWCYYCg13FWPll3lNSuX61awIcSvPLp7M3w6sZ9PPLcRo62DJI3k+DnKbQHuedTK/jiLSupKIgTt/UEhQYJmuAZukR+SG/R6LBRBD70CEQA4UMPcXSCSy0CKl+Ij4LnE1Pqexk8cgx4KTYfaOMHj6xj7+GT5PJxbN+mMOFx3YrZfO3uNdSWx4gbwlLQRkiB00EgC/xBhhc/eLREnCiPR+uQx3ee2Mb2hi5IFikBo4KERUFBAamCAk6ePEXr4V385X03s3LuRIrwSBqOGsFUyn8BMVITJwNPQxlLFJEkgUeBcYMtXgy+SXNXjh88+ASzZ9Rym4w5KhUkUZQE07aUYqFuWWh/By1TDGaQhCUbu7hkTJtu1+DlTft4Yd1O7rnzegx/iDM5h+LCFEk7RlfW5pln32BGZRHfunMVZSnhTWig9d4phnMj96tcg+HfhwAhLCAEktSy75dJBwU+dOsl7/i0dGX55Wvb+fmLW+gYkHFKg7g/yMxxldx3142sWTyRtC2RknOawdCLBghatSF6RBG4NCMQAYRL875Fq/4QIxDuP11f9tQGvptRgwzNvT4/eGQDT7++jSFh62Fje3DF7Al84/evZ96UMpV4RfNfSvhSste7VO2PqIvdo5gwvDzk+vGsNL0kyEh6ssHyPOKBN4SkqdbuAc4M+YyrLqLERvkRSC9dEq0STDoLEPSuXI/5hwAhmKpQPAJfAYSWnjz3/+wpZk2v5fbrliuSovhAiA6CJG2VvN8DENSm+myvXwSe8ri2xZDwJzI+nf0OtWUJUpZPLqBwSisk70E2j1p3SgiKUtkQ3QVTfCNGKZaqOiLjkEIgNXFDmWQxqTJ8sq7FwdPdfO/nr7Nh5wkyjoXlZUnjsHzODP71tz7FuLK4JmcGwljSjhJwEAGED/GDGh36Q49ABBA+9BBHJ7jUIqABgnYMNKW87nrkDYOtB1r4n//8NMdaehVZT9JTbXkRn71pOTevnk1p2lJz80LIk0ShRIHUVIKWHta781Ece5OZSieHZ8ZwTCFKgiUGTH5eSQPrfoaNY1jkLWmH+CSUf0BemTwpQoQlug1SRdAPrVIYJHhDSu4iYxxK/sj3Fic7h3jg4WeZNnUcn75mKYUi8qQAgqWImEpq+b0AIZxkCJOxWE6b4nYp67IVt0GzNLSRlHTvLVcqDSI/7WK6oisRcCQUgpHRwg/Qh/lAb74QIEjFQxQXDXUPVYyUqJNFV9bhla0H+elTmznaPIDnuSR9h5rCBH907818amW9ZhwoLQt57wiZUvgYowRiPtB1RE+KIjC6EYgAwujGMzraxyACktA1PBCAIKp60Nnn8LOn3+GBpzcowyUMhxhZ1q5cwH13rqK+poiY9J3DXntYuhdCnmK2S6rVVkij9VCqgVLdDzUfhVMgVtJSWZA0Kz1/K67MoUxTOACONmwytb2zcAZUQhxR1dAVBO3WIA8FEAR4BIAo6xiK93C8uZuiAptxIoMsCVxGQOV84ZijOoGoDeqjnVUfVkhEvBtEK0CbJnmujAYKbLG1P4TIKYgrowAgJaAQrMoXmCWnMIgJV2K08IHSgFBOD2erPrI0xcPI5/BjMTXZcKKjjwee2cJzbx2iP+Pg5/Mk/RyfWjGXP7v3emrKxJHTV0Mg6tqU6FUEEEbr/R4d56OPQAQQPvqYR2e86CMQAARJpoZN3jM4fLKXv7v/RTbvP6XIiiZZaspi3Hvn1Xx61RxKklKvlwQsZXq1/x1m7JtamXHUAYJMDshOXfr8igCo2wA6uQtpzsC1dAvB9nPYhiRB3ezQNsy6pC6PsCuvh/30s7Qxc9AYCeSSHc9UUxMHT5ympCjNxOoykqFltPQ3lMnU8FjjcBbX6g6hNIHn5zVY0WlZAwUlTx2KRGkXRV3WMHHlWuX1lgYbscBOeXTeSno0UdeNgskD1WHx8N2cUr4SENXnwEtbTvDPj23kRHOXqsXE/Bwzawr5y6/exOJZ48QCC0PAWFDliJQUR+cORUe5MBGIAMKFiXt01os6Ahog6EqCScY1eOXtJv6/nzxPU3dOWSUnjCEWzhjDN794jfIQkOqB3svLSKCIKwWVAqkgKICgbZhGsyfty65XWR9rLoFueuiEOzwvoFO9hZg0yTWFtQDZgQf0fZWgg1cKjyBM2lolQaYUtZiS2D9j0dw1wE8eeYppUydz05plaopBuzkKQJCyeiAHEDogK8Ah9ZhgjDD0YVRgJgAI4ZpDL4Wz5YFwTFHfEUEHIZUyoFOOwjtJAwStkxAABDWIoCs/WnJa3CQN9jb18/c/e5ONO4+T92OqXVMRd/jDz13LbWvmURSXEAQS3dq0YRTWFx0iisCFiUAEEC5M3KOzXtQRkN23TvjSG+/PwQ9+vo2Hn99EP3E1w18SzytjpHtvX8bkMYVKhjhMzQIQhs17pMUgpWudDMP0OzqXLwlbjxMKnXKkv6GiFgbXEOo26nK/rgpoNoTwIkIXR53NFY8gIFbqxsIIgKDOZdDWM8TDT75A/eSJXLdykZJaVrtv5Q4p3ACdFkfyGlRbIYBQIV1TVS6CkoWuOsi4pICewJRJEmxQUdBGB0IklMpCKOg0Wsk3AAIBlFL1E7X4kK6q761wE073Ovz4yS08+dpuOjN6MLLIyHDHivl89bMrqS1PBO+FQBRrtJY4Om+Y6ChRBH6rCEQA4bcKV/TkT0YERANBs/gdw+TMoMd//n+f5q2dDWRicWTnPr7I5vdvXsLt18yjsjA2IpUEssQiT3x2V65BQjghMHoxDBJzUOkIc5rOSQIDgoSruABxPCMW+DiGZERpiUgFQpK3gAcNCIZbDIFaoWrRC+lOJ8qMb3L4ZCsF6SQTqkqxhfOghKRiSixJHqEe1FkRyhHwQDcwQpvkEZrTskcPOBzaJjuwdg7iKFwOLQstrwmFEEYjmiEQGB6NDH9yLtQxlGfDU+v28qPHNtLQ6+CZBikvw/KpNfzFV29i5sTiQFhLEzajAsJo3J/oGBcqAhFAuFCRj857UUdAVxBccVfgVI/DX/71g+w52UvGMpTA0NTKQr5x50rWLp1GYVyY72EXWydYO0hkqu8elNrlF6NJWdMtEJ3Uwo2q2pGHPx/JRzBkUkAbJ+kELtMOSuVAP9uwVRNCHlJZ0MVxSxMdFUCQsUghE/rkrRgZT5MEE76PbQgpUnb9thp1DNczMu1qSBCAFrXEoA2jBQxVhUUJDIl6hK+Nn2R18ncrQFeOcC5l7cNEiVF+Dw3XOHSDaZiDoUGTQd71ePOdI/zjz15jf3uGnAAEP8+c6iL+8qu3smhOtRp3VPoXYSlllFcZHS6KwEcVgQggfFSRjs5zaUVAqeLJ3L/PsZYh/uK//ZCDbVnytk3SNphVW87X71zFmsvrSNmmcngMNQn1cKFMNAih7lyAoJKnStxh31+7C47cu+rfBulJset18tW7fJ3+VZJXiWiYP6BUFoKEq1O2ABUhWgoRwsMxpWMuFEqRW5b1Scleji28CRnl1KRFBSO0eYSWipZhCVcbOhkymmhpVr+cQWSGTS+nnu6a0oDXXgzh9cizQncEmZdQKxDw5YuRkfT7tZS18DRcdUG+sr9WqVo4Db6ABC1d7BiiShGwOEL+hLq+oPoRoKSQ13CuJdZ53n5nyy8aJOgGU0joHJ5F8DyfrXtO8p2frWP3yS6GPF9NcUwuTfPnX/4Uq66YSMKW14mqZFRAuLQ+9NFq3xuBCCBE74koAu8XgWD7K4liX0M3//7bD3JApHaxidkGcyZV87U7r+Lqy8ZTEA/Jd8MHUulzOOtr/4Fw96766EHaVP30QC9BkqzjqEQu8gu2nyfmDyqynGMX6gqAK11vrQYsDQNLTSZAzrMxTBvLzaud+IAVw3RzFLpZMNMY+TzZRJIBDArViKYGMHnRITAN4rl+iCVwraQCMFkZM7SFpS8EROFkWMTUJIHkdpEh1twEWYNoHsiac4alfB7iSlXRA0u/RiYTFOCRCoDhYHp5fOK40pIQQODl8WRSwbLVmKaIEEmLxxFZYxnRlBgYWbJGCpukFksSTwnRc3DkWDa+ndD6y2eFrcMUP9Jp8Te81UfcK036lEd4xxSK0ZoIns+WA83800Nvs/1IE47rYXsmE6qK+dMvX881iyYqGWuBQnK9o1kxij6oUQQ+6ghEAOGjjnh0vksiAoqkJhoDvgCELv7t3z7IofYMLjFiNsytr+brd63iqrnjSdnvNQ361UsMi9cqgYUAISARajkDGVU0FVO+oXOI1kGHKbVFlBgZJRCU90U5UBMP5TkifyzJNafMl0ylONg/4FCctBSAaezLUxz3qY27DLlJSaWqqq8qC760BjQ7IKsMj3SFocg2ids23TkHSbtS0hdFRgEMAggSgYiRTHEIACq2TQUAPDdHv2fS0DGoqimTKtJKcjmLqYSZhLMhVQvHsxkSEOT5qiWTU1bTUBgoJ4q8tXQobMMg5jrELBvDtsng0O24HDg9xNSyAmoLlCelEomKGT6O42PGEmBr/sPICoKys/4gRID3AIThOxiCBA3osp7H1kNt/NPDm9h24ITSbzBcg9qKQv7499ewdulkNdEi99JSolERS/GS+MBHi3zfCEQAIXpjRBF4nwjIBlhV7z04cKqff/2/HuBwywCuFSdmesypK+cbd67iqvkTScXEIvl8YdRmPpqNr1sFcnBJirIrbR9wac+4tA15/OzpTRxrauNr993GpFJJwlKCN1SyLiuM8e6xDvYcbVUKiVnLx3I8JoypZN+e/cyaXMPkSTU8+tLbzJhQxW0r5vLy1mY2H22iOO5h5lyGzBISfkaN4+VNyBpxBp0En1lQy+Wzqnj4le2caO3GMeJMrq3CjtkcP9VKQnb2psWAY1KS8PnajQuYMKaM0z0Znnj7EI+v38ekuvGsmVNDQcIgZ5jEfY/KeILLJ42hp7+PZzYcoLGjF9eIMWim6PNsUhYkpXHvinG1z7yJldy6eDLjisQp06RxMM/P3trHy2/t5es3LODmhZNUtSFumhRatuYoaHOGQFgpHDmVWMu9+QDiVL8WIIRMCg0UFEA42M53H97ItoMNenIj5zGpupA/+tJqblgyRVVnlM2XuFue720R/T6KwEUcgQggXMQ3J1rahYvAWYDgQ0NXln/9P3/G7hNdahJAyuTTaor4+h0ruH7xNNJJkQA+31pDtT7ZPavCvHqBpJL+vMdzmw7w4o4GmnJpGpu7SFgeEybWUOj1E/PyWJZBSdzgyium0twHP3txJ6W1tfT09zDQcYZ77lzLvv0NCnyUl6bZvvcwNyyZxs2LJ/PDp/by/PZDLJlbT0XMoI8SBrM5ipJ5sm6GtmyMfcfO8EdXT2HtlfX89Y9e4sygjxEvpqKwQI3y9eUy1NcWKV7AngPtGP2n+fs/vQE7meSZbU08sfkErfkUYyrSVHkd6upa+jyG+gdYMr6Uf/vFq5Ql9iOv7aKho590qoCOTAHvHO2kRGyjJxeDtEeGPJbVlXH38kmUFdq0ZfI8tfkwT72xi7mzpvO162dTZjq8seMYpUVFLJlVR2Uipg2iApljTJnMEP0CAQzCW/gtAMKv3MfheQZpk2Rc2Lj7JN99aD17T7ZqOmfeZ8b4Uv78vutYddk4Yoq/IeuJdBDO96mIfn9xRyACCBf3/YlWd4EiIGQ0LfDn05F1+XfffpIN7zYqLwIh900oS/DlW5Zz61VzKS6IKfni8CGv+VWfADmYKvSr3bOW0tEuiIOOx6YDTbz87mle3tepyvxLZo/jZHs/pbbDpMo4ccOlNGZw2ZRahuIp/u6Rtxl/2Sya2zo5c7qLW25YxMtvNao5/aGhPlJxg4W1SX7v+rn88vXDbDnQyNJFc5hTX0Ff1mPHoQ4Wza5iqK+XfS0u2/ce474rJ7Fi6XT+5sF1pEor8K0i8v05XGeQ2roqZtfFaWxqZ/eBftLOAH917wrW7WjkhT0t9FKowMPCKeXMn5DieFMfb+47TSxh8Zllldy9tA4v7/LUtmaOtPWweskk+t0k377/RaZNnsgf3j6f013dbN/VwJXjylg5Zzz7u/p4ZPtJlZAvnzKWG5dNpb40TnNbH//y0rv09OW5c80sblhQQ01BTKkrqhaDcCZkKkJiLL4K50dvv/ZdFlZ95H5KDUHGHF/ceID7H9nAia4BNQYb81wWTavhz79yPfPqSpUfhuKgyMhn5MVwgT7B0WlHIwIRQBiNKEbH+NhFQEr/ioBgQHfO429/sp6n3thOxjEUEa88BXdcfRn33LyEsRUFQRvfwzTF3MjDst67a5WdqAYIImqkkpfQDT1HOSR25C1ePdDOPz+3i0Vz6rhtxWR++PgWxpcl+eKnF5K0TVK+T4Fl8G5zJ//tX15noKiW7p5eyqwh/uLe6zh+oouNe47T0d3HlQtnMKUiybQJ5Xzv6YO8e7iR6poqPMtSXIRDR1uYPrEat7+XwopKDhxv5Z7VM1iyuI7//uN1nOn3Ma00Y0sKsY0MY2vLmFhucuJYE1k3xbz6Gm5ZVMuWAy2cPDNIX97njR0N9HsxKitKaGnpwPIdblo8gavmVDK3PEFBKsXTO0/z6LrdLJ43jmlz5/Dtf3mWmVPquPf6eTz52laaWnr58tVzuGJKDT94eSs/39EMsQKunlFFgeWoUcwB3+ZwR46mU51ML7P46jUzWDt/IqUpOzCKCrwo1Kih/QH9L0bOXei3syZn6i+5r/KM9v4sD7+wlcee38XpgYziPSR9lxuXzOCbX1xNXWUqkLsWPkUEED52/zB8wi4oAgifsBseXe4Hi4ACCAof+Ay68OjrR/j+z1+kvUd69zHihsPSWeP5oy+uYXZ9lSLWOY5zFhhIQjn3IelFVAIDDoLyTtBTAQIQjvfm+Odnd/LS3naWLZ6nEs3PX9pFZRpuu2omKcNhXHGceZOqaOru528efIuyGbNoPtNPpvU0f3jnVbR29PPWgTbaugdZNX8idQUuk8ZV8dN1J2g4fJQbblzIQy/vJZGOM62mlOMNnRhDOW65bhZPv3mAGxdP5KplU/nbn7xG1kjgx4pImjL06NI9OEh1sVQ+LIa8FGVxj88uGc+Bpk72Hz+N7zq09mbUtMW48WPp7OokM9BLVcyn2Pa5aloZ1185mxYnxi9f303bqVbmXHElP3x6M9On1XLNZdW88uKrLF28gNuWzqA0ZvHLDfvY3JollkhTl3axXAfPjuPFbbKmSc+QT8ehI6yeXMbnVs+nrCStjLEMcYrEUcRPGxvrvC2G4TbC8D0zUFWks5qQuoJwsLmLf/7Fm2zY1kCvI+fwKIn5fOWWlXz+pisok2qScr/U91kbTUWPKAKXZgQigHBp3rdo1R9iBFS6CIyCpJ0gYknvHO7k7374DAdOtJLzY5iWwaSqQr7xuau5dnE96VggjDNiXee2GbR889l0EUwwiMlSxrc42N7HD5/dyqYj3SQKijDsGAfbc6S9AWaMSRJ3h5hfX8Vd18xn0MnzNz9+hb50Ne2DDoV+nlWzJ7Pr4EkODBbSO5RhaplPnXGGT1+/ktf2dtJ4cD9/8kef5n//bBPxdILbV8zk+bcOY+bh7msn8f2ntnLzkkksv2I6/+PHr2IXleKYaXxHj1WeGchRFINJk0o51pqh+eBB/u8vLKE5Y3C0c5Ci0kJ6+rI0HGtl7crZVFfHaO8douNMBis7wMLKOFUFKQ6dyXK0I0vnmR78gnJeeOcEtWNKWDqliIG2ZqbXj2VCeSGzJ1bSmcvz/M4W2vqyFJtZYspC21JjkjLRMWQmKbMcbplbzeUTikjE42rcUs2UqkqNhWIgnHeSYOSMiWpSqC9XRj2VN4WWXs7mHV7ffYzvPbaeIw295ITnQJ660iT/5t6bWbVosvg64XsWarBFzhvNOX6In9To0B92BCKA8GFHODr+JRcBDRDkP65KRi5xmvry/PixjTz18tsM+gklCpSyPO5YPYev3LqEcZWF59gPq/G69ySm0JxQ+w1o90DZ5WY8m5N9WQ619dE+5OB4umrx/WcPMa7U5rbV9YiYc0VBghljiujs6eN/PfgGVXNn09CRIXu6mb/8wkoaW3r5l/WtnGxu5u6rJrJ2RgVVZRX84zP7OdbYyA03L+WBX+6guLiQBVOq2HKwDdNzuPv66Tz8yn7uWFDD6lVz+Q//tI6OAS0jPGlsuZYAMJMMtDWxdMl0Dja04fU089f3XcOzm/ay/nA7Q8lKWrIpOtq7mF2WoyIxgGsX0OOmqC2I8ftXX0bz8SZe2NJIR94mi8NALMmJ7jxFlkldoUnMGcCyHGrLC7jj6jkUlBTwnce305qzqCjWSTtOnJjjkM/kOdWXZ9mcGr55fT0zS3xFVJT2jRps9LS41Pvdh199Q8oFjpS50lldVCR1i0E0H3w6unv56YubeXjdPvr6RW8yR8zOs2J2Hf/uvpuoq0kpV03fi6mKUuTVdMl99KMFvycCEUCI3hJRBN6nGaBShpvD9qVcHWcAi3VbGvn7+3+ppJfzVgrDcJlTm+Kbdyxn1RXTidkmtqUrCYpRHxz37N9CtT4FEFy1GxbJosbOQZ54cy8HTveSMdMKIGTMOBuP9lKe9Jgzvlj11sW4eeqYNGPHVvDwy3uomTedE619dB46xJ/dsZh4Ks0PXjqC4+ZYNjHFfdfPo6iogP/xyC7e3t9IWXU1uDZxw+NUyxlSVRU42V6m1dew51A7f3BlHYvmjeNvfrqemrpa+rNDuJk8rgPVNbUw0MnBwyc409/Pl+5Yyr2L69hxsIE9TT0c7kvz6t4upSJ452UJxiYydPtpnt3eRaE/yF/ddy2l1hBN7X1kRczZinOw3eGhF3YytqqQz1w9g5q0yCpnKIlDXWUBbYMO/+1fXmPivPncdc0UCg1IBbLL+5q7eeCF3dSPLeePPzWH+qIElvLaVoLIamcvAEFGHId1EEfcaFGiOvtQ1o2B/qMGImEdwXGlZWGSyzts33OI7z/xBptPDOG7KXw/Q1HK4xt3Xc89188jGcsFehZx1dSQyc3fgR8ZfS6jCFzwCEQA4YLfgmgBF1sEwoKz5zva8VDUBo0YJ88M8O37X+LNnUfpF6lgC4pMhxsXzuQrn1vFhLFFxEz5cWh+FBofSWtBKgYyeqdGI/QOFZEstmnq7OP5N3ao9kXeTOBbMfpIs7Exr/QKltSlSXmDSvegasxY+jIe63cdpd0vIhNLU5jt4PM3XklDQwM4GeZMH8c77+xm8ZyJrNudlgUAACAASURBVFlxGd99+jCvbD7AlPIY37htIcdPdfLq5sOsvn4RRjzJ6T6PDW/v5b7l45kyeQzffmw7q65ayKnWNs505XHyLnV1VcRNl5de3oZv29z3mWX83pJKXNfgaGsfv1zfwNaDLVy/Yip3La2hOGFyYhD++kd7SPSf4H//8e1MLo8pTofIKovk85bGLP/u759l1vQ6/sMXFzKhUEtUi/iSCD9tb+nmrx98lbIJM7lh2UxF0oybIn/tcax9kOde38PcccX82c2XMaUsqZKxiFCZZNTEiG8mAsAQvMNU6yFs8kgvQH6uVR6FWCqWzpLVFfNAZKjFhErpNVo0nRngwSfX88zG3ZzJxbDcBEkny+XTa/g3f3gLs8cXKEttOZ60NuQ+6+ZExEG42D7f0Xo+eAQigPDBYxU98xMSgRAguIGJsvgbyD/6A47Hi28f4f5HX+V4Wx954iohVcYtvnDzKr5w63wK455KYjJ7H87By9hdaOWk+xCa/Cal67xnKB8H4TmInbAX5K22wRzf/H9eYVJtCX/15eVU2ZoLIB4Iew6dpqljCHvMeJ7a2cyRXTuZVl/HscOH+Oqti1k8r55fvLSNtzdt50tfuIFXd7Ry8Pgp/uq+65lfJUqJHqf6fTr6MmzYfpijXQ6NJ1v4V3csxPVcvv/8Hurqp3Li+AkmTJxAPu/Q2trKwMAAVZUVZLJZ7MF2/uwzV9LYmeWZ9fvJOi7XLZvKykUzePnVjTR0DDHgFdLa1sE188fwZ5+9mjFJWxld+YZLzoNtTUP8X99+nFnTp/JfvrSE2rQYQpnYnkTLZlNzJ//9wZc50ZqhJJHCzPWLO4YSScpTSMaxuHFRPd/69GVMLE7gm+JF4RPzs6p54xsCGrSjwgg7K/131UI6lyCgKKOqCiF/iF6lT84z6M4YvLDxIA88tZ6Gzn5FKo27BuMLE9xz6wo+e+McihLB2OpZgyfti/m+1YtPyOcousxLPwIRQLj072F0BaMcgZDTrg2TtG+CbD7Ft+B4Wz+PPr+ZZ9/YReeQ9LxjxMkzo7aEr3z2albMn0Sx9iwKktJ7xXLOCv0HVQTxKpB0JuBASzYLW74rk+c//3AdY8vT/PFtS6iMifiPoSR8lUWTadOJzc83HePE/oPMnjmTTHaITy2ZQllhgsMtPRxvaGHapLG8sf0ojadO8u+/ejMlfhbPlJZJjEON7bzw1k6Otg5QXTOeL62do7wF1u04SnFpESdPtlA/aRwtLe3kXLE6MFk4dxKZrEfL8QaunT+VjUc62N3cw8KZY1kxtZyEYfPIq3s41JYhkUowpcJmydzxzBlXhjgrKKMq1V6Bg+1DfOfRN5kwbhx/cMMcypMCnixirqsEiPaf6eeBF98mWVTB4tl1anJEOAHi9NjenWXHgSbqK9N8ZsVMxhYn8ExLcQKlLSQqlVL1kVbPb+YJDutd+J6LYSrRa3VvBLz15w227Gviwac2su1AMzkBhaYYNOW4fvlcvnLXaurHFpCwZMWKrKHaDKFtdsRRHOUPZ3S4jzQCEUD4SMMdnexSiUBIKJQdpR5wc5Us8kDW50BDBz95Yr0S8Ol34zieQ9rIsWByNZ+7cTmrl0wjLTtK9drABEFVCLStsfxMJRN1Em2GpJJ/QI7ULpIGJwbF/AgmFvqk/FwAVxRNXhkgZc0YfTlJVnmVvH3LolA5RPlkxCDJc5Vx0IBjkPVcypMQ83Wf3DUS5FxfJX4xa7LEtlhkoEyLrOcHDH4tNJTPu2pcT/Er1C7bwHQMUqbJoOeTNz0SFsQ9AQAGWV9klrVYlJxfRKSkVSPtAyVbJOODnkPWtGnLmUolssoSm2dtO215msA56Jt0Zn3iSYu0ZWJ64jshSpSys4c+1yBh+JSarnaAjCVVYhb9BdXKCAiLw++5EXrKQZz072Q9urKjCKSei2fG6HcMtu1v5kePvaGkrYecmEJvhTGHKROK+OaXbmThzHFqbfraBEgGzpJBcyECCJfKJz5a5/tFIAII0fsiisD7RiDYWaqWgKcTh+/iuj59WZPXtx/joec2s7+pmyHXwHRdCqSSML6SL925moVzx1NWJGx2H8OTxCquibL71TtUSyUjbSmt/y+JRbKplMmzuG6eoVixqkIkxezId5SKo3qOqDGqnCZuiz6Wm1XmTYadUIlYGPfi/OjLFIYwDK04hnI6FIcn+ZLTmLiejPHpQodKqGLdbFq4nhhHaZto09RMfr3GQCFQJUGtTyh8C4Oc6t87xFXbxPa1CJSAITfwIzANsXAW1QBRopR4yWs8soaNa1gk1VoEREmLIa8AhPg+iOOj0jMQboGygdYNIGm3OGYsqBjklYmVZ2uAIM/TzAJLAZZzH0EbIWwnhD6NgSeTqhZh0NHvsuNwC794YStv7z6uyKSGbykwNnNCMTetnc/aVbMpTcWQVdiieSBER1UgCisI56teRB+9KAIXdwQigHBx359odRckAiObDGrbr+2ZZaLBcfGsBKd7s7y0aT9PvLadI829uK6N7VsYTpa508awZuUMll9ez8TqElK2SPVIFtaVCPnSKUQe2o5Ykpn8RBKM6eXAz5E3xefQwEbIkpK4RAdAmzypfa84Bqp8qZOpSr7KPVH4Cnr3L3bIlmUHo4oCA+R6gnOHuTNg8Mu+WxKqOmYwg6FHNYXEF1gbyHSGgAU5jOREX9Yr7Q/NodBtGV3lCPbkWkdAgSMfx9eyRbaU85ERUvl5nJhcofg1IVUOF1NirYCIrcCH5nFoB8pwRFTMpGR9mkgqYETABKoSoVtD+t4NV4OClysNo1COWRdyNAYyyOU9OroHWbflCM9veJe9J86Q9WzFbRBwMLkqza3XzueaVTMZWy4S2AaGG8OWGEsczcASO+Af/C4yzxfkrR+dNIrAiAhEACF6O0QR+JUInJ1j0Dt2SfzqR8JsF5k8i6xh0NQ1wEsb9/Hcut0cPdkNZgFSjbftHDWVMZZcNoGrF81kztQJlBUmSZiS7jTQ0FUJTZ4TSV5Jhrp3rXfzkq6EqCcPgQ7yJQ/FrleKjErsXwMM31XVBPkKc76kZ73DD6SCFSNfErUc8ywy0GV1vRplvyyETHuEoFNI7xse2Qwplq5KhrKzFl6E7PBt8ZoQAqIZVxBIfiZ8AuVeaYLYRItUspxPJhVMGUc0hAoq0w0aCEhtQKYBVMPFl9XLzzVg0dUDuUaJnauqJHL9Ejm985fWid61S0VBxVe1DoJCv6qWCI9D/pB6huAHHe2c59MzkOfQidNs3HqIN7cf4WjbIHkjhW0ZxN0MEyvT3LhyLjevmUtNVZqE6apbYRlxDYoEHJi6yqE5CALYoiZD9A/MpRuBCCBcuvcuWvmHFoEwGQUJXLJbQBCQ8r38m6819KC9Z4iNOxt55tVt7D3SypAXx7Uk3eUoTjhMqC7k8rlTWLRghrJfFrGjZFz38iXJSaJSm2KVHEO+vS7DK0Bw9ivcjwdtAklCob2xKt7La4f3q2Fi10eRc+VV0hJDpfB5epcdwgVTJe+w3XC+0KqWC+KNIGDAOgsQROY4Z8TVsaTVEA93/kK+lLZGYHWtdvly/SqSGiDplQigkMjKsgUAaGikzZd0xUWlfAWKNEBSYEAdR2Koqyzq2ALmVBx160ZXCjQRVOE9wyeb8+juH+TwqTO8s+cIO949TmNrP52DnhpvFMnsuJdhxoRKblpzBSuvqKemIk1c7rE6j3wFw4y6nKInKNQ6f40Gw/mCG/0+isBFEoEIIFwkNyJaxsUTgeEGg04AKm2r7CK9eQ0QBChIcpf/dQ/5bNrTyCPPvsW7J9rozUj2kcTlkk6YJJMGVZVFzKqvYfaU8UydXEtVWTHF6QTplIklJxku6qu9p6128uHuXgOIEDCE8EUwiyI+jpiXCKOoi/36FboeMvy9LtSrPbs6RwAh9E+D3fr57oaAG0nymlERAhNN1FPJeEQfPmwNqDQuXY/g4HJuaTeoCkZQvZBXSk1B5XE1saHXL+0JfTVhXz8ERUqOIuBCyLH1DIJagZqYCGIgAEzGJz3I5D36+rOc6ezm+Ilm9h89zoHGNhrb++ge9PDMpKoyuLkBSpMG86bUcuOaRSxbOI1SEWRS9EetciAkUsPPYZpy1qCicw60iyoI53svRb+/eCMQAYSL995EK7tAEQgBQlAsCFKOJq/lJfGbIuUb7IBlJ2ta9Dtw5HQ3z725k5ff2EVvjyTKJHnPwzE9LKkaGC6JmEFxOsm4qlLGj61ibEUJ6URMJbMwGSo/AQPifkbtn6VcL0S+UJFRl9I1ZyGsKwgYESZ/CGYUQFBVCZ1kxZZYiINyHhFckoQsxEdJp3IsaU8I+99S/IawbvHrb4CU723RcDDl2AF3QqoCqqRvqUqBSuqmQ8zLBIk6pp6bF0lkU6YSDGIymSDtAtPHEhdMZCpCIIWJ4QsxMBAysvKK12B5lvI/ErKnOpXiHMgEhJZKdgybvBlX1yAtDzVWGbRvBBzkHZ8zXf2cbuuire0M3b0D9A8NMZjNqUqIEUspk6a0n2Nsic3Vl0/jU2uuYHJdNYmEaFtokKIbCAIJJOYZhISpoIqf0H8qXPJeguT/z955wNl1Vef+f8pt05umSDPqvVmy5CLcG+7GNmCqTWw6AR4hgRDIe0lI8kgegQSIwRCKMbhgE/cCbnKRLVuWXGSr9zaj6f3WU95v7X3OzMg2WCIjWxqdA7JGd+49d5919tnr299a61vv0ISOvjaywJ9ogQgg/ImGiz42ti0Qlhxq96r26mrBF2fteXoXK07JV1LMHlgWecNW7MFzL23nyWfX8tKr2+nsy+HGi8iII7RNXNfBLzikkgIKPNy8ZOxrp6MBgna6qkhPdqZBloA49JAPEIAg9LokKer9qXxanL84K601oGL2QYmC/pfkUegsB3He8nnt3CSWL/+WRLxCkKCoz/nGY0RGgny37LJNAQLqS4VdxxSWJQAI6sLMgr4OlVepSz1dAQASHpAkS7GLqm4QoCCn8dTvJeQgVQPyR6odfEPzDnIeuVoJDwSSECpUo7M3BEzZuKb0Y9D3TYUugqYI4vg9JZ0sPRosneQpYEzubhDuiVk+JXGfpfMaOX/ZAk6aP5WaykRQ5RFkh6iQQsC2eAVM08FUCaiSDBo7MOdhbD8m0dWNcQtEAGGM3+Do8v40C4xMytMtmvV5wtqDkImXUkLVpVE5NQPH8xjM+7T1ZHh5/U5WvriRDdv309mfU9S2OpFoFohzdXTSnbSP1pUMYRxe9wbQTu/N3bQey/Dxxj1/yIOMdPbDTj909W92nkO12AG2GhEqGTnCMBdCJxuOPEbIEb/+RIc0kJGhEv3BsGZkOASjQw6eI1UPShBZNXiyLUslIpYU2cye3sApS2Zy0sImGqqLSVpavllBQlW2odmS4UPVnvzRO3FIlxG9ObLAEWSBCCAcQTcjGsrRZ4FAIkBT6EoFUQSVPBxfsw29GZctO/ezfvNutu3tZte+Lvr606QHM6Sz+QOU9zRIkN2x0P7DoOQPWUUx+K/b6R8IAUJQE+RYvgOMtyYXVKHjm3ISeoSBSJRiPUZvDgTERpCIqXgXxTbELCmbdKisKKeqooyqihKlOLlw9iRmTamlvNhWctm2yDSH4EABBJ3g+EcuZPQGH50pssARYIEIIBwBNyEawtFrAVVJpxn2QGUwVF3UgjmieCix75zU1/dlae8epKOzn02bttPe3oVp6aqCMENf3KhjSd7C8K709bv90IfKWyytzHOAz3ozJ+soBcI/7NtGBA/+oP87lPeEd1RxIiKM9OZkyNCNV4mUwRjlxZHXfOB+/eCvQaoLrCAUogGK0pBUf5cWJ5g2ZTJNTfVUlhdRU5akOGETE8ZA3RFP5TroJA+dbRBgmQggHL2PazTyQ7RABBAO0WDR2yMLHOCwFEDQNPNQroLqBCheW+LcOtYth4ooyEbU90hnHfJ5V5XRqRLFESEMIeElDh8CgT8EECTsreL24YAObPNwAPEt4ODtBgjB5WoxpRAgvBlQGCo7DKoSRwkgqNyOA8pFJbFU8xUiLZ0UQBDTiYcq5TNAekMkgaZohnJDQoSgxaNGkeqIHqnIAkeoBSKAcITemGhYR4cFdMmhZLCPIMqlBFI5GxXlHtL5D7L41HuHEgiVKmGYoBhec+jI3toGQfXf8O42TGpUMs7BBlhwyR9hD976W/5n71CyQQoYBI41bEMRJHJoLYgRA3wLtuFgRhOeQqs7Bu488PdDrj1I6lS/DVI21HvD6gOFJhS3EfzRkEcKRIcYhYMZTPSeyAJHqQUigHCU3rho2EeKBcTbqZqHQIc/SM0LEtpU/D3Q+RdnM8wUDKfwhWp+oVPTSoCHvkdV0YYg5CEERr7g0NzSRk1NNeXFUr//zhxKgyEEBcHOO5sVCWgT09aNoqTQYChdcRQAQnilijkZcdkj9/46vyA4wvyCkcmfYSaqrl0J9Cbl7khSacQgvDOzKfrWt9MCEUB4O60dfdfYs4DaeQYZ9AGNrzejYeFisG8eQbEP+b/hjesQuBADhbUMB+OCRjL34V5XVUj40Nndz4svr2PKlEnMaKolKQH2t/mQMUkhqBqnL2JFPtmMw+bNO6mvr6auvjLQC5CkQK0tMHqH5neGuRQND0LWJbSvSjPQwwuJhKHwTMjtaNXJ4K5GIYbRu0XRmY5oC0QA4Yi+PdHgjngLhGUMQdggVDbUtHbYNCig2IVVCCmEYbZdXeJwYqHU6R/kVWuvqz8/VGxnUAgAQm9fmpbWdpKJBNOaxpGw335VPxmdq1paa2khR4SKOvrYvn0PNTWVTJpcTyymG1mppEKlWTBaxzC7M2xkbdyh/wbG1jpVksgZVlQMMzw6RVEDC/W5g70/o3UZ0XkiC7xDFogAwjtk+Ohrx4gFlGfRKn6qKVHQFUC8yNCuU/h+5ceFRx/hAMPExKEExYB7GKK2/7iNlCDSUKvCoCuk0mLQoQz5u7tnkGwmw+TGcYGYz9trdy35LK2kJfYhQkIGXV399PYMUllVRllZEaYtrZ511UDQUHrUBjmUo3FAaccwqBpy9kqASfd88EzdmHo45COiUrrTpeKFDhrBjdplRCeKLPCOWCACCO+I2aMvHTsWkNi0qPzpBLYwvKD2nGGO25BYghbaGRZd0lYYzkvQ0XJNLoyMnP8Ba6nzh25MdzXQYQaJ+evKiMFMnr7ePurrqrF1H2eNZQ4ShIzGfVLYIOhlIWJDrfs7iScSlJcVY4omgRlIRAs8GFUGIRA3erOLCHITQjMopUcliCUKjSLjPLJ7RSiuHHaCGE2WYzQsHJ0jssDhsUAEEA6PXaOzHjMWGJkFEF706+IHI23xJvT0m+XkaYAQvlkHLIa8+wE/h1GGYaclzjjUK3QKDnv27mVcbR3FpcUaUEjPBGNEY6ZAmnl4mAGQecM9DMcRjvjNuPYDx6oUBaT/g+tjWiZOoUBnZzcVFWWkUskDviGM9+uz/rFr/kPfG8KrkZ/9w/GAkXYfrgYJQMKbzN/hrJJjZnJHF3qMWyACCMf4BIguf+xZwA+TJgUo+D47d+2kuLic6toaXdavAIK+bsUkBFUYwSu62dAoxdkVo+HpIIx8Vzqdpqenj+rqClLJNwKEaG8+9uZjdEVHrwUigHD03rto5JEF3tQCnucpYBAenV2dpDN5GiaMx7akU5JO3hORprcDILjecAeG3r4+Mpks1VWVJBLSdXH4EEwSAYRoUkcWOHIsEAGEI+deRCOJLDAqFhCAEB7ys+O67N3bwoSJTcRs6ZCoMyWGwgxvA4OglSI8urt7VKhf+iDY9oFFjRFAGJXbH50kssCoWSACCKNmyuhEkQWODAsIezCSQZCft23fxbj6OkqKi7BUWEHKKYM8hLcBILgqD8FVAEFCC6WlxZhhnCMwWwQQjoz5E40iskBogQggRHMhssAYtcBQLgLQ0tJGwXMZ39BAKIegkgLfjhwEVcUAg4Npunt6qKqsoLi46A3VghFAGKMTMbqso9YCEUA4am9dNPDIAgdnAQkopNM5WjvamTC+AcswdG+Gt4lBUImKPvT09gb5B1XE47EIIBzc7YveFVngHbNABBDeMdNHXxxZ4O2xgJI7dlx272uhvrZGKSuG7MHbwSAoKSlP8g/6MEyD8rJy3XvhdZUSEYPw9syH6FsiCxysBSKAcLCWit4XWeAotYBy0K6nAEJFeRkVZSVKV0GnALxOjlhBh9Etc5Tvz2RzdHX3UFxcTGlJidaLigDCUTqjomEfKxaIAMKxcqej6zwqLDBSdin0n1ofMWwkNNy+WH4a6WO1iqJ+xZQkRElWFPlikXf2Pfbtb1efGF83TjVFUu9U/9FS0bqfgwYI0oJ5WDxohEjTkBxyKJXwZjJPw6ZWMsse9A6k6esfoLqqgmQyrioohg/9s3yf7poYjCWQpZZr0devVSjfTKZJpVIETZl1s6s/JuZ0VEyFaJCRBd5xC0QA4R2/BdEAIguMdKjaXYc6ipZy+UpmCMezcIK2xCJnYPkuhid9DExdtWAY5IN+ELbrYbl5JV3s2DF1js7eXnrTDk3jakiKgw4EB30KSu7YNW3yvo10HkgE5z6wf4Q0LJCGRjau4WMpl60dugIj2s2P+K/+Ctf1aesdJFtwGVddRsLyVSWF9DbwPAPTigXoRxo2Se9HD0/GgqXaXsd8VwEe17JVl0oZumeCqXpOSCWGgeV7eL6Bq352MV0Xw7JHWbo5mqmRBY4tC0QA4di639HVHuEWUA41+CM7YQvpUyDCRwauL/trA9/3sExxhD6+tIGwpe+DlAo4OKrltIQITGzfVY7TMU11lozj0NLWTVN9LTFx666nduwxS7ot5nGtFAUjhg3EQ4Dgm/imFbh9TzESrmGpFs7SecKUbf+QcmPAVgQ7+FAyueC6tPWl8U2bytIiEvhYvqM6N3oIBLKUHLNqpyzn8zxc0xLYQszzSXh5TNMmJ7yHFbAMqvWyT96wFWJI+B5GCBjcgg5hmDGNJl5XTnmET4FoeJEFjhgLRADhiLkV0UAiCww3b5ZWQZrwlx26csWKJRBwIOECnT5gqh24Y1t4no/lFoiZLhgWniEqieKIZddvkMcmV3DY19aFlyymvW8QyzKZOq6ccSmwvQI+MQqmVBcYmK6jwgDqe1U4QDoRaEDg+a5qKZ1xNJiRI+x1FHZB0H0t5dMCbHy6evvIOdLWKkZlSYrSuEXfYJaMZ1FQbRx9RDfJE0CiOiu61JTEqI6bWIU8A47JrvZeSstS1JaniFvQM5Bha1svhhVj5vgqSi0TW409o67ZN5IYVqAWGU2uyAKRBQ7ZAhFAOGSTRR+ILHA4LaBVDrXL1YqIPrZiDgwBBr6LJ6yAb5L2DFp6crQP5unPuyRMg9oim/qKFJUJg5jvYAgHYdrsH3DpzTq09g3y/M4untmwk+rqMi45eTZTyuIUCSvhQkFiF4ZPdZFNRSKG/NMRniHoQmnL+7ws3YN5bnt6M/2OZhjC3Ael0Kh5DhUeSMVMjp/RRGnMZ2drD8tf2sHU6U3MmlTNY0+9TI9fTL/jkxJgIyEHEuC5xP00l79rBqfNbsK0YOXmNm57YCWzZ03mlOOnk0rG2bSnnXueeg3fSvDBdy9mYnmMEhNKLY+K0gRYcWKmoRiR6IgsEFng0C0QAYRDt1n0icgCh9ECYSdGHVrQ6XYS7ZcwgsTZfRwfOtIFnt20j8debWEw62Imi3BcSPg5ZjdWcuHCRmZVp4hZJjkrxs+Xb+eFXb0MFhy2dA6yu6OHqvIk0+tKqUwkEUogYcZw3UFKE3kuXzaDZTPqSfnCLBi48ruARTC8PLu6Mlz3nQfoyNkYdlzF/2W8GhwEiYa+QUUqzmcvWMJJUyrY1dXPj+59hv5CgUvOOZ49LZ08v7WH9r4CC6bVkUrZ7NibZd/eZqoSeb561cmcv3gaGd/kht9t4K6Hn2fB3CkUJQwKfoyO/gLr9vZR8EwWTammNlGghDwzqhNcctYiaqqLVa6FhFOiI7JAZIFDt0AEEA7dZtEnIgscNgto/kDl/qMzB3QyoThpSVDMY7CvO809T6xhe+sAM2ZMZ/aECopTcTKOx962PtZuayaWH+DCZXOYO3U8xQmLnz24lkc3dtA26NLc2UN1aZzxVUksw8c34yrrr0i+08uSsAp8+LzFnDa3iWLJBPD0aHwTXMfFtAx6CrD8tTbSng2mrUIPpuQ8SL6E52DaMZWr4LswtdhkZk2cQjzBXau3sHbbHi44fRHxsjJuf7aZp17YSFNtFXXjqtm0vY3KihJOXVDLexdUMbMyxe7+An9xw9O093Rz1aUnsmPrdnIFYVIMMsQpYJEwhGdxsL0882oSXHXO8dSWFxEzDOygGuKw3bToxJEFxqgFIoAwRm9sdFlHpwXC4ILE9sXZKpDguwog5HybroLBfz/+Ii9v2ctZp5/AlAnj8DMOre3tJEyfeVPr2TeQ477HV9ObzvOhy05mUW0pXf1ZNvR63L5iO6te3sr5y2axcHodu/a0kUolWTS9lnG20PEOjmdQX5Gkojipqgfkj00B08+pfIICcRw7QcEz1B8Zq8g3S9JkTIVHfAq+iWMaZAsObc0dzKyvwI3b7My4ZHIFvGyOe57eyIvtNq/tbCWbK1AUl/CCT0N9FVPrUlx9Qh3LZozjhe29fOmHjzK5oZS/+ew5rHltL1u7RlZOSFTExXcdypIxLl3UxPH1SVJiP8vCkBhFdEQWiCxwyBaIAMIhmyz6QGSBw2eBkdkH8rNUMYhjlkKBAT/Oig3N3PX4Gk45eSFLj5vCmpc2c+Pdz9GWszlhRgP/+OGTKSuOs76lj1888AJz5szimmUTKLYNnt6T5h9vXokdT3DNpQtV3P/Xv32KxnGVfOGDpzC+yFI7btmZ204eO5ZQuQ7i8FUlgZ/GMeNs6nR4eW8/hgeelSBvxMg7PjHTx/ZyxIVN3aRj6wAAIABJREFUMC3yZoyBvMtAJsOU+lL2NHeyuXmQCTWVzJwQ4/pbnqK3eAJLl83jlc2t7N3dwvHzp5LP59m2/jX+4pKFXHDiFP71phXc9WIHSxpt/s+nz+bWh9ayco8TgBcd1pAkS8NzKU3G+Kv3v4tlE4tISg6GJFHYURbC4Zux0ZnHsgUigDCW7250bUehBbSegETxpcxPsg9sAQj4NA+a3Pzoy/TlHZWU11SW4pXNO3l0Ywt3rk0zrTrFj65ZyPiUQcZPcusz23hi7W6+9tHTqSiN8b0HX+O2J7czd0oD5yxupKN7gMdXbaGqNMblZ8xSAkaG4zCxsphTJlcS91zymOQlQVFKIn1X6SzcvGIT37/9OfKOy4AXI5esIuPb2KZB3M+SkkCIV5CPYMUSxOIeC2aOJ50zeHnDfhZPbeDysybz63tfIm0Ws3hWBdtasuxp6WLW9PFkCg67d7fwhcuXMLWhin/+xQrWd1mcPtHl375wNtt2tdHcl1VJkBLGEIggdhIs4Obh3OMaaEyYFMdE8EnXX0RHZIHIAodugQggHLrNok9EFjiMFpCEA1el+uUMSxU4xv28KnHc0pHlhntXMmvWFK48aSrVRo5BkmzLeHzxhyupLInz/WuOZ3yJRd6weGZXmp/c/SyfvHQpMyeU882bX+CRda0Ux0xiXoF+iuhxEsS9ARoSGYxYEttzuGB+PV+76iQKgzme3tDKS/sdlaRYYQxy0SmT2d05wNOrt+K5Dj2kWNfqsHF3OxXlxcydUk+JbUAhTXVpjHRvL1VFBgtmN5GJl/PfT6zFdhzefeoMfnHfq2T9FEsmVbC7I8u+lv1MmziOvO+ze38rf3bJCZQmbP799hfZ71ZxxvhBvvnxZdx2z1O8untQ6T0UjLhK5Ew4aYzcAJVJmy9ffRHHT9dqkVKqqdpbR0dkgcgCh2yBCCAcssmiD0QWOJwW0ABBGIOsEQsAgoPveWxqT/OT+1dx4vHTuWh+PaUI5V/GzqzBX/zwKYqK4/zz1ScxqcRU4OKVTp/v3ngfV5+3iGXzJ/L0a81sa+tXoku9aZ8NAybPb+2mPgmXLyxX2gS+k2dGfRlnLWiiry/Nb5e/yvJ1LbhGnAo7x//68BlMa6gmbkqeATy9t4/r71vLvp3NXHX2XE5dMpWHX9pHc3eGq06fQqPnMqm6iETSYkfa4Xt3Psv+tjTnnjWfn933Khk3zvknNrFut8uOXbs5fk49mbzLhm0tfPayxUyviXP78s08uy3NcbV5/v5zF/L8hi529sZwDMnQ0DpIdsEh4TpUx30uWljNjBoRSdIdKyOdpMM5X6Nzj2ULRABhLN/d6NqOQgvo5kmSc5A3NYNgC4Pg+WzvyvNf9z/PtKlNvOekKVTZBfoKMdZ35/k/v3yORCrO1z+wmHkVMYxEnBU7+vnVXU9w9UUnq7yAftfXqoqOQeeAy2udaR5bu5f6VIKrT5lEVUkCx3VJGA7jUjZNdeXkc3kGBrPK0YoIUWNNKaXxGK7jsaEjzQ1PbuaJdc2cOr2Wz54/h5JUEd+6ew2PrN3NmfMbuW7pRN41exyW7bF9EP7tztXs78pz7mnTufGeF8Eq4pQ549i8P8/mfS3MnNpAJuOxt7mDL14yn3fPq2Hz/kH+5bbnqC9x+dKnzueW+15kw94siRhYpq86RDp5yGRMahImX33fYpZNK1chB2EQZOzREVkgssChWyACCIdus+gTkQUOqwVUkaMPjtDjSpY4qwBDW9bitsdfob0vy5XnLqKppoQ1W/Zz78rNPL6uAzOW4Pz51Vy6qJHJk+u56+n1bNndzqWnLODWe1awNwN5W+oMYoop6C14tKZdigybxuIYTqIYz81T4fexqLGEay4+iVl1JSRkny4qjqYk+0m5pcnWjjT/+dg2Hn51Nw0NVXzglOmc2JBS8f4nd/Xxs0depaejj/cvm8Unz5tJU1WM9T05vvPfL7K/y+GCM6Zz7+9eZEZTPX/90SU8/MxO7n/2JWbPn8W+fd207Ovhi5cex0VLJrKvL81nv/sI1RUWn7zuTH58ywr2dZucvKCecSWi1WiS9WI8uaadgY52vvu58zhzqpZ0lpJM6VURHZEFIgscugUigHDoNos+EVngsFlgZBWDyC2LhqLp50VdgAEvwaqtbdy9fDVz50zjlBNnsmNPO8+s2kSeuOppUJPwOHneBBwzxj2PvcQJ86Zw5qwGVryymS7HpKBoeQvXc1m/r5fVW9toqCjj9Fl1FJcU4XsuKS/DpIoEy+ZNoq7ExpJyBVP6L9gUTIt0weCXj7zCtx9rYdCwaKpJMq06QbnhKM2G9rzHuv1p2ruyNFQUc92yei571xQeeXUvv35yO32DBebNqqWvt8D0xhouWVrP5j3drN3RQjxVQmtLDyXJMq5YUsdps6tpyxb4/Hd+T3m5xSc+cQ433L6KPV0mp82vZXK59Jzw6XVMHlndRnd7O//+2fN497QSEp4jFINq2hQdkQUiCxy6BSKAcOg2iz4RWeCwWSBs1qR7MehWRqI0IKWHWc+iq+Dz0HPreWH9ThbOn8HJ8yZSJDoE+CqRcDDn0NLeyYo1W8Eu4n1nz2dedREZp0BB6HaEmYAB1+e+NXv51e9fYV5TLV+9cjGNpTFVGSBOPmZCwjKIWbpxsvR2kE6J0hsq58Gtj6/lPx7agpVMUBL3Sdkx7Fgcw/RIJmM4HmS9OPv2tTK7usAHLjqR1Zv282pLhsqqMpr3tNI94JJKFVEed8n4CQYFh0j2hStJlD4nTzD5+MWLEC2mv/j2/VSVGnz6Uxfx/Vuf5tV9Po0lMWqtAknDo98z2NqdU/0c/vXjZ3PhrCriUnkhACFKQjhs8zU68di2QAQQxvb9ja7uKLOAZhBUw+Ogk6P8W2sTSNmg5BC09GV5fPVGnn5xI5W1tUyfNIHSklIGsw4tLW2079tDU20NZy5bwKzxlVSZQVtkicnjq9BFxocn1zfz28deYVpDJZ+5aBG1KV0R4EmzJCV/IN0VVV/mYEQaLEhy4t6eLE+t20sqmaAsGScWT2DEBCRA3DTJprMUiLFh+16Sdp4TFs6kpbOfjGvQNL6C3bva2NnaT2/WpVAoMOAnFTCRsIA0oJLOlAvGxzl3yWTyns/1tzxNebHNxRecxP2Pr6YjbbJwahMNJXEFogZdn+c276Orq50/v/xdnDCxEtOzVIJipJN0lD0E0XCPGAtEAOGIuRXRQCILaJll/V9XCQCpPggBj2B4krzoKJXC3rzHhv19PLF+P7s7+9nXMUgylWLauFJOnlLNSVMrqStOEjNNpU8g1IEoIkrTJWEQ5Bs6etK0dA9QWV7MhJKE8qSWLa2d5Vs1mFB9FUQv2Qj6S0ppoUAX36DgeNjoZkjyGYE10i9Ceke07u+iqKwUT6gIoCRp4eQdVXKQjHmqRDLn+uT84Fy+jeUbxAXAyLnxKYo5lMQ98l6ctv4ClmEodceBwYxiOkqTcazA+zuGT3e2QDafZ0JpjCJTEjJT6tqjMsfoyYos8KdZIAIIf5rdok9FFjhMFhjZrEk3T9YAQVSAChjSPEkaNhnShtlWmgGDjklPzsCOGZTGDMoMj5ThBq2exUFLh0ZRBdCyyHmFF3wG+9P0DGSpqixVzrYg7/AgYUoXSN3iebiz5PBY3CDpz/YVuaAOQ7Wi1s2f83mPbdubaWyqI1Us7aNzWKZuO63GoppUyrgEHOhxCXCRV+R8chbPlETNnMg04fs2rh8nYVjqmtR3ieKjaiIldkC1uxYkIL0iEiLvZJmk1WcMElERw2Gaq9Fpx7oFIoAw1u9wdH1HlQXCEIN2oXoHL7oF8pMAA/ljGOpfmmswhGcwcaRngrxLOWHdT1H+FtZA+jCagWNW+3zZUhs+gxlXMQ/VFUVUJ+ScwgV4mLaHZ8QRICCvikNW/SQVOxC2o5bqAIlC6FbU6nVx1D709eZoa+lg2pRabMvBNFWzag0KTFWXoQGPYjI0MBBYYEhSocRRfAtfxJaMPI4n4EL6MaYwFZjwVPMoXwEDzYbIWSxPrl3GI79Pq1HmrDIlHR2LAMJR9QxEgz1yLBABhCPnXkQjiSygHJvaQavEQ+3qpceAgARJFFR/JPlO0fmOKuFzpfxQqHTVt0GrMBawVS9IoeLjOAogGGqD76ukP9l15/Kwa38f5WVJ6koMLOm7ICyA7eIZSRxDUh/1OTRAEI0GCSQIGeApoIICCDIuCV/Ir336ezPk03nqa8sUeyAOX/1SPmdZCtQIR6E5CTAFN/hBUypBGDI4Sai0dDaG70lehAWGXGfAVriqQAFPmAlf+jAIkLJVDwiDHB4OeatUdXKMahiiByuywJ9mgQgg/Gl2iz4VWeCwWGBkmWNAvmvnp0CDrmmQ/6vfeQIBXAUQZLevnbg0hA7aM4tj1m9XTtdUTIQ4VQNfEg99g46uflzPo6YiRULKAcVRGwXljD0FEExF+78+4CBAwxSQ4AU8h5xPWja4Li3NbZSkklRWCECQ/AUleqxYBGE4wmvUHIc+9KuCIwIgIUyJ5CO4LqYKaeiQgvwoDII+m5xbVCc1gBIoJN8l8MMzXCXDLHAhAgiHZapGJz0GLBABhGPgJkeXeHRZIAjrB4OWtsb6R506OORRFfWvXxf/Lw5Tt0AOj6H3B6kEYdMitdPXRQqkMzn2t7Uxvm4ciWRC0f06VKEgwPDXDY0h9OpBmEOYDZVDoBMfCwWX7dt2MmViI0WpRBDs0OGFkUz/gdc4fE0jBh9c2YgLDhGFAg/DVxnaIIQxCmwIoxF8ZxRhOLrmfzTaI8cCEUA4cu5FNJLIAm+LBULn7Iqcc8Fhz95mqqsqKC0vQ0L/er/+VkdYbREAhMCd9/T0M9Dfz4SGOlXuqKCIihhEaoZvZdHo95EFjjQLRADhSLsj0XgiCxxmC4wECJ7vs39/O7G4TVV1peq38KcCBDlXa2sniXiMirJSbFMKC8IYx1tDjsN82dHpIwtEFjhEC0QA4RANFr09ssDRboEQIEg+oCQc9vb1k8lkqRlXTdxS9Q5/EoMgbERLS7tiI4pTSZWjIEmC+mQRQDja5000/mPPAhFAOPbueXTFx7gFhgCCyC57Pul0hra2DsZPqCMVTyhhobd258MhBglVSA6ECBi1tXdRV1tNUSKhAIIkCaqKhKij4jE+66LLPxotEAGEo/GuRWOOLPA/sMBIgCAsQj6fZ/eeZuobailOFhHTxQ9vcWiAoLpOSpqBYdLTN0Amm6e6spy4bWEZQZpjxCC8lTGj30cWOCItEAGEI/K2RIOKLHD4LPD6EIPnebS1d5IqKqaitOigGATRO5CSSK2BIL0ifNrau7Fsm8oKrT8QAYTDdw+jM0cWeDssEAGEt8PK0XdEFjiCLDAySVGEC4Uu6O8fYCCdoalh3MHlIChVR0/1ZBCRppzj0tzSTllZCRVlJRi+oZIUpWQyykE4gm5+NJTIAodggQggHIKxordGFhgLFhjJIEhbZvm3hBn27mtm+pSJxKRF8ltdqACEQAZaGIT+wSzdPX1UVZVTlEqq7EfbDNQXVbvltzzjW31j9PvIApEF3mYLRADhIA0eKtCHbz9wyXuT3yq52NdpvchSLNTsAYoxQX34m62fB7wWLuv6xdd/48jLiCrOD/KmvuXbdEcD/V99DN13ub9Kve8AOcC3POPovyEULNZnDmfJmwoRjbgGJWsk01GknUVh0ffZsm0nEyc0UFqUVFLKb3LVQy+pxkwKJJhK0rmrdxDH8xR7ELe1PLPKS5TeCErEafiJOcBsIwSY9CMzcmbrmTzyNf328PXRt2Z0xqPYAkNzSVQ9R66XgTrniC4lQ8+uWpPDB3vEyqkEx4K1Wp1K6YgPPe8iFz78jCl906GuIkexBd8w9AggHOTdDJet10+7ocXLH7mgiqZ9UN41NItkIsp7RrxPydWJDG3oZA5UyjtwaNINL1TTO3AZHZ6ooQRttF87yNv6R94mVtXNifR/tZX1QmBgesE9VhT7AZ73DecMHeJILPE/H18IB/TqNlJbcORMfKOb102dlHMPFjypNSiIhkF7t2puVFtVgW3rK9dj1p0Xh2ankml2VNsGOU/W8dnfkyGWjDOuvIi44QRjCoSSVLMoA8MT6WaRetZtG2UNFyChZZTlkdHNqaRltApOBBLLog6p+1CGUsyBbPPoGDE6y1ixQDDZXcND/igo6cts12ux+kmkxNUsDAS4A6CrNbxFyjx8xoVaG15zJWQ2tH7Ls2MlkOodNVMNmd8iPa7F0cfSEQGEg72barc0cl82shZML3ZDTiTcXb6OAVALciBzq3dwujPfMEIId1nB3yOyv8Mf38gchPK6ekIbhhWo1o2tiXqwt2nU3jfkPMUphRAh3L/qvgYKJIQObyjWfuASMcz3hPBgtPmdYQZhJHvwRiZhGBjovU8AEAyTgm+RdX06unrpaG1nStMEKitSqseBAADp8qAXv2Cmij18V62XnuOyv7OfXe391NRWM6munIRRUPNaEhjVOZTTtzB93fxJ9YJQoMFTdhSQ7IY9GLRwc0A/hLs2DX+klFIBb9XTYdTudHSiMWIBvUeTpmHSjTSAzNLoS7cikVQZbFlzVVmuduaGRrkIQJCZLpLhiv0KOoboNT3YDKgzFfCl7bqVxPMtVcUj3UpFNFTapY21IwIIB31HpaQr3Kfpnc5wuEDvdrQ6vUww3YFvyPEHDWr0ZklPRDXxZPGVCRqGIoJWvepz4Qqo6NngGAIp4SvyO91sV1ZrveOzFUiIVtCDvrFv/kZ1s7RFJcY+vJ/Wt0v1LAi8sCxGmmwfulEHkgpD/RH0LmW0jtfBVXVa/doIKDvMigbzKKBUFUDQGgXSWdHBZ09zJ1s3b2Pe3NnU15Wp+SlXbqo5qAWU9NQUgCAJiuC5Lvtae9jR0s3EieOZOK5UMQiqGZR6IuTMckgTpbDVs4Q0pAmThhAyZz1fmkJp0K1bR4s9HVUpoXeA0kjK0n0phqf/aJkyOs8YsEDYjFwDUplCeqJIrY2r2CkBCAJUpVmZ/AkfGD2pBNQOTy8ddguQ6fBTJc3HvLxqIKYYMU0hYEhr0THGHqhn3Q95xjEwQQ7nJYiZRtLM+meFTYNGNNrp638F4CHc9chk9DVJqt25pryU8xEIGkwtQbi6WY5aH4PFOZyjejYL/aoBQbjyh/RyEBML4r3RBut/OhtCwBVCsHDfPZyHEK4vw1R8uEQI8Auc6RBlFDBOo7j1HQkQwjk0lJ0y9MuQNB2xgAW/C5h8FUIRZ5/NF+js7KOiqoxUMqYBgmEouWQZ9nAkRc90nbvgks65DOQcilNxSuJS3ugF89yX4IV27GEvhpDyVSuxdI6UZ0V2aJba5g2ldgh48HMB0IjhC/BVHSlDlDIm1+P/6aQ9pj8vUFJmnuVrZsr3BZAaFGQ+yi4fD9u3FVRVMzgI2YagWr9btxsXABGstJpREDAs3UrVfJUNoI/l69wa9UgrCmHsrboRQDjYR0o55EIQW7Vx1AQaIqAUdWX6Ent1cQ2bfEBhhSEBKScbzBTo6eunp7dHqdcNOi7pAB7IlLV8X50nbhqUJJJUlpUyrqqK4pIkhqUjwbaa5AIU5LsCakzFzobjZ2MvEnawN2m03id3TXa+YmOxslhUYpbiyILvGFG95w8l9AXZ/+HvRiYAyMdGeZPxRoAQzrYRAHJowMNJgiF0kSmtIW6Q0yJA1hXGwMcQtBowZirJcMTiFwIj0U+QJVmEksRSonuQMDWXklc280nIcyEr63ACg+Z7FUAQQ+l8A7X6BkPUGz8Np4W9KSj2wiQW0MPqja+/nNG69dF5jloL6GCBi+UXMDxx8jGynkladRz3SJoOSdVrRE9Gb4jN1ZsxS4XU5CzCCMu/9OZLAILl6cRHxzTJeT6ZrE/SgKK4BBbkCwRBj/IDfgTciQggHORNEAbBVWGDET3tlX/WCFJ2Y66wDAYMetCRztKfztDXm6OjvYuurk7Sg4MIE1VSWkR1ZTXVFWUUx2LEYja+ZVHwPLKFAv3pLO1dXXT19JJxHAzDpqFqHI211TRUpaguK6Y4biP7KgUN1IqtnYNv2BimhSzesqjrPAcDU03e6Dg4C4iT02BPH0J/64ff98KMfP0bTYfrxDrNDOnqBh0P1XNFvaSpJZULNVrHmzEIiunyJIYfZmf7Kgxgmo6OiajkWRPPNyi4Lpi2+iPLput5xAWAynWrBTGssDFHUKihF9cVCsqJq7ivgFZhC1z6HQvHStHc2k2NHae+rFhFVhzfUYuzJXkyYkuhdFXCo69eE5bNk0iC66gdmmdYdAym6egt0FhTTGlMgIuIK0hOhDkWN2yjNTWOyfNoMlbmTkY9bxmSPLd2H3fc/ShLFkzhqktPJ05GNRPT8YUg3Ct5BGoNl+dEMwgyxzTwNVXiru04ap7mMNjWkeb//eAm5s+ezUeuOI3aYpnTPoaVGHO0VgQQDvJRkgkn/IH8bXqCLR2dkmKYOIbFoOPT3p9lZ3Mb+zt76e0fVBOutqacxvpx1FRVUlaSJGHLZNKbf8tD77BUDoyhaN5CQGXJHJUJn3Uhm3PZu6+N5pZW2ju6KS4uYkJdFZMm1FFbUUKRJayCi+Hm9CQ1BTrowxUnIPtfW3ITxh4FdpC375DfpsIGQRhnKNHQF2erKXtNLZoKFHqGi2UJRe7jugLMxHlpBxZmkOgkUx3zH63j9QBBARbPI68WM7BMGYNB3imoDboAGfHpph3TDjaAOPIznocli6NbwBanLRhD5pHQqDLRAy0DnWmhGQBDARENRnwJF5Anm3dImyW8sKmd/7z+V7xr5kQ+d/UVlJalyHt5BaQSlqmYCtml+TEhdn0sz1U7uryqdhC+xqe3v8DPbn+YtVt38+mPXMxJ8xuxLQEWth7F6JlytG5JdJ530AIyZ2XNNcysSnrd1JLh+pse4YXV6zl+2jj+4Wsfp7rUwvVk7bZVeNe29TOi0g2EUZBNoFqQ9QQTxkAWYltpkhfwY3GeWruDz/3t96ioqefzH7uUS06dTmnCxDLjEUB4B+//O/rVgh5lhy+TySm4qua74PkMZvK0d/exdddeOnoGqKqpZfrkOqrLUqRSCYoScWxZyDyhbjUwkKVZ0bhqd6npYLWjCnnYML8gjBUHhHfOg/5cnraeNNt2tdDV1UNTQy3TJ9RQXVZEUVxH1yxLtmF6ZybMwesp4nfUkEfJl48sgw68od4tBztr1zMoeFDwXPKejrmLcqC0S47ZFrYpe3KdzKrLCmXuCEgLyqtGxQ7DECGcO9J8yXFlT48CCt09PTS39rC3tZfuvrQaR3VVNbXjKqmvLmZcRQmliZhioiSj21cOWKSTJdwg00jmkIFMKe2Qw/JOnQ+jwYH8QgBCAde32NpZ4Ls/u481q9dy3aVn8OHLzlB26stlqa4oVoupiumacTK+BsxxcuoZ6StYtHYNqDEV2TZ3PPQcv7pvOfNmTuLrn3kvE2pK1EBC8DMqZoxOMiYsoACCSmotMOD63P7oS9x4x5N4BZ+vfeoy3n3KPAbTaXbsa4OCy6wpjRTJ3DdlvkPOM3DVGm2QNHUGgmwKW7v6ad/fTUNNJdWVJQx6Hn/1r7fw8uZm5kyr48t/diELp4wjbsfGXJpixCAc5KMhFQxCkeYLPp0DOfZ19tHen6GnN4Pkc01rrGVSXSXFcUsttgIGrGCXptZPidcqlBoAAeWBDBVaOPBw8STJJszmlqXeDZyMIeSvScG0yHs+PYMOm7fvpq2tk7KyYqZMnEBTdTkpUxZrAcLD4CBiDw7yRodvC8P5auc/TKXLIpJzDVq7B9i1r4t9bd10D+RwvAJFcagoTjF1YgON9VVUliSwhV1QXQ1l7x07DAAhTLHSSVWKhXJ92rt7WLtuI+vWb1b/rqiqpap6nHLk0nGxt6ufVNxi5tTxnHDcbMZVlKndedaH3nyBrq4++rsHlOhR04QaKsulR0Ogs6HCLYqf0hU5ioGQHBxPAYsHntvEv/z4Dhob6vh/X72aYsvggceeY932XbznkjNYPLNRzemugQItvRlKihM0ViZIGj4bdnXx6weeZWJdFe89e6nKZfiHG+5kzfrt/O1n38dlp8xRoTVTYnURhXCIk3psv10ILWHwZHru6ujl2z+/l+fX7uD8M0/ia9eeR9IyWbV2O9ffeB/lxTE+d817mDe1kZgBfbk8W5u76M0UqK8tp6mmlGLLJO/4/ObBp7nl7uWc/q6lXPveMxhXVczK9S188/u/kWnM1ZefxnvPXUxZQjZoY+sYwwBhZLrzyFVfEbFvqJUa2ospJx4suqHSHJDOO+zrGaS1a5Ce7h6cfI66mgqaxtdSVpwiGdNCMpIpawm9q7Jdg0pIcdRDbIDmRcNEL+W4Q6pUvWdEFpz62Vfx2GGxHb1jk52iAguYtPYMsH7LLgYyDlPqKpjeUEVJcRExW5emyQ5QL6bBF4XlmsfqAjvy9h8wNYI6lGAXMTxNhP4WtgBaOgd5ZdMenn1xK+u2tNLdlydTcPAMRyWXJkyHSeMrWTRvMicvns2sSbWUFtmKMhctAaVTMSSmqdOj9e5/xL052PuipBCDAkxTFA1lQfPYu7+TZ194iY7OTuYtmMOUKZOoLy/GFqdqGmQLPt29A2zdtpONG7cwf95Mjj9uLpnBDFv3tNDak2agP0v7/nYG+7o469QlnLh4NqmYzCdhDoRFMPBNKSDTud+mkAkuOK7Pv/z0Hu55cjV//qkP8d4z5rFj536+/cPb8O0Yn772UhbNaWTnjlbuX/4yr21rZ3x9OVect4ATZk5kw84OvvOr3zPY083ffPxi5syZxB1PbeJffnI/5y+byz9/7jKKTVfiJyq8d8Cjo+5lmHI5LCo2MhLxxrDM8CsjCopHPIf6aT2AqzngOX1dAubY8g9H1dW4krcSdBdd+eoOfnDzQ3T2Z/jyJy/nnMVTcB2NDDNyAAAgAElEQVSXf/+vB3nwqdc4cdE0PvORdzO9vorMQIanVr3KvU++xP7eHHNmTuLycxZz/MxGxfbe/eQr3PDb5cQsg6994mJOWzSV7nSB79z0MMtXrue8Uxfy2Q+eSWNl8egDhDeJI44UXhvpMfTWM3Q0b5LF+yeE5MYoQAir1nVmmE4w0xmuahXT+ldKvEXVggfpaMNJfdq5S5JK2vEVW9Dc1sPgQAbDc5jSVEdjXRXFiRi2OP/gMQry0lQu2EghTh0x0AvJ67GAuo3DvkHqTl+3M9I3XKXAae3aIDVO17FL3FbVsXsee/b3sHnLFiw7wZRJE2iqr1SZtjFFA4sIiN51iUaDWujNY7DeYYgZCEWrgox6xZaLwyvgKjNJoqdJ3peEPlc5vo7eLPc+vJonVq5hb3eGnFus6qp98riqjCqOocQB+ognfebNmMJFpy9i2XFTqSguwRAJYlPodIOYElgpqO+TJEGfWBDbF9GVAxMh/+AqLRPOlWyJAsRM8p7JvtZennpmDQU3zynLFjGhYZza+ackZyasdlF/GziuS2dnt9I0qKquZufuZl7bsJWqmnGMn9hIS2snL655kXctnc/ShTNJqjbQAUBQPzm4kkcgNQZBXmRv2uGvv/1zNu3u5Nt//0nmj6/msZWb+M5/3c6FZ5/MRy8/hbLyIn50y+Pc9rvVDOYtYmaGd588mb//wkdIpwvc/NCL3PfAM3zmQ6dx0dnz2NWe49N/cwvjx5dw/f+5mpqk7BItlcNgB2BLmUJpUxSwTMnBEEYlrnNBRhhwpKM/EIzLZzXE16/LWqGfMZ0KrM+ixZ1GKqIGiqkq6fLA/eOBgOOo8rVH5WCFeZWQWDrvc88TL3Pj3cuprCzjq5++nNkTa2ntzvKXf/sT+gZdrvvgWVxxznFYrseatVv48c0PsLE5TcZLYJkuZ584jS/92YVMqC5hc0sPP/zNcla9vJGrLzuFay5bRixuc+sjr/CDXzzI4nmT+MrHL2b2+KpRAwga+2sRPK3noHerEgKUMIjKURMRKAHlkuRrgW25qqJCpQV5Eu4I5qNKqdAPyqEyyWMWIKDKAOVB1uIsamlTVHEhkG0NAYJeEKRCQTba4gg8yybjQmvPINv3ttI3kKWsJMWM2jJqK0opTkm2qmzGTF3FEDxOb8ZZvB1PWvi9cnVtvQOs3dpMZ3cfs6eOZ/qEcSRNX+0exYWF7IXEj00V3vgTYOXbcVGH6Tt0bsGwMLH6SbYdQftiB4eMB+29ebbt6GJ7ayfZjGRFS2w8zbOrNtM92Ec+bpJzYqSkrtrM4CoBlSIsScO3+wRmELNiTKktZcmcRipKy7FiBmVFSaaNb2DBjHoSMQ/LymNIJYEfV0BWOWD1IIeO548YQihVKRwwHTzboD/t8vRz69izdx9nnn68ArJxSR70s1iGLBgCQkL6KtDjCOGnYajS23zOx0ok6c1kWL12nUp6XHbCQmqFgVDVGiqlMDiNq8p9ldZiULrY2pfha//2c5rbMnzn765jalU5dz3xGj/9zYN8+D2n8/5zl2Al4/zt9+/m0Rd2kvcMErbDgknF/ODvPkPM9Lhv+Tp+eesKrrjwOD546SJ6+1w+//U7sEoK/Oj/foqGImF0BK1ogCCAXOZ+XuzmZombEvqQhTR5gMDTyN2WzisZZuuGhXVkNQ3oEBXPluQLW4Vu9AKrQylDYudDlR7hju31jMSx9Xwdpsf2oE4b9gfpzbjc+vtV/Pq+p5g7cyJf+fhljK8uY9Pufr78v39EVWUlf/WJizhxTgO5vMtdD6/il/euZP9AjIKRxDTyTK+z+Ls/v4IF0+vpGMhy470rue/hVbz71AV86ZrzKEqaPLx6twozTJ9cz19ddzHHT60bPYAglUGeo0LTsrTIGiFz0LEMVR7f0tbL9u376Orqx5GciZTJhIYK5k5rpCyRJK4qhSTELOuJpxnooXLlg5+TYxMgqMVe0ktkT2HjGXaQSBUKDekYvQINymNo5Cl+ooBFZ8Zj455Wmtt7KS1KMXV8FeMrSyiT0kKVaaiPI62EUK4kW3DpzuTZ3tzBvtYOpkyoY3bTOIpjUs8rPIQu4ZGSNtuS8rZj65B0Qu0bRGZVI3O9sIjTMejPezy/bi+PrNjEhh1ttKYHcfM+McMk6xXI5nSZXdbKqrBD3ElquVZTSqEsrEKeZLKPnCo5TRLzXYpieWwrgSn29jyqios4/eTZnH7KPKZNrCRhCqNgYyqxII32dYz9j98bmbqO4BKpzzZg954OHn9yNbNnTeT4hbMoillYXh7LKuAYSVxfSrYEMIhCobBPMeVoZa8tOw8JUjhujI6+HM+/tI50boATly6koaZK6RuEShshQAh1CmROSUWOzL/ubIGv/9uNbNzRwT//zcdZOHkcT7ywjW//5Decc/rxXHv5aVSUl/CLO5/h9vueoj+dk7IgLjn7eL76qcvJpNPccv9KHvrdK3ziI+dy7hlz2dUywF/93W+oqYXr//FT1CQCdUUFTLSZVGqaOHDPISbMBhbZgJV5fXX6EIl0gPpliBd0urAuGZZFOshyl+uTvCJLGLkg6BBUqYQRqwNCR2p5Odaernd2LZH+IAL0e7I+N//uBX59/9PMnTaBr338EiaWF7Gz0+Ez3/gRRWVVfOXaczllYSN51+fu5S/x09+uoLnPxLOKVZnknAkJ/vGLVzKzqYrW/iw/+e9nefTJV7jw5Bn85cfOJpUyeWjlTv7xP+9kxoxG/uq6i1g0WbdKH41DJVv6BTxP/JiA4Tg536SlO81jKzfw/Esb2buvnXzepSCJvrZPRYnFcTMncurSRZx43DSKVMWcbHylVF5GJXNZlSQd9BDHMECQyaKpSE2DikNAiREpGj+gXGSRyxdyOEYM17LYtLuddVt2UVxcwsTGOsbXlFGSiKn4su3pZMGQpgmrAw6Vtjnou3PIb5QyPAepdhj0TTbs3s+uPa0smDaBWeOrSQh7YkqBZkzFb5VC3iF/x9H8Aa20ptZuWfhDgECegpMn49oKHPz67udYu7WdPrFlHGwvSUJU1MwsvhcHP0beTIPpEvfKVHhAEqTi2QJLZzSyeH6FvAXMhAo52IY4LBFs8di5cz+bN24mZhU4fvE0rr7q3UwbX03Kh5iqEAjuyEFormgFAsi5Ho5n8MILG9m8dQeXXHwWvpvDSeeor64gkTRw7LhumeSKboaABIlOmCqWrxJqhVHCpT/ts/zZl+nq7WX+vOnMnj5R5ddIeqwWnNYhhZCIUOWTcqlBVWgG+NaP7+DBx9fwqWs+wIcvWczW7a383//8jQpJ/K9rL2XJghls3dPBg4+uYE9zC2VV5Vx67rtYNGsSG7bu5j9++lv6un2+8oWrmDtvIg88uY1v/ftvuOicWfz9566kSMYSsF965+8r2jUfyJwLkGnvy/H0y9vo6U8PNaV648wdOf8DBBAIPOlyIxfZxMVjCXzXVSzicXOamNxQoapUhopYA9LgDc/SsfVwveMLg+9prYJB1+TuFev58R2PUlmc4O8/8x6Oa6qmKw2f/odfsqsjzccuXsxHLzmZouIkr2xr4Qc33s8rm1vJuTGScZP3nL2Yz151GuUlCV7e0cqPf/M069bv5PPvP40PXzAPYha/vHcNP7vjaY6bP4kvX3cBsxpGM8QgkNdR4U3dTM1S4ODW+1byyDOb6ep3yAmloB5eKdl0Mb0sKb/AjMY6PnjZ6Zz9rtkUJVzsoCRfJJ00QDj4iTlmAYJONwvU4ANHaEsNeNCbQ5Vym1AwIeuLhkGOlzfspLe3j/nTG5k6vpoS2XWrnURM1cYqRa0gCSTMV1CL4xEjQiSrfl5TUWaMroLPaztbaNvfxYmzJzO5KknMkjI4qcezj0mAEMoiD+n6i/Kl7zCYd1i3u4uf3PIIL29sx/GS5KVqxbKIEyNp+xTcQTwvRtxKUbByqqMhOZOsVClYJvVxk7/5zHs4+bgJOIaEraRuQe845XHvzEoZoM+mLfu56bb7aO3q5oxTlnLt+89jYkVKlcMqKS6VN/LWj7FaQFwJZtgMDBT4/SMrKako5owzT2Dnzt1k+nPMnjGZomRcAUNx8RnHpbm1F6/gMqmhkqKYUOjaKs0dffzu0WdIJhPMnzuV9tb9LDluDtUVJUFOjY7HKx17lWcTRvGFdtelYkLzP7JmE9/94W1UlJXzD1+5RiVvPfLMK2zYvI0rzl3KnGmN5LCUPPNgLkc8EaciYZCyY2zatZ87HnyCSeObuOCME+kadPmXn9zDy+u38a2//hDnL55KTL7IlnJRAf0a7EvfLAkeypgkTLhizTa++f1bGZRF0QryO0JYE0jkao8WxHcDNUzfDzREBEQJ6vEkvSNOPptRO7TrrngX7z17AamEDj2EmhBDWYwq5BCwPwe/Dr/jznUsDEByaUQgzjVMXtjSwndueog9+9r5iz+7lPcum0PB8fnpvc/xi7uWM3dSBV/6s0uYN3Miju+xfstennx6NT0DDtOnTeGsd82nqSpF1oFf37+Cm+58koaaOv73565kwfQK9vfl+Kcf3cOrm1u45Mzj+Pj7TqWuLHUIrvet2EHd+8fxXAqGoULe37/pAe5/9GVyRiV5L667olqyORAdljimsGeui+3kmTWxgmvefxanLp1Mka3znlQa/SGyWmMTIASCRirVSD2kQTtO18eQFzxTJXsULIN+YPP+btas2URVic2pS+ZTVRQjoaSNg9SkQLNbLYLesDJh2MbiSGIQZCvruqKaZ5E1LPp8gxfW7sTNpDll4RSqUyKSoyWatT7+MbaKBb0vdO2+TjYTcarOwQI3P7iKX9+5nMqaepYsmEP7/lZefHUHs2dMYv7cJta+uo729m7mzZsJcZvS0pTSdV++8jV6e7JMKkvxL3/zfsqLLFat3cxgVothNYwrp6q6iKeeXcmi4xaw9PiFrHx5D9//2R14Zozr3n8u5540k6K4qear7GuFsXg9ESiLn/wJAammISU8ZtPW3s+Dv3+G40+Yy5y5E5UTV6qFSrlQgLEsNj7NPf3816/uZ7Cvj0989HKmNzWoxMmNO/dxz6MvsG3bVv7yCx9h4oQ6DNelSCphJPcgoCh1o7FAKEn5V719Fmlb4TMEIOztGeT7P72HZ59dxUfedw4fu+I8fMumkHeoToggk8m29kF2tfdRXllNb3c3tSmTeQIcpMwylyUhO528y50PPcsNdzzKnAWz+eYXr2RimY3l22rXpGQpQwVRAQhBEm++AL9bsYlv/uhOclZCJTPq51bfclM1fpJNoH5d8ixUB0AVctTXZ1piVwff80nYCcWepGyX6y49no9ddDxFKWGNdFM0VSQkz5y8S6mYSnrEgflJY8EBH+nXoJRsJWvP99nXneG7N/+ex1ZtYMH0iXzvqx+mNG6zs7WLH97yewwvzyc/eAGzJkrpr49v2niuTzYPdkyydTxinkPON7j78dXc9/BznHvaMq589xKSxTHuXbmB7/78dySx+NJHz+Xi0+cSVwp4o3OokLenJcwzvs/qjbv563+6niyV5PxSFR40LNm85nX5vCRTOy5xtZ3xSDDAqUun8NmPnc/EcWXEBVOrsvdDG9/YBAihFP1QOZtkeTiK7vVdWYRtlYjWU8jx0ta97Gjp4bjpTRw3pYYSEYoRusaSvAWdNCYdF1UDJkXPjF43vkO7VW/9bp1NobPxZcyCpDOGRVu6wDOrNtBYXcrSmZMojsnOyMW0Rfnr4ONRbz2Co+AdAYPkSc8ApRchNQg2W1r6+NYN9/PCq1uYO2cin/3ou+na182NNz3JRz58LueeNYPb73qCVate4ZqPXc7+noxKFJJC0/sffom+Xo/ZjZX8w19eTktLK//xkzvpL5ikbIsFM5s4/dTFrF61iqULpnP2qSfS77jc+sAq/vv+p7jwzONVfXVNaUKLOxtSD/FG6BYC0vDvgusxmHWIxWO0tfXz5BNrOP3MRUxsKtOFk9IkSSk+evjiNa0EHf0D3Pu7FWQyWS654EzKS1K8+Mp6Xt20g/ops1j78it86PIzmDlZ14dL2EErLMgZtUhSWOWnK2cDOWpV7aHVRnO+z8vrd/Gzm37LrJnj+fiH30NpcZF6huJenrxv84PbnuKex1dTVlZFd1s7Zy+ZzTe+cCVCaEjYwvY9MgM5brz1AV7avp8PXf0els2pp0ipMQpA0GGycDDCBqqESd9TOhUPPr2Fb95wNxniyuFbUvUQNPFRa6QAacfReThyIbapqpYsM4YrypMUhEXWTdZcC9O0KUqZXH7mLC4/fTapREw1q1IVIrZBQ2WZspdiV9ROzdTVKIe4IB8FT9ARO0QFEOQee3kKvsn9z23m+tseo7W9h8+//ww+ctFpxOMGnemsEhMbV5okbkF/1lHiXPF4EjtmMTiQU89fU20xlm3Rk3Xo689SVZyiKBlj70Caa7/xPZq74Nwl8/nK1Wcxqa5IJa2P1oZLSaYLIwd05Vz+86a7uOfRF3HNcjyjRAFZ1frPkFC64rH1M6pymUT5cYAJ4ww+c/X5nH3yApISCI0AQjB3wyyksJFd2PhFxGA9g4wP+7q6Wbd1h9IYWDRrOg3V5erD8aBtp5ZyHa5QD9v5DpWOHIGPyTBAkFKsgpo3EmqQfITtLb2seWk9Z50wj4aKYlIiwT8Gm4u85W2R+Iugc1PX8SuA4MVYvaWdb3z3dlp6B6mvivGZD55NRayYm299nk994hwmTSxm1Zo9PP7kKj7woYtY8cJWNm/dh2EM8tr2/Yq+nNtUwje/8lF27mjmJ7c8yrKzTmXZkllUiICKl2f95jamTahi/uRKpSz47Pr9/NN/3MjCWZP50jUXM7m+VCUdijPSpY7DR8gejGSrNm/fx70Pv8Cpp55AZUUxTy5/jnPOPIEpkyqVDkeY9IhRwBXvZ9oUPHkGhIb3aO/s5JXXNtDZO8DSExZRWV3BD6+/mY994BLmTJsYZBtIcESWPU2dD/WlkhdVa8WwX4XO85EWV6I4KmGs5tZOUqUxqipK1fIlcuAiU767p8DXr7+TVzbv4/RTlvHCcy8wsbqc//uXH2Tm+BJMSaySXZ1j0dE1SF/Bo35COTE/T9yVe6bjrsIMCGBRuRES0lE9Lzyyrsn9z2zimzfcS9ZLqJwJ+YzKG1C5Fj5ePk8iHldyCvlCQUnzSrmw7/hqJ2hZDo6bx7KLKHgJxfQIy1CR8qhOaIVStV4YeSZU2Hzx2iuYM7lBlRArLsG0lELfMQa/3/LxO5xvCBkE6SAqYLV1wOeG/36Kh59czUkz6vnG566ipjyuxOlE6lsSkx3TYtWGPfzXrQ9RVFJLLJ6ibf8+Zk+q5jMfvpC6ypSWG5d55kgysMeT67bw1e/8gvKKBr563RWcs6hR9TBR1UijxcgqdtAl7Rlsaenmq9+6geYeaRQllTkJPZ6gmkaV56oWErJi6K6oFhnKEmnee+ESrv3A+ZTaUo+jmeNDGePYZBC0svGQhLHeV8vOxqArm2N3Wyc7du2msrSY46ZNoqbI0ounGVeZ7PJ2kdqUZC612dDaiIquPZIf+CD3Osi/1FtlWRxzhiTIGax5bRt9PX2csmQu1cVx1YTk2NrgSD2cACfpnyA7UN1XI+/ZrHhtH1//3h105zxKYg4fvXgpS+dM5vePrefKy5bR0bGborIGHn9sJaedsYzfL3+VCU3jSSUtbrrrafr7+7jyvLl84v1nsP613fznjY8wb+lcFs4dT2NVOZn+fm787dOcsew4PnbpYlVJsHZPP3/7bzfTUFOhyqRmN5XhuUJvx7W41YhDU4662kack/z9zPNr+d4Nv+WDH30fSxZPZcOrG1kwdyYNtWXYIhWrGzAo9ky1FTdt8q5BV+8ge/Y1s3XbVmKxOIuXLqZ6XA1tXb388ue3ce2HrlAlkrqVTUC9C5um+pDopMChQ5pABb3wdPGf1iCR9+UdFzMuOQuyYTcxXVn0fB59eQff+uX9mLbJ56+9gp/fdC/d3QP8+YfO5/1nLyRpacbC82Q3JLkT8j9f6UiIdF1MUIoiD3Stt+6voxtGSXlzxjW475lN/OOP76XgJikvLWdcdQWt+/eTz2eZNqWRgd4e+nt6qKmuoKKqnJ7BLB2d/SoZsbGumpIi3SNiIOuyY28/A46Ba9sq+dNS16HjFbaXpr4ozzc++17OWbZAJUG7quGFpXJ8juT14nA663fi3OEzooh5Xzggiy0t/Sx/9lVmjK/g7BPnYJnCpMm8krf49BbgrifWcuOdT5F1Ykxqmsq69S8yZ0o1X//c+1gwZZzu1CvlriKt7vvsHchy24OPMnl8E+edOJ/iuEnM9IlJ2Gu0Dl+e2YJiN5/f2MzffvcW2jMxcp4ENaV6R+f9CCAwJeFaAnwSJlMAwMLyHYqtNBecNpvPXXMxNcWG6rGiAcLBz8qjHCCMWKjUjdGLqto5y8ImAhJBjwNxl92ZHC9t2U1Xdy8zJtQyu7GelFQnKLWV4f7fqvuhXqJGpGHJ2YWOPHjjjtZcOcBRjFCBfL1zV2IYSsRFBUQCmlmyYFGCP70FnweXr2LWzCkcN7WOoiDOPawKoL9p2IoHCx9G3oeD/czhsM4fOmc4PslUz6hYuWsUYfraaTmeyXMb9/G17/+G5j6PlGVw2SkzuPzcRWzY0sncWVN4+smHOP/iC3hx9WvU1E7gzvue5NTTlpKMJ/nxLY+TTBj869evYkZditWrd/Odnz4EpTFKil2Wzp/JhPGN3PjbFVx81iI+edlClVC0dleGb3z3LurravjytecwpylMcpI8Ea3MGR7h4hfuXAUsdHQOKCp/+uyJ1NYUk8tkKUkWYdu6J8fQwyCCPwWXvA87mjt4bdNO0gN9zJoynnkzp5FIJtRO6rm1u1i5YgWfueZKKstkp6KBtdpzyzMRAgTV1VTOL8A6aImtZMAFIGj2ygxU7QxbEfw4og/hQV86z0/vW8lvHnmexbOb+MonLuHntz3G757dwLnL5vHlq8+hviKl5rAkeUp7c4kXy7c4dkI534ThKQlrBfJ8kTbXT72e/wUyngCE9fzTDXdjenFOXryAC89fxj33/J69u5v52lc+zktrXmHdaxt535UXUFlVRmdfmkeXP0+uf5D3X34eNRXFqBBOLs8dD6ziiTWbVLhOMRa+jMpSa61QuTWxQf735y7nnGUL1XiVrIZ55G8o3s4n8O34LgkNq545Qem6KuA1LHKOSVwYNQlPxQ2ynkFc+nkYFrva+/mPXz7Aipd2MXXaTM4951x+8MPrKS3y+MRVZ/GB809UPkJl87hSyWSQN7Xsflw0CgQ4SndR2yQ5QjTvf3y9ci2uQ96weXrdPv7p+gfY3VvAVwy3ksZT65fMRdPTpcrSME3GJyVUpuNTbOQ5f9l0/vxj59NQYQ8DhEOIex1VAGG4fjlwgWG5ogopijKgIlGCP5LdLRmtMeUcOwfybNyyk0wuz/TGOqbWVVEkN1berZJLZGELdt2KPgxLI5XkSiCeIolR71AOgsp80vFZnToZkL56DR/yBUEWwlCcWOJR8j+Jl2Z9g7U7m1m3rZXLz15AtdpES5RZ7/Jk3gQNUIMFN4w7jwQOr5/6wyBKB1zfAQAV3nRlH+0YNbpW+e2BQJZmSww/r16TNB55wCTcIEIjr+5s5xvfv53NzQOYRoxTZtfy5x84HcMuUgJEd9xxM1/8wp/R0d7Djr3d3PPwM1xywWkk4wluuPUxpjVV8W9fu4oiy2XFi7v50a8eZsmyhSw5brJqULS7pYcf3bic95y7hGsvmaUS45a/1M7/+9H9LD1uBp//8KlMrLZwVAJ8nLgSNhp5b4VBOBDKyb/ysmj5Hh3tbWTTWSY3NRGT4Llu0KjmjIQ/pLvo2vVb+f/svQd4XNd1LbzunT6D3gmQKCRIsFeRYhMlik2FqlaXLSmOexK3l5fEefm/F6f8yXOKk9iJuyUXWV2i1SUWSexi750AiN4xwGD6Le9b+9wL0rJsUjH1FDsaf7RIYgDeufecffZee+21uvuiKCgsEBGtsaWFEtQIzcdM4OEn16O6ohA3r5xPDqYaE1YsHCWyImREjglzP/DauIDI71Hv4dpUfX4GMPWymDZQh4S7yNRwvLkf33z8Lew52ow7Vs/Hp+5eilff2o9/+fGbGF9Thi8+uALzJleoYCbVEv8htgDI9uA0AnED2kMTMVBwKaup85uAQlcaXtx2HH/97efgsX1Ys3Qm7r9zGR55+BmcO9eNv/3rz2LPnhNobR3ErTcvwqnjZ0Vzf9/RRlgZA5+693r0dnciOpLA1BmT8dQre/CjF99GwvY6Ltp+sQHmqKXPSqHYO4K/+OxNWOUgCEqQURUZH8Bu+I3Ppt/WH6ASBMZ8xmhK3qvkVLWYWBwYsDwq3pGPRgXCbUdb8Y2fvIbmll5cd9Us3Hv3WvzhH/8DEnYWS+fX4csPrkVlXhi6xQSZa9yCSfEN2xAHUtsksuSXyjxwWRMENUGTgoa3T3bjr7/xPM71pwCfH6ZJcTU284ic6cLEJxosI9yMwbYOrwnk+0whT376/mtRHGHC6igp/i4nCCrmORKUriWvQJhEATxiFsORLlgZmJqFhBZAU28MB0+0IS/oxawJVRiTF0RAZrTUqUhRmvNV8yiz8YJezQUn0AcBykurV82V8TOxXyoxSHQdHKlgTljIGL26N0wMHPksARUUH0FDbzqLl7Ydx5z6UsyrKVCBm60VIbOxT6VEc0YrR0JrMhbmIBJy6joBWUhZTmOD75Hr+gAQBCdH4bXYJB+yB+cM6IvKIIk8CphTPXRBWZykir1nzYuWvhj+9ZFXsWnPKWTtEMaX+PHnn7wOEyfW4LUth7DuuRfwv7/yaeQEg3ji5R3YvO8U7rltpVgX/8fPXsfiGbX4y0/fKEJaG/adwPcfewl33rJKpJa5H3ceasTXv/0y1q68EnffMBWxhIHvPLUdb1TtrCYAACAASURBVO0+gTvWLMADN1yBoiCrE2ZpPqYvv3QnLce6W5MWgzq8KQXe2T2A3Tv3YuL4WsycMVHWs6AktoboUAynz3bgXHsHAqEgJtRUYMLYMcgN+eXwNQwbWV3D7mNNeGnDDnz2wVtRW+qONV54VLjP9TwyIc9anr+7e9QqUXLhbnrGrgBlwm2ksyZe3X4K335yO/qG0njw9qVYfkUNjjZ24F9//Iasnd+7bSHuvH4GwRd4RC6Wlrsk3KoqjutdqA88AnSVvMtal/DHDWAgZQEvbTuNr37r5zKivGbxFDx05xL85KfPorGpF3/zV5/Gtp2ncOhoF+66cyE4bjIwMII39xyVvu4f3LMa2UwKKdNAODcX3//ZeqzbdQ4ZPQCPkZHxRo5U8jmR6V7sG8H/97kbsWrhDJD/K3vCyQw+kP3w23rC/8bXLRiSsx6VNLE6C50YKVwVLhzFNaEp2SOv78ZPXnwbRiKJP3lwNW5aPR+f/4ufYPfZTowfX4wvP7ACixuq4WceLOZ61NZRxRoTEEmgHZ8b5XxzmeIfs3vKRhtAY38Sf/vNZ3HgVDcsT1gMohjTNK8FyyOwBrxEteRwVFfhs9IoDtkibX7PTYsQ1pSNu7jJvgcU/LcOQXAPJ1Ug8jBU/xUlPDlElQQrWwxkgLYPjmD9lr2oq6vFtLoxKI8EEFADTUo8iSjCe8iofuM1/J/5AfyMHMdiHswDUEbhGBgpfcuPrxAPJgD8o8qRucDE/FlgN0ERNA0j0LDvbA+6W5pwxzVzJXCraQ2VeCnLHyVRTWhZzHicBSUQ86jMrFqMkruoJyHjXpdxi1z6nXpHgiAaNzIkrGSICb2pg0uxSJTGuaPsI9oDXkRTWby89TB++PSb6BikM6OGT927BrNmT8NPn34FB/ftx5c+dS+K8sL46bpNONkexU3XX4Owx8ZjL27CHSsX4HO3LxIm+9ZDJ/Hk85tw05qrcM386bJkD5xqwcM/ewXLl87HqqUz8POXD+Lx9W8jVBTBZz+2EksbKkGev0CEGiHQdzZ+FKvZjXrslbNSau4bwoZN2zC+dixmTpmISDgIj4ewqoGzTe3YtfcAcnJzMam6EnU1lSjIDUvbjckcSV1pw8KZ1i48/9pbmDRlKm5cPhcRcW282IuHPhMvJ0EY9TFwJwvcpEGNnvHLA/EsHlm3HU+uP4RsFhhfHkR5vo2htI0jLXFoWgArrhyPzz+4ApV5fviEgMj4x6RYTWV4nWT1wgRBcSLUHnAThJe3ncFf/sfPYdg+XL90Kn7v7sX48Y+eQfO5QfzNX30CW7adxEuvH8DCRbUope7D9Ik41dmHM6cb8cANSzAwMIDOvkFMnd6AZ15+Gw+/fhQpy4MAiYtMWgTB4DVaKPQn8L8EQZgp0s9qbE6iy+U7MC72OD78+qXfAR6who2z3f345yfXY8Oe0yjJCeBf/vRBTKuvwPce34PvPb0VhcW5eOimWbhzxSzkShGpCYDMZ8vAq+IkXwp3vax4kcgsZ5GxNQwZXvzslV34xo9fhu0rFJt0BQekYNvkxBBpC8DWA5Ick6oTMOOYPDYPX3zoBiyaMQ5+M6Uk3D2B390EQUVIV2dd1bncgnKUOSpaZDYbwuEETrb24MChI5g9tQF1laXICXhlfEXqK2ExEj1wxpwufXl9AO9U4zvMVM+bxjBBoBC/Osyp5a+gYF6eKyWtjmt3ZEYgaQbqtIE3Nu/G4tlTUVmaJ0GNXZZRJzAn61Z3m8FQ3WhVoymzGhX+lSqXa13jIKuXK4e+9PvsADxKb9yRUh5NENSMu0JcXJ4JiW3UxHDQD04y2EBzXww/eX4LXtt6BPE0UESJ4XAOugaGYWeSqMiloqaF7lgWcdMnfXo9E5MRuU/ffz3mTyiH37YwkjXQH0shNxJCbogDRjZGMll0DwwhHtdwfH8Tduw8BdNv4Z6PLsd1SxtQ6tPhMxX6pSR9f7kSESEYXreDIEUTGTz+4mYUFhXgmmWzRKyJznSdHX3Y8fYBqdgXLp6DmnHlGBPyISAkJdU64z6hEltLWy9efOV1lJdXYNWqpaIcJ9pJKr1yngH/dAGMr9Ktd3nOzjWPulXKMS6SsSQI72/sw7/+5DUcONaJioJ8zKsvR0HQQlbzYs/xLrT0plBXW4LPP7gcS6ZXI0i0QIQL+Ax5CZ7R1tGlJAh/9a11Mna5ZM54/P4916C/ZwDptAez54zDU+u2Ijps49qrJ6L7XCfq68ehfSiOgweP4mM3LMPgwADOdfbiiitmYdP2U/j3p3cgGs8gLMWISFQJguCxTRQwQfjcLVjJBEHODKXIRsTjA2m5XfrO+e/5TgtIZ2xs2X8W33jyDRxv78acaWPxd1+8EyX5EWw/0IS//LdnEU+YuG7RRHzm7mtQU5IvKahJZVQ/4yxjimh3Ss//vVTll3TTmSDYFFYDUpaOtmEDf/61H+FYcxQZT46UcV6KrFhp+MR00Cvv4+b12hnkexK457r5+OjaxSiL+BUqLEHwdxhBIEpAgobUuRoFJFWQYi+IN4AHKOdfyWI+3taDg8fPYtqEcZhaSzKiDd00EAiQ6MRHxIrXNce5eL10SQ/1fXoTXShNkH3P4K5GaZT1Ulb6var5S8KWUsVTcpEqdZKkgsmQmFHZMuKTsoG3dp8Ws6ZFs+sRcQ5/F4kblc917a7FHsy5ZxccGUp7/h0H2WVC2N7TrTyPeqvrZAIjgVqXtgurT2XDLX6e0rtmC0Kpaqo0iNyFEdPGibZ+PPHCNmzffwqDCfYbQ7DYY6RAkZmSWiGj+WFoftmIQTuLcCiC6vIiBG0K/FD6mCo8IWQZTDiOZ6rJiaSdwnAsgaGuKIrDubhl7WLcefNcFIY98At0zoNb+TpY4rR5/iWpjDMbLTRUTcO+I2fx8JMb8PFP3ItQQENT42k0nj0HnzeIoeE0+geGsPTqBZgzaxLGBKgtQMtqPmxN2Pn7D57Eju27UDuuCquvXYiCHBIcKRQjZI2LPAImW+/G2hac63zayGzHtDBi+/DSrtP41uObEItl8Ym7r8GKBZMQ8XuQtmzsP9aGf/r+epi2id+7fSHuWjUHBdSSF8lGxXNggnAhhOu2GH4VgvDVb61D0jRRlhfELasW4NqrKXAUwokzp/HTx15FKFKCj967AuPKCzA0NIIXN+1Af38UD92+GhUlxeLq2T8Qx5PPb8HLb59G1vJIAsDPzQSB6KPPNlDkG8FXPrdWOAh+6Xsr11iVIFxGZvt72hQfvvlX3QHDAvpiaTz56gH85OX96I3HMHfqONx29XREgjpaB4aFd9LXn8GUqjz84f3XYOmcCTLNwHrM42WCwOebdtoXNO+7uHfKe3oi0kKkbo+h+GOmhrf2ncbXv/8c2oY4X5snCKCcA1LscrjThs+vQU8P4prZtfiDj96ISZWFIqMuI8oeFiDv7Tp/q1oMKkHIOpW0T6pbGdoQqJ3zxx7ELQ1nOvtx8EQjZjSMx6SqEuTohjBYRQVOC6hRRh5tkljQGOe96VO/pwd9Gd5MUp1BXQPBt9S1nm8HEEXgSe6TLJL4StLgHDrpYYrvSl4GKx3dzMLj9QlZ8URbL5o7orjqigbk6CrUk4PAe8Nf/FcYvGkkJPdXsgHXcVxhDc5ddGpNJiwKHv9AcgRHIdG9N4qeqKSFU4aJMP00pBWpiDzUCGAr0VGWEk0EIiX0saAt7Oa3j2HD1gNo640hTuEAIlOG8rnI6iGxVpYGjpkRy2dOF1CIJJtxSJCs1DWPIAFBLSu/dCq0+T2YUl+J+29cjNkTyxFm4iqrmM+Oh05WNrJ9gVSSK23MvIPdHmlPAtix6xC+9chzKCkrQ3lJPiaOr8bMGZNQWkJuiY4jxxrx8vrNct21YyswtrIKus+Pto4OnGtuQSDgxbVL5+OKGZOQGwyILbga779YcqBaSmyHXEBHuQBQv8DtULp/FtpjWXznxbfx1Gv7EPIHUV8ekXFSZnJM9k3LhzPtcXGUXLOkAZ+8YxkmlOWKKpzK9lTC++sSBBGPsZX63Utbz+Avv/1zpG0/YBoIetIoL85FwBtBX7Qb8SQJbX4UFgRkbWSzaQzGk4LQVFH2Wtfg8fkwNJIUvkTCk68KC6I8HjYpSb4E/LYhLYavfHYtVi6ajoDwf7LQZXFxV32YIFyGEPgb/QiVWJ/30GFj7Fj7AL7xs814a1+rxMmwnkLYSMIyksh6dSQRgqYXI1/P4pN3X4l71i6A3zLhpUaJsLmdBEE4YE6CcBnrTB7+vE6J2+JMrCGR1bDlYCO++/h6nG4doF+sTGLwy+KxY2aRE9GwaGYtvvDQTaguDIj2CKXGDZ4bnNgTy/ZLf/12JQgSzbNOT52HvdM752iLaSFle3G2O4pDZ9tQX12CadUViHgo0EIuKCtH+rxJyJE/k1vtZlf/lSXPGJcyouboCNWQ9CV9TvJWiS3oSGdtdPSM4NCpFpxq7kNsJAmD2g48vPg5rQx8yAhJxdAD6E+aiMbjqCzKgx9pxRqX4RnCVZqw2KfUlGH25BpUF+cgN0zoWREZFeCs9O+pe095WWam7M1eRqmQS1/F4sSp4A45tsWul4I5NrbtPYH9R07j2mVXYlJtOfweVvXkIyhGukv8JfNNzRGrJChraugaTKK9J4pEkg0rDc1t/Xj2lc1oG0gipQcFReA/6rfSYpZC1EAuwiL0aMDv0zB1Ug2uWzwN1YX0WvAhv7AAVWPykOdPwW+wn82fEZSxOEsgDRop8fn6nM/EYKTGDB3gS+6LqBZm6avQJ8ZTRQX5yIv4VSInaRBRER2D0RSamttwsrUd/bFhWKaFspJC1I6txISaSpQU5EpqIoFEEnB3TvrXhxG5dUwmnQzBbTmIS+boMS67TvgQe5s68fXH12P/qS6U5xeiIuKBXyM/hEmGDzA9GEwa6B+MomFcET5130osnF6DgNdFg5wE4QK+0DsRBE5J8N4Tan1lx1l89TvPI8nWGxEjOyNCS5qtBI/IrZGqitcggAkblZyP0OGzUxKUXVZ41uOH4Q1KZhbSbASFJ8LEnOeEgbI8HX/82VuxYNbE0QRBY4XJMcwPE4RL38fv0zuZHKTTafh8yu48Aw2bD5zGvzyyEY0dcUQiXsybWo2a8hKJgCkzjRONnTh+akAmF1Zd1YDP3n8NxhZRWp3IM5U5eYqkVcGmnNkuazeJCULGogsjkU/lvjqYMNEXz6IjmsTuQ2dw9MgZDA8Oy97x+YIoLS/GkiXTMW3iGBT6dJTnB8BuiIMziLYKa+H3ksf8ViUIylKGN8uB0J1gblqaVHntAzEcbWxDXmEhZtZXoThAyVoGBRX4aPvsJgiqZlPe7goeei951fu0kn/Fj5XCRcbHGCzV+Is6zDUMpg009Qxh1+EmbNp6AJ1dgzDS6v22xwfb6wPZ7z7NgG5kpDFhesJIkbDn1WEbKXjsrHAQSG6TboSjNhf02CgvzMPUCdWYO70eDbUlGFOSgzz2s1mOy8w3uRG6IzvLKvoDQGPEj0A9YwZ6xfC3EDNs/PCpjVj30ltYtGAO7rzpKjTUliFEiNAZg2T7hYp3ClRS0LgkP5aOjKUMjqWxo9mIJU1s2n0U617fjsauGPrTHmRsH/yGKZwWzReUDe3V0iiIeLBgTgNuuGYuZtYVI48b0yNNIWi6MiNmS0GjOyQPK7KjiTKwCqZXiEP3VM+Dz1MGNpUyx2iBryojJkVCoZIkicmRImYSwbAtJho60kShHOiBCRLRDvFocMKHKybmNCovSq5z8jEl6CSkT6X1zj87bg2K/6IBqYyJN/afxg/XbQI8fty4YiEWTK5CyKfgTnHVNGwcP9eNZ17aitTQMO6+5SqsWErI1yOqcQo5c1sfKsRdmCCIh4LF52giZQIv72jEV7+zDglpPvrkwGeCQOTIEHRHZYeqcNBFL8G2gqr9JEOMGWkN8SaZkmjbYti1dFoNFk2uQpCmnkIOBnLCXiyaNwmFeWGBoTUrK9eh6exNf4gg/L+Nlr/4r10oT+76mETpu/LSPjyybodYJS+5sgE3r5otnink37DYOn66A0+u24HTzT2YWFOIz310ORbPqEPAo+iIDCHqLHISakJ7l/EIYVyl1oJbrLT3DuPlN/fi8KlmTJzcgMkNtaKGC8OSUUvq8+heDUPxBPbsOYZ4bAgrls3D3GnjUZobUuggIySLo/dw1v2WJQjCxZcenzuFYMArnIO2vqg4vlWUFGFKfTVy/R5RZNNlsyuWs3K0VxZM5wFLlwH9QS7jX/9vSy9KfMENOQSotpfOetDaO4Lth5qxfsdhHD59DoFQCNWlhSjLC8Dv88Bi5enzyeHFKpFwVcbk98URKixGMhMXN8Ci/IgoCmqWAY/XKwdSPJXE8EgG3T2DSKeAoE/HhLGlmDtlHGZPHoeG2nKUFYUlaEptK/w3Ej4/gASBjRUy5cXCWQnYkGUezdh4+Lmd+PGTr4pq5uI5E3DfzVdhUk25QP8yOcw2Ew825XXmwNmUauU68QqsrIK+BVPXEbeAxo4+bNt1BIdOd6CtL4nMCLkJuui4h4J+1I0txJxpdVgwqx5VRWFwat7D5+fRYctIqTuBSt8PJ58XwSEDdtaDRMpGLJVGPJFGKpVFLJFCPJlClqJOYu3s6BMwMeMh5HgMiNMoJVql9lVTLyTSSQrhTG4ocq70k6QS+qVg4WiLXDTWUYRMs+EjKcrjEW+C3EgQwYAH4QB9CwIIBYMI+AiBmjjb0o3Tra0oKirAlPFjUZRDCNexrJSpExuxtIGjZ9rR2d6HuuoyTJpQIkqVOrk1/CVwj7NfZaxX9ftVYuQkVVZWhHBe2nYGf/2dnyMpqGFQplZ8dhIey4usFoTNMTEtK+uF0z8iOmN5RViHyYOH7HCiczRyElVLG/khHb9/03w8sGYuckKO1LOQPvllJQEtyQ5/LwnCB6ib8l83nP0/vbIL2wtMEPhq7Izi7364CW8dbkVufhCzJpWipiwkfh2mRRnmoIz/nmjsw/GmTlC364FbrsBHVs9BQcQrmJBEC6dQU+MBF82p39PnZpHD/U4Xx2NN/Xj8+V14Y/cxpA0TwZAXZcV5GD+2HGWFufCRUxTPorOrH82tbRhKJMRnp6gwB2tXzMfNV8/E2MKgJAke1+TsEq/mA0wQLuxzqnB0sc6nyvlVlcfwTdA9CR2d0RT2H29CbjiIWRMqURRkLGal5nV69Q4kr3ay8yQdc4sPStznEh+QehuzRBX4OVM+lDBw8GQ3Nmw/jr1HmtE/NIziojCWL52NhdPrFLTkI2JCExpW1ORpMD0CElngtS2HUT+tAYOD3UgmkrhiziT4yKtz6laS69Iw8daeczhzrhOG4cXJU00Yjo3IgVBRWiCWvVfMqMUVDVWoLA6JJY5wOd7F3+Gih817uhfv9malW87Km+gJYWstoGMwY+G7z+7B8+v3oK66CqmBZiydNRG3rF6MsZV5CHiZcLEdwHXi9BFlVlr5yts2CXQajKyBwaER0RwwvH5Egj7pPQ8Px9HeH8fAUAxGhmTFAIryc1FZno/SgohYKasWliJC8vl5mCAYXkWe1DlmaCKZMhCNJTA4PIK+gQQ6emNo7+lHT+8gkqmsqPklUhmZf+azoSuj1DF0DtR8sAwiQCa8HiYyahySng7CCiHrkPoWJpXXFC9jdHTVadEpRoEz+itUE3eP/JoHY1OK3BbCFqupoN+LnHAAoYAHOZEAigsLUF5ajJLCCEpzQijIDSIc9iI/EkDI5xUnRbd1wn/OQ+VFMAFivkNExYbXm5ZevmbTTdFNEEjAUHrz72wxsDVmW9RB0LFxTzP+9jvrEEtzHDQsH8RvJZwEIQxLS0PXVMuB2hO8f5xe48ircHDsDLwakzH+c15JFgpDOj5+8yLctXImImSjSotJJdTCSZBEzEkQZCaYVeWFgO77vxN+4630O/YDLlQg5aGbyZrYtu80/v6RjTgTTSIv14fyMBDhvIskCGT8U4VER5STRzECchmsmFeFz9y3HLWV+bIuvBTtIotVkm2nM3cZHy+jRsowcORsN366bge27G/DiOEXQEqzU9LeIOmcvi2CQAq4nlaaIB42k2lzrqGy2I9br5mBm5dNR1VRLrxexrpLbzK8bwmC6oSq/5e+pCvowxsqY0vCJ1cXS1hYJhPUTL0i3VPExUTWMIRkR+lZjnFR0tLPviQVs+DBUCaDHQcb5SctnDkRxX5b2OQy7qgHpEJidSIBwFVEdDSsZaj1chsWqY98/uUuGsdhchTdkb93muCOlK1U4fLX7t+rSo8HHs12CHO2945gy94z2LDjOE42dcE0TDTUFOO26+bhqrmTUJwTcly7FCStRv8cMw/TFrTliXVvYMHi+UgkhtDb249rFs1C0NFO4HMizMpxyBe3HEc8Y2BqfS0OHjqFN98+jOMtvYgbGnSvF6UFYSyZOR6rF08ReVyB2R3o3uPVpOdXkB9GDs2KbFMINY6Iw2Xu6KgWQyZt4ejJdgwnTcyZVYeMruPbT+/Gpp3HcOfaq9HfcRKH9p3A0gWzcdv1V6CymNUAkRk2m0g8E2aHoAgMLMkUR2V7cfxsK040dSCaMAFvCHUVBZhTW4Tp9WOQm58rZCKpax0YjxW1i1exulddITKI2dLyIpkABoZj6BwYRGvPIFq7htHSMYiu/ij6hpMYSmaQyhhIZwhVc6M7h5D4EjhKE44gCoWDKEWsyYGnHENYbdOKmPwAi71SnSC7msvns2V44zvVOlVMTVbhSq5V9SwvhpcquWrH+pyf2xF2ES0MIgu6joDfh0goiMKcMMpLclBRHEH1mEKUF+WjqrwQhQU5yM8NSU/fS9na0bFdznTzuilKROyPCQIre57WSt9D9SZcxMdpBDmHs2FpONsxjOc27kU0MQJLY/JHJCgDD5NIjQZOWaXjIAgCf5TckVHfFdEDobaKTH2Qr2KiOCeI5QsmY3Z9GXwcMSMxmBXnqGCY5DXCPGdiYwvbXRotqgASlEOpSroF52gudhkPl9+xM/7SP46DEMhNF7EYtZctger58mB4OInHnt2IR1/dDTOcgyVXTseSWXXIZZtRBMbY0lKkv9b+Qby0+RROnmhBXXEAX/jEWiycOx4BmokSqZRW4Chb+9JimoR255AQQrh012ASHTSyCAeVgBknF5p7h/HTdVvw8ptHkEQu0lk67DFCpWSKgrwlmd+jcqJG9UQilYYUxvx7wzYR0NOoLfHiY7csw+qlM5Af8itxPV72O/xe3u1Gv48JApsBJI8p4xYP9aJljEuNLZl62jFx8cA0vEikLHTGYmjtG0BP7xCSwynEYlHE02nhDXi1EIJerxBK8nN9KCksRHFpKToHoojFE5g/sw5jC8IIMYBwYoHZoEYRJAWv0iEOliFiPqqfyVTM0Re+nJvTPdudIsyVMJYC13BEkslSFySeB6ohmvOENrmwVUeLgVdVntLf18jGt9DYFsULGw5iy55GdA/EkTETmDq+BB+9ZQkWzxqPooBi2BIqk0POSRCYbzDJ4iXR9ffJZ17DwqsWwdRNNDW1YfnCmQhLzskpBgWzcuG+8OYBGdm74arZyCSzOHi6Bes2vo09J1oxlGVfVhPSX0PdGJTk+mBlyJEg5M1xWxPBgA9zptVizZJpKM1Ral+iyvjOwurSQ8C7vlOqBOoPxFL42QvbsPlAE+65cTHmz5mMxzbskd7dlz9+M3weA9999HWpDv7kEzcKN0DImfSCJ1QsqIEpOWMqq2PXoXY8u+FtHG3ulOSAXvGcFCkI+TC+LIhrF0zA6mUzUVpMB0LnvJVMwSXP8hEzQbCQzpjoGoyjsyeGxpZunDzbjrbeIWHID8VNJJKmoANSxWh0jSNMTRKdOsiFhX3+WHEKFws6YXYuLlkvbsKtShoVhtQ6knUvhEAV0X5ZtPl8VvtOiaZ3u+n8qSY5LC4tgLwPRwpaKd2q9o0k9kxbNDKobeSG/dKrLy0IoqqsCPU1JaJRUl1ejNJ8SkwzweDntiThURW4sq2Wg1g+lDMpI3mCEgFzr14SHRI4TRsDwylpEcjnkfPCJdiqRFCQEkmI1d+rRsIFEzoiMOaeADb8Xg9yQgEEfUQchAShsBdRhXYmi8gTouKlZiHLbcgJISGAKkTK1kMqWXR9LdxAfelF3W+4W36Hv51EYUlUXf0JVtMmTJLUyfK3AujpGcGT6zZi/5km1EyoxQ0rFmLq+DEI6tIBdJ63lJKIJjN4a9cpvPHWfmRGhvGRtddi2cJJCPu5ntXaEdMuZ29d0iPk5YkUojIcyxAFt4CzTU2AmcXUCTUIeDTEsxC76keefgvt3SOATj0VEm6dcWdHNVeRhNWqVdPoDK6q7UVJZp+WlSRh0dyJ+MS9qzBlbAGCDneGnIWLvd63BEFqE86dv0M/njucQdj0AIOJLBpbozh+qh+nzrbjVHsL+hMJ8V83iIVrGaRk3IOSpl4EbFP8u4nshHLy4Q2GoHs9WDBvIhZOr8LUsUWoiFAMKaNkiZ2eoMCnAqcqn3bX/nX09rwH0sbFbugoKKDaom7BrAKELAzn7z30n+chYCNt6hhOmYjG4siks8IFEKYEe6McSvd50dg+hBdf3Y9jJ3sxEDNlD1RX5+DOW+dh8ezxKIkEhUEdEHjUlcB1ApwjsMQ1aRjAU0+/KgmC7rdxprENV82bighHQeV6vTB44Rrwypt7kLWB65fNhF/norVxtKkLDz/zBnYcbUOSvV09KORJr+gx0D9Nhy44GPu7NkpzPfjCQ2tE7pb64PIchChz0Tt5yW9gIsrevG0YOHSyC996/E1EB/pwx92rcbo7jm07d+Fjt65EY3MHtu46giXzJuOBtYtksoBBQZADx75XtNwt4ODJTjz87DbsOnZONPg5JuT1EM7X5Xu8ZhyVhRoeuO0q3CDz05CqWfqculfsjkmc7RmM42RTH042duBUUzt6BmMYGE5g3auJIQAAIABJREFUJGEoOJu1vTIxEJ4DD3LmCSQzSstGTi0VUBzZq1GIatTBUA5J9VKH3Pn6/52/d98jFe0F77/wey98j/sQ3vnzXT6AUulUmiJE7Uj6VNetJhxEIJncFo7QkjHgVHkct2IgpGJlUW4QVRUlmFhTIR4R9eOKUVHAMUiCjdwHClUjmiJ72iFDnk8OXHcSB8EaRSsV+dh2KqULl9w7P/s7P/+vuh/C4ZBcjGiLGj+z6JJJtpNtI57KIplKymip7vchHAwi7KNOvy16+UIndZMaKZi4X94L6HvJ2+K/3RulzSh8lPNIpYzR2uQUMVEMIJ22xLU0aaaREwmhKC+EMGW9JSF1kB6HukuPlmgyi4HoCIy0iZL8fBTlMmawCFNaFyq1PJ/EXvSmc+pLzcuqSSTdg76RJFpa25Eb8GBi7TiJI42dQ/jnxzfirb1nYNGQSacHA7Nn15rMzczdwkCtaBYwTkNdRn69OjHHDAoifnz8rmtx69XTUeinwBer9ounNO9rguC2X9lrTSELg0QhzU/NHpw424PXtxzEnuMd6OhJIJukrCT1z9MC3YQ8fvgjAUQNQyQkQ7aNHBrtGBkMpS2kAwWwvMzmAb+eQllBAPOm1eGGJdMwd0IpQhRF54iIwJIKKtQ8JCcpQyfHXsbpxlw+Yp3kc47AkMtqlcOeJDqDSQ9hYgLbhDo1REdM7D58BnsPN6GprQ9Zg5VXFmY2rbwRAgH4wiF09yfQ15dCKkkb2QA8XhPjqnMxY0Y5csPKbtQLHbn+kPIhcCtacmkkKeMn9iKbsXD8WCPG1o6FN6ihp2cAdVUliMhcrxoB4iJkoD/V1CkmOVPryoXEyAw2nrKw9/g5HD7dIdaj0AMw01yEZPGnZCMqwSZuOh1BJHD36un43EfXIOL1wDQNcRsUwY7LRPtVsy02kMkga+rYdbwLX//eU4hDR/6YsejqbEddRSla27rFGOmBmxejrjSMHD+Z7xY0D4mDDNQqOx+IpfDEK7vw6KsHEM3oyJiswNmqIheEBzc1J2jEGscVk0rw+ftWYOaksWoYRtcRTRg42dyFvUebcehEK1q6RzAwnEEiw2pGmQxZjp4FyZDulAQhbYV2OVW+oA9M3Dh2SuU0t7510SUmmyqJ+M8kCL/68H/3J3PhoUpkRFj+UgjQeZGEaiYJqn3B4CrVFe+JrZA7SSDkF0dRHaSMSbJlwu/VEPFrKAj7xDBq+sRqXDFjAiaMLUFhhKOH5G+o56XGL9TI7WiLZPTDOFohTpXkOJBdNG5f2huYHDBZc6BrciZARUodZ1sGcfR0C06e60R7TzdSqQQiwQAqyiowvq4Gs6eNR21ZLnI8BLGzao+TMKaz562MdD58/WZ3QGGmLgPY+VmSWBJhVNW1yTqGb5F5bDUZJmqdNjk8bgquUkl+D4s4GacX3RSOy6rihsidkIEd9ICJ8C+7p7zL53ESTG4NkhDTto2mtm7hLkW8GnLCYWkpbz7QiH98dCOaumKCMFP8jGeDuEq6/jcucuC2D91TTYpgJSWvzj8WbiauXzIdf3jvMlQXRUDqLrkKF3u9rwkCr5H3g02CLJMEE+jsG8Gr6w9h/YZ96BvmJuFspo3ikBcV5bmoqS7HlPpJqK6qRDQTxzd/8jqaWrsxa3wN7l+7CCXFuTja2o/XdhxCytDQ0dIIy0jBYNDVdOQHPbh+6Uzccu1c1Ffmwa9nEJT5cvZlgtJ2EBTY6TayZ+hE9ovdq0v6upMbOloLyqteEgQmN3ZWrjNr+xBL2ti2vxHr1u/E4ePnpC9qcbZ+VLRQERLUfDwP+Ky42/m0EMwMR8r4LyVhIilEMQZoBmeuB2kxqCUuP0PWJIV9PH5kMgYC/hAMzuB7Oc5nyc9iWOfhyN6Vz+tFMpmQg5B/pvALdfF1QjeCgjMnNYWHwHxAFxVHIKMnpR9P2WfFe9AQMuO45/pp+PyDa5BDvQRZmPzy5VNMYAKUyZJsqEB29uT2nGzDP3/vRZzpSkjVmRcErprXgIduW4KGqnz4hPzGTU7YV1Uc0vvTNDS2D+C7T2/Gy7vPIcHxN5OpkSEqiZRa5fijKI7oWeRrcdyyoB5333o10rYX+4624I1d+9Dc0YvhNNsGaqVxk3MunsRC1fGmwqUiV7pCX+zBh/1+5AWA4pCGMWPKUF5WhKrKClSUl6KgMFeSfhG3lpYC0QwS5UZFst8TgnApCcKvQhkkwZb7nsVQLIGBaAx9A0Po7h1E32ACA0NxRKMxcUSkwTa1ptjmkhYWkyIPr9sxWWOSRt6CRZtoJh2WjNyS9FhdVYKFsyZiyezxqKvIQ16AUxM2NI6bSWtAcZnUSymKsooaTXGcLuIlbd6Lvkm5+PG5sW8ctzw42zaAl1/fjJ3b90iiWVY5FvlFxQgFvcgkhtDTH0NXP0msJq6/ZgnWLp+NujG58HPv8X+6B15pw1xGSO2in+N38w1is+1+NBcNkMEXS4pSHpher5KeV3FC/Z7fRM4UE1BnFTmxRBFnxXtMrJWV34zKCdSeE/DPWW3voo7+yzda9oEtrS/GmvaeQSmqasuLwDKFK5rr6scv7MT3n9uG4bRCJ3w+P7IphYQTwVA+EGrdqzFgJufO9Tiutm7Lj1fo92ioHxPBn39mlXBo/Do5S5GLLoT3NUGQA4e617CQMG0cONWKHz62HodP9AN2RDzdx47xY9G8WiyYPh4NEyjcEoZPHpwHJ7p68af/8ARaOmNY0FCLz9y3AuPqirHj4AnAG8SkCXXo7e7B27sPYfv+kzjbNSJiSXyIcyZW4qGbF+HKaeNQEODYEhVfddEGcJQPRMZ1dElcpv3JI4fgsTudrgyOmMGy2lBWtM2dQ3jtzQNYt2EnBtJcFI7QhmSnTu9YzlcmB06PlBWr7oOVpVUplfukCSq5jRt4TRH/ScMjI3MXvtRhTb0IDz+/JTx26fEqiJiLXhMRHRLiWKVJ8BV6OclufL8OPcsZf/6rBmwPBZoYKFn9BGVcT7H/eUd90IgScGmnBnH/jbPwhQevQx4NTwgDyk2/jNoTli3IRFpIeMqjQvOGsHlvK/73119GzPBh9rQx+MK9V2JmbT5Eg1MqUa/YgTNjF/8VTUkxn+0YxLce34g3DnUjblBHwlYQsaUIs5Re5jFm2wYCdhKVEQ3VVVXoHYyjZ2hE+AoW76MEEv4/yYZcEXw+ymKa47dSteimTEWUFeejqrIcDRNr0TC2ANXFIZQWFyIU9DlsZYdYNNold7vjLsR50b1+Wd8g+gvOnhESLastR+ExmbQwOEzEK4r27iGc6uzH2bYudHb3yt+n0hzhYgtCqU0KsmBaSjJdZCBIsFLiUIRigx4D5QU+zJxQhaXzpmBqfRXGlYUFVaFgjRpcVu0M14/UTRlUeL18L+4d7q4RA3h12yk8/eKbSCWiWLZwGpbMm4K6cVUIh4IixsV9MziSRXNXLzZtPYE9O/ehoigX9922Cgtm1iAnSMzPIYtdpvhz+T7pb+FPUu340cLIlZlna5fW3ER/NLVzpdiSE1UQOMXNkZj6judAuSyJ5kQR2C4XIjD/6+IFbnLOAuDi90zxwdQkUk90WHQLqipKkUcROnJXdB/6kja+8bONeOr1PWJx7vMGIF8SlFNZV0uCoPTkoZnkdimyrIiA6UQplXgc3+1hUp7JoCwH+Or/uAmLZlbDryfhQe5FL/h9TBDUoUiyUEyMMc7gR09vxMnmHvgCEVQUlmD5gim4dvEEjB+bJ3PFrOqEPSzkHx+OdPTjy197DOd60pg3qQafunsZPD4D59o6sGzudBTmhgX6TWcNtHUNYNPOI3hz93Gc7ogK96G6LA8P3roMNyyejlxmiKJH7ZK31DnloLkXvVGX+gZRahChFKIHXgfPAtK2hWgqhYNnOvD481tw5EwPhtI+ZAVitOETxingd2AuzrqnyWwVBzEuXAMmISZhZCsURHqZDjlNjbeLOa54hauXmh5RkwWKTEVJYEkAWH06yYHir7s/U5G5xKVC4DUgw8rX1hEgFCyjehaRUWh+6gRQglgn/QBpM60IfwzuFP5h18+K466VU/GlB29APtngvHIHlrtsRRMTUcNAlhud+95MIZXRsXlPB772nfUYzOiYO6MSn/3IXMyrL0HQ3cmURubxQYKS3FGmdhraBxL40brNeHnbaQyleND7xMuCc8RsvZhswSixYQk43JQkBnl4n8hqJy3eJdUx6RB/BVtGI0MeWzQlCiM+jCnNRX1NOaZPqkPd2BIUF4RE9jfASR1C6C4ycIFMrLp97kgMn/8vB7VLXau/0ft+YdJGrTVXOMj9uTJuaXG01sJwMoPe/hjOtffi7LlOnG3pQVv3EPpH0khmCbdyUfgk0VBxXhFPyQlhbCdUapkZFORFUFdZiIVTqzCHsH1lMQpzgmKzLXvHWVsueUv5d55/kS1OdOJSxWIunKOXVM+mK2UKG3ccxTOv7EJpeRnu/8hVmDKuCHl+TXRaXTIpyabcH0w6R1I2jpzsws9ffAPRgQHcfsMyLF80DbkBn2orX7wd/Bs9rv8W3+wQZYX7xkPYVuTuVJrjs9RJUcRX4ek4AmTCSXP2kCjsOvwteRzScnQTc1dUTCXGjAUca6ZaquiJCDdGtWal/BFL9l/+vWkqjZLhkST6h2IoLCmWPR8moimGgx60DGbx9Z+8jld2HAS8nMTzwMhSw8AvSYpcmiBjPA+ELayUQEUqXyUIipzMWMg2A4XA6Dpq4atfugVXzauDFwn49PyLLov3OUEwEE+Z2HGoA9989A0090ZhI4b5U2tx24pFWDx7EkI+VlGWI3/r2hfz03txtHMAX/ynJ3G6I4F5U+twx6rpsNMpTKgqw/TqUjlQmRlK95xympks9p88h6dffxvbjpxDPGWjPDeEP/n0R7BkxlgRTzoPAznpnjo7L+PLUbOT56N0shn7umNxbNp9HOs27MKJ1iFkEYHNvpKdhddIo7Iwgkm1YzCmpFiCVzKTQd9AP06cacRInG2ECAyS5QhZc1HLjLVyW3AcFySrpJ8Av65WN5MDh5w5Cj6r/jUPMo98jYuK6nJK8Y19cCUh5How0KOAta8Fn5lEaW4A9XWVqK6pRF5BGOm0icGBKM6cacK5jiEksgHpy5oeSv1y9jyGO1dNx5c/ttZJEJz7fRnvuwQE0YlQEwQkiq3fdhTff2Ij2oZsaN4Acvwm5jWU48Hbrsas+koxLpJP6dWRdfg6NscFPR7EsjY27DyBh5/ZLFKsmjdPxkmpzy8SxnL4UwKViaCFJEmJtg6/5pM2DDtaYowlEypZSabCYR/qSnMxvqIAdePGYMqECtSNLRc2f4AdC+kZqgORPAbx3Ri1wnJY+xe6JCoStZoKuqzr91K3ghuEXPzJTUklLKlLkgDJhNQ99NWYJVuDfdEE2noGRdL2zLkutHT2oa03LhofTO75PCVgE+URjQRuJ8eozEojomdQUZSHOVPHY87UakytH4OKglzkhokgnhdQUhMRF0yCvJs41K/4yG6AJ+FQVEYBDGdMrN+xH8+9sB7Tps/A7WuvRXVxBCGSg6VCVV4fqppTExXCP6IcuuXB6fZBPPXcRvT39eLOW1Zg/qyJCPuJCF7qff/wfb/qDrCgYVJJQ7KRjIUTzd04cqodHd0xERvjmhJxNLYcHK8NBg0WY2J/blrw+X1Kc0ZVYIp74CYJjt09BUDLinIxpjQPM6eOw7jKfIT8bP+qfq7r++D+lz+byJNKSjWMJFIYjA4hGAohryBPkAtpr4nOjY6OIQP//th6vLB1P7IsOsSrhGuErVxVEChemUKAqQ4qY8AyAkfpe4UuUwSP7ZUAtVCyGZRFNPyvz92GZXNr/yu0GJQIzOHTnfj+k9ux42gPDG8GS68Yg4duWoyZ1RUICKNdzXYqqVhXnUodIkc7+/Dlf3wKZ7ozmFBThuXzxmJ+fSVm149DkWidWqpH78DDrHwzponjrb14Yv1ubNx1CiODKSyc2YBP3LsMcxrKEeamFfU6wkvSQL/sKheK6axgKP52OJnFa9sO49Hnt6C5P4WEFYTmC8MwktC1JCbXVuGqBdORF/IjOjiCZCqDQMiP0pIIujq7sW3HHnT0cQY/LIeZwLLCxXGrWAd5oRCICPDwcBHjcidBUKiaqt6dTSLzvorNKt8tCYINr2MKxUOe75eFSygcaYF1ly6cjsoxZYgOJzAUi8Hj86KoIAifV8eevadx4EgnkoaGlHgBeOBDQhKELz2wFgWs3NyG3WUMiAy/WUPNrSeSwNYDzXjk6VeR9gYQKCxDa2sLptaNQ3dXr4w03XPDAmXiFSC0zYkQ3i91oLM84MRCy0AcP3puB17bchyJNDeoJiOR1BVQbpdsW3HahCO7PDw4UusVqJwfjR4COSEdJflB1IwrwaTxVZhRV4Xq0nwU5RMpcMZvBa5UP0+BQMosy20guEnCaD7ljOpJFeSgFB/UkeHC+O6/r65a/VJKp87DtihgpGBalcsriJXQQCJtYmgkLb1YBvTT53rR1NqF7v5hDCcykkyQ/Mh+Mad6hKjIYM4RSstC2KehND+MqePLMbuhGjMaKjG2ogC5QQ8CXkUck/9dEKRZ3V3Kyw3qPFj4PbxmIoA/evp15OX68cAda1AzplgsvpUSI69NThE5gFh9UoOFOBVHrG3dKxLnRxu78MzzG2QE9K7bV6OhpkwmOj6QPO9SbsRvyXvYwqVWTP9wBtv3ncUrb+7H8aYejKQpWyyELkdxk8+HPBYWQaagTwLcEiX0eQX15tqmqBLRUKVOxGXN+KXGdkkzz4/omDG1AjeuvgLzJ49FMdEgxxjKTS7Fmv2CtUeiYV/foOz5oqJ84XHxD1LmkiiheRFLA+t3n8ATr72NxrY+pNO2yD97fTQb98g6JEKisk/KPqsxYMFsHQ0HsSMwqQZqyORfYW4Ii2bV4aFbF6O+slD8SDXhL/361/uGIDA0dA8n8egLO/DcawcwGDcxbXoFvvTxVZhRlUevLDHMYb+RTnrKpZ6QvDOMqgEnO3vwP/7hSZzqzKKsLB83XV2Pu6+dhTF5OVLNMTuS0RQ+FDk0VQBiXX20tRffemwDdu9rQzZrYe11M0VPe0w4AC+1q8lz8FA9iwcmOQCXr1Mpk1yKNisJX2vvML796Gt4ZetJZP2FyIr6mima/SE9jU/93keQTWWwaeMutHb2Ic1DRgNqx5XhptULRFf74XVvI56xZUHxIxPKEhGoUUBTke4M0ZhQ6AVRAoUgqANIEVuUAQiPfELnrIJ5oUwQ1LhiRn6fdcRl/JylNW3kBG2sXjELE+vH4M2tB7D/SAsS7Cj4PAiGLFyzdKZYa29+4yD2H2lC2kNUIggfUrhj9Qx88YHrUeBVDoijLYaLrc5L/DoTBKk6U2ls39+M7z79lghj3XHXGhxpHcRbW7fj43dcj47uQWzcsgszJ47BJ29fjvGleWpbibAIWzCc21ewePdIGs+8cRLPvroP/YN0aFSbmMgBOwhOEwZex7dCkguYCPhtVJYVYkJNKSZWl2HK+EpMrK5AYU4IQXogOBRFVzbbSdsUKiQqfuqIdfv7KjFw0wUH/ZEWg8AljofIB3C0uFMKo9mBs95daPOCBEHm/ylWJlcsT0vWrlRt5HRQAl3TZFpkaCSDlvZenG7uxInGLjS29oI69IMj1Pb0ChFQTYLIcKVa/5QJN4huBTGxpgzzZtZiRsM4TKopQ37IJwQt1XlQpDT3377Y8nKled33RYdH8MSLm3GksRd33LIc86eMQ0QEHrmHzscfQfZE1VH1uamFwBahik06RtLA2/tPYN3L27Bg/izcumoeCsP+DxOEiz2Qi3w9Y1uIZ03s2HcWjzzxBk61DiGtB5BlEcl9RYt32wuP6J5wnDyDytJCTKqtQF7YK+gy1wan7YbjGRw92YzeoRFR0lRFAbVSmAT4ZF7cq2Xh9yRkvX36rmtwxfhy5TfqrLPRreG0NIlEDQzG5DwqyosgGGRxrImejLQMyA0jIm5r6E9kcehsF3YfOIXG5i50dAxgcDgtZF8iJIZlyjmnJNOJVBEZ4R85jq1alJGQF+VFEVSWE+mYgCvn1mNcaUTI4oIXXwKr8j+XIFzIFh19aOdpQe4Y8oGzXfiXn7yOg0daUJyfh99/YCVWLZ6IXCq7iWiOenAUs1CzwYrEJZMFGnCivRd//H+ewJnODOpqq/D7dy3AyrnjEBaoF1LRea2MGj/T/TAIxzid23jWwvq3j+N7P9uKc90xVFZ58Bdf+AgW1o9DUBYK56Op1MYuPzOp8xYzqmpzMrTRPrA0qByRFneMUAXu0fc7+veEVMl2J0pMpmpLzxC+9ZPX8Pr2MzC9+VKxcirBYw5hen0lPnrPavz4p+txsqkDWc0P00PjGM5cpHHFlCrcd/dK/P/f2YjmjgGp1OVQ42JyoFN1/quaUgYNHL16QUpG7aEVyuCyvg2per1iYMMEi+xyCdWcGWbeqVE8GcKN4PMYW1mAtTcswLlzjdi0+QDi6TAsRFT/zYqhvEjHHTcsxshQAs+9uA1JshU8YWhmCretmoEvPrQaBcIDYZYszKyL93bc2+skOA7S90vf58qpJhJpEUrafrQVH7t5MWZNr8MPf/42Nu04gM8/eLMIhzz81CvweYA/++TtmDGuVObzmSAQMWFmPhxL4MTpc3j7aBN2nxnEmdYhEU1SLoVMECjdS/hYJV9EEQKcZsjxor6mFJPrKzB9fAVqq0pRXpiLnIAfPnmvoqNQTZHfQ64ID03ll8DDRfmEyLHvQNPOjVKCWvIV10zKMStTc5VKgOcXMAe3jler062Xne7rBbwbx+DJYWMrroq66bIFnTaMJLqO8NIooiEW6wrKdJEPBVOpK1FuKerYlM8lCYIaD1S7V312JkYiqMY9KZUQk18N6YyB/oEEWjp7ceJcHw6ebMOpll70DmeQIfPZsYCmYqRUeOQq0I5Xy6A4z49xlYWYP7Ne2pmTakqRE/JJpch95SYIv8hOcFRHR+OZIq4RYRKkEhqOnmrEo8+9grrJU3HjiqUozeGIb1aCtbhSOgeBoAZOAseeMLk6fr8aT6M6LINeXzSOJ9ZtRt9wGp+891rUVxWPSludf+7uxbgiWb/hCfo7/u1ED/qGE3j02a146uW9SFg5yHKvioU6R4apQeCBh6PZWha2mcTYskJMmzQW+WxNORU4MVUasx0+2oS+gRFF3HYLG/b6LeUNQgSIk0dFeTo+ccci3L16rkpGL5DLFRzN4SLEYnEMD8eQl5MnviXShhTeAH09VFEgR4zsKh0pyxaktqdvWHwWuvuiiI4YiCWzGEkkEU+lkDE4vcVJNI5CBxCJ5Ii+Q27YJ5ymiuJ8jK0oQklRDsJMSGyeK15oLJIvDiCw6DzvDXdJ60da7GpMRAUO5YhIdjrhfqmOWYUZNtZvO4Z//+kG9PQMY87MCfjo3degojgMvxw6Sk1MZlSZWUt3gQcIJVFVKDvdPYyv/eB1tPYm0TC+CveunYcZdYWKLOZ4CygGsxvAzhNKyKrvHszix8/twNaDxxAIZfHxe6/FQ2uXIMwNLEm+qnoUycRQYy+6Yp87NaXqBQs0xc+n2K+EE/l7IZ9JDUMmv/LaU4GRxANC0VTF86GtZxgPP74eG7cdgemJwKToBR+qEcOaJXOweNFU/P3Xn8VQ2kCaLRdfSLgLQSuDMXnAn3zpI/jBs/tw9OQ5MRmyTB4w5xee60wogVkWrROMObkgug8qqXAhcb7P0Mnl1xGgy6NFcp6q4lzJXfVfBX+TfDd9SjWWLp2FNzdvx/5jTUhrBTCRA5/tgc9IIt+Xxprl01BRno8n172FwaQFXRKEDG64Zhb+6PdWocBDzEIR9tx+8q9dc+cneUR6V37J01Zoj9t+d7X0mJmfa+tHPJPB5PFFMDU/vvnEZmzaeRo3r7kGLY3HcObsGaxefiVuvnYeSsM+0Y7I0mo4nsSBUy3YebARB092iKR1ImsIt8Di9IgjYsTuDScmeEf9Hh+qy3Ixe0IBZk8ZhymTqlFSkIPckF8x7OVgVzwQ7jKF1VjwmikJLLwbYt4kngqKRKpaOinVIcoGYNM8S+a1edvUczQ0JSUu0yLSYiP8zXUs9lLyXhmtlF6lIULFzFbZ5eROYdLHxJXvYYuJgYqCLeLXISNgioynG7zWJDNxWF7aWzstK5OXlxVBJEW5UqRXzVB0V44uZ7mPLA0hzu4wGRRiLP/euU7VI5PPpiGtqjt3DNTxRyFETxv3kaSBnoG4jDvvP3IKx852yMQSNTkMkkJ1NT4qBDGuZw8JaWkU5IZRW1WBhTPqsXh2HSaPK0SIBosiqENYmeZiLvqi4tD5gUnnDw6vgBoWz2/cjR17D+Gu21di1pR6cU59fv1edEdTygTHQU2E28LkXIy5hjG5vhw3rlwIM2vj8KEzGFMcQV1tJd7cdQrPvroHd65djGVXTEBQFCgzTq9ZbpST7Kso8wHgRJd0JPxXeRMff0vXIL7x4414eWcjLE8uwn4bY0p05eCqs/pmUs34m5WYz2Ih5Fe8FdG4cAT+5IDOUD9HTZiJqDGTUO4dkk5NP1p7kjAtL4K+DO5bMwV/cNcyRKjD7LgMq92uWmqJZArR6BAi4RDyc3KkylfS5m4arZAHJQh2YbNOocUUgqNuQibLdqqFDEnZRlZ4FVIESJvEA7/PL20SH6XuvTp8HnqlcPpBtf7EqkES9ksDzd9zgsAPyx6NVBi81zIyx/6JLeNfMVtH71AGh4+34PXNh7DjYLvMDBfmB1E1Jl96NzS7cEcMpZLno5IMXB1iAuVCx0A2gMOtQ8jYXuQHvKgpDaJQ7F9VBfKrXtxIZPzb3jDOdUVlnMS205g/owa3Xj0TcyaORWVxRCoK7jrKwHI8kEFajb0Jn1oR+AjGSDJjqr6VRSheXaupM8iLj98FCQIju7JlFjKb7sWP4b+tAAAgAElEQVTASBKHjzeitXsAlicoDny8J3omjfEVpfAHA/j7f12HzlgKGZ9fWN1+3QdfegQNY/z40y99BJ0DKXR0Dcnndnuj78ztJPN0qlXWxHyRfKj0xaV7JQuc15ywdLR1D6A4EkRxPsU5FL4gC0haDUwf5NSBJ+BFSWEOcnNz8MwLm7DrSAtidh5SVohDOPAbCZSFLdx87RTMn1eP42c6kGFSpfvlvk0cV4rFc6pBzIEjiOqMZ6S+SC+Yj1mKZVb5KkFT6aBLqHTM/TiuyV/sdcuPT0P3Wxg2ffi3x7bi5xsOo6pyHBLRNly3dApuW7MIpUU58vnSaR0HjrRh577D2HXkNFp6R5Cxc+S+meQYiBmRVwybxDXQTCInoElWTthu4cxaTBtXIH3wQIAz+LSPJjHuF8O5JGUct+LBbJKtbCnPDIdvnNV9ErKoFqpraTlqPFkmEOzXc3RVmcgQgUghI4fuYMySg5wqaQESndwRT6JGXGMkLFkGRDNM2ihcmkoUJmp4MZzRxNgsz8t0VXFOuDd5fSnuScsPM5uF388f50PcUvyIgAQZEwa5G47Uq5+y2yTzWRZSXg+iFqeSgEK2ZBzINZHVELXoDAoUebgeuY/o0cEEgfuK+gjurhbG1XnRMSYLWUK0w2jqimLnsVbsO3oWjS29iMZNaP4cpT/PRETKdyYwSqwrN+TD1JpyrF4yTVRHK/L8jkCOI2FN7wwnKMswhZP281bJvtFM9A+l8ci6bTKW9tAd12BMcT7e2HUGf/ftZxDNBp1ZCSYZDjtEYFTCvVE01Obhf3/5QWzefBK7du7Bfbcvw9IFk3GmdQDffOQ1zJtRh1uvny8aLrpJjwgm9Ux8VILAn/hhgnDxNIRLsbljEP/4yEa8vrcJ8IQwrbYE9900B1UlSg5d1qKsPDWuOEqofZcTRaW7CllmKuyT6S4qM9o41DKIh5/ahv6YjYAvg3tWNOCP7lkua001BRXRmy+iYX0DUfESKi7KR0DW28U/zzvf8atPvF//s/4T/9R5HO29Igi8SHZkpYJ3DnOm3qzCmvtG8MIbR7F1zzG0940gbupiDsT3kosh4j7MkHk+kMAjz0extZVkjQiWyp8zug8xKwhvbpGIsWjpGILIsGt+CamPIpOZEuxEZgJW1kTQqyGkZ1FZEsCiuRNw7dJZmFgzBjm0rGVVx7Ekmft3tNadKksEMgRBoMqFw2plr58wlSw2uvY5ylrMz0wyt51RNC8ThSyyVgZZgSJ5MKp/Q6MAj+7B4IiJR57chhff2oeoJcc4dMNEkS+D+2+aj7tvXoxwgFrchMjOW0i82wISGNuxH5JDaXRCnPdBVXE8KPoTGew72oTJNZUYW5o7elAJYUaSCUU9l0NZZEU1pNPAhi1H8KNntqB5wEbGmyPB2JMdwryGCnzh/pWYPqECWRkF5Pcqcho3hJ/tIG4b0UFg8uB4Yfy6tS0ZjwMjED2QKltZM7t8OFn8kiCwKlSHimoFGIimdXz/2R14bN1mhCM5WLtyLu5cM0/6ckPxDA6c7pQkdtehRkTjPJQVY154Gz62rDQ5IIlohTSgMMeHWQ01WHblZEyfVIGSAip58rNxbVNjQp1ubu/6F8hwMoKVFeJa1sNkAPDzPhtZGc/sN73oT1sI2AaCtCoPehEx+O+moekkS/mRsf3IejQkNVtGoX7w2Hq0dffgc/evxaKGUoHwXdkgrko2iajdoFNF1K1GTRPDWRvPbT+J9TsO4rar5+GG+ROESU8ZZCY3VG/sGkzgmS3NGLQ9WHn1ZDQePYXGvhgG7DIYsREUBywk9DypxMKeFKpzNFw3ZzyqSvNwLp7Ef/x8G2JDCfzRXatQVhpGz2ACP990GLvPdmHF0mm4cW4tioL0xFP9U8PQhHDoF0TB6TEyHF8wNibrkURk6TVn0D+cxu4jzXhzx3EcO9uN3ihJMX5lbiWVFdea6fzZRkHIj5kTxuD+G67EvMnl0nZQZj5EQdWMuQpKalRRjgNBjgzRLvne02+KcNVHb1qKvFAAL205ib/89yeR9OU7EtI8FMg0ZzzgjyaLfAh1Y4sxa+o0bNuyH+GQjf/56RuEST44nMEPH9souiUfu3sVinID4gkgpk7i2+ASkT9MEC7lOGWC0NQxiH/60Sa8vveMIFLzJ5fif35yNSaPLQE9ahVPzafElN9x4r4zqVeD2g5nhmeCkL6Zenqw52wn/uJrz6AnpsPny+LOFQ34/L0rBT10G4JCIWfbo68PyTR5dKUI+HzifnppNNlL+dTv73veO4IwmiAYor/PGxa3/Nh/ohs/eOIV7Dl0BraHI3ke+IMeMVYKiTe8XwVQEUNRXAMlGqP6s0wMyJSXYKH7kNRDiJn0uY6jMC+AAChtyxpXjXSoY/DdX4JveJUeAf1jrTQQG05hcDiFNL/kJ/SSwoSaEtxz83JcPaseRX460ikWO9cN+6HSIhALVy4mFWzU9QqjRIhSkiDIKIyrza47whWqf6l5CRmJW4Aamxm1l1aBmDVx1vDLiNcLmw5h085DiCYIj+ZizVUzcNO101FZFISW0eD1Ec244DO/Y4E7qK1q8TtENlXRuHC8CrysktqiI9h//BwWzaxBaW7EOYhHJ7iV2Ig0xvhw2K8jtO4Tsukbu85i3aa9aO2JQvOZmD6pEnffuAQLxlchyO+jWpkYRSm2Oj0MHDVTUQGTSxJG0EUWt8zHuZwFde1UyXMdI8/jwYqVzM9KdMdlEqdMC999dD2efH4jrl2+FB+7ayXKikJo6RrAq28dwitbD6MtmoThy4HBvqKlDlUq64vWPp+1mUVBWMei2ROxfNEkzJlai5I8vyInyvXR8tgVW1EP5F1JcOKnkAaMDGxPACkq/nk9GEpksed0B9461IrWriF4M0MoKsrDjJmTsGJmHSrDTMRN0aI43jGAPac60Gt40DqiY9PO42Lwcv2iqajJZTjKIqMFBL0J2RlcUVuCeePLpQqOGR54g5ynNjCU1fHznWewftsh3HLNLNxwxXjkhyiPTD0CD8I+E4O9w/iXdQewoyWKW9ZMR39jK9461oZmowwlkQjyjRjiWi4SmSTM4TYsGhfGn913NSaOH4N9fcP4yrdeRTKewh3LZsLrsZDM6th7ug+HWwbEoGlxfQGKfRYidgqLptehtqoKft1GiPPg6i6qhsw75sqVaSQlutIAlUEtP3qHUth9uBlvbD+OfUfOYGAoAY8/Ao/P5zjEMnXyy34L61mMyQFuWzkP1109C2PLc2SJk4GjvFoUg0JdApMmtXdPnuvFd5/aiKkNE3DfdQsR9vvw4pYz+JvvPIMohcIk5eO1BaBZAbVt6G/iMRHx+5GMsazyozgf+LPPrMSKedVIxg08/PgGDET78ImHbkN5UViSTYlv7HV/mCC8p9OPS6WpI4p/lgThtChUXjm5BH/+qeswsaoIsOIKfNSC7zq59stNHGakWRWDZMJOFadMEPY2deMr/+cZdA4RDLVwz8rJ+MK91wqCcD5BAAaHhtDT3Yvq2mqxWmb5QhGt390EgT1KB6ZkxTEi1chZPPrydmHghz0WSvNCmNYwHovnTsGU2nLkR7zw+RQ7UwykXKb2BQRAVpcMutyeSTJ9NWDHvnaEfFksmFYrgduV7z8fQH51isBKkK0Dvvj74YQlsqhv7DyA/ceb0RONI23YGFuWjztXXYk7V85AUYgwp1La0qg4SKhP2gvkWHBMyeEsOGw58XVQw+jqsBBPcWXVqb5P8bbVVJU7uO7mNkrkyBQonz1uOgiaYvXLsRyvz4OCXD9CPn6Vh4STXAgb9/xB9MsogksEUweqS3xj5U54jEkPF/jx9j4cb+rF8vkTxQWSbQWX4CliSw5Rhr1uARCcsXZW8SOGhcFkGkMJEz4/UBD0IjcgDukycuNokyq/BUfpkT+AVhQylkPo19G0+fURwLH3dciho9JWLgvWbTVJckCTIz4Hh9nOxDVl4ODJFuw5fALLls5HQY4X67fvxwubD6ClM4GMFuYxI31xzfbDx54xPdWtOCI+G2Py8zFv+iSsuGoGpk4oRMTvRZCIiWiIKy6Em+8J5c5Zb+/GlFeOk0xCCadnMWRHcKgzhuc2HkBbdy9q66oxcVwlfHYazR1dONrYjrIcL26/dj7mTKyS9bNx9zH86OXdaE2F0Z32w/L5kKNnkB/OgZ0agc42mScAk94lZgy3LByPO1bOxr7jLXj4jTNI6WHASCFtAb1pL6JxQ/6N4gBNXTSYnoAk6Z+6aS5WTSzB5mMd+MHzOzC5pgKrl07Dkd4EfvDqcdSVleL6OWU41tSPfYcbMbY0hDsXTcSqqRUIRAL44dsd+OfH38S8WVOAaA86o0np/fLa4tzJZhY5ugmvlUaOOYDP3HgFVi+ahYgYGl1IyFNTBxeOjKn9TFRO6XVIUNc1acsNJwzsP9GGDTsOYv+JRml1Zo2IVIxeH7kmaWkbhQIeeIw4ls6egAdvvhqTqoqQ6/fB51OJv+xjaSNS9siSPu+Jlm78x2MbMGfGRNy/5kqEvH68IAnC0xiitLguOp6ARblzv8yuE4FyGt8ikc7kuDA3iz/7LBOEsTAyGn769Jvo6GrH7z9wq8zVuy0Gfr8w7z9sMVxyksAnpxKEjXh9zxl4NR8WNpThK59eg4nl1JehiR/jsA+WVznW/rqXPD2J/aOiIxJTGS+2nWzDV772LLpiGnx+E/etnIov3rMceUwQHK2CkUQCHR1dqKqqQMAfVFNnbGmLCNpvx+s9IwhyztE5z6S3go0Ne07g357bhhPtgwKLLmoox23LZ+PKmRNRFPbBL2UtxV+Una7yoHYzdecmiR2qYthTeYwM+MbeKLbuOIBbVy1BcZB65fy67pj8XOzmKudEJVus+A08qNgDJgP04PF2vLBpL3YfbcXg/2XvPaDkqq7s71/lzjkHqaVuqZVzQEgClDE5WWAwYDBgz98eHGeG4BmP/XlmnNOMs0k2tskiCQMSyhLKObdi51bnVF25vnXOfa+7iRIMtlljamEj1NVVL9x377777LN3Tx+FWQn8v5s/pomDKWqsJ2UOE5tp/GvMTjEm3Qdi6iSMgAqiTPeDWufqjlOMOWOaMKlGQ1LHtouadkyn8YjTVkNRcEuEgLS/aYKjFW8r6XAa6KPCLcPIC+1v1xcGtAdvM8z6A2ysHbclTJOWHk0Qc/joc3jZfOAU7d1+5k8fTZos2JYw1Ozd5H4YoZuAIAsXWSIX2a0bElZbbOR9YRPWFJdVXxkCm7Uw8kG9VNrOY+6bkAdiKnL2h8Qq0yi+ssaN4Zn7Y4wHPARM+UEyJ0Ss2NcXpNsfodEfxS/inmCIEydO8vzqTZxuldJQMqEIuN1yL0yCi1CIojEqyEtkxvgy5k4exdiKEjKTvbjEkUzxjn1MthWwoWfEfEUngEEOaoMpSyWuVZsiqvcY285EeWzlfkLhIPPnjCUt2QthAaGmdinRwqvXb6OpoY2lF5/H1BGFNLd3cfhMDxtO9vHCuoMU56bqxNTQFcMfCDIk3UtOsrTQStErwpDsBPLzMnh8zQF++MJBktLSGZ7tIRgMU9sNXUExEnNRlGLEVEeaIxDq5L9uv5ArRhfRHopwpLGDJJ+blrZeNlX3sfFEO1VHT5PtS6Yv0EVuUaHW0Kfnw4KKTDxJSfzbo1t4bedxvnH3x0iLOzne1K2gRMZ0yOlTN1NhEgUolaQ4WVSeSnFaIgniMf8mXcoAQDDjWTUc2tZsR6PLBws7J+PSRSDmoqYtwM4jJ1ixbjdVxzro6gqZhd7tJCBtbNIK5nSSEO5h4pBsrl4wg3kzKpWplHKCQ5geE6FlYuPjMY7WtPDLP61g7MghWqJI9Hh5af1JvvkLAQhyTiJ+MVbjalojpaS46FcSSJK4eumtjwbJy47zlbsWM39aOT3+KL99bCX+7g5u/+RlFGanauudiIK1DKnD/iMNwtlme/vnBiC0WwDhOC6Hl5mVhdz7mUWMLMjGaXuYqD7q3ZuoBpOz/WbK2mEQJ+RwsPFwNff/4CnO+F243SGuv0gAwiLSEiR1UVjhCHX19WRkZJIpZkjWuNb5/OwT37me8l/8fe8PIMRESRln3/Fafv3ECjYcbdIUwNlTKrnzqvOZUJaNT7znVbBlTBze2Lpj6nx2XKtB7FKfFX1DAi1BB2u37iU7PZ05E0eqcEvrebJY6Q717Oy00YzLIuwhrP7VpiUyHo1ogE5VXSdPvrKd1duO0tLdzZjyYr7wqUuZXFFgbC/10ksZxPSd9AWiNLT4SU71kpNlQofks5UhkPNUDGFEXCJ4so25zbpmjC2MI5ypbIWjYVqae/B5k8gSgZtTdu3GotnhFKGkaa0zdnm6xbV8/c9lTFitZ/3X3UyiJn3MSw8uXtmwj8KCDKaMKCVBA4OiCr7MvRrUsqolFHtEG1GPPiaquBVzGFvdI/oNAx7MKdvpZvbvyHcbPYExvT7HsCb7UOyytIo0pUUwrEY7InRUh/UIdPaEaWrr5sSpJo5U1VDX3E19Z4herXGHNCGzpbuXvqjwVQla4pLYKQ9BEj0OirPSGDuiWPuFx48qIjfdR4LLhVve13+e9lgeNMGcQ8emXjO9B9AWdfLDF/fR2NjKJy+bQaLXyVOv7OTY6XpciUlkemJ89rrzcSal8sLaA7SdaeL2K85naG4aLeEYP31+P6t3nuKmJRO4Ye4wfvrkJk41dXD7x6YypyJf239ViqVBaQ4eWn2AHzy3l8suGMcn5gyjvTfEkxtPsftEM9deWMm80TnanvWDF46yY+8+/r87FjClIIOjDZ3aVVOQm8oLK3fxyq46Ugpy6Y0mUV/fQ15ahPSsTDrauhmZFuKLV0/Vjo/7H9xEW1eQH395PvHONl5au1tZp7DDTVDoXdFsiOg35GfB5JHcPn+8tttq25iA7rdMoG+sq9kjSsGsskhSBjDvEVGxlFj6wjHqGjvYufc0m7Ye4Ghtk3rcS3R3TASfou6OBkmIBRhelKnhbhfOHEV+ViI+ORaNAPdarqRoq/KDT60hOzOFm6+YRXpSAsvXHeM/fvk8HbFENV2LOSNa0jAOfOY5d4TiDM3KZd6McezbvZtQoIkvfeYqjRxvbA/wqz+9Skayh09eM4+ctEQVEmu+p1rnfgQQzmW2s98jI8BoEFbw6g4BCD6mVxbwL3ctZlRxtvpRmK4CYWXPvkExJVszb1kmhbpGiUD49cPV3PO9x2npkdJvhKXzx/H565cogxAKhWluadG1LycnG5+Uhi0GWWUu5xLa8F5O/C/43vcMELRCF43T1hvk0efX8uTLm+gOxxg3sowv334l44dk4pFeY7kgTuk5HZTNPfhEdLHQDmgDDjTKyIvfkcDxxi42b9vDJfNmkJecqOUFpfnVNtW0R57tJV0Jpmdd1Ava2GEEW1FJVURDnWQCfPCZtazZXkUwFOTSi6bwlU9dTF6yx+TQ6/c4CERgx75TvPLyPiaOL+GyS8fhFA8FiQnWLg6RJkkNW+glY0xkuWqamqYMTAlrsnZRop8609LBg488Q1ZeIR+/ah7ZGQm4YmJiJCUJE2WrIhpV+7lNZ99ZTtwqPPTLFOzLpJOotEZKroLTS2s4ysurdzJ/1jgK0hLw6vcOODSaMBJL7mBpRN75ehsAJTsd87+B/IeBed7uVxRmxuQWCO17TlKdNwEE5Q5khycttcIYSEdGMMbx+i427DjK7oPHOVXbTEeHeDl6CMqJeIxC34Sh2FbUxhxLKERPLMDIoTnceMVspo0uJC9Dyg0G6WsLrIJEE00qi5h1MyxWwzqNsxQV5bilXz4Yd3KsI8q9P3uWW5ZM5pJpQzl2Jsh3n9pGS1+I8aOKGZEc4bIp5aSlp7K7oYeHn1vHvEnDWDKtku3Hm/ivJ7bT50zlUxePZFi6jx8s205tR4Sb549i1pA0fI4oGT4Hw3JS8SQm8OCavXzniR18+rIZ/MOSsRxt6OJHz+/lSFMPtywez9LphaR5XXztyX28uH4H9981H48/yMMv7CboSuKyeWM5dvIUOw7UM3NapX73+u0nmDDES2lpCbv3nybHE+D2y6aw51gjD65u0An4f746B0cwyOodp2mPOgg6xYDLq22WSYTwRf2cV1bIdTPLNGtBTF6E+9Bx8waQMABMB0Q4BgQbKGQcS2WoqCDTmiPE88AfinCivo1V26tYte041U3dhEJiSCO/Z+ycZR4akpPExXPGc9n8yfpn4QaNZt20OLd3i8fGBlo7urj1uvmU5GWwYtNRvvWzJ+iMJClrI9kLYSEdxfgtHtLz9ISjjB9awrf+5SZOn25i585tXHjeBCaPH8X+Uy38+vEVzJhQwVWLppDmEwMbS2z7kQbhbFP8W35uAEKbBRCO4XR6mT4qj3vuvJjKkhxwCJMk75IxOGCh/I5fpBozma+MBsFh1SSECdt8uIZ7v/sULV1OBQjXLhzLP9ywQAO42traCAaC5Ofnkegza4TuGa11wbZcfs8n+Df4hfcOEGSXH4uxp6qOHz/6MntPNKqt6d23XMpl548lSZ36BvwE1MJS0ZrlkDhoJ2i2n3LxJR9dbIIT6HF42LDtkO5oL5g6hiSJg7YAgiJz/bizcTTyJbJbk9tr+v21YiwlDksVL/3t/lictTtP8LM/rNQdmNCzP/za7Uwclqv581JGkU+qaujgwcfWsHvLCS5ZMJE777gIl0t6sJVYx+uKIT5oRi0wMEENECfCGMQIhmSX7tKd+omTjdzzzZ/SFfNx+yc/xqXzp5LskvZG0wLjVEGk6ZowAMEwLu/60knS1D37p1SpeQlgkxKDdCI4few+1czRY6e5ev40tZ4WEZwWFqx+fBuLDFzlt35vP6dglTT0vC22Q/UKbzpQXWR1OjZe9Sah5mz3cRCZoZ9n7qhEWInfQzAKXb0Rtu+p4dVNVew+Vk2bv1e9CxwxUSq7iMquTgSwon3Q6GUTaGIQkGS8u5RZmjiqgC/f+TEqS1KRrEbtuJBOC6u/w7gDWO59lrZEJw0FwmcXXMpvB2IxbRXcfLSV3zy3nm/esZgxWS4ONgX49rN7qO3oZVx5HjOH57BgdBGFCR5OBsL89rWDJLvCfOKCCazYtI/frDlKXyyZIek+ra3vaPPQ60hgeFKE0oQQzngf40pSuWX+RIry0nlw9T7++9m9fPLiySydXcHyTVU8tr5KuzxGF6WwdHYZ540v4ccvHGXlxu3cd/sCyrMTeGxdFVuPdHHxBWOoaTjF9v0NTKwsUxZg+5E6hub7KMov5GDVGfJT4lw7r5zXtlWx+hikRIP84ivn09vVw9MbTtIaFSZPNDtuvPEwCc4grnAPC8aWcdu8Ucb0TO6RXtN3Agg2jWO7p5pyjGbbKVgUgCCFAbn/ZqxJe2ww7uBMd5RtB+vYsPUIO/dW0dHTp2xHUPQ/0j8eD1OU5eGaxdO4fO44ijKSrH52gYMR/MEIy9fsZt2W/Vx3+TxmTCzndEMbjy/fQGO7tA+rolABQtQlTGAIRzhCQhwmlpey9IrZWmZraekk2eclOSmZVzbtZ9ma3dx41QXMnTxMg7yEWVHq4CMNwnteDmV2GGAQjuFyephemcs9d11CZUm2PIE6L8UQrY14YLz7VxifFWsm1aFnZXq4YMvhWu759jO09DhxucNcs3A0n7lhHkSCdHd2kpuTRXJyshEjiqBZhWgWpD0Xk7j3fPZ/mV947wBBuhiicZav38tPHltDTUeAOROG8q+fuYxh6V6ckSBSQxd6ThY0bW1UgGAxCYNXDhWfyQMhtbs4AZePJn+UV1dtZdGcyRRnJmqIjTEFstqfNKTI9Jm+2wKmPd9W97DZ3FmTin6/6AUMLdnQHuEHv3uNV7cdwRHx89XbL+eGxVNxWW2KvcEIy9bu4XfLNlOQmME/3j6f8eMLaG3rYseuKq0vTRk3jLREKQ1og511bLJLln/MtzedaWfH7sPk5GYyqnK4+jT87NGXeXrNXsaMzOef7riaUYVZJAuAEIpYzF408Mc4Tmpy11uW3bcOCm3jUYHVoEKBVaKRo/E7fDy/dhfFhbmcN7IYjwoS5aiN7bXpBLBLdAYgSYSyGdyGXrfgnvke69rav2eXI/TY33B4ljGW/bc2pD7buLY/xAIYogGRUo2QwK3dYdZtPsryV3ZSVdOOXwo/uoMzNtPGikR2DWEVebpiZjTFBGypzsKBKypuklFK87zcfedlnD9pqOZRqFeHIh2TA6BW3hZLoOdvTR5mVzCo7PAO52MzCFKKe/H1ozy3p5b7b11AhTdMdUcff9xaw/6aVmrP9Cik/fK1c7i8IpOmaITfbDhKd1cHdy6cwqnTDaw6dobukJPEKPQ4nLx2vFetYWcNS6c4TcRxUSpyE7ly8jDyM5N5cO0BfvLUbpZcOIUhWT5eWndAhaojyodQX9eAOxJg7vRy9tXH2bFrN1+/cz6LxhWwYl8dDyw/xuyZIzlZL+6SLUwaOVzXr50HT1BakEZJfgGHjzWTkxxl6cIKth6qY9NpB6HGE/zqKwuJRMK8tqdRfTcUYGlImFiCy/49wnnDCrl+SqGes7RYGjOoNwMEm0Ya8D+xg9pt2Kkkjxo5WgxW/7gUha2U+Jz4I1DX0sur63ezassRTjeKNsJH3OHTbgWvM0hFgYfbrpzNwllj8LkNWPc4Qjrm9lQ18egzaxg6ZCjXXXoeqak+Wjp7NS3Qp+6sxvBNg8pU3Cjzn4u8tATSpLLiEnWTJPI5aD7TycNPv0ZLxMFt189nRGGGtgLLdYhLO4kVS/+/0iCcA9N6tsfvQ/Hzc9hH2NsHYRC+/8hKVohI0ellRmU+99xlGASHNujLnCUBSAM6OHtDM7iQag/BgTLvwK5HhvLrR2q45ztP0ywlBneYaxeM5dNXzyXc16NOhmmpyXgsW3yFsfrhFsf7fx0gdPZF+MOfd/Dgc9tp6+7izmtncde1s8nSiS+7koIAACAASURBVFc6xCRYSEg6Ne01XgdSW9RVyxjeRJRGl9puHGckotR0r8vNpr0n6OnqVbovUfV/hu6Wmr9Ju5MJ26UPm2mPNOUHXY4s9YdK47RubtrPjCugqSdpWcOKBRW6uDfq4sEXtvCLp9YRjYS47qIx3H/nFWo8Iy6EJ8/08NNHVyir8ZkrFvDJK6eBO8ayFVt5evlmJoyp4K4b5lOcI0FKcY7Vt3KsromExCTGDCuiUCKpY7B1dxW/+sNyUjLT+dRNlzJ2WB4Hjjfy7z99mlZ/hDtuWMDH51aSriEiph9b7VvjYsNpYMbZAIJdYrDNa4z1qxFASolBFoUz/jAvrdvNJRdNpjDZp9SuRc6aRdCiZ83DYj5RAEJ/uaJfnWEhavuorKfMhDEZ29q3AITBVZJzfOgN6LaMkJTqE0GgS01+Vm47yWPPrqe6pk080XQhF62HALVILKTgVFrsTHnKXAup8Ma1zShmdpsxp7oXpifG+cS187h04XSSfJLMFlPjIbUYlr50vTZmurQP3exfDatwNjbEjEnT779610ke2HqC+25ZwNikqCYEHuuJ0hOJ8vzWZp5f9Tp3XzOXz88qpSMc5jfrDtPu7+Wa2RPo643SIjp7hxgjOeiKO/j1c3tpb+3mEwtHUz4kk5BT/D5giNtBWbaPZzYe4EfLDjJtygTiHfXqNnfFwilcML6Emto2Xnh1E4mpKbT4Sth16CjfvHM2Syrz2XCojt+8cIAZ0yupOdPElp2nmDuunEDcyesHTzOsIJ2hxUXsO1xDdkKEu66chDPRxyOrqzm0Zxc//cql1DR38qfVp+iLRPA5grijbnl88LvdWm65ZEI59y4p052zJGuaFua3YxAMsLd/aLeS9WtirBqvdg9ZAlrT5CICaVMCk7slcLi5vZfNe0+x7NUt7Dpyhpgvk76wdNfESYp3M3NsMbcvXcjoYdmaGCv6IOluki6JJ/+8lW37TrD0ynlMnViO1+k2PhhqFWKNexFEW54UJmHDsDqRuPhfJGkA1eubD/D8y2uYdcE0Lpk3lUxpAxc2T23Ujaf+YJGiceT8UCzXH9qDkOt1olGMklbx2vaj6kgpIsX77lpCRUm2sXm3ykYa+9x/Qd8FItg6MB1fylFp1Ve6GO7/7jLO9MocE+HqCyu5afFU0lN8ZKSnqaBZuuiMfbgRudubLE0XPRt98SG5yu+LQWjpDvDQs9v405/34+/r4Mu3zuH6xdNJ8UqLj+XHrpOqiTyVFsPmlm5CfWIxG8ed4iExM42UlERSgAS1JYaGQIw1W/Ywc/wIhueK85Ul0LN8qdQQRxYBFRBJycC0oRjrZ4lTdWhYR0dnDz09YoMpN89NTla6Ojm6nCLGCyqVKbVO8XEPOx08vWo3//HASg1JWjK5iG9/8RotmwTwsu3IGX780PN0dHbzoy/dzPjheVQ1tPKNnz/B6UY/N15+ITcunkSyz8nGfSd5YNl6jtY14XTFmT9tIp+75iKKU30crm7mx4+tYPex09x8zUXcuHi6Oun9/A8r+d2KvSy6YAL/dNNsipOkjUIWMQFAA/3Q57Lh7p8/lG2RPYwFkITVEcGaw63U2OmaRq5ZOI0Uj+yy30DpvOP+9+1/cK6r/P9itOuaIN0XIgq1AGLExZ7j7fzgd6+y73ij3kv1q5DFXsSg4R6y87yMGF7EqGHFFGVnk5DoxR8J4g/KHt5oUgTPqsFVOEgs6KdiWCHjx5SRnCAktWlHGhCTDACeN551f83sXU9Sd7oSqBKGw/U9fPHhP/NPNy9idmkGVTVnWHuojjiJrD/exdFTJ/jW7fNYOCqPpu4A//3062QU5hML+NmweT9+b4Yq8R2xPsJuD6e7E4lEPeR5AqR6Q0TFtCkeIN8T4gu3LOFIdRs/emo3SxdPZe7wdAKhGJMq8ilJcRGJxLQDKeBy8ODmdlZu3su/3T6bS8YWsHrPaR5avofzZo2htq6VY4ePcd8t8+iOePnOo6sYU1FKdkYG2/cdozjNxVevm8HQkmz+68ntbNi+l2996UoOnGzhl88eoKg4m4qiFNwxt6a4HusIsOtwHR+fPpoffXwULhEGa3aNHS72XsfM29wHi3Do1/rqRkPKdlG6A1E27T3Fz59Yw6G6HqKOZNwycYcDJLjCjCzLY3hxJmWFWVSUFVCUl0ZWeiq1rd38/ulVCrjvuHEJI0tzVHOl3p5WqU7Es/IECljVjqh4n7ZORkkkEPOx/1gTTz6zivR0H0uvXUB5YRa+/q6edxlPHwGEdx0UcruPN3by/UdWs2r7ERV7zxhZzL/etZBhpVm4TYazsqTGhuWdrvWb/t5indX/Pi4OpVFeP9rIv37veerag3i9cS6ZWcZtl89gaFEuXo/HVB21VKwxkRa4sJHv/3GAIEYkDz6zhT++epDeUA9fuW0un1g8HXc0jM9tUslkN9fsD7H1UC2bdx+n6ngjnW1dOiF7U1yUlBcwe9po5owdpguoPFAH65qoqm5gzsRKCpOk1UcESxavq0I4sW0V4aGIxUyXhPq7x510BR3sPtbC+m2HOXCkmraOHsKxGCkJPoYXZjN1/FBmTx1BWaEYo5gwY0EwUst+cfVe/v2BVfSE4syfVMh3vnwNGYnSU+BmzfYj/OThZeTl5/Otf7iO/IxUVu2r5ms/fJBhxWXcd+fVjB+SQWtXgP9+ci3PrK+iT+xp3ZDqdvKNO6/ikplD6AwE+dPqbTzy4jqmjR3OV2+6nNKsVF7auJev/ex5Jk0o4+ufuZThWcb2WOJiZcFTH39rg3q25fiNAMGUOvSfWIRg1EFv3MkLa/ZQVpjJzHFleC1m4r1OxX/N9yttLHSt3HdF8U56/HEeeWYDDzy/gZAjWbtb1GJaAGG4h9EVOVx35flMHD2UvFQfPhUbipW0AfK2+sEwUMZOV2ndeER9HVQeoS214vb4wVmaiM5G4qA7onD3r9ZQVpDEnVfN4FhNB4/+eQfHT9YTyxjKgqnDuOuiYjxeJyt3HuelNXu56tI59HT0sOlgPZ3udDyuBFzBXk3N3FHbR1t3WAXCxSkxzb9IdEdIcwa5bNEEthxp5NdP7+SzH5vI/1s8Rs9fnjh5hnrjbrocDrod8PXf72bzzkP86x0XMTo7hSfW7GfF7mpGjK7A5xV1f5S7Lq4g6nDyxLpTJCd6qa9roisQZ+6kIVw9MU9tn//jTxt5beN2vnPvDRw+0cTvX9itMeGzJg3HKX4TLg+vnzjD48s3c/W0sXzvhlGmeOWyfGw+qAFmbdr0X1ZDkEZDRcKqP2jqCfHQizt56tVt+PtMecPISWTTIWJmcbV0aykhJyuD0tJiSkqKae/ws2XjBs6bWMrSy+cwvCCDRLe0Opv2YIf4J2hKpaHMhIGTRSkQiXOyrpM/PvEyrS2dfPLGy5gwdghp6nVyNg7qPVyU/6tA4iwToAKEBgEIa1i9/bC6as6oLOJf71xIWWmWbh7eCBDO8Zq+CSCEnGE2H21WgNDQGSQxwcUVs8v57HWzyc0UV1oDQCSzxeORO/t3BhDEkfDBZdv43SsH6An28OVPzeGTF4vITupwLvrCcY7UtPH4y9t5bech2v3S2+vFE3Prrk1kZmFHD4neMDPHl3PTFRcxYngBOw+dVBOdqSOHka3dTsZx0X4ZmtBI1YQaj0QFLHg41dbD46/s5NkVO+jsEbtYr8n3tmjkeMhPiifG2IoCPnHdIiaNKSEtUdrXTM1y+Ws7+fffrqIr5uHCKUP49hevJitROg+cvLZpNz95+GlGjBrNvbdfQVZGMs9sPcE3f/QIs8eP4rtfvIFMD5xq6ea/Hn6NNftbdRGQnmexr/3S0gv55KLRSne8svck//P4KxRmpXHvbVcysiCd9buquO8njzOisoj77rqK8pwMKxlOBEuWr4fqOEwo1NletibAiAINLSZ/CjpcqhdZuXYHVy+aqUFFJqTqw/3SoxfxpdSRLefl/Uca+c//eZKjLUGi7kSrnOQkgTCzxg/htk/MZWRphu4ERXwm7opS5hJPh372WusFtjWzLUWyUwJNzrrpXT77NT+XKyj3IGQFIYmb59pD9Sx7cR2zJlUwd8Z4PC4HkUAItwQ9+aQHADYcqueZVzaxaOZ4rj6vkkQX9KnVqwNPTFNCaHM4+PoDa9l3qpEv3DSXi0YXkyQsnfiAiFTX4+SP6/bx/Sf38PmrZ3H3ggoS1ETM9HOvO9zI81tPUt8VYG9dL+5wL/9x11z8bZ38etkOOp0ZhBFq3K093UU+vxpZBD1ZxEWIJwZYcTdJYsw0JZ/zpw7lf57dy/qtu/nml69g36l2fvrUEQXryd4wnogDTzhCwBHTVMYbZ4/jO9eP1+dZ7rW4zX1gY9J+BOxuYStuWlzJhHHqjsR5becJfvXHVdQ2+TXK19hkG2tqOzxHgJSwATp2HHESfOKwGSQe6mTS2AqWXnERY4bnkZHowacZE+KVomIYLaX6idMRjLLr8GmWv/ga/vYebrn+MmZNrcDnimqpyKVj893P/JzX/XNqAz+XUfvheI+e9zkMCnnfXwMgRJwRNhwWBuE5uiIekhLdXH7+cD5z3WxSEyQ22vjXmPEif/g7AwitXSF+++xWHn1lL/5AD/9864XcePEkkrX25uJITQe/eGwDG/ZUEYxHSU31MKwwj+KsXJlNaG3v4GRDA23+Lt01TB5TwdUfm0Vvby+VwwsZXZChbVAe3cpZWQ22ckkUIhHTDSC77NOdfn755Dpe2rCH3kCUrKRESnMyKMxNJ8nnpaPTz/HT9XR2dSmaLx9SwI3XzOPCGeWkiQ1yzMELq3bxjQdeozPq5YKpZQoQcnxmfV2/5QA/fPg5souH8K3PX6khPy/vqebff/wHKoqL+Le7rqayMJVmYRAeXcGKLcdVN+AP9pCa4uGfb7+EK2ePwt8X4dmNR3j4+bWMGZHPF25aQFl+Gq9sPMo3f/YkE8YN5d7PXE1ZToYFgSyAIAehOgHjyni218AkYmrvAhAicZmk3Ly27bBW4BZMrVSvB6cm0J39M8/2nX+5nw9kBdohwdIN8oentvHQM6tojyfoBKyq9XCICcPz+fR1F3DehBKSfKK4ECmjdHAYq10JyTKeWWYnYUcYq2e65SytdWRhpkRR/wEyLPKN2uQZj6jBWEfYqXXSddv3MLRkKJNGV5CXm0DM5aC9O8yBY01sfH0/M8cM4ZaLp1CQaHwlpFSkXT3SleJ004mHb/zmeU43d/Lp6y7igsoSkqW4pOZB0B1z8dSWw/zspf3cvHgad8weSrLU5iR0zeFm8/EzPPzSNqobm/Fm5DBtRAk3LxhNR0sLK3ccp3TEaHoDIbYfqqZeom/7uomIoFgAvwZkiT7ERaY3zm2XTGXy2KH86tktbNyyi/u/cA2HTjXzu5f2U1hcyLCCDFxRpy6Ita2tHD52ksunj+Gfr5ikAkWxWdWgqw9qQFkPw0BMuMUOSFiWw0VPFFbvPMqv//gqJxv8ROM+wxgpPrSutxWwZcCChJCKn0lQx4eCiWiUrIwkxlUOYfyoUiqH51KQk0ZGkg9vNE5zR4jq1nY27T3Cjp07KM3P4RNXLGHKmCGaLEksoBsayQ042ypoZL/nAhOsjqIP6jr+jT/H3D9bf/LOByPP8fGGrr84gxB1Rtl0uIH7vvccHSGXxihfNnsYn1s6l/Rkn7ZD6zzTrzP4ewIIcWjpCvDAs5v446u7CfYFuOfWRdxw8SSZgukIxvnd8xt5ZPl2QjEnFSXpLL5gAhdOqyAnNVn7lHuDIa3/PbXydY7WtYLbx9SxFUwfV8ri80dTmOIj2SFQw/QqqPLUjtDUTFYzgYshyh9X7uUXj6+kIxCjKDuRi2eNYcmsMRRmpyiI6AvF2H6wgZdWbWH3wWp5npk9pYLP3jSPypJM/Zzn1uzlmw+spCfk4IIpQ/nPL15HrtfEMO08WMv3HlpOe8TBt790DaOGZHOssZV//+njtLT5ueWKC7l24WQN7REh45PPr6W2oZOII8a0qSO48/oFFGekcry2k18+tp6dB07w8cuns/TSKXgSvDzw9Bb+8PQ6Fs0dyxduWUyBXCPlKUUvMdgf/tzqVjqFWKJMrZmpS7yL+q4QKzbtYeGcCRSneHCFQ7i8iR8ohf7BzyOiBpfdm6npykQhdtTf/NELrNp+Ar/LRzgm+9s4qa4o18yfzKeumkV+mhjh2G2hJi/DyGUlglnWIXuqNUuR3UOvsMFanTSR2hhwfiAv/UbRR0R71Z8jHEuhORJny7F6Nu84QU9nD1GXJIp66Au5SEhMYMHUEcwbVUC+dtxJmcWHK+bQgCcBEgErK2THsQZae/1MGF7IEPW1sAy25RnBwcmOPg61BRmalsi4bKdppbNaYruiTmo6gxok5vS4yUvxkeNzEQ4FafOHtVVLXAc7g2E6xY0qGlH6XHw5jZOFKWVJGacw2Uuiz8PB+k5au3oYXZZLlz9A7ZluctJTdOGUZVfef6a3j5qmXopSE5lYIGU1UwaQ7/pAX+q6aG1BrXJVLComW24CMQdHapt5ac1ODh4/Q0tnH51dfk2NjIjzYdyl84U4mupORqljEZ5pmrsCPmExJdtFtAaJ3jjpyS7dnOSmpeAIx2hq7tT5Li3dzXkTh7NkzmSG5OXgtYSTMhaMObgRZ9ouqW8I+rIuiHGQtFGPVS97G7FbvwX1B3oh/3YfZvxY3wqM+uc5+/6qSLH7rwIQNh9p5J7vPseZ7jBen5PrLhrFP954EWmJkmBrAII67P5dahC6+nj4uTX84ZVd9Pnhcx+/mKsXjVfV+JHaJn700DL2nO5gaEEen77qPC6eM4r0BJmmTdiRSHq6o7Bm10l+++QqDtd24/P5uPGy2Vx24WjNRPBEo2pWYgga0Qo4TV67ag+iKjjp6Ilxz/ceZV91O5mZadxwyTQ+vnAChWligiEVaw/huLi3Odhd1cQvHn6VfYcbyM1I5IYrZrJk9ni8Xg9/3nyEHz7yqhATzJlQwHe+/AmyfMZvv6a5lx/9YSWrdh/jzusWcOOSCaphePrlTSx75XUmjhnBZ29cTFFWsgq+DhytZu/hGlLTkpkxZQSFWUJFuNm4p5qfPfQSmSmJfPbWSxhZns/hhi6++d/P0dTYwe1LL2Dp4omku8VcyuTa2+EgA34KZ39ItUNDnyWTnCh6hp6oky0HT9LtDzFv2kjSnMbcSSOXP7Al8OzH9p7fYbWi2lBRGKCuQJTPf+33HKjtpVfzKSSGNUJxppvPXD+fj80aRYpLJOXGZVE6ZmRSNUbeJupLznqw4c4bjsueh7T8YjofPpCXZgqIcloEa30QSSDkSqDX4aanL0pTUwv1LWe0rJWWnkNxUQ6FqS6So9JjH9DWYQEIIsoVdiDsdBMQBb2WHMxzIU2cEsUstXT7uNWAzBFTgaqkR4pLoDyJSqNrd4hTdTim48X8ltpnW6mfRghsWvPFg17/29rJ2tpv44EhUe3i2yhe9T6iugM3uz4tkNnx4RZYky4MuR/eeAyfppzaNuof0PW2vtksLPZ9lGfCMESy2KqXhsOBdGWdae2mtu4MNXVnaO3opqGlm8a2Xtq7A3R0BXWjISUqSRwRRkrOLKz6ghhx6ZTRsqfRISDps9YmxuP2UDGshCsXT+L88YUUpSWQoFbTkngq+ReGG5TrqmBVTXWMZfdbrbqNbbkm6Yolt+ZRC3h8I6gyupoP8jp+IE/A+/4Qu7Q8+AOEuZLrIOevpUDrNp9u+usAhE1HGrn3O8/S0htVz5qlC8dy943zSE/yWhtYu7ygd/XvR6Qop9vZG+D3y9fy0Itb6er1Mn3kKCrL8om7Q9S0tLDz4Em6gjBv6ki+dMMcKopEISx7DnlcTS+61JMbOkI8/OxmHltxgIA7lUkVeYwqTtJEt3g4ToJDeqZFwy4ObC4VJ8bdYuwTIiEWoasnyisbD9Pn8FBRmsk3vng1lUWJ+FwhFZwR92pdUSartmCEZ1Yc5Ne/X0PM5aF8eDaVZQX4XB5t+3p911GttC6ZOYx/u3spKR7ZOsTpDsV5fOUuHnphA/lZmXzxxvnMGl1Mw5lWNu48RlZmOudPqSDF56S7L0Qg5iQk2fYO0aRHSE8SbwEnJ1u62bB1H8VZ6ZpTIUEwv3pyI4+9vJmRQ4r4589ezriyTHyyiClAEPtpyyTJnu/P4ZnX3ZG2R5rdcBgnDV0Btu6pomJoAaOLM034k9R6P+z9uAIQ9P7b/s0xOgJRPv0vD3O4IURYnDqlqBWLUFaYxN23LuCiCUNJkL5Sqz3USFhMAJeMPe1g6Dfj0eLCAFiw1Ww6E1mMzQfUjiQfberYUVxigCwmXE7xLJBAIGMXrRmCattttQe7RDgnqZFynKbd1ezdQwoWovjwWAIqEfCaQC41FVcKXT5LHEXFcFksto1ToXmeNONeRb7Su28SPmXhN6ZZ5ihtgzHLykQXRWH1tHVZr5rh+GyAoImnDoc+qxGbiRF4LDqQmHAZ8tlybDoCrfMxNt/awmDt0t/3SvKmX7R3nvZjYwCfWF4LSBDQI+ZghkHS9lnx1whF6QtHaOsO0tTaS11zG7WNHTS2dNLU3EFbe5/OO4FQlGBUQIYALEutLiBJbHnVmMzktbjcXlJTkijM8TKuIp+JI4oZOaSAopw0khM9xi1cwYXl1tKvdRjINLFBlnRlyRgyng8GSIhW4s35FTp6z6US8UFd6L/w57xdqJIEdkWk1Cw+FR63XmtxoD3V+FcqMXwEEN7hrksuQSjKiu0H+MWTqzhR3U1CPFkfvKAzRFiifh0+PJ4Eli6awP+7Zho5SaLGl12CIG/xMZAedcl09/LMqoP84NENdDhT8EXaSI62EwkGcXmSkTVaDG50upTgI0Xs0rseJllETmEnfa4MXAleplbm8O2vXktOkkxjEnwkdqcu4jExbQrTLa6Je5r4+g+e07hblyesLU0+dV2T3bqTrIQYd924gOsumYlH2q5klxF3cqC2jZ899jLbdx3m2gXT+NItl2r6XSCsZVN87jjBWIz1O49y8NQZUtMzCPR044sEuWzheWRnJBFxOfDr90k4k4cjx9v5yrd+TWcoyh03XM61F08kxYPqLrQ/VwGCmCTJxGmpjs66WElIlXGQ1AnP6aYv7mT70Tra27s5f1wZuYnyWS7iLum7/pCLFGU3pgBB3CdlEQnTHoCbv/IAR5uixN3iiBbGEYlQVpzCF26bzwUTSknQBcxLTNpFdcSJ2bYAPjHtlu4YW0FkJmdLb25J3e19tFVvOAdQdi7zo8zXGgisGgLjPaEJoPqPQ++V4SyMHbgcU8Tt1RB0NXTSraKliNfCiwAdFz7tzRZAZC8j0sYli5Yh/8VFU3b2hhqQBV3AiGR9SJeMXBt7kRPAIIZSEnVtkgwVPrwJRJq9uAERsus3mRwDQ1S+R7g7WTQHKz100dTzlk+w+0gsWCSAVlwWrfbTc7me5/Ie445iVkqzqza/FZOFRayW9RiNiFdBmOWVoSNC/FaEDZGU1VCM7t4+Gs+0U9PQRnVTu4KG03VtnGnrpcsvAVxoCJfIepxKuUg5RnQ+CXotQ5EgvgSHzgWjhxYxZVQpk0cWUl6cSVqSaBAMI2CXFoTlcAl6sF5yjLJjlvj07u5e2ts7ycjMwOd9O+2CcYn4gIbuuVzqv9h73qi6sM/IsECdXT2EggHyC/LweU2Gx2ltc/zLdjGoBuEjgPD291x3dOEY9Z09rNl1hJ27jtPZ2EsoFsfvgeZAiOZmP26nj0svHM3nrp9FUXqChWgtq1txqnNFae6J8+BzO3lw+X7CXg+lqUEKEkOanhZzpeCVVDptb3QQsSZ7YdWk71gena6gk6ozITVmmj4yl2/945UMzRNfdBNsJO+JR51EHEF643GeWb2fHz+whrDTQ1aGi7zUBHxi0RoPkZORyfSxQ1h0/hgKc6QmKh0ZJj5YgmbW7T7K8pUbmD6pkmuWzMYjJk9x0y4mM09Dd5ifP/4aq7dWkZubR2fbGTzRAPd8dikXTC6zgkIsN0SHi9P1PfzkN38iJy+fT12zmOIcn9LlklGgRkmy8GkOgmwxLGvgQY/9228QrIlJd95CYXpp6A7x+oFqSvIzmFiSQbIzQNSRSMTpVROYD/UkIgBBKz0CmiRKO0R7wMHN//wQhxsFMHjVCdIViVNWlM7dn7qQCyYVq1VyTNgjtyyIAi9lkZQkRVmEzKI2ULY0e+B+Grq/xGCN/3O5QOewWzNLlfHxkFbNuCuOMxrV/2n5zCWpmULL6/JqjtHSGEh/vTBSZnE39kwKm8XtUXecwhaYHai6jgpzpE6axt3PrRS+6ek01LMVymW5k5rynTxrft1Ox4VtsFkWBSbGBVFTNNWQwyoyDNJr6B/7r53RjhgQIWdjwI/cDTPhG/Myl2pkItpyqJ4dViV+wJ9zYEEwe/833oy3GAdZP7YPw1xx081hSifmTyaJVd4ltvBWqJLaZ5sURlVVWEmwMpeY+cSwcsFIlJ6+IB3dARqaOznd2MGx6hYOn6yjsbWbjl5x7rTdReQmOI09gjQ1SNnQ5dRNQGaih4qiVKaPKWXe1ArKinLwSm/0IGAgO2Lbncum2UORONU1jdTW1TG8bBge8Z6xmBH7aX4D6P2LLd1/vQ+2WSpzfubuCpvS2dlJU1MT48ePJTUlWbUh1We6+MEja1hltTnOHFnE1ywfBLHPV6Okfh+EczwHi6WzfRDeESB8Yh7pksqq5aW/1xKDPDCSKxCN0BOO4e8NEu0N6+7e73Kw9VA1v39iHS0dIUaX5/HZG+cyY8wQkpwmYlWoIXkoRRS19XADP/3Tenaf6iQ9xcUd18xk2ogCfB5TF9X2H0u/ak03lvkIhKNQ3dzLt37+DF29cYoyEvnHGxew4LyRJAiKFxAhOyaHi85wiNoOPz9+4Dle31lDarKPyxdMYvGssST7hGEAr8tLbkYSKR4HEr4l7pr7fgAAIABJREFUPg6yLouljgyo7lCY1s5OkpMTSEtJVnc9twb9iGgLth9v5vu/e4Ujp1u54uK5bFy/hda2Xm68ZCaf/8QFpHgkLlrYE7Pji0SdNJ7pxOPzkp+ejEtaxjSEQaxfDRFsqHCZ1c2OzV7E7AfmreuSLDqSimmisXtjTrYdqaMrEmfyyGIKvKLrCBJxJmminRZ77LXR/oa3Yyn0i85lpTzHB+5tLOH6dRODddr9RjdyXYRONADhlnt+x+GGgCbe6T43FlOF/BduvYgLJ5fg1dQ2t9Z4ze7R0PYOtfu1U1PsEx5w59OfDQYI53LKb9zivMsFMD4LCg6E2RJiSI5JaWqx5zXpnSKMVBviuAOfqKH1ekiOhpy/dJ2IY6Sck/j9y3PnVRArC5u4BBqOwDiTyjNk6y7k+hp4YShqqzdId+2qz4jF8UoZUH9PmBZh6rS4Y5UrZKzI2HISc4sc2XyO6fSwBpGWxKVWL59o0k0FqMhCZwMjG8AoYNBOC/EI8GhCnnILWlIxtXUBhvIH1RPJ7tkWClpgRECG7PyN1aq5r3o7rH8bkGKiyA00GPBU0ehtuR5ajpJSjMXWWWJYBQQa420DSBP7boClWYKFXfCHY3T1hWhq6+VYdTMHq2o4fqqB0/VtdATkeTe5pXLvBRTKPZISkLB3wg+leaKMLPYxZ9o4Ljp/GvnZqdoqaSzqLfGHNR/oPRXL6ECY5rZO0tNStFPrjY+s0VnIddEUW6t0ZL5XCjxyfc3xGwA3MGRtIGUvwwNAa2D2sUsX9jU2wNB8p3yZzJWDX/qZplPZKFIMFaJt6FLa0pRa6xfsK23fUnOA9s9tACx/Z/QHbV29hCJRcnMz8Gkgm5QYDIOwavtRNUqaObKQ++9aSEVptimfCRiOO/X7z+XxNscg/yfjxBglDQYIzT1RXK4o1y8Yw903zleAoOWONwMEBdjWPGoxVec4W/5N3/aenRQ1x0B3aLKbsGq61p3vDYep6ejjh79+gbU7T5GcnMTsyaV84vI5ai3sdZn0PKmZnajp4JePv8qafTUEcDF9dAF337SQyuJsEsVuWCYn3UkbR0bbqtLuR5ZJsjMY5z9/9gwrNh3Bl5RFZVket147kxljCkkUIlXKEm43J9tC/Gn5Nl5YsVHrViNKMvmHT17MeWNNq5Fdizc0pKnt6b20dlFm0pEpU8RHQnsLRSvmPDEFCf5glGdfO8Bvl63DH4vy1c9czovPbeD1fS1MG1vC1/7hYkaUpmm2vNSK3fEgzqjHfI4sFDp52fHXA4IjM4Dl/41FtBmrZrozxPjAELf/5NQo5IhOJI1dAXYdqaWoKIfKIbmmM0QmeYfa5FhRuVb91ap9mtacgUf2LydiHDz9WBOF/d263ih1ZOYTjVs172kNxLjln3/P8aYuXXSkxTEeD1FWkMGXbl3IRZNL8YqAy8xc/aBKSlziqaG+Gu8klD/nGWPQM3vOAMEew9aXWJtynTcGNor6wVK/l9thygdm4tXsEKHPXOLWL0uduCFECUk5T6zKnaJOMDkHCjZFxOUU1zcpsju1FOZWgWJMbanl603GpVsBblzpcGsRdInmJ45XGA7NWZXn3IgQ4zFh84SBMgyd2CbrLlyJLvlEYSukBi80vZug01hWS3uq0+UzlspaZpSFXyh1ATMC5mSLLfdI/id/Hyeg5UG3KRnFI/Q6hGVzGvGyXAqh5LUjw4R/iYW2ggRlLYy1stb3+1Hfm+dam8+Qz7PS+mygoQBl4Ikz/IXZgQ7AK8s/QyKAJWwuFMEfCNHY1MbBk01sOtDE9r3H6Pb7NR9ErmZUulDETE6YsbDJ/PD6wureOW1sJVcvOZ8po7JJdBkhsRp4KekUMdfF5dVETGFsBWR4JIxN52TruVVyROBADL/DazJFiGoolcyZ3lhAraG17TcaxykDwzKHsoe/AQhy521Iaa6bEaiaDY5R7zh1MZTvkHlRN1Uuj9no9L9UVanjWdNX5f1xCViNEnHJfGh/iwXurFROA4aF9YkosI9bwXjGyMrka8gToJZ3amss7FycU409/OCR1azcXqXeO+dV5nHfXYs1rEnZOW2CE43Ye3A7fhuA8Lp0MXznWQQguN1Rls4fzRduXKBGYbbQdLDI1DBwNkD4m6757+nL3wdA0NgZiyy0jYyEVYhoFkJP1MH6Paf5yUMvUNPYqwYghVkpzJ4xgfKyEmURjh2uYdvOvZxu7qbXk0xWbiqfWzqdxTMryPC5TR67IEv1rLb7/40KXBcNFeoImoYj9e382w+XcbimQ3dhuZlepo0vY8Ko4fh8idQ0tbNm005O153B7XKQ4nNwy9Xz+fjF08jwSK+77CLObohjyFEZrPJ8WCl/Kp6Nq9r5539Yz583HqawJJt7P385W/cc5+d/XEteZiJfuOkCLpk71oT/OCJ4pNYbEzMcj52KdJabZtWZ+2nWgRQA+xf7AYJE4ETj9EUd7Dlygo6ubmZOHkNaUoI6idnkpy682q9rCRo1vfADbjF7T0Nx4M0KPhWFi7LdZEGoMt/hoDUY4eZ/elTTN40ngJxRiKEFmXxZRIqThmgipoCKATJepXhWENB72Tqc/QQsXGW98c17rsHowZQI3oxOBqbSAXcbmXjl3EThbwNDHWnxmE6yEadbGTJZHCRi3BkKEHJLWqIDrzARAqiiARySJWF5XShbgYBDJ2FHkk72UprR43HK89un9HfcacCjLI5CycpOVJgIYQ0doYDWxeMeYRisbgZd8E1NWLUtMsSjQW1d9kcc2gIYi5qSibADvph0cQiAM62NLmHHLLpfuXjLhVB8HqQMFpbWTuL4CFjaCYlVV8WnlijkHHVhchvNic4byumbxdxc87MjP90YKPth/DEG74Rt/YIxH5OPe+MY0q6IN+kHRJMkpcmq0+1s2npI/VQaWgOE4z76RJ6ggY0yjwhLIfNdRK9NVmKUqxbN4crFsyjITFSvCdEzCGBSUaLVdWIggGFvrMKZ2UpYoFrOQgTKIrx2xkXUmqD31SXjQiLvxRPElWDlEZj9vckMsMuZsjETOGBajLX8Y5XAzLU1AMGwWSYPJyb3xCOQ3dKaWIBf5iO5I1LKkk9SgBeNEnYZx1gBtQocxdtDWCWn7NpEUyDUmglYcrhkQyag05r/hSG2FnkBCcJGyNtFg/DD361ixbZjuAUgjMrjvjsXM6o4B4dDwKiAb5PkeFZJl/34vwtAONMTxeOOcf38UQoQhEF4e4Bw9rnkw/iO9wUQDN1iHiT7FYtFVIiDJ4G2QIQVmw6x7KVtnBKf84hOeUqRqpI8HMWjsajgzchgxozReoHHlGaQ4opp/K6uVfogmuFvnnFLgSyfJ38fdeAXceC+Gh5+dj37T9QbnB8J43S7CcuglYlULFwdUXKSPVy+6Hwunz+VITnJ6kanE4rFVLzbDbLFTgYgmAlHkgVljt1xpImfPrqKvUerWThnDHd/agl1Te189TuPaU/1FXPHcuf1F5KdLjbUKrnDKYPUSM/OZf4a1Af87pOdLPritlfd0sHBI6cYNayIEaX5/aUa+W2ZqGUiCNuUu0xSKrByKR38t3ipXs/Is602L5s/EabqQwwQrDq3WTpsgGCzMIOXf3sEDdTEdYc0qHBkrT46QpQdGQQQ5Lel977FH+Nkaw8Z6ankpIoGA+KhAF6voZqFQRJq3uOQ/VVc3UGbu6KkJXhIS4wTjsc50xvEEYlSkJqkMeXGGjZKZ1QMkIT+jltg0hyRliAsW3OhmBOkBCg+ATJhyzIRU+kngViYQNRBpstFyOmkvjdIYWqishn+iABQSPY66A1BQ2eU1CQPhSniChnEFRMnQ2mRTFBwIaWyQNxFXW9cd+WV2T6SPA5CMZcuSgJ2PQ4BCGEjfHYaVk+7LGzK2yonDbQ6Dr4/g/9sV7cHUlBtYtu+k9pY9Obba8NC9bcQqlnumwFLkg6pzI/TSV/Iycm6Nrbvr2btloMcq2mjsy9GxCWlGiMEjUb9au4V7+smNyWZxXOnceXFMygvSkbgmCMiGxmH+nsYYaWAGLPgGtZFroUswl5lkmSUydbKG5egqYiW3MLSYi6LsTA8EjuBSxk4m5O0FS626tRmKc21ECguuisbfJnWcwEhcj/ku9WZVvUb5nrqPKPheEZobncjKUy2Fl3bo8IwQcIUyYeYY5V52XCAslkwa4iJ9TbiTUdUXHNFx+LSACzcTk43fQQQPsj5+/0BBL3x8hpM3kUVIAjSk5vbG4yxt6qJ1zYeYO/BKnr7BAl6iEScGqOa6Aozdlw5IyaNJCHBwbiCTCqLpAVP8aDSqS637LBN54O9F5OdlexqtG84KlwGamV6oLqNl9fvYfe+Y3T1hAlEjNzL44yS5AkxelgB82ZN4vzJI0lP9Gh7mJb85ZOtCOlzBgj9gztGTxieeG0vv31mPd3d3XzupsVcv3iq9k//yw+f5MjxJiaVF/Cl25YwfkSmpWAXDG3avM5lf9O/D7WbGfoP1J6xDMqQ/wrFodkfYPv+E3jdTmZPHEmy26BrUxmWB1kik2NE1ADGQV9fgN5eP0lJCSQkSJ/FoFf/Gjf4u/63Q/AtUY/6gf6+IH3+ACkpSXoswiDIYvXhBghq5WRBA7OcDABnW243oOg3O7WBuqqZ4O27Z+6jPd7NBGuEgTIJt/VF+fOOkzz3+hEKSksoH5JLohfKSzKpqW/HFZXGxz6crlTGD80iL8PLml0N/HnN6yy+cDqVZelE3B5e2XiAjvYOlpw/lUhvgLTkZDIzknhiw2Fagk680T5SYl0WkyC7Lam3O5SVSvO5uOKiCZw8WcPpTllQg0gxPi8liVC4gyP1ndywaBqNHb388aU13HHpBZRkp/Hcql24UrOYOrWCqro2lq3YyZiKIVw0oUSDisTXJNkTJz09EZfXq22EzX1x/vTqLvWIuOvq8ynPTVJXUFmihN3I8DrJTHLicdsbCLdFg9v7CQ0iOQcXPrkLhm3QZ61/eJonb4BBsNC8vQK+6TEQkG3SZ2WXa0C4sHKGjnfQE47T1N7Dpp2n2bD9KEdPtdLRG9FSilMM+KK9Gvjkc3hI9zlZMGsUN14xk7LcVPW3UGZIYuB1vAlLJpsnqywqQEARjIuQaDrEY0LvoFUqjcfpikBzn3SqxMlM9uiGQHsgLEMwu8fF7jaxz97M9sZZUq+QNf8LQOiNOWgVYWY8TnaSlyRrWy9X1K0LflQ7L3oDcb2vYl4XErZZjchMGUiApt1vIqcgJUKvJXYIxB10BaMkOCHTY8pa/qiL9kBYTazy0jx4Lb+XuMvFicaujxiE/+30PHj6j9vWXef8oVqw7AcI9tSmyFlKD4qcTbe07FbEhOR0fYsakHR1B4nGnKSnJlKYncTwihKa+vo4drqeKaX5lOVm6qARmsmIpY3Zje4QrDYfE8ArBitS+BPhj1Y9tZ7VHYxRU9fKqdNnaOsI6AKT4HVSUpDCiLIistMTjDBPI42NklsVwKawdZaX7AxEVCUqaJlOjFK7vj3MT5/YyLNr95PocfKZqy5gamUhvRGJkX6dbftqyU9N4nM3zOKaBSN0YhPtgdZHNWzxrF9sSa3MQtIPKPqzFqwatUXsdUVjHK4+w8nT9UwdV0FRVqpqOuQUbdpUzlxEaeKFH45EOHWqhvb2DrKzs0hOSnyL6MmsYB8QQLDrcIMyNsz84yAYjFBbW0tGRjqVI8tJ8HosgCBU94enxPCWR8YKgbEHkS38Mqc6cN0ULgzqc1d1rIqwBo0Bu1SpHQfmd+W+SX7DoaYufvPKAXY0x6lt9ZPihZHD0igfOZRly9ZSmpuBM+Yn6Hfz6SsmU5qTzKPP7cIf8XPxRVPZunUXYyeNpqqhkz37TlOen01XcyvTJpUzYWI5X3t4Nd3xZEbkJFLs6aE7ZBpEk7zSouukurWPvo4mvnbHx9i8ZScv7G6htCCVjo4gw4tyGTU0lU1HWpg3ayRVJxrZue8oX799IePyknlpzT52iHnaqHKq6tt0R52Z5CHVI2ZmQn+7KEkKsmBKMZFomO1HGqkNeDlU044jHOC8ylySHEFd3GQx8rlg1uhS5k0eRqakb8bCah5kF9+EqVSVhf2cvOvTbXWW2MI9iy7QkoOl+JF7a+6SXSZ643NrMwdmKA/4kNilIU2RsbpS/BE4Vd/Blp3H2LTjCAdPt6rgOyLdWipUdeOI+MlPiXPtwilct3AGRVkpmngZdYmGxKWR293BOBGhlYiT5HGS7DFlKTOnaIwdAay5Jh7nUEM3z20+QbKAvFnlFGclW+NTSgTgVT2Abepu5kgbMJnLNyCPlrEsIKS2K8SLmw6rB8zVc8cyPDPRysExm59wLM6Jpg62HKymoDCX8rICtu04jF/KDm5Rl5irLGUsaWUXUDGuIIUZpSkagHWyI8ry7afJSk/j4kmlJHnEjK+TFbtOqpPuZReOoizdh1fAk3SHNXTww9+JBmGgxHDvnYsZ/VGJ4WwL3Nv+/P0xCNLRbbdX9euhZfiYXmdRY4vaWSdSiU6QRV461mQbZAWhePTv4+xvaObwqTrmjhxCaXaGLmQGhZv3mmEpXQ0G16pPvhYqLI9cXbykdqid5UYhHnUS1fqqsUV1u0T0ZKg5s6ezMx4MMj6HNdq0eIkSWWriUaHpIBRxsPVwIz/80wZ2H2/TfIOxOT6SvXECvgSOtfhp7vHii8e5+oJhfPGT55OTJAIlJcvESl/zws/2kiM21jQDNJ4ej+xY9BSkZu1QcVttZx9bdh1ieFEOI8uK1K/B55bWqkHOdg7RuTuMnWwsRltbBz09vaSmpuB7iyraUoR9UABB79vb8SYOQtIp0tJKckoyBfm5ujPUVtUPUYnB3iXaC4FqCLXkNAhkWsZuKi6z48W0xm0WfYWlIqozBVHLUNyMRVtXOVgrKuM+EIux/VQrD6w5yYlYKifru0n3xJk9LkuFg9s37+aaJVOIhINs3nycK+dW0NjWw0t7OsgszKc4J5Odu/aRW5SDL8nJiZO1zKwsJNUZZ2huMqMqyrj/kY2QnMXEkhTmjs9nf1WTgu6xI/I4Vt3BwVNttDZUc9+n5tN8po1frDjKrHHDqGvtoyg3jSy62Xq6l+5olL6eIOleN5dML2Tp9DKaWnrYc6aXg7XtbN5fTXZhMcPzkkkS1tHp0W6IonQPc8bl0dJ8htWHmlh5qEPZyKmVuUT8fbLloCxb2L8IPpeTKRUlzKwsJc0nHQiyQOjgMt0HCphNK7KONkv4aeaTwT758qsmJXSgXVB2AKbbynaYtBkGs6V4q1bnbfdZlkJff2aNEf2jSxiZOF3+IEdONbJy0yE27zlFfWsAf9SJQ9BPtI+keIDxpdnccd18zp9coXNPjwPqWnupqm2mtqlLn2EpG6SlJFBelEF5Xgb5aYl4nU4NyNpT18aJM+061vbVdbNscx256SlcM6OQklTxkfEq4BLBaKozSllBFpUlOaoTUJ9V22dDd/r2eeuMrLP93voefvDYGjr9Ee67dSEzixPVe0MEsvKunpiDdQdr+f3yrSQlJ3DZovN45ZW1nOqI0hhOJCU9RbuOeoLQ1hvBR4hPXVDOnRcOJ8nn5Pl9zXz/T5sYXlrMxZPz8TkjVJ0J8PLWE3T3RbnsokpG5yfijkTISXaT5vPx4LPbeG3HcdwODzMr87n3zkUfAYSzLTLv8PP3DxBUh2AttDLRWW1BSqHKE6gPhKUadUiPt0ykwgOYepb2BDhgV30rB041snBMCaVZKQPufraC25oxdfHXnb8lz1GXQV0++lGwOUej2taXDfKFphbLXesiDLYRMfGs50IgGCWuksnisRCHLn+EJ1/by2+e30qrP8KQ7BSmDkknweMg7HHS0B1lx+EW+vrCTB6Wxj/dtpBJI4v7d4ay7Ev07dk4hLcHCMZSWTCXaWmT2m6ETXuqCIWCzJ86hkSPcbrT3msp0SnMkMlTHPwETJnLpzHElhOZ6Rx500tp2g/wZfWjv/kT5RhE0Ca1XNFCGBjx4Sox2II0HWlCH4u7nSWoNM+AWYDkioV18jYsghrfiHbcZfz8LZjQT9faf6Of2z9ubUmplIOiHKjv4rkDrbx4oIuTtc0kRHsZO7SQnNx0du/ez/nTRhMK9lF9rIabFo2lO+xgw6mwPmsJ7ghOaU/UgCE/pxpaWHjeaFrr6vG3d6oo7lvLthFyJpIe7qZs2DCqq6vp6QtRXFqsxjzSMtzW3Mr9t86js6OL/1y2n1H5OfRFQ0wbV8T0Ah/HO2I8uW4PIwqyWDR+KIWZbtKTfKx4/TDO1GR6A2HqW3uJelLwyXFF/QpwxVdk6rAsrjhvGOL9s/pkD79cvo/yoXlcOqeMZ149SGKih89dOwmJM5PfTYzHSFT3SKsVU9lGGeMmGly0GJqooujAiHL7yR7bSNsCzpIRo+mmCuSkRq81TMNiWs2jb2qWfPcHwtIivLlCp2BBxHlmdiQYjVHX4mftliqeXL6F2o4AAafY98a0i6Qw0cu1C6dy3eWziCZ42Hysic3bD9LX6yddFsTUFGUdWjr8BCNxhhblsmhGJcNyUhQ4PPjnnbyw5RB9eGnyQ5cjg/SkRArjXaTGe/C7krTDJNkp5nN+Lr9gAtcunESSFQkuRmRGPCqFX+P6KRdT3DRlJt5a3c23n9iCP+7mG7fMYVaucTW0kzCli+ZEV5jHXtvLzt0HuGLxHNKyEthQ1cOK7Q0MG1ZAXgpU13fS0hmioiSFW88vY2F5Ki63k/ufOsjyzQeZNW0MbbXVBIJhQu50OsPS9RIjzRkmxRVWNnlkrotFU8t5cf1RXtl6VAHCeaPyufeORR+JFN/n9P2+AILZFUlri6GyLEmzrd3T/zYlJBHHyM5WxENiQSpecjLAvCZNjjjb69o5cLqFJeOKKM1MND3XdkSTClfM4iSKWvO7VkevUtSycxiEBKyn0RYbD16H+sGB/R7rglln8I6db/3X1aqsiPpY65rxOLXN3fzPE2t5aesB0jJTuWzuZOZOHE6y14gPW7sCPLViHxu376cw3cunr5nLkgsnkyA/l3U7HsWjDnpnmWsGMwiWYliuv4TIyOQgIUQCtvZX1XLyVC1zZoylMC1JtQbaWmkl5KmboHWzzA5roEe5n0U5JzrlfY62s/2aZSNr78ZtgPBh6mIwccADnvlyRUVdE4pCnwQadffR2tZJW0cPHV0BgiGhlqW9C5ITXORkJZOdlUFmWgppyR6SfC6Nejaj2+5zMM6IojQ3PJhocsKcag+ybHcDz+xoJDklkWRnhB5/HzNnTmTf3sP4fAnaKpiBn6VzKqnpivDYxmpt5U32xAgEo4wZWUp+uoMVW44qLRsLR5k4uoyZY4dw/x83UFhSRLHPyapddRTnpZKZnsLh4w0MKc6iJC+JrduruPe2JXS3tfH95YeYNXYYjc0djCrLYm55FnW9Tn67Yi8ji3O4fGIh+alOxDvmz+v2cqbLz8gR5fRGHdR1mZ27Q5w/3W4tJy2ozGDeyBS6+8L8csUhVu5t5LwpIyjJSeH3L+9RRulzV08h3xkkP8XN8PwMMrwiVo7j1JY5yxXVGSUcCdMdiNPSC63dQTo6upQpCwaD/WyCCDulnJWVkaqJjFlpXhK9bhU1G7rd2PeaOW4AOJ/TI2J1qA4I/mSRtVqKdcqyTZkchDUAL8gjz27hmZWv063Lr0NNtNIcMeZPH83NH7+QWn+IZ1bvpSjNw7wpFRTlpisoEFtoGSfVTW1sP1SjXWPXzh2r/957solt1S3K7Ow8VKu5EOMrSwj39pDqilCYkqBeIjIWfI4wI0pyqByaq62Qlu+tJZCW+cLulxAGN6LHvaqqjf94ei9+RwLfvmUGc/NFeGkglVtTL6ETL/sbuqiubWTYkAIO1zWzo8nDyh0NhKNR0hMc9PX0kpOVw/iKLD42Oou5w5PpDsGtP15FINTN7dfNoq3NrxuxIImaZOqOCYgyZSdhrEcXuhme7uaRZVs0idTj9Glp6p6PAMLZZt53/Pl7Bghm02kKpQoCbFcyaZWy3Nt0F6T0lKGhQsIgSJNSPGTKDyQYG2PibKsRgNDGkgmFFGcYgKAUoNUDS1wNai1Rn7Wjspw3lBK0e9utdym9aIlf7NrBmxXI5jj72VwtV7zNvvkNF02Rv2ZNSQ00prvDbQca+O7Df6aqqZXc7ETGlxWQnpismfYiGIuEY9R0hNhTdRp3JMxlc8Zz68cvpDAvRdXmWiWVOsNZZhyzl7Gvgm1ZK73XUuNzEsT5/7P3HmB2ndXZ9n16md6bZkZlpFEfdVmSZcmSLHcbN7mAARMDwaElkB6+8BHIH/IlhIRiSsAF2+CCcZUtyyq2rN7rSKM+M9Joej1z6j77v9Z69xnJJgRD4MPw/4dLF/LozCl7v+9613rWs56H8z2DrN24jaWXNVBXUYJPmOgGytFgZGSHnUNIlPWMEG9mWO1tCPnbV8svS19+3bX385wGXVc6ZZWZzTbkpfdagmAQFyOLKwSqEx0Rjp5p51jTac63d9LTO8BwLEVc+sqyPkUzQ5j+brcKc4XDAcoLsxhdVcSEMeVMqquivCiXgNgdK9JgRgdFzEpH/KW1lU5xujvGf65r5OUD7RQX5ZHtSXGi5QITakfh91jELAj6s1hYn8+1s0azem8r33vjDBNqSykIezl4oJnLZ49hbAkcbu2kbkyV8gcmjCpmXGGAT333dWZNHceCCVV8+fHdLJlZzfjqPNX4WDhrHEXeCC+tO8jnP3wdA10dfPmnhxldXUoyGqO+qpg89xBnuuNsu+AlO+Rlan6UsVkp7r6qAcvr52THgKIY2w+c5UynjEy6sFJJ+iyPQu6fvWEa108r4mx3lO+uOcyuY20U5gSJpT0c7LJUYn1WZYB8q4fJtSW8b9kcxhTnmgPCIXeKl0JH9wDHTrVyoKmFM51xTdSFhDs8HNWpJrlvMnUg6ywYDJKVFaK4IMT1nwmcAAAgAElEQVSoilwm11UzcYzxSpCpCUF8MkQ/Xem6NN/FnjAGD05xIwWOU+hktmTGDMxBARMuF6/vPs0/fPNReq0s4iICL3s4HeXyhvHcsGIub+45RmFJMbcsGEd5fjYXokl+tuEA58+1a+U/eWw5R1t7+dmaLcycWMvdyxr0SD/UHedfXzjChbYOPnxdg7pqPvX6Lrw+H1+4bS7FASGiGoEqaZ36ZFRWE6NL9VYcPoyD/sr4ZDRl8/TOc3x19XEG0n7+6e4GbpuYo8mahB6PTLWkLBo7oxzvi+MPBBhdkcvf//sztKQKySso4kJPlN6hGGUFQQrCfmK9Xdwwbxz3rKhj+6Fz/M2PtjO5IsCfrJrHgcZW9h5pISWjuKKDIehPSlBYIWTC7VfNZnRxkG8+tlFbDAFvkLl1xfzV/99i+HWDtCBqupIdPN7B27Vkv3iESu8pwwgwDnCO/nqGICyLX9TrdMzGIAqqXmc67SQwamIeMZ+VkRc7YFzVXLC7uYcjZ3tY3lCpCULmob0+mYnNGMM4eghGY95RhBOWe9oo0F3cjHKgyO+ZVoZsbx3f0f3pCO+IkI7ZukYAZiQ9yCjX/XwAUC8J7ZwItCZ+FC5eXN/E1x56hWEbsn1xtRx222ESyj4UeV83EenDSfGQSDF7bAUPfHA5MyaW4RfRIj27nXnfd95Cp+efGdEyRj6GHJnRwpdPLj3LzqEoG7fuY9zYKhrGVBNSbQcxMhI5XtPWMWp1JrTJGKmhBjktCM33zDJQ7YG3ff13qPj82kvt0l/8RaRHM+Ns1OsMSdWEWSOuI9+jO2F0EE47Oggm9RShpN+0DkLGFfPS1FFIYaL85yKRStPW3sMb2w6z+VAPZ9sj9A0MkNLxUZm3NgJfJlk1Kw1L1Cs9eGTmnWGyfWkKs/2MG1XCwjmTmTtjPGVF2QSEMyPVvfLQL46L9Sbh1aZ+vvnCfgqLsxhfma90GrWA9tp0DKU50tjNNTPyuWtpPc/vPse3N5yiLNtPTiBA24V+rpg9jgJvD9sPt1JSXET7hW5mT6ph5exa/vbHOxhfU8a43CDfW3dW/U3Gjcpn3ZYm5k2vpSY7wbrNR/msJAi9Q3zluWNMmlxJvKufWbV5zJlcwP5TPfz0zfPaP/7j60dTn+fVqvR45zCvbD7MmFGl1FYVYVlSjxoS4OZTfby85Rh/fuscbptVTmcszb6OYbr6IzridyFi8YPXzhKyB3ng1hlkpeMUZgepryymNOTVales5c/3RHlr9zG27jvFqXP9dPTFSCRTxthI1Bwd6Fv1PpwWgMY1ORSlgvbZFOYGGFWazeVzJnHF3ElUFWUrmuDcQYfMYMYLdUtmomdGXC3TrsyM+OnPjfuGPCSkydCFQVhlBNDsw7jtYt3+Jr7y7Z/QEc0mSpaSEn1EmDu9nkl1Yzl3rpl7b1rIjKo8+i346Z4LfPeF3fhdFn964xRumjNGq/qnNh1hy6FmvvKxlRR6vaw+0M4Xnz7AxLoSHrhhMgODKb725BsQzObrH7uMUpFrtmzlUOUHDF9JGy2O7oBGUtWXEMtxVdNSfYW+aIpvvXaMb73VzkDKzeevHstfXTVazdKUq+710dw3zPdfO8DrR7ooLS3h3pum89VvvchgsIyb547mZEsHh1q6mT55LFluOLB3L8vnTeL6JRN55LmtrD7YS0O5n7+4dwE9/TFOtvUbZxVVbZRzRWK7TY4bFk+qJCud5D9+tIEN+8/q1OSCyRUmQagUHYSMUJLswUsHWZ3g6txno8yX+ZM5WTJKiiLqlWbbsfP89VefpX3Ixue1uXPZZD7jKCn+YekgyECzzp5KIJSgZBZ95iDSwtkTVF95+YegTL6K4ISkAClHA94hY6Vkttbt1UWv8LlOdAtpUNIEAc2MlLCM50iCIMF077k+DpzuYun0KmoLfLjTUT30064cXKmEynelPAKhe/GnZKZXDlUX8WQSKxjCK71DHRMzsrWiniFkQunhuaQ6V1c/cXc05LiYlN0eN16RftbPlMQSRUMRn1EntpRW5bJBvJJJO4mKuOLJcwTKF52Bjt4U//G9V9m45TDVNfncdsM8ptdVEfIGSSdtFUGRSfSuWJJX3tjBpi17yPJ4uG/VCm5aPpv8gAuPMpAl933benTm3jJYjREdSaeNTLVbDg8x1JEetx2gP+Viw45GJXWumD+JkNutBK4M4crRehtRRTOAqWmRmEzgIvHoXTAxfiPpwbt6EacAU6RDpXvNuFgmQTjVYYSSdIrbTjD2N5ogCHkzoetYDmk57OUQlssVt21a+mO8vq2JdW/s4/z5XoZTXl0zcn8yB46i0nrIS0JtbJWTriBWKk3QlSBEFI/oddg6Xa5KehPGVnDdVfOZP3M0eSEXIY9P27+CRqWtOHGfmw2tUb709H6SZDG2UDrFMRIeYYD7GRhM09nRxap5Rbx/WT0v7RYEoZnJYwsYle1n584zzJwxmSxvN2s2HKW+tozp9aOYVldESSDIpx7diRXIxT94Dk9BFX29/VjppBrhhF0JKnP9nG85y6fuv4nmjiSPrj/OwmnFtJ48T5FfBH6ms/FIO0cON+O341y9cCr3XTVB1Ut/tv0Ua7cc5Z6V01k6o5ag8g/iOsb85M4W/vX5g1y/YjbTS92cau5mV3NMtQ1CdoLhhLQiI3jsYeaPKyNHCgArwoTKHK5bMIn8UJA3tp7g5Y17Odrapo6qIoZjp4RX4BCnNfE1Sn4i+uRW1TLhj0gSLZoBErdkwMgYZoV9acaW5XDLVQtZNreO/LAfn2b0mkbjEjKhxMaUkI3dxvzJ4d7qU3R/OQjCpfjkRT0sR77X8LVEFvzV3Uf5hwefo3sogOUOahwLEWPipDrswhLqa3J5YNkEikNeNrQO8S9PbmOQHP0Mn11Wyqq5YzRG7Wwb5ss/eJMv3reE6hI//+fJPTyy7QLBnFyKs1zELYvOYXNdxmZJFZ4kL+DisjHZfPzGORRn+TneGaF1WFxAIdtOUi8k1OyQxgwpbmRvHO5M8KVnD7HmeAw7lWB2qc1Dn1tJjV+klN2a9HRFEqw9dI5H1jWqCNef3DWff/7h65xKlNBQYtM7EKV9OEl5XoAst4vz7b3cvnI6U8cX8JUfbaM5ks2cUQE+detEtu0+xcZ954kRJu6RYtJFwI6rzk5xIMVnbp5NQ7mPf39kPa/tatYR03nCQfjo1UyoLtD9a6jCYnsu2hEGgTZx0ALVVJDYKJtXlG6FU2RUWQWZNsOqZopk59EW/uafH6dj0IPX42fVsil8+v3Gi+EPLEGQyXmznpUV7/ao+I80jzLe86p97fKS8vgMXcclmuzG8U2qZPnlmAvaIkYuuCDoIiiUFiHzqemRNm2NjrtIxaqqmtEwOHi+l8OnLrBgciWVRdkqyyry6N2xAAPRlFZZ+dleVRLzp8U21mTcMbeXiIxgucRtTXqFkrykVU1OEgrNek1XYIQcLp9DKUfyjxIopH8slYwQ89wuZLJCCDs9Sbe2EPL9LoLycxWnlUNZlN0sHTnbe/Q8P3hkDb29UZYtmcEt18+hLD+I3wn4QlxLugU9sDje3MbjT71K09ETXHXFQu68aSlVRcIR0Ij03yQIzhy86r47/dWksL6l5JEa1Muuo6dobu1QLffq3JCZ8PD+cuLjuzqkf9dP0iTBJAiOXtvPJwhSqad/CwmCjNBK0S8qfcLhcLmJWTYnW3t5Zs0uXttyiL5hkQny4PbI4WKIiAJbG+teMy+uGnJO1iD21OpGmrLwq1SuQLmmjtbRXivKqNJcVi6Zxk0r51Aro20iICVwOCkSXhcbzkb40jMH8IZzmTsuoIqKUZcHrx86OlIcP3qOm2dJgjCdl3ae4XuvH6GiNER+0Mfx5gFmzZ5Blq+H0y393HvzAjrOn2ff3kauWbiQLz1/kJNtvcwssfngnVfyyitb1Np96cpFnD4f5XxrN10tJ/jsH13Huo07eXnneXJCfh21mzimjJnjK9i46zjXLqwnNtTPjr0n+PQHV1BZnMNDL+2ho2eYz94+n5k1ufitFF5RVfT4+am4rP5kL1XjaqgNRshOJTnR0m20EFMJot5cDg0IzhdnYoGXUGJAJZonjBnF/IaJHD14nPUbd9E1EMUVyNJWS9r2KNlVFF4VcxQ1R9EYCPhVvEzuqRn3NaiZOGOKd0vKjpMWpVOBHJNxyvOzWLFgKjcum8mk0QVmNsJlnDQVqMyMSGdoCg608E6Pk1+4lZyWgxxCr+4+zpcefJ6+IdH7l2mnFCFXgtF1NQzn5HPNglo+MLdW8di/+eluznb00zBrEuu2nOaBpRXcOW8MIY+Lg70pvvLIJu67chKzJhbz8Oq9vHqoUx1cVTwr5eZ8nwjc24zNShPy+wh5XSwYX8D7V8zQEdKHXtnOs9tPErHcFHmjfObWhdy8YDK22slDjx3gia3NfPulA4SLKnT64PSJE3zhvhV8aE4F2RLEpdgCOlxBvv7iHnYdbecTqxbwtR+t50JwHHcumUTT6W72nWxl3tTRFARCvLl5HytnlbG4oZB/fHwHzYNZNBSn+et7ZtDWPkRTZ0S9QGSsPS1e3UkLd8gm5IJrJ5VQSJKvOwmCJCnz6ov5649dS/0oSRBkNN2gpl5HFSYjKa3iU3pDjUC3eHNI8q5i3WbIRblnkiSIwNTOo2f5268+QfuQH687yB3LJ/OZ9y/+A0wQ0glHZNRtetpWmkgqTU/MIpKUPraLopBNgd+D32d04AVuF8BdM3XptdsuGrst/p8fPk9OIM0DdyyjrixfR+zMUJAof0NQlPoc7Wxh1Us1frRjkEMnLzBrbAG5BbmanAzbLl7e18JPXtjMyjmTuPvKqRSFjIqXSHIKO1mIj+JkNtDRwfeefZOC2joWzx7L7gNnOdGZIG771PTE40oyHBPPAx/5wSTTSjxcO2s8WdkBdp7t58mXNzO6LI+rl88iL+zjdEeU7z+/h6HhCB+8YQ4zxhYaxrQLcjw+vB5Z9CkiSRdd3UnlG+Rke8gOCkwppkCSQaqknX6XRFquj008bhEdThIOeskTYpDaSUt8MZrjIw9Tfrztj/xXxEppsuJOifufnwEbDje3c+L0GRbMmERtUS5B7d/LofOblRP+neUJv6MEwbytTTIhMqrC80gRsX3sa+rgsZ9uZN+hk1juAHGPT2exNYyodbKxGQ96XQR8Xl3vfq8gUwbeFrvv4XhSWw2plF8JZmkJdGoYJC2nNF4rRW4gzhXzxvCRO66msrRAe+FC8JWEc0tzhC89vplICkYX+/B5heMjEsNuhgdTdHb2cfNl1dx65TRe23WGJ986zsor59LbN8im3ceZNWMSRVkRNmw5wbhRlfR0nlOy5G0rlvClJ7dSW1vDhxdWM2dMiN6OQXqjNgfbBnnrWDct7f2kB9r58qdv4cKZU/Sls0j7s9l48AKpVJJ09xlywkE+eftCfAEf//TwawpL37ZyJs++upsJE2r46HUNVIW8jslWUvfxpuZhvvDwJi4Mx7jt8rHct2QS2R6RQTdTICcHk/zVD7cS8CX4p0+uJN+2GU5ZnDg7yNr1+9m1Zz+JZEK5HpYliopigyTYjZiTmckRf8BNIChJg1EMFQg8mbCJx9KkdGrb8BLS1jBuj0w9iT6DF4/Xizc1xKLptXzolsu1zy/TQdLakuTN6KJYuMQ59CIq/XMmaP9tguBMQb66s4kvPfgCfREpoqSCTeK1okyYMIZkTjZXz6/lroX17G86x2cfWkteQTmBUB7H2/pYXhfgT65rYEp1ESf7Uvyvhzfw0evnML4ih/a4RU9aKd2KZZxsT/LwS/vw+ML86e315ISkAIN8F1QEvWQHfCp41dSdIGZ7CZFk/pgcJhQYd9SelJf1zTG++8pRzrWc5/4bp+pa/97LjaTSfv753jksHJdNjku8JmwuWAH+dfVBdp8Z4P5bZ/Fv//ki5xLZNBT66BpO0TKYoKwgH5/toat7kLuuqOP2xdUcaIny+MZWgtFmPnvPfPYda2fn8U6dGlIw2tFlSHhzdArjA0smMr5IEIR1rN15Vls58+tL+OuPXceEqjxNstWJVKWWzVSclmDvEGoaIa5LPM30hvSHJi7LBNj2Yy38zT89RceQTz1G7lxez2fefzl5Wb4/LAQhbScEkFdZ0/5oUu1LD584x4m2fvpituqh54dhek0R8yZUqWtiyCNqVjZ7jp/nyMlmBmwfBwf8rN5xgsqCECunlVHgc9zYFEGwKCDFgsm1zBhTbmby7RQJj5tT/QkOn+2gJARN57s535+gjyCbTvdwpHWAaRXFXD4mW8dZdJrSzC6Q43Nx1ZxxJIcG+NtHNtLuLuTqRZO4cL6DfU2dtEc85BXnk5crlZWPC329FHh7+eC8Ch64Zg6BrACPbW3WjTK5poTayjABV4qehI/X9/cwFBlk/oRC6itC2ucqzwlwy2WTKQxL8yWGyy1mJz4lPElmKk6DRpJB0gk5KgSZkOrPkCwN5O+MXDkEIIOF/FeUp4sEp0yykFStcsPpiKTcHG/v4+DxZqaMrWDKqCLCHkvpGh5fwJGofhdEqt/Zyf8u3/h3mSA4XhWC8ctBvqWxnUdeeIs9R5pHGK5xaae5AviTAknbZIXclBaHlXhYU1lCaVEehbmyflARKHH9O9Pawfm2PprbBmjp6GcgkSYhvBzt8UqCKes7Scgd5YrZY7nzlmVMHVemhkVSyRxuj/Lo2n0Ke44qySLmkmrToxMrkYEEbe19LJpSzlXz69jR1M76A63MnFjN9u37sTy5XH1lA8WhNG/sPEt3ZzcBv5v5c+sZX1rEgy/uYUxtCR9ZVke+S/rMFkOJNGv3nGb1rhMMxmHO5NGsWjGFfK9LD9Lz/XGe39as7q5ZqQHqqitYLBybsJ83T3RzurWP2RPKOHCkmcryQhZNLFPtBUEWjeKYh9YoPPLaAY60tHPr0mlcPamCbPViUSFnWoYS/J+n3sLrTfHn916rCMyBkxd4dvVu9hw4Q1zQOjulSIYrHSTokSAdIS/bpqoghzHVZdRUl1NSnktuTgCf16uHzNBQkgvn+2lp6eBsaydtnT1E4lGiaZu4K4DlCWniIOTqLE+MOZOrWHX9AmZNrCbb56ixZoan5cC5hK7yKyEIToKwZqcgCC/SExHfAUn6RHY+zvQpdfiLcinN83D/jfPp6BrkiS3HiSZtuodsjrT0sKw+h49e08CE8gJ2n+nkn57Zwafev4TtWw9xqmeYfpf4OtiqUNgZgUOtw7j8YaZV+cnyppX3EkpEmFySxS1LplFRnKttSwN+CZQvsS1FdzzN1tYoP3zjDHuPtbFoXC6fvnYiuTkhvvLMfl7a38OcsYV8/JqJLB0XJs8D3bj56gv72d40wMfvmM33f/g8wfwK/vK2OWw/fJpXdh6noWE6th1g+84j3Hn5WD66oo6U38NHv7aZdKqXD90+l+e2nGTTwU5NmsUuO50SB1wPJztt7EgXf3/PIi6r8fONR17n9Z1ntECdX1/KX33sOuqr8rWdbCZS1GbMcNJk/N2A4CZKO50hI2rmtGKVmZoxAjO6PtuPNfPXX32azkFBEP3cuXwin9UE4Q+sxZC0U3YMN93DCXYeOsOmfWeVhFVXVURRToi4y8Opti5a24eoyAlw5cw65k2s0Czp5S1HWL39KMeHvJwZdmP7Q1QVBsm1EwSdw0wpcrZFEcPcs3wq184Zr20BMQxJe91cGE6y/0y7kr427j7OobYIJ/rTdKXc5OXlUxTwag8skE5qny+FX6H56lCcB26ezbjKIn66o5lXth1j2ew6akeXsG3/WTbubaVi3GiqRoXZu7+Htr4hGsZlce+8UVwxppjuuMW/rD7C9uN9zJ9UTmtrM1YiTtoTJOrJ1l5lMD1MyC14ZYraPB9/ecfl2od1u8UrwkvaMotMEwS3jKJJ0JOetYgQWXhl4sFK4pEWhuJUxvZWZ6vdbkUWBAYbOcpH+pOO+c3IOZrWKkUWpgiPnO0e4MiJc5TmZTNrbIUK5oiXn4za+YNZCoG+K6b1uzynf2dP+xUShDHlBXxOzJoaatSwSA9cBy40s9u/ilmTaT/JHHksmabxdDffenw9O5taiQvNUIxzVK5aDg83o0Juhdhnz6pjyqQaKkvDZAV8+L1SaRpNO7n30syLplKqOtfc1seuwyfZse8kze1D9A2nHDEwI4EdcPsI24MsWTCZ+25fwvhyIculGRIfgyHhBXjJCZp2nby8+IpYiTT9QwlyAi7lMAwkbfoTNgUhN9GoIF8+8rN8hFwphuM2CfFH8LgIBT2qTCqv6/N5KQ0bMyiB6JO2i75Yiv54XK9mTjBAftiHR9jjbktZ6p0xtCqXvq6MDoasIdz+IINisZSwyPa7SCSNpkC2VwTXM8ZV5jqKLXFnJElfXMRuAhT5jdukVGzy9aIpizM9w2opX1mQw5nWHn700g41QYrGRIXPje0NKJIpegbS4qyvzmbhjNHMqK+luqKQrKyAOhcK4qIdRuVhu0jGbYYiCdou9LHv6Bm2HDzG0XPddEUlffcrP8DYBKfw+9IsaKjlgzctYvLoCnJEyGtE9VWSxYsQwq+VIOw4wf9+8CX6hh2zKJcgpinmzahjcsM4jhw/we1XXca0mhIE95WYcuBMJ8+t38v7FtZzRcNYosk0T63dycnOJPfdOpfnV++gsX2QuC9X0VRBJbrjbhq7k9jeLGaWuMmSlopwxlIRJlflc9dVc1VHQVVf9dyUeJKmbTjJ6sZufrajjcMnzzG+LMxHV05h2aRSAn4Pb50e4B+e3KWE1GmVYe6cV8m88aV0DMO3Xt7H8bYhbl0+jR1bD1BaUcHHb5jM3hNdrN93lnAoTE9/nOFEmjsW1HL3vCoCYR+rvvoGtivGB2+ZwUtbT3O0OcI1l41lbIkhusddXp7e0c2Jowf4wl2LWVwd4puPrGXdzjMaW+fWV/D5+69jwigR4TMmf3JPlX+gyYG0MB1StKCBjniZMa3KUNmN74WiRY7b6o6jzXzhX39C5yD43D5WLZ/CZ+9ZSm7YN9JqfDcqub+z2Pou39g1bKXt/lSazYda2Lj9MKNrK2mYVEsiFqVzUCw5vYwpC+NK2Lz+1n66Yi7uWt7ArKoszvUNc7g/zpM7u9i8YzdXzBzPkrnjOdfSic9KM76qSA1Z5MIG7CQTisNU5oW1bSEJgqDrA7Eke5paSXkCpAJhTg2l+cHLe+nq6uXeGxbqbPL59gFKcsKMK83G6xGCIxR6Ekwsy9aRsY5omrPnuijICbP5bD9bTg6y51gLA3GBlHxY8V4qq6qZUV/CYvFen1hOY1uEr794CNHv/sSNMzh0uoNILKXcBDm4td4XzaU0BD0288bks6SumDy/BBgzIiUWpPJ8I9Fgsm1RcjScDqeX9baWgQkg2tfKsJ6d+ZCLrGhHIXFE0104H+ZfIza0DETYe/Q0heEg8+qlbyfBXPAKce4zoi7/30wQ8vn8h1ewZLrYPQts/z9MEGxbD/RTFyI89NQm1mxpJCadS9X9t7CthBJCxxXncu3cepYvmkpNdaFC2GpCq/1KR7RLhbucoC8KonI8uW0GohZNpzvYsK2RN3Yeo7V3UHk+Cfx43GG8iRgy2HPrylncc91MKnIlGZXkxadOZ/KqCbW6FRtfY3RjLNjlr9KKMuvMkxbeSkAZ6GqjLv8tpDxFQIymg1oGO9r+MoUv/CLDYnfa7M6BJPtBx9hEJ0DGL7Xd6FVejBz2sqldYistVbHb6J3I6xlYWNjjEg6EHCgf3KNrV8TPpG2oFGmVC/Cr2qAog6pXQCqmPJSk28+F7ig/XbOLp9btZyAi1GlBMkIkLfOZZFxu+WUTWDGvjqmjS8kJGVPrkVkSZ6Mph/ASVURpC0YSaQ63dLB2x1HWbTlAe9eg4QgJudEr/ASLglCaG6+Yym1XL2BsaR4+kXiWUUi5lpcw3999gmBGxuU+rdlxgi8+uJq+iLgcijGRsYNe1DCWm2++jB3HztHRFeH2JROZX1emHgSdwwmEsCtIicfnZ/PhZt7cdpCrF83myhnVdPfHtKgQkrciMi6bI+3DfONnb4E/l6/ecxllfmeGybYVHa7ID5MlyYlqrch99GmRt7eln794YpcqGdaXBvjQ0vFcO6tWpa5lHQ2n4fl95/n2+uO0nG1hcrFHR7tbemK8tq+NtCdAWN3W3ZRVljO2wGIg6ac3Li2fBMPRBD6/h4m5w3x46SSqyvO57avrFA36yB3zeG5bM2/ta2d0UYh8n2lfiN15U5+XVKSH/3XnZSyu9vPtR19j7c4zivLWVxdz69VzGF2epZMzmdF4TRS8MnUn11mYRJa2OIQbJ5CCtNCV66U8IjPRYSTUTRXX2NLDj57dyEDUqPquWjZN3RyzgwYlziQHv+9JgmsgadkneyI89tx2KorDrLxyJufaunhl00HaYl4uDFiMKQrwwG3zSKXSvLD5ODl2lA8vn0Z+QQ67upN8+al9dJ8/zd98cDFVZUU8/NONSsL68LVzmVCZq4eWzNca5qhcYPEml+rF1jGk/UfPKuO1amwtG4938vWfbGZSTRl/fvdlHD97gWfX72felAncvWgCBUqktXUKQRjla/c009wrgdSjI0mPbTrNkY44o6oK6OiOcLp1gBkTc8kO53DqWAtXTCri9pUNrD/YxSOvH2VaTZgv3D6T599qpKmtVzOCkTl0x02+KOjizsUTmTO+ypkQMNrlZrGZVCyj1Kj8TkdN0hiqjDzFaTU40q+GGmoC16W6ukKsVJ0CE8mMja6phdsGIuw7dloFcRrGighN0DE8MfTpzDCq2mS/m1ntd5lF/s6e9ishCPmqVHnFNJMgKDlZKarG/OhXQRDkbWV9dkeSPLlmDz95eatCuRnpGFvlq1NMringtqUzWDKjjiIxGfJKxSvJY0YUR6ZoZNLnksrSGaUyOhQyLmlzrs8yZNIAACAASURBVGuA17YeZvWmg5zuGCYih78obMZtTULGlIf48O2XsXx+LVkB4a6I5bGwetwIiCUv6VN/FLP6lHhlCiVVwRNCliSuarcrsrpa9RphIWf5GqMfvd7GrU8SBOPdoemsGqTpzzW5Nf32zM8y6noZpQ0jZiYv59gZjxyd5qdmxFYSJjMyJw25kQFj/UDy3sYSWe6cJxXTpGsg5WXN5mM89twWmjpiymHSMVAC+NI2o0uzeN/KmSy7rI7yAmkZuhXtcWYK/4s9Yb69fvW0IaNF0xbtAzHWbTnEi2u30dweUctpmUiSD+NJRxldksU9Ny/l2kWTtdXpddt4ZeLkHePS72oPZsTB3C7WbD/JFx98hd6I3L8kFgklTi+ePpr777kSK5zFj9ceJDrUx+WTqpk0qoRAjpdBvHR1DHHkeDMtHb3MmlDFtbPrKA3LYSXJhlxhI/MtHLL9Lb38649fB38O3/z4MirCZs0YkzCZ6JBWlyRuxhRKEknJFE/1RXlw3Qnae4e5eV4ti8cVUJLtV/5L5v71JtNsPNnDxh1HyQ/AkrkTOXqmg+Z+m5qaUprPttF8vofhhKXTEzLwaySxE5oE2laMqiybz9yxlKqyAu7/5mtgxbjnxvm8tuMUe461U19VSGFIuCUiJ+1ld0uE+FAvn3nfPGZVZfPNR17ltZ1nwBsmJ+CmsihMOADxWMLsK+GoiCS/R1p74gycwJNOkCs25okk8aT4RPix5bmWkNONKqf8v073uWz1KRGhPNE5Cbhs7lwxlU/ddSU5okrmtGXUFkBtiX9/H66+VNpes6eVNW/s4f6b5zFhbDmHTrdz4lwvwcJcfvrmWQ4fPMI//umtzKsr5EBjC69t2seNS2YxZVwlP9nSzNdeOszoygLuXDJKs/Cn1h/W8cObF9QxvjSs5Kua/CATK3MJem3i+Imrf4BxIms8eY4LvTEKSvN5eO1B1h8d4Mq5E1hSX8DeEz2s2X2GGWMruLGhjNygwEQJpo6tJCs3yN/95zo2n+inLN/PbVdM4o3D7WoEM2lsCRe64xxrHmTu1AKC/mwOHTyh/dkViybykzfOsv5QB4vHZ/H3t81gXWM7xzojSoryeyQgmsghng5lQRfvm1XNtFEFuihNcuBkkxcVIkywVbhKNpcJkMatLLNAjNmJ+Kqb5EKPImfKQt2pTPiUjaziLyZmy2fqjUTZdaBRA9GsyRMoDHkJeNPqp64VnHi/p80Qzzv96n9vl+fvMEGQsLDzaAdf++HzHG3txrL90nyUq6y9zfrRhay6dgZLZo6mKEuEv8xll2pEZXpl7t5J2ZzSw7H5voR/KkmCuN3Zadr646zZ0sTTr+zhfG9Ercq9BNS3I+yzWDCjkvvvWcz4UXlqqyuVrS5RkdzQ6RwjSmK0LRyVTEUxzGiwPFmrIEkhHJKXtlad5CWtQjkmGTAPRz5dV9TFRMJISQtakNE5MW588nxxn1TalyYZkkiYXrqS/Z0/2lzQpECqWcMll9o7I4emk0aK4BnOkbyG2PbJYXWyK84/f281Ow62ENPRa0FM3Bpr6opz+NBN87nqsrHkhtN4PF6dZBAlRAnoJjXJfDODKTjf0pngMhocoospj97hNG/sPslDz7zJqQuD2t6T+ytXQrgZsyeN4vMfvZ7a0hwz6eTNIAgX44JpZvz3XKARDweXi9e2n+TvH1xDb0TakHHRKlTy4JXTanSEblR1IUc746w/dJbm052aOOFOknDL+Kyb/BwfMydUsnhiBeVhtxZlit9ItizoomqMQPdQnO2NLTopcc2MUeQKY9wZdTcRyrR+MvdRUCG5Z/1Jm9ODSaIxkTUOkSdcEomHIwWJWc+RZFK5ZHLPS/LDdA/GVMxNNCaGoym6BofVQdYkVJJ8mMTUkuTaSpAV9KtUd8Dt5tWmTpVRnj66iHMX+jRpH1tZoPohirwA+9v6GeztY+a4ChWk+8aja3htxxlsfy7pVFJ1IoTPISR8EepKWxIzhTMiKHCCkM9iYk0psydV64j6lt1HONsxRJygoshyRQRjMLFb0EHhvMhEXkCJrcLhuGvFVD5595WKmGemmTKJwu9t/JXVeyFu2Y+9dlBlOv9s1eWUhL3KtI7LqGHKzT8/sZnGQ0f4t79cRUNFjgpV/HBdI5Pqq1k8uYpHX9rDkzvaFY8vLxT7Tw+tgzJ/7KY0LGRCkcOMsnJyGfddPZPCLD/bGs+x99Q53D4fYa9NQVE+MWH/2wl+tOYAjV1eVX7L9Vr02HlcGHaT7x5mVCiGSyDeVJQ/vW0RK6aV82ZjK49ubab5Qj+3L5nM5mPdnG6PMLW+jNaOOAdOdbN4ZjXBkIf9u5tYUl/I/IklPPTKIRp74Ir6Yv7qtuk8vraJvWd79cZLUNEwqwp2aSqyvXxk5SSunFhGyEkQVF/fGYsx7CSBViUomqBslm5Gu9xgBQLxqaWURj7HR0L7myZUGXEdY+0rIVbMVuTRNxRh657DqnA2b8YUCrKzjOJepq1xCViaYTS8KznY9/rK/R0mCN0xm4df3M6TL71BNOUlLpoflozvuqgoCLDq+jlcv3QSRdky5mSU40zOZ3qaGdAgY2Mrl9ojo3EZ1MlpYxlFfmlneDjXG+Ppl3fz3Nqd6qMgR5E46mHFqS4L86HbFnHN5ZPI1iLFqO2IJomO3OmBLqPEjl20imKpCDcuXWuWrkqVPdcPZw5zU9+4ESU/OeCFna8nYeawdxCDjDR35lAV9MBU/kYSLYNdqCy09q4N0iCVl0rvOopCZsRZ3kdaE5LWyF4zx7KiEmpIZmmlLhLhKYJmK6UsXt5+in/87mr6Y17SXuPiKolGrtfmwzddwaqrplKSLVWzVN+C6sm9MaiJuUEGBbl4aDt8dcdCWtBDvV4CrbsCdEfSPPv6QR5+Zh0D8bSSQUXHxWWlyfdF+eyHV3Lt0mlk+6R1cjGJyryPSRD++wrSuOAaIqBJENbSGxHp6DiW2yAxS6dU8bn3L2HcqGydHDtn+TknQlLdPQzE4soVKc4KU1mcTVVuQAniPhWHkSLMQWqczyfTNMKvEmKnxBtxgdQ2jq5Hs24l4csot+q6lTtsJXXU2qji2sqNEKKpas045HFNw9Jiwxwn7g3pfZbDWap1WQci2mY+j3BFTJtW39dpsajaZDpO0vbrtJs/bTEoyEw6RZYnpQf8sB3Qe6qJny0S0TZ9SXH3TStR+ELPIN9+4nWef6MR25evxnoyEqstYeVSGJ0eid1KwrQSjCrK4r7bl7Jweq3er5c37OXhZzaoxkTm/kkya5LilE7FJFNpnUCSn4W9Ke69ZgafWLWUkN+YFBpHzz8ABKEtnrIffG4LlsfPZ66fRb4nTdzlpyWS4OlNTTy/8TA3L5rEAysnkO9N0tSd4ocbj1MlcN6ccTQebeZQV5J+lfyFvliczQfOqKzs7AkVlOYFCNpJplfkcsXkWnx+Pz9as5fVu0/gCYTIC1gsXTgVn0/qbTfnu4d1YwqrVuDXw+02B5raqK8IMm1MnvociHLaVdPHMLsySF/ay7+sPcHGnSe5ffE4Nh1up6kzzvixlVzo6efo+W7mTKrHF/Jw+GAjV08q5PpZtbyy+wwbTgwypTyXL66awb7mAc4PJUwdphwJo08uiyjk9nD5+CKmlWYpf8LsCOE3JEw/WpIDgXxHzKNkVli2vUDMzky8JhPyOxKnjICTASEcxUp9WbMxJbsVRbREOk1XXz879+wlNyufuTOnkBUQSE4OBjG4MdWXMcNGFRwlQTBuFr/88W6e88tf5bf4DHVHzuggmIpchJI++OePcqp9wMzJqw5CHCUp3reCJdNqtPL471oMppfoVJMZKbyRKyakNzhwtpv/8+gaDh1pJpkKkPZkaw+zIJBg5dzRfPQOEaHJMWiBLbogJiiYQGTeQCsrZYI7tattKmojp2TQIz04JS66vEoIPHC8ne88sY4dTT0aWPUoT8bIDbq5euFk7r9tETXFAVwqBCYz+aKzICFeArVZB2kVB5M1IFWciIQZsp0czikRBFPRJ8fvUMnEHp0o8jlJi67/EWktgxhk6uJMgjDyUwObmefo9zYwtnN1nfRDpgsS+t2TLp/iXVKJmQpSJprk3+TamHfR8V9NEESYLIhtuYgORPjy957jlZ1tJNw5WJ6Uft5wOsrSOeP4xAeuZHRpvu4HIQa7BGZRJ3eZ/Zf7oLTTS0TLtXlh/jgaMHq+XSJqLgdiW/cg33lsPet2HaPfDmK7s3ElLPypbq5ZMJpP/9GNesCotsoISmGSr4zDxsXVlsEwLvmJo2Iqa2XNtlN8URCEYbmWUSyPpWjV0skVfE7Qo8os1eWI+rI1cYzL4JK0N8STIC0j12m8bhkfk7FFkxgpF8qRXNf0KJMoaDEiMnYuB5Fyro0mtzJGbhqtipjYSZ1gUIdct0hAO60oWd8eB1J3vlLaTmHZCYYIII0Zmb4RFde0bbRZpGqXCl6UK0VYTwsdQTZc4tibxpOOEbX9uFw+wrIvPCgnzCuS+6m4ivbJ5It+D/l5Oo3oi2gctKUNBU+u2c1/Pv0mg3FpJxjfG4FixPFWqi9tp0liLf9mWVQXZfHAvcu5YtYY5Xs9vXob339qI31WjrYgZO2ogqQmt4JmOavEJdo5NhUFQT5193KuX1Cvo5WZ3aIx4RK33othx7QXM2td141TJF7cbRexvIt77tJd+Paf/raisOtCPGV//+XdOuL4uVvmUxyE1gF4bMNBnt9+gsvnTeMTK+oYF4jp5jrSk+aR1xupLMtnccM4InE38aCHSBLcQTjfH+OHT23S/t+qq2czuiIfbxrCYiLjsqgpCaigSW/UqDb6vRDO9nPwdAutvUlG1YwmL9sviSRDIsN69AKvr9/LZVOrWaKqaV78FhR7LEYFU4TCAf7ttSZe336C25ZO4q2mHs60dDBtdBFtvT0cPNfH3BmzlGx56PARVkws5IFrGmjpi/P9DSfwW2m+cNt0/vGZHRzrihOPi++ZRxm8LjtJ2uujPMfLJ6+fxvLJVYS0unIOfbfAYo7lsiMmnamsjKlABliVzWdc5kxy4ddZXMt5HZHelWBuer9yUPgVkuscjPLqW1sozs9lxZyZevCp2qMy183su4FjRRsCFfCQ0P5fJwiZQ+niUjIT/O/dh1H1lM1sFMzkIOtNpPmjv3iEE20DpD0i0iMVX0L5M5/+0NUsn1lHjo7RakwwVr4K92eEjJxgoQeTA7c79jLKyBJmftrFy1ua+M5P3+Jc+xDJlBd8OSYRKXPzwJ1LWDl3PFleB6rWICL3wXHIdCStR0orpw2lQmEjM9emF69HpFqji/EWDMZSPLtuL9/88ZvE7LARK1eFzyQN40bxiTsXM7++kIDfrDvtcUo/VRMEJ9mU13MQBE05NSE1rS6p5DItMmPNbkJSSlAz5/yS55k02FSVlx59ToZrEqBMdexUwWa9X/QNyawsxQmUSOsmpRLgRoTNxEiDdGQSc036bKkfHaGqtIdU2s2hpjP8/TeeorVH9AmCyEyFtC5r8/z88Z1XsOLyCTqNoZ9bWhiqLSExXch5mQbDpXWxfDpnf2qSZmR4RShOv7kmpzCctHhtayPf/vE6zvbKCwb1UHLZEWpLw/zFH9/EommjHDlmM1efua8/v7sMJi6iTdrPFoMp2fXi+ombp189zLee2kT3sFT4cR2TDnvSXNlQwyfvWUJdVZ4eUqLkZxxBjfCWCtoJX0CVO+X7mvs9ktaJ5rBebyeJyxyWegfNaJ9BVpzro4e1UZOV7yKIjorlpSzcXhn9NEmHJsLKI7lYkAinSmKiYFdeIcRqHJTj2xzUZqrNyIdLW0t+0xjRmx0u75VUIyu3jlYKGidkYa9bdr8k4iaplARGpl8yWZmM+UriIlF0/6kOHnpyA9v3niBlhzWeurxi8CTiVhG8aWlvyF6QcVgXQQ9qUHXNkmmkhiOsfWM7TeeHSHpzTdItSY/TLpP9K3+CPg/pxDBhd4JrFzdw/+2LqS3Jzux05bHpnnMShMxEla5EEQkUFEWRNXNtM5wfuZfK0dFE7hKOkLMfTdsn85B9bq7BbyuOuzrilv3qnmY2bN3Pp++4nIq8HJ4UC+MNjQwGS5k3qZraZDMfu2YW5RXFbDt5gZ+9eZjRY6rZs/8wB0+1EyVbLY7j8QhDoSL60iE10Sh0JzWzVf/29DD1ZVn8w6dvY0xhWBm4GW3vIVw8va2Rbzy3m75hH+5ohFyfzZA3TLflJ+mREao4WXbCiBa502QlB7h60XTuveVyHnztBG/tO8UtSyezubGDQk+Mj9zQwNbGNh59dS833rCS5rZ+Dh5p5KppFXz6umkMRSL848/2Erd8fO722fzNU0fZc7qVJQ21jAp7FUoeTtnsbu4jOjjA390+jRunlZHjEVEcETgwAddyy80W6Cyl8VmYsEJa0n6fkrm00ataENJH1fAhJE1HT1zCkU8IQVoxiSugl0jaTWvPMJt3HaSmuoRZ0+opdLuNKLMiFmksbU0Yi1oJqCPktHcslZGaxfEEuLi0jFPFb2th/SbSjkxX3YDJRgVtKOXii//2PBu2NxGXjFRVM+MEPTHuuHYR996wQMdxvUlJHMSSTkhWnhFOh7Rl9L5p5SQMf8emU02/5Ky16B5O8qPVe3j6tQN0DSSM3I5bNOoTLJ5ZyWfvXUF9ea4mkdqPV6Tgl3/jTCX+tgPXIakp8iBtpWSKwy29fOnbz3Pw1ABun5+0Qs1pqosL+PitC7nhshoV5pLDAKkYR0LEJfyBTOT8uY916Qd1mrgZjPgXfoWfr3wvvqf87Z3v+1+80EXTgnckHBevhjoz6OFhZK0zjrGSsD37xiG+/shLxGIBEdglKUmgCy6fWsMn715EfU2BcJ8d9xfTMc6kym/HP9752TL9d+O1YlBAx7NF7JhtOH6uj+899SYbd54inZZKOKl6/FkBP5/8wAruWFavxlmGc2QCvCrMvo0sbO5+KilTDwbm1u2sVu1u+qMWX/n687y+/ThRbxhPIIidGKbQl+LGK6fx/lsWUlmUhTez1hzkxqw7g7rI3813eOe+vuT+jZCmL64DkyC88zmZf3dW7cVAYp478uuXsLCdz3LpajFPe3s1bH4i3z9luADO3ZK/ve3zO2tGk2pBF5wCy/C0TFSQWGgs5wx/KyWCZFaao6fOsXbDTk0Seoc8RO2QcjH8bmHAyZSNkHYNX0c/j8RnUfd0i3hWDI8/iNsXMCJYjvuP3Cf5HdXBs1NU5Hq5celsbljSQGWRTB45Ex9y8KfFYVPGKAOaLMla1SPfiRmS3BhysbBvJBkO6jpQhEK+mU71mO+kAEgmWb/EI0l/OkIk/uXx59d5hmsglbaPXhjg4ec2Mb2unMtmTmTjrhNsauql2w5rZl2Q7uUTty6mrNjHi28cobNvkGWLpnPmzDklc8RSPvzSogXaPblsPnJeRX3m1FVREjDmQP5khJrCAHevEFVEr7Ku5abIRRh2edl8upsnNh6lZ8hFbbGoAg7TT5ATQ172n25nTKGPGRUhctVXwcgOz5sxjgRefrDmKOc7e5k1roikL4/RBR5WzK7gbG+cjQc7KS3NZe+Bs+TkhrhmRhk3Ty1lYGiYfxXFxKSLz9wxny8+1ciBY8f45KormFgYwmtZDNlentt1lhOn2/jz2xq4aXoFeaK7LhCtMzgl2bKGFulfWqLrLiNf0us1ZiK6lzToXaR6KdTreCD55OeW2N5amm0OpeF4Rz8Hms5QU17I3AlVZKsUrFSLsuAELTBJgkKoWo1JwuL4YlyaTmbEPRwIy2AImS3rTFP8Oqvm/9LvXEwQjDmXrJWoBT94ZjuPP7+BQStIUohoMrFuDzNrQjn3r1rG7PoqJR5J5W2qLBHGMYe4Vw1bDBphKlUjwavqak5FdrpzkO89/SavqRiNJHiizpcm7Le46/p5fOTm+RQFDDFQKhojxfwuMoT/4rrJiOGlvUohp3YN2/zjd55n9Rsn8ISySOvhY1EYCvLB6+Zy98qpFGQL5Cl/fr9Z0m+/JAbREGJmRphGlrkcnt97bhuPvrAJK52jUsO2R4J5mvctm8bHbptHucyDuqW6lmPacBMucgB+2b0x7R5zwpoK1eyVtLb6RKPhiZd38dhzW1UpUIioaa+t5MRVK2fxybsWkB+Q5EZaO4bcZw4sc3RlHqoNZUKFOsLKGJ2saRGj2rb/DP/xgxdo67OJEtBq12tFENDgnhsXctPymSrC4/0119n/pS37K7yNihs7FbcJWiNpTSb/cJApkyCYyGUigam8pR2BLY1tCYRBM6arhZmRROofGOb46fO0tA0wEHUTS5p2rBzkStzU9oYQyg3kLzohbr8IMKU0Tsi0j+xHhSIz3GIHhSnICTF5bJnamudIrBHsQlubxq/CpZ/NwOoyBSMHuaAjymuTz+cyLRedPpIWpUs8iiTOO0Rfh5OWSdxGVrAmTU42aDJM55r/duKAK5ay7J6ExSs7T/LWoWbmNtTRUFtAlj+Ax2toSKJQFk2k2HqwhcYzndx8xUQWjS/RGeCkjAcJ5CVz4y4XR/oTfO2xNaQsF39862JmjipUYRSBlETJS8ZOTB/f3Gyp82RryusfbWln//FzXD5nCmVZAXVBfGlPK4+8vJ3ls8byRysmUR6SrSyeCEZs6Lsv7ub5bScora6hq6ufuDeH4mwvZaG4EnEG3Xl6UAwNWwQDXmrDUVbNq6GsJJ+vP7eTeAL+bNVl/N0TO9l5qoPS/Bxyxa45bWHZaboicR2p+ctbZ3JtQw05QkwZAcQMNCh9QSGtRCNxBgej6jmvHb0MTKTJgcPOdnrSSgYyGKh6T8gzorabs33DNDZ3UlKSS8OYUsblBcn32vglMfFlICcz6aB94ozQUqYYvKQX/Lbd+o5xywy0917GEOT6KN/CCRhyGCex2XrwHF/7/tOc7IipcQuugMKPWao+WMeq6+YxeXQRIb8x3NI9rgQlqbSEByIQnkDtkhQIQiCz0FKZGsi38WwX33z8dd460Gp6pwrjW+Rlwac+dA3XL5KKUapUwxJXeetfdgb9gtB5qYeDJBlyXwUl+c4T6/nRc3uJufzIeSEuorkBH7cvaeC+m2ZTIvO+yjz4+dbRrxCl30NPNS0XPZwl2dUeuamMe4fi/PPDq3l523ESlvhTSEWWJDvLw4fet4A7rpxEYZbcJ6E+ZrC0i3D5LyMKZvggpixWly0Hche5dBd9cVi9qZEHf7SG/mHp+8vooE3QlWbZjCr+15/cpGRVrWUVhpKDwOww87i4OMT7waUIgiQJNpFEkj0n2vnJS1vZtu840bTwHLK0YAi6h5k2Jof771zB/KljCPnke/+aC+09dKczh600XU3FbNqxmYo5s99NgXAxV9S2gJMASCvXcCPi2sJIS9tWiiUhYQoKoCmfNpy0u6LdQ1EpdQozZ6WZFq3zmjKpohM5Di9C3sMYNV2c7lEKuiCPbpECF8UOSUgdkydpJ4yMfJoC2CCDkjgKYiDJiFFzFCMy+WzSGjEJghQhmRiVuUKOUNVIhukkKm+botOmnCkWfgsPl5WK2yIA0zpksXrPGQ43tVCVF2J8TQl5BUGilk1PX5xjp9oYGoyyaN5Els+optAtwhJJvQDiJyCZj/R/RDf9m0+t1cB53/ULaago0ARBNo3pXRlYTS6YgkbKtDVp9VDCYuOufRQUFDBnch22ZbNhfzPPrN/HwoYxrLp8DIUyzypecB6fcLxZd7iNQyfPMWtmPcebeznW0sXQ0CBea5h4KkXSm00sHsUXFDQkRU2uhzsWTyE75OfxDYdJplzce/UM/uPF3TS2dDJ7ynjyA36FnmVOtulcO/GhAT6ycjqX148iLGtARxMFORBnNDcdvcMcO3WBxuOtnG7pYHAgoiYwKbFYFkKNHiUCSxlBDkmWtAcrW0MMYuQVPQESLj/dkYTCZwVZASpzvcwYm8/YigLG15RSUpRD0CdVr2NQrVQEQ4LLbCbNXkdCUwbsM+OPjvK4k4HKYnx7hfNbWF//o5dUJ0RNECQjd/rbLmgfjPHDp1/n2bW7GXYVEJPD3SPtgijZ7gTzp4zhhqUN1I+ppKQwRMBnmNjSN5Vrr4poKoIi+Iv0F8U4zEwMSArWeLKDbz72Olsb201v32G3F+d5+Ys/voUrZlSrwqb2mJUE9etn75kxtwwCIXdMYO0nX97Fvz/8JkOWDysgiWiKHJ+XGxZO46O3zKOiLEuDlyggGoj49/yhC9QkO8rV0NaNkTDo7B/if3/jSTYdaSdu5+AX1CidoKQ4xCfuWc61c2vIFjVRqcKc4zizRw3C8suCZ2YHmQTBXE+jByEdqIjlZf32U/zHQy/S1pvA8orZcYosl83c8Xl8+XP3UFqQZfaxQ+wTtdcMp8MUQ+ak01e1XQzHUnR193H4eAsvbDrKvhPntdeesrxYKa8afReE4ty8bAqrrl9IVUG2Er9VvOcP4CHXQ45KnYbQA1LasUaZNmOYpCXQyPrOfG+jESN7Tju5TlNJL68uHyNoJARIuasaa/XfnBaiDAVp/z+DRVz8HXmHEUxDCSkOSuvIoOsxJoe7y03CEoddk3AIIuG8iZMsCBk3Uz5kmARGdEyTBm0hmITAIAYmaTBCZZe0dkbQhEyeaYymTNvBnKkmpjto4m9hXbjSqageWyJZ2TYUV43zI8fO0zs0JACbQl1uV4CS3BwWTK+mvrqAHJ8Hn5Lk5NCXjyeHjZnn7kt7ONTSqTdqQkUBhSFhLQt0aC6UOahMVqbZnZNxiet0wrY51dnDtoNHWTBrKjUFuaocJmOLJUVBxpX4dcxQqyqXC9mSouyYisdUQlaMRQbiSaJJx/UxbcgyWolKdpe2EWS2PFuCvsWp7jiJtIexpTkc7RyiPzLMhKoicv1+FYGJ2aI1H1HFtvEl2ZSHvfjkZXQEEXoGYxw61sq2vcc4dPwcLe3deqomyQAAIABJREFU6vjnSktl6lWBEmHEyx/NbiWLFIJTWkywjGlI3JbaN407JN/JrXK5ou4sYzseK0pW2FbSZv2YKiaMqWTC6BLqakpV4z/kd1TiZNE7ZLNMcvD22sXoihv8wRyUGgh1Eb93A47BD2TtiAKg+ZzyyaNWmt1NLXzr0dUcPjtIxAoq29UlTG7LIuxxUVOaz8S6Gmor8ynID6jssfAP9Bs7AUTChGASwiOxbI/aK4+uLFK06Xs/3sDWxvPOnLalYi3lhX4+//GbuXLOGOXWaI3oNsYvv+7jUgRBv5+YRAlhbfVu/u2hjUTdYZIei6SdINvr4cbLG/jA9TMZjvbS1juojnbvbarpr3ZlMg0wWc8ynj+utoxQyMeXv/kMbx5uJ0UufgnwVoziIj8PvF/Y4+PIcku1JgylDOlO7HslkXcmFf7bj/GLEgRLE/1o2sf67Sf49x+8SPuAeMgIhyhFWPQQxhfwpT+7h1gsyrHmDp0kEgM7qQ91rRmFda2O9SiQHnk8RXdvhJbWCzSdPkdzV1KJsSKO5HOLWI9N2G3RMKGE+1YtZlpdJWGZMhHlST2Nfv8fEkOloBR+mkft6w0SbfwPDMJn7qWxZU7IyLhbmkvCvDHxSxtDclgDAZEGH9HfECNAwwFRQqnqw0iykcTyevWskwTMvIIj+uXwEJQEqIih0em5iDQYLoJmAmlBkERnQzes8gukftFxXsczBY+ZUpNWuMElncCjh74kOeKhYpAkLREV5pTE07yLKpWK42smEdDj0ujqZOBK5bUpeiEJwjtM/35DS8RlW8NOd1yg8qQestIDbevpZzgS0ZnP/JxcSgryyA/JKJR8GeMnoHMIOstq2K6yzSRzktDp3N6RYZ931qqXCpVo1meJxHGKwbTN9qazdHb2c8OCaYTN1cItlbNL+kce3YRyQYN2QkcyhRCiN8YtrG8zziX/bgBHM/udycwM41ckWtNascsy8WPp1ID2ifSmyI2X5EJGcWQByUyuVLImYRKzpKPNPby14whvbT/AubZO1aAvryihsqKIoC+A1yVa/KKyZo41gaWELCdyzh2d/RQX5ytq0Hi6i7wcP6PKc3QxC49BroWgLcOxJEeONSlfIpEU18gwpYUhJk8oZ/qkaqbX16qVrszeipiM4b2aK60COJm15MznX2xdySx0WnX339sPw7XQOX4HQZB1I4lofzylyoNPvrydsxcipNwySmVaCbpehA+CreTZYMCP1+tIoOpURBrLI5W3YCgx0uKjgY+ScDY3LZ/BuNFVPPrsZt461CLj96aLbMUoyvXyyQ9dzfWLp6ifgc6y/AYQhEySoDHE7SaedvHQU2/x/ae3EZMepke8ONLkBbzcunwG1y2pZ+2GTby5/xTDKW3gvb0veWmP8m03+JLe5c/d+My/vdvn6Kf9L5bPpb//K/xdBQ/lfpgU10q7dK79rpsWctnscXzr0bUqfhOzgwrLivJdQb6X+25bxK1LJpEfkITXIAgjsxTCB/gfIgiSqPTHYO2WYzz42Kt0DaH+NLgNgnD5jBo+//Eb2Lq7kSde3MKgTJRY0h83SpOmqDV8JEFGJA7EU2niyRTxpEVS4rvSj9P43HHcVpKA7WJ8dRG337CAZQvqyfa51X9GZOb/kBIERRDkAJW46oxfij13QuTuvUHDConHNeEXXkavpd028v1GS0Pus1zXIdzq1SOaC4aoadNveRhOuMj2eQnLOLBcP3eMuMtFR0xKWvEoCRjZf6f0kFiTSlkaF5VKYltEpfUrrq4um7BPimV03FMQoFBINBlMNS8aDSJgbhgRtvp0iPx5ImUxGE8T9HsI+6XNYRwlJV5FUi5xqyYnKPc3rZMZQ0lbvVqkpSyqjNLC8Ah5MtMilvaU85lNgmCaar/FBCE6ItkiTHrp5STcIeQIlUvtDKho6WZMZ0zvVaomrYwVBjTzspqHOzdoJJtzglcm7zUSq6Y/ZMatHIhUHNlSSRIeDx2xJG9t3091YS7zJtcZm2MHXjOjMgaGkjw+jk8XmOIEOvPsjN8oec9AMEI+kYtqhhPN/2SBGBmSDJPUBDMDL0pKKGSSlJMpGkRAjpH+uMXr25p4ZdMhTrX20Nfbw6jSXJYtmMrcqWMpL87FJyY9MnWQ0ZJ3fOeF79beN8z2/ccYVVvNyXPnsT1hZk2opKYwrHKx8v4yuiQwc0dflJ8+u4bq2jG8te80p1s7lRchIiFFBVnUjylnzpQarphVR1VRiIBbroMoecmYk4ndmido9plhEtukUikVV/Gqd8N7+eE0TtTk6uIKkuQmbtlcEEncbUd56fVdnDo3gOUS0qIhqkkg1exbWMg6tyf3UJpSAu8lNd8wB1Jc+/uCppSHA9x9/Wwl6j7xwlbW7DrNcFzaYrLyLbICKd5/4wI+cOMCCoOO/PD/kCh4aXJg/g79cRf/8v1XePHNI6Q8fm2BiHZBSZafO2+YyZL5Y3niuXW8tv00Q5bZoW9joY/cUrOHLx7kmV5E5ueZQ/638XOTGP/8e2c+3EUoNfMcSdhM28aYmuX6bT5y+2KuXTqVx59/i6de3UPUCpi+cTpNKAi3XdXAfTfOpSw/rPfQVHEZPoMjb/lLxIp+EQfB+Ey4aO9P8PSa3fz4xW0MJn1KQLZdCXLc8L7ls7jvzst5acMevvuT9QyoyI+M2Qth2Xz9DCysTT6nWMl8QtmgksxKyyQvy4U11M/YykJuuW4RSxdMpTBbDjFHfVLQ3Pf8nn138URWhoz1KklQuVhGCzQST7HnVDuHOuL0xpLkxPtYMWM0MVeQV3adpLwwj7lTRqlBXZYbcrKCHOlOGPVbbRWiXI3Gcz3sP3KGxQ0TmF5TqClYwB3jbF+UZ7YfV6O9+ZPGkeNOkRuUMUgvEfHlk5Zt0qY45KY4L8iFaJJNuxv1Hs1tmEBBfhZnW7vYuGk7y6+8jILcHBLDccpygyTx8srOJi3uROq6KORh25Fmth27wOzZ9YwT76B0ipBPWs8+3tx9lI7eIVZc0YAvlVB3VzuczeZdTVSW5DG+tgy/lWBceb4mibYg434hM5q9M8Lf+G1yEOy0APsOrGFJ/iNjYSYTF7MQQbSEJS8KWEaq1UiNakKgRCLD1JdgaxTkDOyhUp26VSUoj3TINdtRdr+SgXQwxcBKaWPgIoZDAhmd7x5g0859TJlYx8TqCkKiviYEQWWwmIAmn0YO/0whY1TZRjo0RtJVYCUhsDja8RmEQckhjiiSMFuFjmlU7hypWoWrjKu8bftI4eX4+T5Wb9zN2i2NdPZbWFaKupoCblkxh2VzxlOSE1T4U6+TkFh0VtsECIGOokBLxxDPvrye7LxcJo4fxaTRoyjNDhC0lENvuNNut45xdfZFefyJl7jxpqvoTcZYv6WRN7Yd5nxnTBM5r8dFUVgseMu5YflspowvI5Ew+umyhCRACZnG53ERDkoLw9xpNcyRayUqaO/pR2aOITN9YQhFtmqm+tQmuXMoylu7T/LqxsMcOdnOUMpWzQtV2VP5YEEgpP8na1gEVYQ9LkmCEJqkkhBJWzOzXJXt5YM3zmb5wuk8/epOfrzuMAMxad+Y9DfgTbB87hg+9YGVjCkO62v9TycJLp1ikARBWNNNLYP872+8oE59aXUCBW/KrYIuH7xjHjOmVfLQMxtYu71VoWmz/t95yP/8Afz251x6439RgnDpIf+rPudXSxAMac9BmLXw8FAYsLnv1oXcclUDazfv498fXkPMktEzeaK0AdMsmVnLp+9ZwviaIuWhOO4Bv5kpBpHBxsXJC/1898frWbv9BClXtiK66fQwOe40f3zXSm5aOZ0X1u3RyZeelFdH47yW2WcjPVWnd+yIozo1q7ltMvLtd4lmZJKp46p437XzmDt9HHniQCmxThAJ5WQLCvZeT+rfZUBxRNDU70EQFh1Fhp7hFN9+cRcvHB2kK5Ji6fgQV8wYy+6mHh1bF25WTnYIXzrKovH53HjldP7uO+uUKycTJ4GQT1vhEdtm246D3Lp4NgvrKwnaabJCHp7bc4bvvH6MtB3i/2XvPcDkuK4z0b+qOoeZ6cl5MMBgkDMRiECQIEgwSCQl0hRJicqkbGu9b+XwbD97375v7XWQV7IlWV7LtiRagRIp5ggCYAJAEIHIwAAYTAIwOXRP7FTpfefcqp4eEOSAICAi1NgQgenu6qpTt+797zn/+f98l4bykIT66hJ0dPagZyQFxeeHOjKIVfNqcPvauXivsQtv7jmB6bXV8Ho8mDalEKPUVfPYU1h30zKMDVFKaQwPrFuCgMeNHz33LqZOqcB9N85BUjPwD7/cioOnhlFeWoBIUDid3rl8KubMrMXzbxxi8PG1L9wGOTWElzfvQd2ipXj3QCOqivJQEHABo1E2LazI8YNWIRAR1ypp2m2TYjG8NONCMg3NFKIYQmCEZVgtogct+LSrp2mUFmfLBJdr6Ew0ZJlNIpCJ5Zp2viR+wUrXXBO30t2Mw8WCzIl/K50kLpDqu9S6KFS6dE2IcCRNA4e6YthzogMr59djbhGRk2ztIfEdDBFYFMYGL2KRpXQSMVIJeBAJhgACc2RZAUuQTKgkQe/TiUhIiljMVqBZSpyzaIUjzjyQUGU0tEbx2HNvYN/RUxgZI/6FguqyAL742VVYu6QWER95rXshacSIk7ifno8PGSkyliLQExvB5q0H0NrWiTtvXYUldaWsZ04ZAQsjsWwvhYIsf/sG43j86Zdw9z0bUFacg9hwEu8eOIlfPLsdze2DkNxBliH1KjpqKgtQVZ6PZFqDypOTwS6UfsVAaWEYNyxfgJlTy5g45XW7OFVGdqiX949YMWhM2eqDTFjkypEwGyIwSY6gzadj2LT1MLbvJ1fEBDTZIwzBaJxw26moKXrIjIttX2XIBmWcdBgKkdEkVIYUfPmuxfjUjYvw5p5m/MtT76I7mkSKUmWKDJecxswKD775wHrcML8WfkrUWG2O9k7x7HhO6AC3s1P2xt3iHGT0+Kkuq+p44Y0j+P7j29FLUnmUHjUkuNIyZtcU49GHV6OyKoh/f+ItvPpuh+UccK7FeLL0/9ln+lFLDB/EXfkIZYXMMmnlT63WM3G3XUxI/uq9K3Dvhnk40daL//FPz6BnMGmJGHmZeEOWw9/83BrcsKwOngA3njIRmAWAMkofFhHgnIPd3nBYgmdZOgg0/42pOrbubca/PbEFJ9oT0OWQuCdmHJU5fvzJN+7G0nllePa19/CjJ9/CQFoQXV280bKqz3ZHAydu7NQeOSWKrhriGxSFAvjUuutx48paTCmNIOChZ1iICIlhIwjeRAi/nHlD5z2fWPV7Jq9z9wAXDJDQTOzqGsFP9/Zg07YW/O03VuDdXSdx+NQQ5i+YjvpSH442R7H/4DH8zopqfPm2RXh6ayOXxql8QyTOnr5ubG0ZQMcoUBkJotilIyIb+PJd12FX8wh29mv83LSd6MC6FbXcIvvm6ztRW1OO6xZX4je/2Yq5tUW4flE9fvbqMSSkXMyYXoPG4yeQm+PDtLo6vPjSq2ztPKWsAMsXTMOK2cU41tiJd470YFpFAQq8KkbkEP5z4wEsmVeHmRVBtLTHcPRYM76wYTZyAkG8tK0BTR1RlBXlYNmsSmzffRhJdwR9YxoIG/jUISypjeAPv3gLKsMBkPuI4qL1SvBZuJHWzv9/DB7Uh90zyTQpkSbQO41E3l1aOxm6aWJQinoayaUK2oaQ6aR6/HhaXpA0bBnb7KVH6HzbIkG2apYY5rzjNyi3Q7sn0cZDu34aNFFJwb62HjSebMeauXWYWpbHu2HWBmd1MJYhY6IYZzJ4M0UWtMSFICRPnAl6sOgFIrsIO2YCBBLXkCkl5UKcMheCtGwRRMhRkbZtJuKqhp0HW/HYk5vQ1DHItrle2YXSXB++dP9afPqmWSwnSlkVttajfSUBLCHdz46TA/EkDjWfQWNbN4ryizHU04+bls/GlMJc7tdnKp5lXEM3i/XjCVD0DOKJZ1/EZ+65A7VFBfy7uK5j/4lO/NvjW3CgsQO6Qs53MjyKD7pK6mKEcSjrkWb9CS+5pKXiWDRzKv7LV+7kcoao85KhzRUAEEQOZyJA4ESL0B8Q5Srhxkf+IS1dI3h3/0nsO9KK9u4eDI+OIqULbX5KzZE8L90l4SBHZQfSVKeat46ioAv337ECt69bhpaOEfzTY5txpKkDCYqYx8+WtPnuNO65cQG+fNcqlOeR5qYGIiQJ+24h/yoQvahtihKavSjQC6Lt0majUz88s9v5mQNa2vvxvZ+8gm2H+qD7qH9ah6KZrIWxbvl0fPWBVfB4dfznk2/gjV3tSNjGSx86M/ODMvm6wqdpPdOcxqRxJKIvFlz7J0N3Pe/1YPI3inZWev7p2aMSQ75PwUOfXoVP3bIAo5obf/395/DOwRar84nq0DJCSOPOVXPwyOfXoKSIWlWF+x5BfspeivlsvLfh/SUPMfHZZQD+GyvyCqGzzmgcP31yM15+6whGjTzR024k4ZNGsGZeLf7k0btRHHHj5S278djTWzCmWT1GlMmivngrwyrGhABylGHwuD0oKMhHWXEBls6twaoldSgtCHK+1UvpchpXPB8J0EOZU5bynrQjY/JIXxbv4LEm7rN4XOg5N9A7lMYvtzfj+cZRHG3rxq0z8jGlOICEJwdH2gaQH3BhsK8bc2sK8PU7F8Ovq2gaIi4aEeepXKOh6UwfntjXj4Y+DTNqCyCNjWKkexB/9vBSvLNtD95uSaAzTSZW4DJWJOBBfGwUa1cvYH7Pv/yfZ1FdFMR1C+rxi00tGFXd8Cs6ZydGExoqK6uwf+8ufPVL6zGlyIfX32pEXp4bZ/pGEE364UkPIdnbgrjhwZgrH4vrC3HHqjq8se0Elz6/tGEe2tv78PbRdiRkPwaGk7h99SL0x4YwYvihk1AWNIQUFRUBEzfNykFVQKbePQYGXOKyaJrC7kyspJfihwGCnTzM2thkEpb2l4q2iqydCt9Xa8qwNg3Zx7FfFS+Nv2KTBbMTlhmSJx/enswkbvsZUU0cbT6NE6e6MWd2Heor8hGwJl0iUJLuusslRCfELk78SXFqmYgiRCwhYggBClq83UjAwIiqor9nEEeOtOBU7yBG0yaSKWGRy6l5spT2Kvz7/Q2n0NE/IrinChEZ07hu3nR8at0yhD0mM2KJVMKmPbRoubxIEHPW7UJvbBDHW5qZjDJj+nT4TBknDx/Dghn1KIiEGYTYoEqEV5ip0F0ZGRnD29u2Y/X1y1EWyWF7bO6eGNaxefsJbN17FHEjzdkKSXdBVkPQZQlplwZdJlYvKVma3E+U45XxX750O+69eRZLNtMkaOvHX4qBdTGPmfEysA6a4Ylk3fOMAyaJUOlAbEhFf7QfwyOjXHYhDgu7t7FnwllnxyROUcIqKylAaXEEw0kTP/71Vrz85i6MmTK7BxJxzqOqqC/NxSP3rsb666YwwCOgZee0WCde9KzwDpA7d2zdXkIAnCESzoBiEyU4M8T5iSZUPPXaDjz54k5ERz0wXNTyRhBWQ0XEg8/ffT3uXDcfXsnA6fY+9A+lBFfogzbzEy4zW/3uA+4OJ2yofUvmlLYYjhb51SpLWdtZ/g8B4PP77vMZDVaNwbJwpjU95JJQWZiPytJ8pE0Zv9l8GD98fDOTu2jxJE47pfJLcl149PNrcMuqOnilOGfITMnPLCUXl9WyAUL2zGSBA+KtsJ4LbXCIMCdUO1OGG5u2HsWPH9+Cjhi5Jga5ddkFFWFpEL//wFrcd/v18LpNdPYNouVMr5BAz2qpO3vsipgSQdiDSF4u8iO5yA+54CWF1qxwZuZMnkDP5oycTzwv8/dYLYoi1yOkomnhOxXT8NPNR/HU/k50JU2sqivCnYsq0J/U8fNtpxAfHcWtCyvwpZvrMK0giM1vH8C/bm5CHH4m1EfkUSybXQa5eDqn7x++az462/vw4uZm/PU31iKkpPDiwQG8uPcMd0NVF4Yxd3oN9h4+jpRG7pNhDJw5iZVzq7FhzXxs3NeHgcER5Hp0mG4XXN4gpk6pxI9/+gRq66tY/Gh4JI1Vy+rR0tGHNw/3oTDgxsM31yE+MgJPSQV+8cJ+FkQqCLnw4G2LcUNdAQ7ub8Dh9iiK6qrwxCvv4brZU9DT3Ys0/EiptOGj9URDocfAQzfPx7LaYvhYxlqGpgj3HWIf0cb0kgOET3oo2Yu6rRHP23nJRCJFXgheDCXTaDzdjfauftRXlWBKWSGLHlEpgtoOxWIn0nHMgWZSGy2aOuMCIp5Q+YMIX4NjGhrO9OGtvY3Yt7cJfd1DiGvU6mYJpDBvQfQwy2QWY1BJwgXJTYY9lBZMwdDSCAd88JKQVCrJCwT9Eb7odANdIKFNUlXUDB1aOg23iyYrmcku6UQS4UAQaZX8ySfu7Phm25JrkoTR0VH4fF54yBieui/oOjQXEiqBEPLpofQ4GZmQmmCIp5iUbAEEYmjQ4Q1q4dPx6APr8dBt8xDg9sgrByBMPj4pBgJUWYxMIcXKya7xBTSzuc8+IK01tHALi4aMMAuRHd89eBo/fOw5tPYmMGZSUxtJoaYRVpJYWl+CL3x6DRbPrEbYK0iClA2gtDQdSIgniTHJHCz+CkvOlyAzeUhwWU2YNEXjKt7c14SfvbgdrZ0jkOQQVFWHSzHgk8awfF4Vvva59ZhdW8IZELrPjDeoRDV5gMTSM5nIjrUHyJbtHc+AWBkEC80KGVl7w3BeJ/Chb7LnAMFKEl4I1CpIZUUuGZpAU88Q/uqfn8XRpi6Y1N1hECB3s0jWjJpcfP3+m7B0TinCbsrCWfNB1v3PbB8yi669waH7QSAhDUmhOq+E4aQLe49048e/fAPH2mJQXQpUWTDQvZAxryYPf/rI7ZgztZC5LlT/tkunJKCTkQ1+H4I6axtFiUrqnjovkPfx43w5HYE5N3Y2k909ZQxrMg71xvHH//46mgZS+PodizE2PIxdx/pYsErWkrh+QTVWzspHdYgyxMDGhihe2H4MtTXVuK42iOklQZwalPHO7v342gPXo/XMCH71ciP++yOr0dvRjZ9saoC/sBjzZ1Wio6kZRfm5yMkvQMqUkUgCUyIylk0hG28d//z8AZzsi6MgL4Dunn7MnhLBw/esxOZtjUhAZ9n/6uIcrJxfjTO9cXYJJqL6fWumoqmtA/vaU9jTEoXbI8MrmagrK8CyaUUwEjHsOtiIqlnT8eaOw3jwM+vQ0nwG3QNJdJyJYWplISpKQ4jIadyzrA6zSsNw02aQSqeKi5V4RSnL0mO5lBmET3rQ2JMDT9LWREoPM3ltUyGA+kXjuonW9h6cPN2JYDCIuupSlEZy4KedPknonjVZUYqQbZUN6omVMKYbaB8Ywfb3TmDzjqNoPBOFniYLT2EdS7sG4VNPpQiRyhEUOboTshDFYC0DMTEL5S/6D2UlBPuc6ZGkfSAbMMlNTiUxKeorkGCkqcPA3qWITAXvGCwJUfse0PdkdrlUM/e4kUqrMBT6dtpNCtIdiWpQLYq/i/kVCmRd4XYZQyEOhkhTMkCgNiAkGSB84Y6FCFJbJAOE81taPunxMen30zVzx4rt0CTuBQEEzhxYCmwcCaubJfuYvMuje24hCE4xUzvUcAq/en47nnp1H4YMSmbT/U3BLSUQVlQsmTEF99++BkvqKxH0KswlIWMXdlm0GGoiY2ar81kS2WzOJOriZBYTHUtj+74m/Gbzezh6ZhgJTRBISRyKmNcleRq+8Jk12LBqMXJ9btHeJfbw8PBCePFWF9sMx1J1EcRWu0zHeIA5+iK7wG2Ek96d83yDaJPmTBDV2S2tehIsk0mOWpIxrGp46rX9+PULW9E9TNbD1OEh2lc9Zgqza4rw+U+vwPULKpEXFPbC5Hsg4mPVEC0ulF3gFPdGIENuc5M0Fmx7Z98pPPnsLpxoG8OoRn4waZiuJPe1l4bCePDO63H/hjnI9bo520KZO3IdpMwH8X+Y82S5e04Ya9ZcwRDPih0xoi5Uqvs8g3sZvs3iF1nwltuXIWE4beKJ7c347qYT6FK9uK4QWDlvGjoHEjjT2UOMMMATwEg0ilkFEv7goZvw1vFePP7aASy7filC+hgW15XgWGsMhw4dxqOfX40jzQN4/vVG/MVXboCuJvGDVw6jd8TAtOIw5PQwb+7cpI+g+NE7pGJ6vow/vncZRkfH8LcvHEWH5kdFeRGaGttQX+TGmoXT8dJr72DNLcuRGhyBkhjD6nk1OHzyFJ7e0YrK6krMrozg8OH9GJLCKCivwKzqHMRjMXQ0n0FFcREqKwvxyvbDkCPlSEkm1lxfj/0HWxEdVdDZFUdZURDFuRLK/RK+dPNMzCrwIsiGVEToFB2EltSgZZp2CUsMn/ToEdx9a8HkTCg1q5icXmW9K2sxTGgGOoZGcJIESeJxVJYWorwgDwXhIPxui6DICzx9TqRuVV1h5HmguRevbD2A3QePIzZGOmh+XlS5rZA3mjqncmkC4KmXFA5pAudFgWZk8jaXebdJfAHJReoJQh7UfthFKplSZWIhIHTr1SW4iGtmLT78CqWkaU6yjWmybkC2PzwBJGpHpGshLQc3Sa1S1kEntUXKEpCUHnUnKMzsJp96IpnSZEqgiMAH6TrQBfmkJH7387fg87cvQIA0AFjo6tIMqt/+eBI6AZleh+zyF+9GDa5rE3gThtgTf5jhYA9Aq6eH1owxzUTTmSH8689fx86j3RijDhdGXNTQpMEny1gwrRq3rZyNJXNqUFoQhsdF/dZEhLRtdhn2iu4dKjtRh4oh+p8Tqo6OnmHsPtiKLdsPoalzSCgnssIjSe1KCCpj2HDDDDx41xpMKS7kMSXWaZE5cnNr7/ms0ue3mKdTAnqwbgTXvpngIRRQuYZngx2Lb3Q+X31eA0IoylFfEpUGDJmULYXro83hILp0S2cMj7/4Ll56p4n1SMj4jOqvsq7dbsiJAAAgAElEQVTDa6qoKw/jtnXzsHThFFSVhJHj9bDgEnGOJto907UIzpDtpEn97h19Q9jb0IoXt+xFQ9MA4ClgXQryQDGlFMIeA+uXzsZDn16BmRW58Fo+XWxjzHOOIB4Kl4WzVDa5iiLI2jxnWBMHdyZMlt05rxheSW8SgkgsSERbGUtQrj86iu8/tQ3vxotwqCeBb6ypBgb7cKJ9AFogH7XTi6EaOo7uPYa1s4pw1w1z8E+/eB19SRPLVy/Cnj1NmFpRgHjKRDLWg6//zjK8c+A0trx9HP/z6+t54f275w9g98lhLJ1VjkiQGW3MexuDH7uO9aDIiOJ731iHkbEU/u6lE2hPSuxK3HjyNGrLAlg+rx4/eexJTK2nkrGK2tJ8rF1QhbZTp7CzsR+K24eV8+owvTaCQ639OHj8FIJuE/l+L+pKC7Cgrpw3rD/bcghHezRMmVmNHL+EPbtOIJxbgjGV9C6oC24U/lQMf/nlG3FdeQ5yiGBNbZg23443l5YOwtWcQbCbIK29luV6SPaiwtiCHyBasElMSaKJ1UDTmS6c6RtG0tBQVJiHyuJ8lOeFEZBE5wJZ89LDGosDG985iZffPobDrT1QqX7DY1MACpesIzfsR2VJAdcBqRzQ0z+IgaEEUobCExW1FwmNBwE62AXMkgalBZ34CiSAQeCCCZZEo6TF36AUKYlgCB1wTqlJJnTetAilr3Ntwsb5GXTt9H2i9RG68Fd3GXGEgi6UlhejoLiAfS/6+2Lo7DiFZIJKKSGoCgtcC7lXEpWSE/i9h9bjoQ0LEGIDwI8nEXzZTUWW6dEEbMCBtNjpVt48U8LJLKq067PfY+/GhVAVgTmqQ+88dBr//LNX0dgZg6b4YShkQUytkTp3MlTmBVgD4/rF9aitjKAsP4wAmTkJtRVL2IQQIWWfJAwlDHRGh3GkuQvv7G3E0cYORIcS3FHDLaqUDTLT8MljWDKnDI8+eCtmVpciQEp6LGwhBpRYbMjz/sLvho2L6AgESE+d6WZfkSk1FXCR/4eVysx8heUUmMn6fYzvnnjWtExQCS0tAIJwcGFwQBkMdtVT3IirBvY39eDHz+zA/qMkZOXhnnbKFNGzJ2EMhREvZs2sxqrF9Vg4pRQVRTkIBshEje6zEE8jUMB0Z0PCWFzntuoTp3qwc38T9hxuRc9QErriF3K4RArTNbhlE9fNKccX71mBRTPKEbIssjkzyEkIi0zIbbMEeAiAjGdcOEdhdYDZLaeCQH2+PJILv8+X3yfHe1qJZM3mdeRDMjSCV3adwJ5UPp546yB++q1b0N7Uhg49gP39Crp7+hDSh1Cf78Xn1s/FSFzFn/7jMwjlF2DK1HKcbB+AoRPgcmNJfQnu3jATb+xsxY5tR/Dd39+ASJ4H//uFI9jROIT5UyLI8bN9EwN+IgzuPjmEKs8Y/ulrKxFPpPH3zzdgOK1hTk0uDh5tRX5xHhbNn4NfP/401t24GLNqirjtvKrAjbyQF02dMagqUBYOYMbUEhxs7kHXcJJBv6KnsLgmHyvrS9E2EMdz+zuwcV8HwpEgykIK9OFBlJeWIzamQ/a7EfQlEWttxR8+cDMWleciRKVkXlhE96BAmTa/5tJs9pik+EkPnmyAwGl3O11se5jbfHA+VbbWgWq60TeSwpn+KKIjCQyPJpATDKCyJAJy2vK7FQwOj2HTtsN46e0GnO5NWSlJ2tlrcGlp5AS8WLJgKmZNL4ffGxDkQEhIqgk0tvVg9+EW9A+T0p4HUEgGSzzsNKCE5CWlimmHo0FhcECqYMKgQ4hMWmJQLDOd1eFkT6r8+Q9hellMeEGekiFpKQQVFfPry7F4fi0i+XmQyDpap12riuhAD97d04jDLf1I0TlLlI4WO0GfEsfvPrgOX7htMUJM7bYc8z7pm3+xvp8TCLark0Xq4v9Yw9v6lejizZ6Qx+FYhsLAnAFLGVQ3MaIa2LLrGJ5+dSeOtQ0iTR3rNBYIfZk63KqJXK8HlSVhVJeGMWNaGSrLIsjLCcPv94usgaojPprAQHQYp7sGcLytE63dMXRFx5DkgqJYiKjnnUClx0xj6YISVtNbMWcqAiS+ZRN+RV+xlV0bF5Aa35dmL/vZf89azTmxNP7o0yvJlIrjJ9ugacD06VMQJOk31pOwy2EUF5GvYA7COGqw9sPjsbTyHFm0u7OnGfvDmdQNy16L55sqq8KT0RZSY+8SSq2awGBCwzuHWvHiq+/h6LEepHU/kmTS49IAV5pJyV6XGyU5YdQVhzFjSikqK4sQyQ/CH/BxOpkllONpxAZGmPDZeKYbrd1R9A6mMJKkDgRqkyW5ZxMuAmuKgdnTKnDv7UuwalEVcv1ui99jz9WWlgzXSMXYsYS9J4xwLh9mEUttQHvRcNbFep4u+XGyAAJlEFgu3oSkqugaVfHrg33412fexn/+P59BW2sX3usew66WERgjo1g7swB3Lp2GWTUFOHRqGP/w5LtQXF7khrxcCm7vjLEa4+J5NfB60th3vIsdc//u0fXICcn43gv7sPtYFHMrcxAKUDuqG7KeYvv4PU1DqAmq+Iev3ohEMonvvLAfLr8PtSURvPveURSX52PZkiX4j3//FW5evwaFYT/2HGjC9KklVKDC8VP93D1XW1aIovwcHDnRBnh8XALP8ZqYX5OPVbOrcbilB6/uO4W+tAv+UAghWUd6qA9VZSWss0A8NlUdhjrQg289uAELKnIRJulwdgG1dISYtGc/P1c5QMieWmxToYkmNMI8g1TvGH2TcBPtyHQJY2mNFQq7h0bROzKM0ZSGYCAXjc192Lj9CLqHSCyJSgYkyKTCb8RR4ldw4/VLML2uFm1tXTh2shVJVYfsdmNKTRkqKotw6EQ7DhxrxXDaYHKIopEFqGhHIxIc70S4PCGY0nY6VJJoJ0PZD9ukxZq6rfUrQ8ZkWejsHca5n0qRaiVlRg2L51TizluWord7AAePNCMWG+Vu09ygGytXLOAJ8KmX38Whpg5Iig/kN0Zn4bcAwsMbliBI7Y32Inm1zEzjmduJQTybE8bZGLsY8SGzIHtq0CIozJyiCR27DrbiiRd24lhLPxK05+D0jAS34YOLhK5kAokpBAIKQkEv/H4fvD4CCC7OfiXiScTjCcQTcSSSKWZtk6sbicTwcsKKeRqLgq2YW4eHPrscs+tK2PuEWvoYCnBHDk0UpFtPmSz7Aj8IFPAItS40+2ZbpE6xDeH/Jw2Snr4oM/oLCyLweinLJCyYhUeQALNCXFYshO//+bDzOBsU2E+QvRuyj2o7+4mjn/2EkJroSDyNww1dePalvdhzpAMjJInrIsv0NO/2vbIPbp3aWg32LAkEPQjleODxuFj/gwB3KqFjbDSFsXiaPVy4QZIIYGTnbnkieGUdYVcaC2aU4e7blmLJnApEQi5L3ZA2cBbAt/k81qXQfbFLp5OttWzZPtmbrrrXx0sMBARVGVBpI2UYSBoyfrGjFT95aRv+1+99Clu2HkRjNIGSkhIsn1aE5dMKUZXn526euAoc7R3jFkevW8JQXMO2nQ2IGzpqp1Rh594j6BlWsXThLDx80wxAU/GjV/Zhd2MvaktzEfBJnJkyNZVVeU90DKMmV8GfPrQaqVQaP998HN6cIH/ueFM7rptbiZtWzMFPnngdsTQQ8rpQFHLj+sUzMBwbQiploiAvjJriEAP+050DaO2Lor1vENGhMdQWhXHf2vlMaO+MjiKUG4Lb58XbuxvR3tWJhXNn8p6mZyiB9440IeyR8c0HbsLM4jBCNuTMDBZB5hdPyFUMEES6Uuze7R+RSRh/KjK7Fmr1oMmbM3OUHhYpezLbiWsmRpIpDI0lMZzQ8PTmoyxHO6zpkLwEEOgbFPjNMUwrCWPhnPloa4/iWFsbBpNU+3TB65bhl1TUFudg7sw6tLScxuGm00hSf7NKXYlZUMZKDwqCEdX+xVmypxunlgUZUSxIVmbYAn2CjGnXca3trT1ZT9xz8IfJHKggz4X7770ZupHCS6/sRmdfAimN4qYzFaEoJ4gHPnMTVCONf//la0ikKEjkTw4BEB64GQ/ftgghtiU9x8x7hU5CHMqM1oAYQxM2t/Z1Ma4UdrAT987Zo876O+1IqT1S0blWRCz6sbSMfQ3teGHTe9h1qAmjhFVlHyTDCzWtc0qeRZl0KjNZVtwsJiZIrqL8LNQ9ScyHlP9sr3vmLBjk9+DFqoVzcN9tK1Bfky964jmjRox9O6VIaXfKaVv3UYyks3brZyE/oS6V9SOItdmxon9GY6MMZgoL8sQTSYQ7wpMZHDLZwLlwgMDPyoR6STa6y5obWAPFQDIp4eDxXjy/eR+2Hz6JvlQSpovIogokXYZCHAXK9lkukVRioDmDuCB83cQlMoWCH2XyZL5/gj/kokyJqiPslrBy/lTcefNCLJpbiqCXLMStx8cSlRsfbZZMND/XwmfQLiV82KNF0M+Cf1foE/jRT1s8s/RQCLgpHFWpy0vn0llLNI5j3VFcN60Snf3DSJpAUW4QpUEFQWpd4yqbxmqySUockU4E+ZjoCnr7R7nN3eP3oX9wmLlixZEclIfc0ClL1juEgYSGgtwQvB6Lk2QCaQMYGEnAbeiYXxOBZhho7E0AbhfII4JMtqojAZTmeHAmmkTHWBI+GSj2e1Aa8jG4oWshXx7i8NBcQK2UVKKIpzUMjxHB2UQFlSAJqFKLPtlVu3042TfKgm/FhREQh5zWr+6BIVbmnVlVgFzqzBEuO5Z6K603IlMlIPulgZiXRYnB9kcQ04GlHGaNucxlW74NopVNTIga1f2Z7EcTmegv5z8GWbTq+MnTu/Dzlw4i6XIjoY4BHi8004c8v4pbVs+E4grijW2HMBgfQZLsluHhxKY3PYgyn4F7b13JO42nX30XsSTxBajNjbCa0FmniZumAaorC48J26/Stoy1jVrGQYVImQrBBv77eTxbNM15zSRmTIvg/vtvwrOvvIt9hzqhSXlcD5fkNNTUGHyQsXB6Hh743M147KntaDh+Brrpg6yQ0EcCv/vAOra2ZoBgZanO6wTO4xw/ybcwP8SCmOJxH2/Jm7DB5olbqBNm0WIzO2N7hyzwhmCkUwlBpvfTBGYYSKikiJnCxrcP4Y3tDejoHUOS5jm6D9TeqtOYtHzhGRWIzhyb4EedDi5WG6XWPVEuoxJVyGWgvjIXd9+yDGuum8H1TBLkEkJgwsyeT8fqs2cuglBcOs9OgrMBAs3Pdv1STK70Exsc4x10bm6YWyg5g5BxYbV2y1aML/Y9584h5jyIEs+4e4joGhIbCauFkK6dMoiGie5oHJt3NOClbfvZUTFFAmkuD88JdC2U/qD7ScCAwAPpXaTSacFbYF0KenqFbgUJjElGCj5FQ01JHjasvQ4bVs9nYTQmJFJMMhrKWcgzEwzLmMnyg5igpPkBAbuUfewX+x5drOPZ+SfxaBEBlDrWXCQhK/xRoEF1BQhts801yzFTSyiJ1rMXBvFTSNJfR1ryWYJ+EiTNxQqbBh2PO5bIx4eGALnjksWOhrRbcIGIAE5zOBHUaUcvnnv6Xy4gM3BMSMTxobI0lbVd8LBlvMp6GEnS4aBWexJf01XIZlJsFBUfl6XpO9j80eq+Jv8QnldoPBLk11PwSKpYr5Qgt3wy+4Y4dKynIkps9DveJPCBXPwaPw+W75GA7Oezknz0u3dZAATRYCTkZc4GCPZlC0xAbVBkMa2zKJHYlgkHPLslUSjaEY9Ax7/9cguefOUwkhRJRcMYqQxJAZRGJDx472r0Dwzjldd2I5kGUu4wRk0vg42gGUdEjuOOtfNQVFaCX72yC+2DaU7z84BiBzLCu9S6KLgGwjxUyP9aVcZz3A07DyL2bUJh8qwc+Dk/ZcBrpLF0WT1uWrcQP3viDbScHoNq5lomhwmWivboBmqKgEceuR8vbdqJd3cfZcEYWXHB79bwyOduwec3LEbwqgMIYvSM56As0x9LE0M8+VZg2fGNLfTOSr1bi5/FCRFHoyFGExb31LCDPXfGSB7Exgw0NEWx8c1D2NVwHP0jw8KzgTXlhV+9qNcLOVTGJGyqYi3sVpeNyy2jJD+MdUtn4raVMzGjPA8el8bS6iQFbWi0INGEQYqNNCm4RUtrRlAsO11iL+D2BWePrfeXsmz6kWirpXKdjsGROGt/5OdRitRO4xEgHt+lMMBlko1Ysicuk+OwV/QAibE+7pDy/vFuH0VYqAkAwJyD8ZuWZTbGrAhR2qPn3xBa/uSC13hmCBu3N2DrzoMYGB5GKq1x9w9pTYgyipCRp4VB0zX2meFsAnUoEVjQDW6ZLogEsGrZDKxfPQf1U4qR46HXSLmRwDjNJWenqLLO1ZoLxp/v85iUPw7L9DwOf7m+RWQRqEwjAAKp37JIl0HaMoAqe7gNmK3VSQBNYgFruLjERgur8A0ekYO8mPsUCR6SmdfpaaWNAI0+4cDIAJFlLCRopB1Ccvg0P+g0j1NdX8zN9Hd6fjVDKLVSN5ibto5aAqZC64PwtGFgT+erU/qCOm4o60TnSYCAslZiv8/8HVuexUojUkaZvlXSVbgVkclTyWZAN+AmZ2JJ59KjTjwyAhLWJoNwKceMAZK9xRGr5vl1Mn30kXCZAIRswtQkSIgnRlFiEH+lyVhceHYWNK2bON7cieZTPZbKncnWmzTgKC01dWoljp9owePPbEHPCBBXcpGWAzyQfPooygMaHrhjOZYsnIGO7n4MjiWhq7YnuAArmcU9c8rZE/RHvxkf/AkdIb+MvPwceMM5+PGv38S+ox1IkaYk9ctTSlQxYSRHcH19If7wa/eio6sbXV29DA4oMj6fC7PrazG9toxpizQ5Mlfx0gDPi3nxkx5rvGCQVf6x8cA4k876zbjZ18QDZw8i8QBmcvCZ0WXn5C3lRAPMd2nuHsaeg43Yf+g4+gZGMTSqIZmm8SbsaGmXShOKotBCq8HrBkryc1FWmIsVS+Zg3vQqVBcFECI7WV54LZviLAdLy/o0o6lgKWoIg7TMBJGVhp9wzvSOCavahEvPAAUAA7EhBjqF+WGhAmlTGdnRUri5CuliQRoUAgJCLpoWeM0i8IqpWUy4gqJrAWL7sxbR0paoFlBCiIBzDNgqeTxtKrYAIp7iWNY58OQrWnupLTmR0tHRO4jDDcex5+BxtAxo6B9RkaadY0oVRFDaUOgs0A2X242gR0GJT0J1YQ7mzZ6OeXPqUVOZB7/PJVLXnM0Q+iPigTkbbGWPqSyANDn2F/fhKngGJ31Iz/EGHrc2SrCk0EWCWIwGKjcJ4TuR6eKONr7fFsHROqbQ+hQy3bZDcGY94PXBmiH4Cy0yaWaBFdYC4laJxdbOVPHfeaER+jhiPGaRgrME7TKXl+mXFt/Ft3fCOLC3HuPQWYzr7Kyy2OpwO6M9PGz+9TnHywdvSS/kvmR/5rIBCB/3QrI/T/eDWMoqiazw8yzEjezFkF6jf586TUppL2F3QzeGVB9Sppt3biEpiUXTCvCNBzdg7swKKAohUhoeHzzJXszzP9exqIWSCI0Do0k8v3kPnn31XURHNWimAsWlwFBVFOYF8YXbl+H+25bC7aH2TDH3ZICTrSPEnhu2GcylPvOr+/iUcUpTPTwFDI8mMTAwitOdUa7lD44lkCSRK24akeDxKSgqzEFOyI+qsnzk5wSRnxPg1DWlKjMLMu1yrY6ZD4seTZtimZtIKRFL1Nmr0+TglT7RFx3kMVWUH7L282LaFPwaKpcIUWmBzWlBtwGDKH+IDoTx4oCgTomJW1Ao7J4l66xtDwvLFvms2TRz+fYaamciRKeTPQmLa+NzstQgU6qOwdEEumJJdPaOYCA6iGg0ClWlbaQ4LMsdR3JRmJ+D8vwgZ3LycgJcgmD/GeHRleVGa0f6k5sHru6nybm6yy0CVyVA4JIFpZR0MZGx2JBlxMT9BtYGTdMM9gzfvP0wGlp7MEYZKxmoqyzErSvnYNWiaQh6hWKc2Dy4Llmt58MHBokg6dBMmeVAuwaG8fr2A9h7qBGxoTEucoWDfqxdfT3WX1+PkjyfqH0L6rmw+KCJ2DL24XSaQRoQl7vd8+X2uJzjfKgdklsi6Yf66gU4Tes6VCZcCUlieg+F3euhNKoJr/ss9TwrzW8tp6xyOdnGksABMe/FN49zmTPZhYyHqqhRTnY8uobe6BC38RZFgpl9Mv3eJg+K9D//xvpGmysgVmaGOVaZT3ByLADDAEEYMo0DGHtht89MiDnZzJxxm3iRnRBod5wTIcoGDFssh0d67u1douAd8DkRXUE3oGoaE5yp68hOzLpIX98lC+VLK2tEyQX2Y6EyD//avl4HIFwBT6RzihcxAlctQCAbZGHRaLfHU5qXFnkiJVnpHYnUkA0MjMTR3N6H2Fgafr8XVaUFqIgEEVCoNjUuokPKg59ISp4WGVWIRpHDHDVRjiTS6OqNYmBgmAk21HNbXlrCpQhiyLOyIosvEBYgoptdihn3K7hqrGMv4gPxUQ8llC+tdj+Lv5BpgbUIftQ5wWRHK6PFZDlWz7MJuXbuQMADAnaT7/fFEp3NprAT36IsIJY1m5poA4gPuz4BEGzWtwAIFry0Fn0LhHB5zaq7MzKy8lQZ3oDQ2aCxSsBCRMdiGFmaIHaCla3lrZMSqnBCVpmPalus2u6xDHLOumKRRphQDcpkElhunQABvW4/81k5NfuzDICElwbH3Ur3MvTIcEDtls5zlRg+6qhx3u9E4MqIwFUNEOypibscrF0G1xA4HSBuEO/+uMWG6qdiNqB9tWIaLH5E7DIx2RLLmer9n8CP2AKJc2VJ13ElRhL0o9ooGb4ILRkCADSJjp+pqDFbwMCSepVpe8RSy5/IFX0CQbw0X0k7VtsuXSwuWd/DtXkRYV60CSDQXl6UNcVuOZM5sBlIohxhdc6e86THPyMUHzM/Vn1eMLFFXdVefLl6Ogm6pff2Rwe5/EaAUxAFxdLOtX+r5krcAhqP4uIELBFfacMS+pd4v+ByTBxlXEIWB54YMOYlCFln+2VbWIgzYHY6wKpNZ0if/NUTSyqZ41sAgUCbLf3BWQZRebROzO6DsWJp1bIZekyImX1zL01L2aUZoc5RnQhceASuUoAgFn5LznB8MuIJyXLXs2ImNgv2jktMdPz4c0qYfBlEe5noRPd8MiUGnumtVC7LPVsznMXKFj3xNuuGacHWxJs101rXKyZZsQhdmxKvF/6wnOuTmeSztSLZi1DWCijIbba+nqWOOb5oig6C9+kdfUAKgTMWFqhgqEiaALySCbEUzjLxOkfHFWQufh+3a02+sEVjMQYy+ZGw2MFze5nIXAlnSut47CtBcsjCfZHzbMRtkS2LaxYbGicFTFhoucJlXYdNzWZRMbpo8hOxelKsjhAaqmxCZupMoKRtPVtpfyDgEXUFzllYscpoPtjk5gnYxMq1WMRJK6AWerBBgX1Dzie3c3HHmHM0JwKfVASuWoAgPA7tn0xCU8ylWczSc7cZiomK/rB4S6biemnUqia7+ZzUtHvpz24v434X67zsEunZB5y4uTr3/DfZSTivf3AEMvG1k/o2MLMWE6sniQSaLLvSTOaGN9iZNP34rcmU121gZ9tZTzgLCwTYBQkr7cCmUFRWYlhrdRkoPqvd78NvZCwW49at/Lwc7v8WFD3iFYiSCDudaioUrtm7RVZLGFNm1EWJYMnMfyYSUqZBZKqYm2BJXQvtEgvI2DV+JmtQKzGVB4m7IdzuRWehaG+mFjL2R+Asy3i6ZvxvWRmVbEb5h152djEm642ZNM65QILzQDgRuPojcFUCBHtXd1Yn9YS6rp32Ha/UWrmDCepoQrjFBgm22sJvf1iwjt5EtayMYJSYvDIp1Szwc9ZaMvG07VLqb/9irq5vzM7j860QhFZxQ0TfvZ3nl0jLIFP+sSv8oqnLbgW0M1jva6TLzhxwTV0Q8qjkNL63tRh5nHASu3C7rYt4KrYYzAfdAPruaGyQM2h5JC8rWDu8IFMHjUo95mRQZF0e9XPTzl42yAjbbgPziO4Gyl6oSQEQXF7L3MymJ1JWggCEaB8jW3LKDlAJjxzuuRxgcRBEVUNkMAg0EFuDOypYoXKceDkBIGTKDSKaogNj/B3vv37RyjiByJCNCYSTinUbL51q3dX1YDhXczVE4CoGCEJdLzt3YE/D9o2z2d6ZZjF7Mmcb2PEaqp29FwDh/Yp0l34g2IuAZbebPdlZ60+mWmyRwCamCbKK0dknO3nG+dJf2pX+DWcBBP7nOCaYIGdMwlpkaTxeuxesf1HDt4mK4l6/X9ZIBMqutQtxLpJusrsXhNqa2NHL0GUX0pKEMWsDHwbgnyTWdO69/VHWpi/ICwkJXENI4KZp0VYs7QziXZjAiARS4kCOmYJsJPladfjZSZRKAdTwSNRgzQIY4+IuYjySgBQVKeh9TCo2dOiKB3HLoTJIktRGml0uR8hTRJYQgMafIQt47os/qxAgdBnsm2IZqp0Pz4ZIvXYmaAI4sAkUdqfKtemccKU/ps75X1gErlqAIGhHdguWPZGIGcDKbFoRs6Zjq84/vouwavQki5nZEWb26hcW7Qv+lOAViPO2xDqyiZZcBhH5ElumRbw3e/rM2kHZE6EDEC74jmQ+aKerMgkDule0m7YFUWxxFTLcskh8Z5UU7F3+hF2uZQBGv6MaP4mAqpoOjcW+TNZ695CJk0J24gQOiIug8sKcNl1ISC4c647jx8+9y+2xf3L/MtQVBMfbDq3EP9kPCP1C0crYEx0GZDfCAR93v3THRtE/HCcjZgbcPq8XU6sKsauhBz946m2sXlyPB9fUo8Rvsh6HrrjR0j+KjW8fRHllBZYtqMbe5h50j6QzQjccEYOMqsGuqtX5PiyeWQG/oqB9IIGX9p5BMOjBLfPLUBp0oXc0jX9+7gD6YoN49J7VWFQd4vICZTJIQ4L4CPbYz/Q1WjfI3tx/VtYAACAASURBVCJMdqNJRj1jTzkBdQiiacY2XIj3TnY453UnAldFBK5KgCCW8XHqoT3xTuAbZHYLWRNDJk+ftZWwJ4uzJ/Xf6u23iIfZi/5ZAGGcs253eNtQaMJ2yNqGZmGj3+p1XIVfZg+VDP9D3KuJ2mxiEAmVtw9LdYv4cOmAYcEYVMON00MmDrcPoqV7gG3NNU1Cbl4uZtYUYHFlGPkewO8ykVZ1nOyNY2/7KEh8+1hXHM/tOImw14WHbpyD4qCCNGUFFAIrOiJSCgvLw6grDDLYIIvjrugovIob+WE/ekdS+I9NR/Dq3mYYihtpVcWU8gi+8vCN+NWzO7Hl4GnMmjEdS6fkImQkEQlIWDGnCsMjI/j2zzZixFWARz+7Erv2H8Te1hhG0jJCHgkel4KkqiA2qkJJjeKehaX4gwfXIS/gxZuHu/C9Z3eiKBLGirk1yAv50T9m4JdvNaKzfxD3rJmJRTURBgUlPg3Lp+ajPNfH3AghqUylC0FQZC17dsjMHnf2jcpOF1iloLOHp72TsG7ZuGbl5PfwKhzpziVdgxG4agGCDRImf5QzT3/W7c/M9uJ3kx/ktzB0rAktG6i8LymQlSG5fE78txCby+ArJgyZ8RUp+45MlFz9oHMWyxAZkY2ocRzuSOOlbSfQPzSE3EgQwYAPHtmDwdE0uqL9mFdVgpuvm445lblQUype3nUMv3j7GHpUDzoTbiTlAEoCGsJ6Eh5OzQMadR+YKgpccTy0dibuWlqHPLcMTfKhdzABj8uFwrAPXcNpfOelo9hyvB8VVcXo7IshraYwZ0Ed3tlxFHlBHyI5QWjxOGJDQygLu/B/fWYprptWiN9sbcAzO5pwx4o6zJ87Fe+0DOGNfWdQW5WHirIITjb3o6m1H1NLwvjSsiKsn1/FWYqfbW3BMzsaMa+6ANHYAAaG43AFcjCkeTCaUpGnkIMewSc35hbK+MaG+Zhfky+0DmSvZbtOJlh0PaQJQlr2ExDCOQL/AQ/4ZfHcXwZj2zmFazYCVzVAuGbvqnPhV3QEdNPAsGZiZ+cIntp0EDluF1YtrEEgHABJCBd43Aj4XGjujWHL9hPw+rx45O4lqMz14kR7H95r68fm5gS2NXRjUX0pVtTlor1zEB5TQl1xCEE3dQcAbo+BuVMimFOegwjVGnSgJxaH7HYjP+RD10ga//jSQew+PYbVK+fi0PFTOHqsCd68QsSGElhcU4J1K2rR1T+Ebe+dRH2BD9/61ELMr47g9OAYth1pw7z6MrT1jWJ7awJvHu7ESDwNfyCE9GAXCnNzsHLRNKyvlrFmRgVaRnR854XD6BwYxudunIH+kSTaBsYsx0Uhl+5hXRKDPUaWlAZw25wSlIcJ8JCshwUQLMIkcSes5swrejw4J+9E4JOKgAMQPqnIO9/rROAcEaC9bkIzcCah4q+fP4r8VB++tmEZYpqBJ7afxJn+OEjwe/2CSty2pAqn+wlE7EVdeRj3rV8Ct9eN0/1xfGdjCw409eKPPzsP19Xm4+9/tRuy24NHb5+JmUV+sauWFLglCT42kQJSho7oYBwelxuRsB9nRjR8b3MzXj7Yg0DQh+HhYRR6U7hhxUy0R9M4dKQP02sLMTiWRnxsDF+5oQb3LirDsaYOtI0JuenFdQX48WtHset0CnlFhYgOjaGzfwT1VRF4/X50dnTh1mkBfPOuJdjdNojvPncIFblu/N6dc7CnqR+7WodhmDLcpIFAPRFETjQ1lPo13LukGjfPFm6LGkkou7xs9CQMogQB1LL7ccaaEwEnAhcQAQcgXEDQnI84EbhUEaACA8l/v97Qjv/xUjP+33vmYN3UPJyMJrD1RDeiCQkv72zGlHwv/udDy5Gf58eek9349bOv4SsP3oG6ymJsfa8Z39vYhNziEnx1VQkiHhl/+cQeJBU/fv+uxZieqyBgaigIeFARCSDo0VkpccyQ0TOYZFfJkqCMoaSBLc1jeKtlGG+/dwyBsB8bFpZiXk0e9rf24+ebTiCeNGB6clFdXoDfWVGAVVNz8R/P78J7nTpyXCb+7L7F+PWuLuw/PYoFdfkYHkngWNsA5s8sgeTPwa4jp3HD9Dz8wZ2z8PTWRjzxTgeWTQnhW7fPxLHOYRzsSsLQJYTlNIMAVXJDlyTkew3cNqcY10/Ng89F3F03JJmgU5Y3BFcHsx34LtVdc47rRODqjIADEK7O++pc1RUaAepFGYWJ7z+/Dw19CfzNQ8tR4UqiN+3G24392HlyAG819GDZ1Hz8+afnoCTsRV88hb/5yUYsuW4eVs+vwjNvHMIv3mmD7A+iPGgAihsHutJQ3UHMKAghz0ggjASWTy/AZ2+chaJcLxraenGwfQR9STdyZBNr68II+xS8tv8UBn3FeGNfC5RwEDfMKsW+HbvQlTBheBTUlJdjbFRHR08MOd40PnX9FEj+XLx2pA8nG5rwnS+vwpPv9WJf6xBmV+dhOJ7CyY4o5k8JI5gTwVsHm7F6YR0evqkWP/jlNhxoT2PV9Hz8tztmYdfhFuxsjiFtyPDKBndokL05ZQeK/SbuW1aD9fMr4KHyiOyxPCzGWaNCYeJ8XCiu0MHinLYTgUscAQcgXOIAO4d3IvBRIkAAIQbgb37+FvxuGX9+/3IEjDi6RhX855YjeHHfaZxJB/GpZbX40w31qAp7MBBP4du/2o6islJ8Zk0ddjd2Yn9LL2ciVMWFfs2DrYf7AV3HqtnFKPboyIHGxMa1i6bA55bx+MadeHbXcaSVCPIVGZ+7cTqmTinD45sa4C2twv4T7ejoHcbyKbkI5oRxfEDD1KmFKMlVYCQSaGsfRnx0CJ+/YSoWzajEf7zRjCc37cF3vr4WT+7uxoFTg1gwPR99ozqOnxnG8rogfO4Adhw5icX11fjaHbPxs2d3o6E7hbpiP/7bp+age1jDiZiOJFzcQkl+KYm0Dq8CFCkprK0OYEG5Hz43aSK42TKbCguWETSrL4oMwiejgPpR7rvzXicCl2MEHIBwOd4V55yu2QgQQEiawLd/+hwMXxh/9Dur4DfTiJl+tPUPozmawE+3tSM+EMX3vrwCiyry0B9X8fe/2oayygrcd+N0JIhfoOpwmSaSsozTKRn//UfvwC3J+NYD8zGnOACvYcArSwi6FbhkCa29A2iLDiM6oiFHcmN6TQEG0iZ+srEJgaISnGxqg5bW8Nll1fCG/fjB8w1IqwZJJkCRUqyZMLM0jD//zCLUl+bju5ta8PO3j+OvvrgEz7zXiQPNfajNd2MkZaJtUENNcRihgB9NbWewZkYR/utnl6ChNYYthzqhxYfw5ZtnYu+xNuxrHYAuKUinkoCb/CRIadFEYcCDB1dMwS3zKuBxU41Bgof1J8DvpzZHEmASbaUOQLhmHyjnwj9WBByA8LHC53zYicDFjQAtcHED+M2Ok/jF7m787ZdXoMRrYmdzFM1dg/CHfXh25ynoI0P4/ldXYn5VBA2xNP7iRy9j2dKF6Oodxb5jZ9iJkXbQqiuEIYTRMpTm+nxNUEEuST4bKcjmKKaXefHIPSsxp6wQXtNEb18MAb8H3lAQu9ti+M/NJ1BYWY6GhpMoKc7FH963EDsa+vGDJ97DzdP8mDGzBh1xAzuOnkGpS8VffnY5tzF+e2Mbnnz7KP6/hxfilf0d6IsO4w/uXYSWth488VYz1qybg9iYG2++uQ/rp3rxFw+vw7Bm4AcvHEBf/yAevWsJfr1pL95p6MXcWRXI95jQTYmVHTtjBoaGx/DozdPxwKp6+L0Ktzl6SeVBkqBJ1NApw23ZP1n2axf3RjlHcyJwDUTAAQjXwE12LvHKiQBrIAA41p/At36wCQ/eVI8NS2rwxt6TeGzTMcTSMnweHfesqMdXbpoDl+zCz/e040DDSdy3fgF27W/GkRMtMBU3TMUFU/FgBAEc6mIzc8wuciEsx2EYKlyShilFAXxxw3LMriiAxwC6u3vg9rkRzMvDjrYYfvhyA4xwCVra+1g74fZZYaiuXDy1oxUPrJuCO5dVoiuWwi83nYCSGMJf3L8MCU3H9145ga3HenHv2jmIDQ8iIKdw/9pZ6OmOYsuBDvhCERxubIVsGPjSrXNxx/JpGEhq+OkrB9HVG8UX7lyMX71+DAdPJ/DNryzH7GI/dENCUjXx2u5ebH/3EL55az3uXzkNAVKUNHR4JCFjrcoedngQMIF+HEGDK+cJcM70coqAAxAup7vhnMs1HwHhtaBhVAV+8XYTdu8/iM/cugJTqkvQPSohGjdQkSOhNuKGlkzj3WOdeGbrMdy9bgFuX1IJQ9Vg6hpUWQblDAhs9Iya+LMfvgFJVvBHDy/FnJIgPKQwSFoIEpUZXPCyr4GB7u5uBAIhSMEcbDzSju8/9x46RhQYLi88io5pwSQqq6dj8/7TcPsMVPjikDUJnWMyaivD+NZ9S/Hmjv3Y+F4bQkXTMDIUQ044hOL8EAr8LK6MIdOHtKYjEU8gKBuYlgesnl+Diupc/PyFfejuH8T9dy7Fk68fwztHujG1MoKgPgzZG0A8bSI6psNUNXzj9ll4cNU05LqpnMCekzBBipBUYqBvslVFHWnka/7BcgJwQRFwAMIFhc35kBOBSxQBAghkUGRIOJMw8es3D+P46R7Mr6/C3KklKAoH2bCJ/BEOnTyDIyc6MLe+Gg/eugiFbgMu2ypZcTGpjwSR+kY0/MWPXmUFxW89uBKzSsIISLSgAoYsGgPZzYC8F9q7EQwTQAhj3+l+vLjjJFJSAJFIDgpygOI8D6KDGp7buBeFFcWoKA1Bj6fR1tWHSJ4Hj3x6GY6e7ERDSxfWrVyKI8ebsK+lH0NJCXpahWa4oCpeaOQKKenwpGKY4lfxlc/chLLSHDz52gF0RYfwqVuXYNPWIzh8sgf106uRF3AjpQS41bGvZwCjsUF8bt1sfHppDfLcOhSyuJZ94MIK+axx9oDkqkkLweEgXKLR6hz2Ko+AAxCu8hvsXN6VFwFD19jiOAUJ3aMJvLG3DcdO9SBlSvAGclhJMJGMwy9LWD23GovrylAc9sBDlslk2iWRxbHMbYH0Q8JLbx5sg6G4cN30EpQE3HCzXwQJDylsZ85OpXoaPV1d8AfDCOfmYThlYDChQ1YUeN0ueNzCK6x9YBQNJzpQU1WK8uIwtJSGM1190HUd82tKkNJUjCbSqCjKRzyVRPeojrGUAT2twTDA56GyG6UBKTWKIg9QX1HIYOVoex9GEmlMrSzGmY5+jCY0TK8tQZ7fjQTlCXQT/dERdPbEUF+Vj7qiAPySytkRU/JY/gtg+2Zhc6WwIJTz40TAicBHj4ADED56zJxPOBG4ZBFgFr5hsmETpc01Q0VCl9AWS6KxdxjRMRVel4zCoAtTi/NQk++Dmy2+yZTIgES8AwsgkOsj/Z5a/1KkISCB6/IuU7D7dVlh0SGRjtchaQl09fbB5QuhMC9CnlNgp0mD8hDCiZIABTlFsos0dQ6wG6QwQafuAq9hIq2rkF0ufl030jDdHkiUMaDzM4TvqF0Coc+y5bNJwEaAIiIauggkUV6D/k620brGZlIUGIm8GGyfBUMXNteym4EHHZuVD+gaTV2AAwcgXLLx6hz46o6AAxCu7vvrXN0VFgFmIOi0zIHLBUQMlCQZquRC3FSgmjJkyYQPOryyBkXTxCJOlse2kJBELoY2PY9KCTpnJExCHYYGmd/qgk5/2CrZAghqHJ39MbgDucgLhuFmE0odoHMgh0T6KpeXz0WTaFGnir/Jr9n6hSThbEgmeL2nhVohIEJpfhMuAhr0RwJUicyUBJihH4XMGAUe4RKKKA8I8MKCRwQCJGpnpO8Tx6DrlSilIcmsBKkrQmSZzonOQ6LrpePLDgfhCnsMnNO9TCLgAITL5EY4p+FEgCNAVs+0utJfaDGlXbdMSyQZGdNiJ3r82WnAFLtntjrmRVK8JsCBWPjFEmvw4fh9fGxaW8X7DQYItKhSiSGF9q5++EN5yA3mwKXQYk/OiKqo5BsKYBKvgc6Dqv0EHOjYlpE6ARM6Gi3y4msgyTKDELJdVviyxLXp5CrJgEZhUEDZBjo/sZSLrAf/jY5lDQ2+EnqPJFo4JT4fsniWYVCMZAIqglshjmd5tTv4wHm4nAhcUAQcgHBBYXM+5ETg0kRAOBPb1t4CCoj/IREgsZ+mZZSKBPQqZRPGm/jETp3/zaBB/IuXW/onL6WMQAgt8HFs93B6l2loaO/sRjiUi7xQDi/qhmzAkGgHL0Oh3brFawBpKUAVK3h2GyGVN6y9P79kWSexaZK92ktg3oO4HgInfDoCXGSsmQmEiLMXORDyZaS/i0+xwwJlHfiYVIowYdK5WrEj7gG/ZmUlLs3dco7qRODqjoADEK7u++tc3RUWAWu/z8scpd05d0ApdXtXzXLC9DsDpqRAlfycXRCLP9XfBReB30MLq0QSxeM/tBiL41rZBF6sBZAg7sOZrg7khMIopE4GTtFT+YLq+GKx5W/nxZ128bQg0/9KkCmlDyBNnAGrXEBZgkyJgD9tMyLs8xGZACpViGNTVkOABoM9KwV4IIBABQfiWtBVaRZvwtZIZKDAKRLKdtigSKQNHKumK+wBcE73soqAAxAuq9vhnMy1HoEMQDAF2U4i+h/V/7njQOLFWaTiOdEPlZn74icbIPDnCF4wQBiXCxrfrRNAoFq+yfwF3qWbQGtXH8KhAErCfshECORFmzoExHfQf8WRTSYXGlZ5gXkBpPAsK3Dzgq1ZyQX6RhuikDKBne+nJV+1+AV0iTKTEGmBJ0hAGQObwEjfxgCBWiCoPCFzQYTfaQMjAij0D66i8PUIcOJYNV3rT5Rz/R8nAg5A+DjRcz7rROAiRyCTYecdOS16YinkBZx3zvR7Awp3Iohku06SQNYOX6Te6TV7GadOBZl1Auz9PJ2yeLv4ndizSyxl3NoZQyjHz22TCrESuZeCjk+fIYKgoAHSDxEBmfxIPEGDiJCApihw6ZTFSDNPgfsm6L+cTRB8AfFtdGz6Q8cQuQKDSItcbiCAQEUC+gR1MwgSomIkLY6Dd7ysYcWHj2uVP+wsh8hJ0CuOkuJFHqbO4a6RCDgA4Rq50c5lXiERsDkINlKwSQhWzZ5JgZxVsBd8al+kBVy0+Nk8A97RWxV+Ag+yQXwBq3pP6IARgkVYtEJD2YA2AghhPwpzvCAtRi5aSJQr4MZIUb4wuVBhHd+mABCpEtAV+i5BoBTgxg1DFmWJceKkOLPx7x8Xa+JWSJN4DzKzFyjLINodFUhGQpAV4BXnwCkEm5dBhMUsiiN9JKOk6ACEK2T0O6d5mUXAAQiX2Q1xTseJgFjIs36s7IDV4jBOYsy8hXgC2VR90XrIS6S1MAtgMfGY44RA8XuiHJzq7EMwHEQkJ8hlAtEPIYod2T+i+CB++DvsxgORILCpkYJ38IHrs32ddjujAA7cUplpcrTew/2PAvRw66J9ULv0YRccxg9pZSoccOA8UU4ELjQCDkC40Mg5n3MicIVH4GyAQJiirbMXoZwgcgkgWAJM1D9gOyIyDrDIh44+4RU+AJzTdyIwSQQcgOAMEScC12gEHIBwjd5457KdCJxnBByAcJ6Bct7mROBqi4ADEK62O+pcjxOBixsBByBc3Hg6R3MicMVEwAYI4/8VHIRAjuAgcLcE9xeMqwk4JYYr5vY6J+pE4GNHwAEIHzuEzgGcCFyZETC49XFcvZAW/+bT3QiEc1BUEGLPAwYILKEs6IoOQLgy77Vz1k4ELiQCDkC4kKg5n3EicBVEILvEQH8nkmJrew+8wQAKI2FuQ3RLpCUgzJ9s8ySHpHgV3HznEpwInEcEHIBwHkFy3uJE4GqMQDZAkCQJg4NDONHagdz8IlSU5sPnlYUhFEsNTdQYsFUKr8a4ONfkRMCJgIiAAxCckeBE4BqMgNBjsjwQSLVRkhCNRrFr31GUV9VgRl0lFPJLIh4CiRQ5AOEaHCXOJV/rEXAAwrU+Aq656ycRHiEvnOntJ+8AYQho9fiLV8+WBrIw9TkiJkSJxo2JP1ich9L0Gf/is+yMhQSx7c44uUexrU2U8VPk0yalQyE0xPLLGZElRgQTr4rlnCV2UKRjpNJpnO7oQTgSQUEkBNMgcED2yhMtj7I1imwdQxJiElcts/wy4QmLsZDRMxQ7knOELyP7nLmSa25UOhfsROByjIADEC7Hu+Kc0yWKgAnD0NiDkKR8SfvfMg+Em+2IxQrGpsFce7dNC85e/LPl+j5oxTvHe1hhUBIKxGxgAJDjITkY0vfRIit8FGTIMvkWfLgKYMZdgW2PLQDApkkaDFOGKruQ1AEtrULTyTyJfBRsFUJhv8zmzML9mRd03TCEYrFsWUEziGFYY0Eg204akMl3weOCz02OC6p1DmS4JLPYoUTnwQced0QQ52nLL1rnLNuQjaMz6XVfosHhHNaJgBOBsyLgAARnSFxTEdANlQGAbu2yubpuSlAMiYl4tMrRQip289k75wkavlm78XOBBXthPzuzYB1Xt4yFGBwY0C1QQpt9oU4oQzlPgEBHFP4FVs7D0GDqGtJQcDqWwq6DzTh96jTGVB26TAUD+5pkSIawMSIowHbNFBMGK+MW0Nm5FGp7pPcQkKD3e1wyCosiWDp/KmZVRxDkNIxbZC34hMhHgYyaCOwIPcbxHxve0FsFGKEyB8MQRx35mnomnYu9fCPgAITL9944Z3YJImCYZFGswzBVKLQWsby/AonMf2RKy5vCfZAzCqK17/3lgw8CBR/+e/IopIWTFmaZ3Iv47bSz18WuXaL0vMge0GI52TpJ+QD6P9vqiD5LhgqGbqI/nsYzbzXg6Y070dfTi7TihmaZLmWuKXN9FrjgsoTInoz7KYx7IolIiNfIQ9Ij6/B6Pbhp+Rx88a7lqC/Lg5suSzZgmmTQrFOawQJawsmROyAoxmzgrFvZCzdgWOZLdsgvwb13DulEwInAR4uAAxA+Wrycd1/hETBoAaVUPi2EmgZJdiGlSxiKq4gOpzGaUqHz4kYLr72IT7ZUn09QTM4UmDJ1BigIelzID7uRE3DDR2snOSUqCnSTsgcK5PMACKILgf5Q/Z/OmBwNAc0EjnXE8I8/24JdR8/A0DXkhvxwyXRFQvtAFE3EVRpsIy0MnxhycHmFsgR0XFGCEKUBCyyZEjTTwEB8FIakoK4kF79/3xrcsnQavC6CLcLGmRwXDdlDZtFW6YAsnW1fJ7oHFGeRQWDLR5szcTHCfT63xHmPEwEnAh8aAQcgOAPkmoqAYegggSBZpkUOGEoAm945jPeOnsap7kHEUylIvIMWC9zFy3ebMCTiPwCGISHg9aKqNA+LZ1Ri7bIZKC8IwEMpDVqY2erYrsd/yO2x8YFFPrTJg3Rdexq78Q+PvYqjpwaQE/Tg937nJlTkkzpiNhFSLNY6AQNeuOlVUWKwjZoIGIhFXAAEZiCYMmJpDb94fQ8OHW9FVSSMb9y9Cp+9cS68brpG+pAHQ6MG4qqCorBsgSBR0sg4WVsEEM40cHaF4j059+KaGrDOxToR+AQj4ACETzD4zlf/tiNAYkAqNMOAJrnQM6TiJ0+8jtd3nUA0QUlzFwxdhZv5gwQg7C6Ai7ClZbtljcsYKc2ANxACtBQKAhLWLKrFQ3etwrTyPHgljUsfiuSZFJzYCQTRLSAWeJGLAPad7MJ3fvoSDrf1YXpNGb79h/eipiDAlskmZ1AkwR3M7OjFZ0V/h0XQtM/AkECnT3bQsuLm3w4kNfzjUzvx3GvvoDQ3jEfuWYV7bpwLn0eGapqIjaj415+8gO6Yjrs3LMeapVPhd0tQiITJLpGWtgLjDSIzptlWWoLHyjZ88NgQok6iNZP+2P+W5ck7P37bI875PicCV3IEHIBwJd8959w/YgRoYUlx9XsgbuD7P9+M57fsg+7OhaqbIP59rleBn1P+JjSFmwbf18B4IT0MtPwqBqDrBiSPD91DCRgyfYEOn5zE7Wvm4tH716MiosCnyFAk7+QAwVrMafW2Wwxp+09thgeauvC/f/wiDrf2YM7UKvztH92Lijy3IAJSBweVJRgkiEXV5hYImEE5AAGO+F+GgB6yrMDUTbgUGf1jOn741B48+fLbKM4L42v3rsanb5wLNyUBFBnN7QP487/6N5zqN1BWEMEjD9+GVddVIeKX4dJVKPBApuIDESIpDAwQiA3C/SST3ldb5EkQG50fJwJOBC5FBByAcCmi6hzzMo0A8Q9UJA1g26HT+F//8gwG4i6kkikU53qxcv40rFw0A2UFASgusRO3FRPO7mHIvsDzVUGg/TEtsLExA2/tPop3DpxA37DKC3FVoQ/feGAdbllahxxSMDyfDIKdmmfIQwu9i9P/piHhYFMPvvMfL+FISx9mT63Ct//ve1CeHyBaIJK6gXhaRUrTs1QXiHMggAIdia5dcBPEjyJJCPmITwAEPC4MxlX88IldeOKVt1AYCeIr963Bp2+cD79XhmaYSKjAEy9vw69f2IXBIQlVZfl44O7rsP76euT5JXglDxQGCBLTD6gdUrAoJi+tUIlI13UoipLJINA5OhmEy/Sxc07rio2AAxCu2FvnnPhHj4AJTdcxpkv47mMb8cTrh/H/t/cecFZV597/d+99zpneC8MwDMwAQxkYwA4WUOxGRdGYohhLyi3vTYxJLP/3vf+r8ebea0usMfdeWxJjQQWNBQuIIEgVpPcyjRmmF2ZO2eX9PGudA4PJFTTgC7iPHwSGffZe+1n7nPVbz/N7fj/XTCYnyeaai05m2rkn0i87WZEEldiPWrQOLYNwKEoJsnAHTNEacGjuivLeks08M3MBu9tiJAU8rj5/HDdcfhpFWclxcaLP3x2rFkJFCEwAhKAGCJJB2NLA/U++xdptzYwaMpAHfnYp/TJD2JbFtsZ2Xnt3GRu2N2AjWhDS6qm7IYSYKARFEVhOcBOEI5CTFmDqBadwypghpFkGnT02ebL11wAAIABJREFUj81YwvNvzyU3L4Ubpk3isrOqSA/ptlHxgeyKuLy+YC0vvrmChsZOirKDXH7uyVx4VqXiXEgpR9MixRJKZzKkU/JQXn/pROkpwOC//Aj4ETh8EfABwuGLpX+mYyACQuBr7LS569FXmL+2gZ5IjPNOKeNnN5xHWX5ICxVZSXGTY1kmv8RrX7ohARv0DxxP2helBh8jFvPY3eXy25cW8uaHGxVxcsrJQ/nxtWcxpChLdIoO+krwBWS/rySP4m2Lwk34ZGujAghrtjdROaSEB2+5jOK8EL2uxcfrd/LYs2+zsboZ10hW7Ye6U0HuN5FBiHc3GC6GGyEzyeHvrruYy6ecTFYAuntdHn5pBc/PnktOXjI3XnkmU88aR2bIxLBFL8HE9kx2dkWY+dFGXpg5D6c7woCcLK665CQuPXc0uRkBLGKKe4Cnwc0h6SQpDqlmT8pv0ZhD1LZJTg5hSZfIPpCRYGUk+BV/GdID/yUxX38dpSQyRQedGP8APwLHSQR8gHCcTKR/G4cWgZgLta0R7vntTD5ev5u9jsut15/NjReOJsW0lZqhS0gx6oW2uD/JrhUF9wsH6RZATenTVfN9a7qQ+lRngG4rNIippL1DSO3uLSWHbNEdgzc+2sLDv/+I1u5uTh9fxs+nn8XwATlYqqPh81/7AIISL5JduLw0f+CTLY3c99TbioMwqnwA9996BcW5yURdg03Ve5j1ziK21jThIAuz7tbQIki6zKDbHuXmXEw3QlaKxbRLzuC0ccNJDRh09Tg89tIyXnh7Drm5adx45SQunTyG9IAQES0826O1t4d3lm9lwZoaFq1YhxMRHkaI8cOLufPvzqeiJBtTETdFOEp3LxwKpUAIk54wJg2DmOuxdms9K9ZvZ+DA/pQV59IvJ4P0VMmMOPGyiQYe8aZNPVFxwSd1vTiHYz+fYb/gtUQ0ATMSACGRVTrY/Pj/7kfgWI+ADxCO9Rn0x/+FIiBV9zoBCI++zMdr62iNujx453e48qT+ytpY2xNpol9ChlgtEkrgJ6EioPv+EgBBkvJybECl/KWEILtvEf6Rc7hYnpQB5MqiCCC7Zc3hDzs2c5bs4v6n51HX0cKEcWX84vqzGSEAQaUQDqXEINLKcjZLCxwJQPAMVm7dw31Pvs1qAQhDivj3W6dRkpuq8gO9kRiNzW10dO5V9yo3l6A5yr3uv6rOJshCmxQIMLA4n8zUFHXfUj547KWlvPTWHPKzs7hx2iS+MXkEqSGDgBfE9Qw+Xr9RAbGuXpOU1BBWKJW2VpsBOcnc8+NvMLq0UEErISn2lXM+GDQSgODYHqbp0d4b5Q+vL2bGu8vJys1hWP9Mxg0byMiKYgYNzCc7LWmfhqPqeFB3p/0qZH7EkEpaX+UlHIYEADww9xA3ulZtI7pz4mBj/EIPpX+wH4GjNAI+QDhKJ8Yf1pGIgNTWPepbI/zrIy+zeE097VEUQLj85GJFxJOFQQkaebLQHbhEq2xBwm2ozwqhAIJqHXRExBnh6Ev2IBCv5yvVxITEcWKL7EHEjTJnyU7uf3outZ0CEMr5xfRz4wDh4BoMcjd6sfssQICVW5sOAAj/ces0BuXqckJfJQT954R4kd4v9yVkJjIKuNL1IGBHOTbQGTV56KUVzHhzLv2ys7jpyrO47OwK0oNgugGVe9lcv5t5K3eQk5lNTlYSLd0eb7yzkt6OZu75yRVUDu6vSiMaIOyvLhxs8ZXsgXBJ5N7X72rmkT+8z5LNzURdlxQvRmF6Kvm5qQwZWkTVyFIqyoopyssiMyUojAsF2hI3KV0c0vap5nWfFkRc+jk+a7r8ors71EsZTRxslEfi+fXP6Ufgq42ADxC+2nj7V/t/GAEt8OtS0xblV4++yrLVdXRFHH59+3e59JQSDOUlIMuOZvebIoms8+zxUesdelyHOP4zKSWIVLOSQFILXUyEjkTLwI1hqN2pZBOCCjQkdAdkwYk6EeYs3cV9T82hrqOd08YN4xfTp2iAcEglhkMHCPfdMo3BedI6Gc8RyEL/GbdHXVbY75FwoO2kGF058cyGR1vY4OGXlvHyW/MozMrm+8JBmDScNCum+ATSAREzXLodaWi0CAQNttZ38thTb9PcvIe7brmKUYM0QBDqgTKr0vvzgz4hnufgeA5Rx+PND9fx5CuL2N7qEDMNkjwHy9Fy0KEkj7zMIKX9s6gaUcYJleUMH1RIdloIUwCP5HNU1kDmW8+dzplIuUaPQ/5vJZQkVdZBZx58gHDQafIPOA4i4AOE42AS/Vs4tAgIQIjisas9yr8+9iorVtfQE47ym9uv5ZJTSrF1RTwuXSytffvT/IkcgNTpEwunWlA87YqoPB5UmtrAjEsVS2pev7RBkh1v6ZM1RngIETvK3KW7eODpudS1dzJhbAW3TZ/M8BIpMRy0wqAWtkPJIFSWF3H/T6dRqjII+1kTiiPRdz2O213vj2biH7UyghIkUiqUJu0Rl0deWsiMtxaQn5WnMghTJ41UGQRDLCotA7GMkrgExazJ8NhU28Gv//tNmtrauPun11A5qL8qtXiqv7KPlsMhlFbEbKuhNczv/jSXtxZtod0J4aprxxArDdMMqVbIIDGSLZeUJIvcrBClxTlcMPlURgzuR1FOCqlBKfc4SnpbYpEgeuo5S4AErSa1j4PgkxAO7QPnH3XMR8AHCMf8FPo3cKgRkC94oQtKBuGex2ayYvUOuiMRfn37tUyqKmHZ5nr2tPfo8rTnEhAhI9lhunpXXVJUhBsN09LUhGdq/r3sgKUUIY2GtuGQbEU5tbKMwtwMpcTYHUW1+DU3tRKOhcnIymBgSX9y04PK8+HDJdt58JkPqG9vZcLYYdxx3dkMH5CLqZykPv/ODhkgDIkDhOxUncpXNP/91Xb9x4QklIEjvEHRGFBZhnjOQVMVpNKgFtL2SIyHZizkhTc/Ji0jn8unnMTkcQPIkGDEa/lBy6Gsfy6paq112FjXza+ffoem1jb+5SdXUTW4v3avVOZYAs307v1gNy7gIOJ5LFtby2+efIf1uzoxUtKIeWECli3aU7iu+FmIMJSDp7I4HpZkKQyHoBdh6MB+TDxhBBPHV1BWkk9OWlBxULTKY5yjoKQjdYZIsi0yQgF3gXizxaE+d/5xfgSO1Qj4AOFYnTl/3F8qAvKdX9sa45ePvcqyNTvojka47/bpjBmSy12Pv8kn66pJCgYJmq6SFnaEECfWxqbBxeefTWtjHcuWLVMmRL1uECuQRIohvAWDiNdDZqibX/30W4wfPYItdR28MX89H3+8kb2t7bhOL8mpAYr753Lt1RcyZlQpiz7Zya+fncvu1j1MHFvOndedpzIIhoCTg9S5DxUgjBrSn3sVByH9gLV3H78goaSo6ys4tnJTUD+1VCojPpQ+gKU1EuPhV5by3BuLcQKZZCZb5AcjBL1eop6pVCIzk1zu+vE1jC4pVA6PG2o7ePCpd9nT2sEvb5nK2EFFSnhJu2cK3IqLPR0EGUnnQsveKLPmrOL3Mz+mZS+YARGJiiTsOVVXhCu0UWVd3TcnIjcYI6j6NxyK8rIZO3IIZ08YxeihRWQlW0oSOii0TVeDCyMQwLECCvBJxsMHCF/qo+e/6RiMgA8QjsFJ84f85SMgS19Nq81dj81i6Zod9Eb2cu8d0xk9tIB7nniHNZvqKMnPIjtZ75htlYbXJkMTTx7H3vZWNmzYSJQQ9R0xWtr3kpFkUdS/gGDAJt3o5kffPl8Bh2deeY+l62ooKuzPsOI81Q7YG42xdvUqSgpzufnGb7JpZyeP/GEeu9v2MLGqjDunT2F4SfZhBgjSxXAVg/LSDwhcoi2zb8bcFUQkpZhYTIGEUDCIZSbUDfeXV9rDNg+/tJDn31iGm5xFXk4S/dMMQm6YLsdix+4uArG9/ObObzNxzFBVQlhX285vnn6X5tZ2fvmTqYwdXKTyBcJ7kP255h8c3Kwp4rqs3l7PE89/wMI19ThGEgHPIyAbfyGYKkAgZZEQUSOIqnh4It0kIERaHyUNol0vbUeXTlJNl4qB/Zh02iiqKoooL8qhMDuZJClbSDHH0UZbgUBIKzh++UfQf6cfgWMmAj5AOGamyh/o3x4B2XO77Gqz+ZfHX2fpml2Ew3t54PbvMqa8gHsef42W1m5uuGoKlWUFahFxVIrZxLVdstOTMR1H8RY6ox5vLVjN7HlLGFZWwrXTzqE4Nx0jGiEpFOD1dxfx5tzFjBg1gsvOn8jIwYWkpCXRG/Ooq6ln68YtnD7xBD7d3M5vnvmQuvYmJlaVc8f1wkHIVVyGg61Ch55B0G2OpXnp+0iACVCgFro+3RoCASKOTWtrqyqtFOTnEbAMZSDVl6zZ2evx+IyPeOH1xaRk53DZRScz5cQhSgdhR8teHn12Do3VdTx05zc5bewQXJVBaOc3T82mpaWNu38yjaqyIrUjF5llZXcdL9kc7Mb3Rm1mL1rH72Z8xPbmiCJEhhyXoJAjhVGgMhJqOcchWRNO4wwT+d11bYyAKEUaRITQKB0nhqnaUdOCUJiVQlXFAE6sLGN4WT4D8jNJTwkRNMUjIy7p7COEv/3j6J/hqI+ADxCO+inyB3j4IiAiSDbVAhAe+zNL1tQR6e3hgduuZUx5Lv/+n6/R3bWXW2+8lBOGFapuNscQOqEmqZnC4heinmHRHnZ4+b1lPP/nDxg5cgg/veFiBuWkqp3rwvW1PPzUTEJJAW761sWcVFFCepKl2PrS/ie1/VjYVuX2+cureeCZD6ltb2LC2DJuv/4cRpTkaKnlw1ZiKEK1OealaNXEeJVfxpFoq0isdzEDGtu7WLVyFWWlJQwtHxR3l4w3RKpuDegIezz64iJeeu0j8gqyuO6q07nirCoygiY72nu565HZbFy3hQd/fiWnn1CBa9psrG3joafeormllbtuuYbRg4vU0u1IF8M+KufB+xgaWrr47xkLefXDTbS64ufgkOy5BJ0QNhZ2QPwtokh7acDTXAp5KZaFrqIos6r9LataB0LlR4SEaXiELJeMJIPBhRmcVlXG2KEDqBpeRk6GSHHLeY6EruL+BtO/9qfE5+DAK/dtSv38T8qhH3n4PnH+mY7tCPgA4dieP3/0XygCUmCwqWmNcddjr7Fs9W56e2MqgzC6PIN/fWIWPT0Rfvy9SzmholAL/CnnQ3Bt4SGIoZH8zaIj6jHjvRX8/rV5DKsYzO03X8SQ3CBRz+LJt1fyx5nvM3nCWH407WyK05MJSEZALYR6PyvLdI8dY+6yXTzwzAfUduzhtLGDuf368xipAMLBU+1fJIOgOAh5spvWfgVaBCrethCXaHY8lx4DPli8lrWrVvOtKy+ipF8WAcOJZxBUQFQmQQDCQy8tYcbr88nLS+fGaWdw5ZlVpAUNqjt7+f8efoP1G6t56BfTOENlEGJsVBmEtxVAuPuWb1I5uF8cIOxvKdRZhANfUgIQKWrpnnBcl3Xb9vBvT7zHp7vaCQeDeNKpINwAx8I1TGJWTF1PWhmDrovlam8IEa/yDBGrMpF7VSqREgfDVVkMT86vVl8LywrgOTaW001OIMy5Jw/nh9+5iOL8TBULeY6MRDlE4ax4m4Puy1AlFU3kiBdy4jelJKJFubEP+FOtlfEsihKOwtJAUkbqSVlEAI32zJDj5B61d4aQL3UbrbxHP1kicx0X/IprTifiGVdxUOfVs6hj7SdDvtCXyNfqYB8gfK2m++t+s6rbnZrWMHc/9gorVtfT2+txn5QYhqZzzxMzqK7v4OxTT2BAQaY6Vr6Q5Ss/I9Vi4onDKExPV/K9HTGX59/7hN+/vogRFQO5/cbzKc9Lojvmcc+T77JoxXpuuuZ8rjl7DLJvV9LNUmtX6W+tptjrxHhPAYS51LZrgHDH9PMZdZgBQuWQIkVSLM0TJUVZTPT/TVF4VJQDrfAY9VxWVTfy5IuzGTm4mOlXTiE7JOBArJhloQvFJZFd2iMOD720lBlvfkheTgbfn3YWV545muQki7r2bu54eCarNtXw2198i9OrynFNh401Hfz6qXdpbmnh7lumMWZwYbzNMfFc/qWTowADtftXQk0GPb1hXpu7mkdeXEZ7zMCxVAMmlm1gOVrDyAl4qnwgMxdwpXlVjoi7TEirqQIBAnYSLZ9yBVGkdBT3Q9EwrCTVohkyI5TlB/ne1NM5f8Io0oKWhliG9MMEcBwTMyDgT2S6FYVRKU+qrgyluHiggZQ2mVJmEvHajokrWQ7Fw9B9MTaSCZGyjoflRhRkcEjCFQdLGbYVwHDljuQoR7VmuoaQJQxFrJSZEsAg/BkpVQlgEDEoKZdJDPcpfio/TR8gfN2/FT/v/n2A4D8dX6sIyHd/TWuEux9/mWWra+jttfmPO69jzJAs7v7d66xcU0dGSNwUHe1mKLs9x2FQ/1Tu+KerqRxYRMARgGDz/HureG7WYsYMLea2m86ltCCD9miM2x54mW019fz05ss5/6RSLLEnNkKodUTt+PQutteJ8v7Sau5/dh41bU1MVADhXJVBsESq+aB6AIeogxAHCEJSTKSZlTKg5+A5jiqZyILS0Wvz6B/f5sNla7j1R9cw+cQhpKjafRzUqDEpIwPaIjYPv7iEGW/NIy8nSwklXXmWAIQA9e1d3P7Iq6zcXMMTPxeSYjme6bChppPfPPUeza0t3P2TKxhT1k+BLZXA2CeSdOB+VmkvqMUUYrEYe3vD/HHWAp57dz0dMU8temYghBOR3bZeXiUb4FpJGGZIAQTDs+NS2QIU4oQLrc6kgY/6kaONtAyDqJqiJExiZIdiXHn+SZw2voKOjjbK+hcoAmMwqO2wlXumEk+KYRkBLa4l4Est+KqnNA4G4h8zV4NU1Uqr2kHje3knnlVwPbyAhgSShDDEC1v2/JbuptG+lxoJSSbBcbULx77WTHlm42DIMS2VBTNsadB0ccXDXOSl44qQAiVEWdLPIHytvgK/0M36AOELhcs/+FiPwH6AIEqKu+gJR/iPO6+nsjyXf3n8HVasqaZ8QC7FOQGCbkx9wZpY5Ocl8+0rzqaiuEClejtiDs+9+ykvzlrCiYMK+fnN51FckEmHHePWe1+hevdufvaDyznnhBKV6nbMoFoQlH+DWpi0F8PcJcJBmEddWzMTx0oXw9nxNsfDx0FQGYSfxrsYDFkw4wuPbKU9B9cyiLgmb85ZyaNPzyIrP5t//d/fZ0i/VJIkDS9GSsp8SqfSZbkWDsYjXyFASAAFkViuaWxnxaYGlq3dzqebq2nqiBGJSVuoLI4CEGSBTQIvRFA5VApAcBR50Y0rRcpu31S/LLUQqwyCKQwVAQchlekJRDuZfOJQrr3iDN6bv5K5yzcxfFARN049k2HlA5Uqp8g7i323ExPOg0tBZgYhpRNlKL0Jze1MkCb1H8WnQhZ3/Uvwg0PI6VP8sWw8t0c9d56Xgq2AmYxPPz8BL4ZjBAnL+z2TJKXfIB4cnuKuxK23FBQVUQhL3ZWLZ4b2nUMrT+gMgm+Sfax/qx258fsA4cjF1j/zURgBIadVt0b55eOvsvzTanrDEf79jumMHVLAPb+dw+oNO7j2mjOYOqWSdCkvSDucuDN6HhlpFqmm9NubtNkOf3xvFS/OXMIp5SX87IZzKC7IoCtm8/8/+jZrNm3m5u+cz+WTKyU5rEoMjil6CToosi+M2i5zl+zkQeliaG3m9LFl3DH9HCpEB+FwCiWV9+c+xUGQLgZb72jFAMEVmWOXCB7rdjbzbw89z+bq3Zxx+lju/PE15AQ9Qq5YTAlA0HoFeoGF9l6Px15c+pVkEPqWGEQdUeZCWhTbemzWbGtiwYpdrNvRyM6aGqJ2BFd24V4KlpGmJbANB1t4BqaAhLiks6hZConR1VbXsq93TQNbSgyGA7FOKkvz+Pvpl1BfXc0zL89lTzSZcSMG8s0pJ9DR3suejm5auzoJ94bp7ehkUFEG068+j345aQTi6XyNqeKZHrmKAAThGJgBosqPQ00DaYiPhK0W/ggoBcig62AToNcIqOxBsnRrGFqjolueJwMF4EJ4hDGRYkSaZ5Os/EBCSGEoJOBDShEyBkvKEKqxVHV7JFgUPkA4Cr+ojpIh+QDhKJkIfxhfRQSE1mcrJUURSlrxaT3h3gj333YdlWX5/Oq377Jx2zZumn4m0y48kSRJwIqngBLUE5fGHlLEG9AL0h5zee695Tz32mLGlpXxsxvPo7wgjbDt8MifFvDa+wu45PyJ3DxtEqJwHJTFxzCx48Qx+VIWrYG5y6p54OkPqW1rYcLYcm6fLl0M0uZ40CaGQ5daHlKkAMLg3Iz96W7F0ZMaPjR0h3n8T3OY+f5yzOQgF557CldMmUCaEyPVtclJD5GTl4biTapavUlH2OXRrwggSGkhEAioEoP8bghxz5NFP8TSdXW88MZi0goGYSQnsbN6Kzu3bKOnI4rppeFYQWwhHwo3wRSCn6blKR8GV35prwUpE4iHBqEkYrFuCtJsfvCd8xk6uD/3P/QHdjV2Y4QyuPT8k8hLtnjr7WU0dkbju3TIDAS5+OxR/OPN55BieQQlYyQcAEUG1fwGRVEV8S3DIkqAsAtrdjQzb3U9YwbnMaWqH+0ReG3+BgK2wzknDyMjO8SiDXVs2b6HSZWljB9ayLaWHmYtXEdJTiqXnDJMFazeWb2b7S17uXhsMcP7p7J4RydzFn3KxLHDOb1yIGmquqA9QpSluVKGNMXse79N+VfxEfSvcUxFwAcIx9R0+YP92yLQFyDMZMWntYR7o9x3+3VUledzz+PvsWHrdm747ulcddGJKlsgO1VhlCthQy+qUsFCCuuMebwwZznP/Xk5I8qHcNsNZ6suBhEamr+uhnufnEl6biY//PZFnDSkgDRTSGtCMAvqrvyopIld5q3YzQPPfkB1Wzunjq3g9ulnU1mSo/gKB6sNH2oXg5QY7ldKimn7Cv4J2emusMurc9fx3698wJ6IB0EH0+4hIxYgJRpj1MAsrv/OuZx80nCCQSFX6nF1hGM8ogDCB0eUg5DIHiR4CJr976ouhO6oy/Oz5vHC6wtpCRskpacxduwIBhTk09HYxp7dbdS3ddDeG1YqiBL7mMgwS/bAMlWXQsI3Q37mmpq+FzLCfPOC8Vxx0Wk89vTrLFi5g4AZYEhBBt84/xRWrd/OwuU1hD3Zq7ukWAbFGan87O8uYeL4QkJK00GIh+LLEc8gJACC6qCwiBomHb0x/vDnhfz+o1pGDC7glz+czK7GHv75d3OUfPcPpk2goiydJ2ctZfHqWq48YzTXXz6O91bV8uhLH1OS4XLX9y/EiXnc+/ISNuzu4WdTx3PeieU89sYKZr27iLPGD+Xn3zuX4owU9UxJ+UNcRmUiBagcnOnyt33i/Hcf2xHwAcKxPX/+6L9gBCRBW90a0SWG1dX09goHYTpjBCA8MZe1m6v55tRTuPiM4aSouq6sqUJhc0gOmhRnZylil3gRvPDucl58cwUjhg7m1uvPZmhBEtg2O9tiPPynOSxZt50Txw5n6uQqhhblEkyWNkiH5sZWqrdu5cQTR7Nmawe/eWYeNe0tnDp2KLdNP5uRA3M0+/wg9/ZFAMID0sWQm4InEsRa1oGI7bB6Uz0PP/M2a6rbaZPddHoAMxYlPZpMnmVy5fnjuHrqyRTkJKkFT/gXUh5pD8e+EpJiIgR9yYqqLdGDrrDN7PkrmP3RWtbuamevbRL1omSmJFOc349B/QcSsBy6ezqpb9hDS1sX4YirXCANy1ScENvVXRCK6meYhCyPqqH9uPmaySz7ZCMvzF5Mp5dKpuUxZXQRo4aXM3POSrY37MW2QjhehGR6mDxuOLfceDED85M1BVUZVGnOQN8Sg/BPpGVR0vthx2Xlplrmb2qion8OF51QQmfYYOaijThujPNOGkZBWojF62pYu2sPp1QO5oSKInY09/Dnj9ZTLBmEU4eqTpR3V1VT0xbhovEDqRiQwYLNzSxevY3RZf05e3wpmUHpotGNmVbcREzaPg9Bj+sLfsL8w4+nCPgA4XiaTf9eDhqBvyQpRvn3O6czWnkxzGbpqp0M6pdDv+wghpLX9RQb3na6qRiUw89uuprMUJC9kZgSSnpu5keMHD6QW266mEF5qViOS48bZMnG3fz+1QVs3VFLfkY6I4eWk9svja5wlHWffMLgflnc9L2pbNvVxcNPz6O+Tdocy7j9e1MYKhyEQxD8/zIAQRYnqV3LgrunpZ3XZy/gvY/W0OWm0E2A1nAYx/ZIsz0mVg7mh989l5HluQSV26EABAmxR3vYjQMEaXM8sl0MfzGpSsPAU1kEyeRs3t3N2x9vZtacFTR1dZOVmYYTDpPkxKgcnM81V5xLamoy69ZvZsPGHexu6mB3cxu9joEbSFapdskKBTyb4QNy+N5Vk+jq6OQ///gmTbEUIkYSxRkW10wZT09PlFkfrqE9iirPWGaYdDr4yfWXcfmkE0mTtkul2RBQv/aTFHUnhmSYlLaGdD+YAmg89joeqYbmIQhHoENAiwmpIg9tC8E1wF5puQyYpJi6M7VHuh4wSTJ1F4OADQEdKYaYjHmKx9ATcUgNBUgypKtCUhkyHuFcaB6DDxAO+nXxtT/ABwhf+0fg6xUADRDC3P34KywXu+deh3vvvJYxw7J48Nl3Wbm2jqD0mLsxHEuIYEJQFEJfN2OH5XPPT28kJymkyI1vzV/JjDcXUjGkiO9fdwlFuemqnm0aFp3hGJ9uqOfjFRtYv6WGxpa92J5Dv37ZlBRkc+GZ4xk9cgDLPq3joac/oK6tSQGE2753LsOEg6Dk+j5/bg4OEN5i9Y5GKof0VyWGgXkpipym5IE8j9a2Ltat38Ke9m4iRoi9ToDZ8zezbUc9Zf0CXDf1dC48cyyZSYF9dWqlIGg4tPfCQ6rEIAAhk+9fedZftjluquGJXxzY5qh0EFpb+eVfbXOU+004ROh7T+ggJISFNAE9EOIrAAAgAElEQVRR6gHCGxAeAvR4AV5+/1Oe+OPbBNPSmTChitaGBnZv30pVWTHf+/Y3KC0pxHZiNDa1sG5zNRt31LFu+x627e6kK+Jhux65KXDzpRM5Y/wIZryxkHeXbaLbSyEc7qGyvJALJ5/IkuWbWbK2jogpnQgif7CXEQOS+dWt36GifxYhyRlIC6mUF6x4W2i8TVMDBNFaiLcuKh8KaV/UwCvh8KBcH+L+H9KOKv9ppUdDl55crbEgZRM5TjdLSoum7pAQAGCaNtGoSzAUjB8v7Tgh1bOgiJtxrQQl2Pn1+grw7/YLRMAHCF8gWP6hx3oE4kJJbRHufuxllq+uJ9Jrc9/t1zJhXD9WbKmhqbVb8QzE/McNCNNbi+oIpSs3I8TpVaNItkxijs3Wuia2VO8hNyuFkcMHk56slgf1XnEBlPa31q4w23e30dDarQRrCvKyGFCYR0GO8AEcPly+nV8/8z41rW2cMm4ot11/LqNKcrHiC8TnRVwDhITvYqKnXsoiBiu3NnLfkwmAUKxIiqV5KYpPIQBB9dbHHBzbVvcojPeW7ij//O+vsXPXHi45t4JrrzyNgfnpBJVcsZAwEhrNDp1hl4deXMxLb80jVwDCtElccVYlKaGgEkq6/eGZfKoAwreYWDVILeYbarvibo5t/PKWK6lSSopaGVCZKGnqoG7D1MLHamlUfxOFRNujq6uXxpZuYsqKWvUe0NkT448vv8Ona7cy8fST+bubL6GrpZ2abdvIy8hk3JjhpKaIyJOtiJ1hx1D1/x2721mzeTcbtjdQXb+byrJ+3Hjp6RRkpLF2VzPrappZv6WB2l3bGD2ilMFlpcx4/WN2NoZxrJBSZTSinVx36cn843fPJMNyFXdAPWWGE1fDjPcIaLmDOOCJd1Kon+m2V1ndlamU/Ew4jSrDILMfF3BSeguBeJuiEClEC0FioJijShtBZlYpRopSp6EzCnJ+BVOk9VPiLCWieAZGdTT4UorH+pfaER2/DxCOaHj9kx9dEZC0tE19h8O/PDqTpWvrcXq6+Y/bvsOUCcPUUiQ1WXEFVAuX7BITVsfxG1GkLqVyo3d+skSr5Ta+DZPftByzpOR1O5ksfbID1AI1WvdfXjHbZt6yLfzm2TlUN3dzSlU5t90wRZEUDw0gaLKZulZ8cZXzyvBWbmngvqffYPX2PVQOGRDPIAipTntLyJjFeEr67sSaWdrk1u1q5Y7/8zvycnL4yT9MZUxFASmmo+rWohegO+a13G9nb4xHX/yYF97+QAEE6daYepYoDYao7ujh9odfZ/3GWn7386s4dexAPOXF0MW9z8ymsbWLf/3xVYwdXKBiJIx+qcrr3IH2TlCRjysSSoufZ4TotU1WrdvBq28vod2WBc9S6XzpRKnesYu0JItb/uGbTDp1GJZ0OthRDC9AMBiKn1vHS+skiJwxhKMue5o1R6EgJ5PyAQUkWdJlgGpD3N3Yxu66etLTkpUM83MzF7BoTQtdTqoSmMpNi3HPrVdxZlU/Qkp8SosmCRDRFX9lB7nvpaWWJcPQ55OhMJ42rVJNLnGSiKfKAloSWok6Kalo+V0DUJVVUWJefQGVBlOayqlLSUq+Os47iUtZ6IdEvf/o+oT6ozm6IuADhKNrPvzRHNEIeMRcm/ou+D8PzWTZ+jrcnhbu/cV3uWDiyHh5QH/Zqs3dYf/yjNd+48tV1HGZu2wTDz4zh7rWKKeOG8rPpp+ppJYDSqb3819asigORvYBBElxC0DYrQHCjj1UlvcFCEKhE4DgYTkitSwqjwF6TYs/vbmE5557jenXXMZlF59MakjElW0CUsNWAEFBBTUoISk++uJCnn97HvnZ2arEMHWSAISgAgh3PPwa6zdKBuEqTq0qV7v9DbVt3Pfs2zS0dvFvP57G2EHimCls+oCSfdYxt7QiolpIJZXuKMlj0QfoiRnMX7yep55/i9ZwDMOSjI2J63iYToxTxo3g72+6mPzMJJJE2VCl3aWRT++y+74SipIaUHmIAJOEU7obZLe9z6ZCAJSoH7quAnSrNtXz7KylLF23W3VFTDyhjDv//gIGZIZUy6T2YZDdvYKb+0HV3/RcHwljqL9pQP6bvyYR8AHC12Si/dvUERC/gep2h39+5DWWr9+N29PEQ3dey/mnVsTbv/YDg/17/Xh+WJ3hf/pz3wj/9WN05Tcu7et5RFyPOSu2cF8CIIxNAIRsgocVIJRw/61XMjBPMggaIChrHzumAELMs+jxLO7+9bNqs/pP37+KwvwMZZYcMGyV9lYlhn0ZBGjrjfGblySDMJ+C7Gx+eMWZXCEZhECA2q5u7nz4VdZsrObx267h1KoKdecba1u5/5m32NPawa9+PI0qBRCkS0TUDEXtUDIFAhbEUyBeYpAsghDzjAA9NjS0dLBlR73SRNC1/LhJkecyoH8+Q0oLSQ5KxkMkhmSxlnbDg0sBHdgloaFZorUyMbMCVPZGHT5eW8MfZs5ny7Za/vEHV3D52aNJl/JAHHUo4GbGpZZ9lQH/q+cYjoAPEI7hyfOH/sUjIKnjna02dz3+BkvX78YJt/CrH09l6lmVJKkdq6jg65rBX3MW/OJX3P8OYa6rs7qSirbZG4N3lm/hwT98QENbhNPGDeXn15/FyAFHCiAISTHh+hcHCKobwGL77hYefOJP3HT9NYyp6K9r4WJ05IlWgAhGyUKrsweykLf12vx6xlKenz2ffpmZ/OiKMxRASA8Eqe3s5M6HX+bTzbU8dPt3mTCmXC2Tm2pa+fXTb9DU0sk9t1zFmEFFOoNgSl1cWBCy/w7qEkPC00hAgycgRjwbDTzp7nA8giIvLEPUfEW1+w9Y8WyC/EQUIKWVUYiEiiz4+a++YCBBMhTVRv0oSIo+XhZyXdV1sHJTHW/Mns/13/oGFQNzlCGXVmTU7Amf/HewiPv/fixEwAcIx8Is+WM8bBGQtrK6Dpe7f/tnFqyux7b3csNlJ/GjqyeTF5LdshC9dB1X6fQfNNH/xYamlhmVtnZpjbjM/Ggtjz2/gL29LpNOHMKt157JsGKxWD44e+zQSww6gyAkxQRAUGUUKTGoBdZg4fI1NHdFufi8U0lSyn9a219thmWHn9iFq1p2HCC8tJznZ39IUVY6f3fF6QpkpQWC1CmAMINPtjRy723XccbYEpWd2VLTysNP/ZmW1k7u+sk1jC4rViWSqJQwiCgmguEJmTDRTqljq2rpwvkQNct4ziCo5IN1yUaR9eKmRqqWr/l72lb7ECSr9ZTo++1rw5wAB/t/LqUGW/wTCROgpb2H3Mx0UkyXkMJOmgCqzJb98v4X+2D4Rx+VEfABwlE5Lf6gjkwEpJ3NpaXX4J7HX+P9lbVEXJfKskxuuf4CTiovVKp4GiKI053Uww/fSIRDL4uNZRr0RF0272nj4efnsnBljRgpc+lZI/jR1RMoLUjHVLXzz2ch/FWAIOx+4SBs3c9BGFVewn0CEHKTFUDQVlHa4EdWs57eKGs37aC4dCBFqmshqolyQopTY9C6z/FOfjWs9l4xa1rOC29/SL/sFH407XQumzSalGCI5u4efvlfrzHvk2p+8J3zuHjyaIKWybadjTz5pzeI9ET4P//rGkYNLlIUTjFOli4R0fUTYyjJIOyzndTrrgIIyqVRzU0c5qiteqIUIShCUS9FrlJnOuRvX3Kl/mx5QT8FgqZ0KUQKGNIVIKZMQojUHpd6ZDr7dLDZO3zPlX8mPwJHKgI+QDhSkfXPexRGwMP1pM3N5OXZq3j8xQ9os8USN8Ipo0r47iUTGNI/j6SgRSCgne4O7Mr/8rcki5UtmW/Xw5EWyfoOXpv3Ce8u3kDMNilMtbj+slOZes5o8rJTMA2BDF8GIGjS+8ptuothzY4mRpYP4L6fXsmgvDTdMpg4c7wf3nE8unrCJKcmEwrIgieNj5pzoJZfBQ40PEjEQ6yhH3/pE/701gcUZAb5oQCEs0eTGkqmK2ozc95qHnr2XTLSUhg/tpLs7Az27Glkw8a1jK8s5x+/czGlhVlY0k66b3mVnv74PX8GmOlMgXAUZP8uWQV9ZMLcOJ5KiBNI+szawRMxX2BSVZ+ibr9UToyaTClAS3WsCIiJwy9dnjpcT88XGKJ/qB+BwxgBHyAcxmD6pzraIyD1dmHFG2zZ1c4D//UaSzbWYSeJPG6UESX5jCzrT3ZmqlLBi3clHnShPrS7jusVGC7d3XtZu62RDdWNhF2LZM/lpIr+3HT1ZMaPHEBSSOcvvhxA6NPF8MyfFUAYNaSU+265QgGEA9j7CdEhpRYZT42rjL2k2+OCSvs287q6rnbGnklXb4zHXlzBn2bPpzA7mR9Mm8g3JokOQohItIfdnR5PvryA5avW0RsT5UAIWg7FhWlMvWAC555aSXaK7lhA7KT7vuKWzHF/6T5xUD7VSi9AqyYI2VIIifHezn3n6NNzerBWkEObvP1H6d5BdVHJJEjWQnVcqLZYrbMhGRBLN5IebAq/6NX94/0IfKUR8AHCVxpu/2L/LyMgX+MxcbJzPOyIw8crtvL0rA/5tLadmGcq29ygLIJCdlO758ObQzBMSd0LTdKg13bxAiGl2FhZnMO3LziVSRNGkZ6RpIyhxNLpYPyH/6nEIFmKlVsbuPep11m7Yw+jhgxSHASdQeiz1imVPr3giXCj6q1XhkW6fyNR+9deBXqfb4nQjmsqpchHXljGH2cvoDA7nR8KQJg8mtSAVp10jSSqW2Ks376Lts5eYiI+ZRgMHpDH8EH9yM9IJijWy2oMogEgu3GtCqiQmSFZDFndxSBKBpdY9LV0kqqAyB5dMEOc0KjuLJExiJclEj86bM9dQnpCQJR0Kohtdjwl46gMRxwgyJgPa/bisN2BfyI/AoccAR8gHHKo/AOP9QjI97iI34i4jhVzicVclm6s4/k5q1i/s4n21m4c21EpdZG5UUvQAYo2Xz4CidY3z4kpApsVsFTavbKsiItOHc4ZoweTnZFM1JR/M0nuQ3JL7Pr77v7jjXhaaU8tsXHxH8cjHPX4dHsjD/3hTdZub2D4oAH88p+mUZKTogsM8QVNdvVqXCKmoxY2YfcFleaA8idQpQVRBdwv92S5FqZr0R12+a9Zy3j+/UUU5mTwvUsncMHpI8lNsUgxu1WgYkYqjiXuhbLYyyIv9sKGEqISHKHEe0TnwBArLE0KDShVQekmURqWWsPADRwoSqHepzya94ODRHDilAmVmIhjisOa6Ne9qiomks3QAEFfyFZoRZILGrj4AOHLf178dx4dEfABwtExD/4ovoIIyHe2qPIpZr7UjoFeG6qbO6luaKNhdxudnV3EHFm0Einiw7W8qKsr8R9RSczOzqSwIJvS/nmU5GWQkaTtgW0ZlyUafPuYAnEppAN5ewk1f9UeKMRETDojNgtXbWHBis3UtvSyqWY3nd09ZKamMnrYYNKCFpbUy9WCJjVzTfrT8MJQEtESFxEuihjpWvZYCfbGRHZRz5BrEXBNHMdgY307O5ubEBXjwf3zKC7I4YRhRUw9YzD5GeJklKKEj1SOQAEtAQF6AdUqgMp0WP17Ygx6JHrx1S8NLA5QrVLrcTw+n0VP8V275k4cgTU6fj0FEFQ5Yf/YJKsRF5rczx453CWOr+Bz4l/Cj0AiAj5A8J+Fr1UE+m40E8uMVtJzscU5zxEPBd0+J0Q0DSP+9leivVE08k3DJBAMqD596WgwzX3UvAM4AomrytKcWC7lZ4nMtUg6m3ZEFUZsw2JncxuPPvc27y/eTNRKR3X+qXcGFKdAqTCoH8b1DExZ/PVOXaX3RUtA+RUISz81biCkWfsx08QRLQTPIOQ6WK5H2EzGNYTPH1ajEj2FstwA9/30ckYOzsezLCxTcgYJKWpdNNkHuT5DRNwX5X0AIHG3f3v8/TP4EfAj8MUj4AOELx4z/x3HWQQSLW191fS05v3hJZlJaUMT2g4U3/lsGSNRUt8PTaQ9MhH0hBSPLOpiLSzLubTcGdS1d/HHWR8ye8FaOuwgthL2l9yCieXpook61tP+AIaSI46o0oLaCSfyFoajNvCiXSDXkJ2xbVna7MdFAQTJ8EeUO6BL0IvEd/0BhpfmccdNlzCoOB8zOUkBB5EuTsj+H9D+97kA4Th7yPzb8SNwDEbABwjH4KT5Qz68EUgAg4Qgzv4F+39awb7s9XVqPSHKI2dR2YPP8BziNL39Fsv7jIsOzKcrcp9yA7SwpDffjdLcsZftDd20xUxlhRzyHFJEOSjuNRC3aYobRonjoLANJGNiEiNIVCkm6l2+5igITdAh6MW9DRCHS/mJiRmQ64tfg+gAOEoyubggl9L8VEJWgLAXxLCkjVR3HCSyB/uAjw8QvuyD5L/Pj8BXEgEfIHwlYfYvcjRHQMoKSsDI0jwAzdtLuAkeLpAgq66AgbiIj/T/q556MQg6UAo4ARASCXbVU6CcDXXXgSzmmjYoYENaFA08x1WCPZZSDgwgy7mcXfViuB4Rpe4nJEHhGdjq/bKsKwCgEiWGOkaJHXtRdYxjJhGJ+y9Ih4d4M8jiLkUFYeyLA6PtSXbC0ABF2AoicWzbBAJBwtK5EDT32Q37AOFo/hT4Y/Mj8JcR8AGC/1R87SPQVzUvARDiKOHwxkbl2fsUDvqUGz57oUSZoS9VUQ6PiKhR1KZXNHs8yLQMjECAbXVthMNhhg8sJDtkicmw4vZFDYPG9l4+3dXIoIFFDM5JJsmN0msbbGzoVIv4kOIccpMDqgV0R2OnIjOWZUNvzGD3Xpdu24SA6CsY5AdNirNCSiuhy/bY1dSLa9uU9svC9lx21jURjNlUDCohENKmUBqGSCul5kEkIvA/tnEeHtrH4Z07/2x+BL6GEfABwtdw0v1bPkgE+q7OhzNYh6y/Kyl/+U9nAVQOw0PtzmubO5n3yWZqu2yVJRjWP4vSoYN48sWPiNhRLjijikFZAQqTTQoKstm2p51FGxqZ9eEGzjitipOHZpPixmgNw3srq+mNuVw4voQzh+SQkRbiwRkLcYIZ/MMllbS0d/Hq3JU07PWwg6nEHJOzhuZw8wWVCNlyTWuEF+auJ9zTy+VTqog48OrsxSS5BhdPPon0EKSZNnlJUNovT5UapINDkxY/R+fBBwiH86nzz+VH4EtHwAcIXzp0/huP6wgcCZBwSABB6hu6pVAsjpUoUJwPEHU91u5s5PEZH9LkplG3FzLzshlaXspHCz4hMyeF9NQQ0bYOxpZmctXFJ7J85QaWb25j0fYweYVFDMoxSTV66fJS2NxkYzk2ZxbH+NZpA6kaMYin521l7vKd3HDBcLox+NOfl5CXl09Wbg6rNzVwYmkGP/326RiGzczFG3lvXQsdXXuZMLqE9rDFsi3NJAeSSA8aZAQdsrxOpgxJ49qLziAQCGglRvEq8AHCcf3x8W/u+IiADxCOj3n07+JwR+Cz/fWH4/yHpKyXAAiiUxA8QAMhJiZM2xp49JWPCQ0czsaGCPUNLWSaDiG7m3EnDccLBlizbDPnVPbjukuqMJwYizfs4YFXVpNdOpTSwlSSCdPjhtiwq5WitAD/69wSzijLwA0G2dJhs2JdNQPzknl39S621LbyrQtOZlD/fJ56ZQltTQ1MOGEIY6oG89xrS1nb6DKgKIfUaBfNLXsZMGwI+flZ7Nq8izPHDyIvEGFMYZCThg1U/haah6DJmn6J4XA8VP45/AgcuQj4AOHIxdY/8zEfgcNFUOwbiIPlz/sCBC17rLIJnqdUINfWtvHbWUvZ3BWiea9LeWGIqqFFbN7WRGs0gpGUTKYd4/vnDOPMEbkYoSDvrG/hf//nQrIHDmJg/zSCTpSIbbJzZwMVBWncfvUYBuUk8+rHG9naFiU9Ocj4Ef154YM1pKamcPWEoeSmJjH303rWbNhCXmaQC847iQWf7ubNZbuZNKGCPMKsX9+AmZNLQXEWyz7+lHNPryLHcDmrPIOqgdlxL4c4OPABwjH/6fBv4PiPgA8Qjv859u/wS0XgSIADGcghAgRpX1RCTVpWSAymeoB1De3M3dTO3LWN9PZEuGJif5q6oyzf0MymbTVgJTGkMJNLx+Rz7vgBZPYv4O1NPdz39FLKyvtROTQbkXuORl3WrK2lKD2VH189mgE5yTzxykLmb2wgMy2Zm741iVnzN9DeFWZwiktmwGSPHaI7GmZKVX+mnFjGzGU7efKtdeRkZ1KamUw4ClvaY4RSLNr31FJS1I9gb5RfXDqai6qKMVwRidKTIeZQCYOoxPQcUoLlS82l/yY/An4EvkwEfIDwZaLmv8ePwJGKgNI1UJBgH5YQESNpIezw4I0V6/lwSzs724N0tLQxcXgWS3a0k5HTn7HlmUpVcf2WVrJirUwcWcDO3Y2sbjJYWxujIM2gNE8Enz16oy57msMEzWRG9A8xoSKPESOKefKt1dS37+WW75/L7A+3sLGmnbKCXGXCtK2pk5qGXfziipO5aPxAnpy/jlkfbadfSQXdTa3YXoTaSIABBZl0Ne7iyotPYO7cbfzispFcVFmk2i21NqXoLZu48iseRxFe0vyEg0OoIxV6/7x+BPwIHBgBHyD4T4QfgaMoAgluZKJ7wYq7FYqHRJsHLy9axYfbummMpFO7q5ZvTCyjyc1n7aZq8gIxDDNEZ6/LqRW5nDcuj+21jby/rptFG5o4bVwZGcEwu+pbGVSaS319Ow0NvUwa34/JFbmMG96fe2es4ZOdzdxx8yTWrdzA+k3VnDt5PFl5ObzyxiKcvV3cfdNFlGQk8bv3VrJ0aw3DK8exc9MeUjNDbOlwOGFMIR9/sIyqcUNZvWo3d00/mbOG5iO6iwFP6y5IIkXUH5UCQ/weVXLBTyMcRU+jP5SvewR8gPB1fwL8+z+qIpAQSYrF10pZUEUSSQBDq2fy0sK1fLB5Lw2xFNKwufu7Y3lz4U7eeHcRVcNKcUOZbK5r55TKAVwwoZz5Kzbx2uIaGmPJnHzCGDpb9lDT0MaI8iIie7vZvr2aIf2TuOaMCs4cPYB/e2Ejc9bVc9owkwkjilnxSS1NveAkBdnb0cw/XTWRS8eWEA1H+LeXltLY08Owigp2bmoiNy+VTc1hhg8p4OMPF5KenYNBMtdMKGLa6RWkBywFEiyVIomnDBKOjKLnnOjyOFgV5qiaMX8wfgSO3wj4AOH4nVv/zo7BCGj9AykzaJFjtbsWgGA4NNkmL8zfwJ8/aaIhGiTk9HLVaWXsbDHZvGULl59TiWMFmLNkC6MH5jFp3ADeW7QSM3cg7R60dnZTV9dLfWMXQ0vSKS1MprAwh+b63ZwxpICzq0q566nlvL+lnbEj0zlzfBlbtvcwd+VuOpwwQ0py+fbppUwszVROkP/85DwKBxUrzkJTXSfFhRmsrW1hwomDaW1q54STSpn7wWaCDWv55x9eycDcbJKUIqOoOsZLKAlEJKpOCY1nHyAcg0+uP+TjMQI+QDgeZ9W/p2M4ArJixuJaCClxlSQb23Co67L547ufMnvFLroIEAiYDB1QApmlLFu8mIHZIqzk0bm3hwtPHcq3z69i/ZYaVm2pIRoSaeUAO2v2Ut/US8XALPrlmHiGTVpyCpeeNIIhuWk8OmMJa1pNCvulUFNdT1uXR3ZBMVZSkIamRszeDk4cmMU5Z1bxn28shVCQ3r1hRg7uT+mAHOYu3UhuejKpqUlE3DB1td1MGZbOP1w1hcxggKBYSovQs3ANxD5yn95EXIhZ/cMxPH3+0P0IHEcR8AHCcTSZ/q0cBxFQmYMoKNvlFNXJIJbMDg7tEVi1bQ/b93SQkpFBYV4WRTkZLN/Yxvr1Gxk5SJoNDeqaOhhWnK0yADtqGlm1aReYjvKBiJBElBAhT+BChCg22ZkZnFM1hNLsDOqbu+i0Tdo6Oli+ehv9ivI5YfggctKT2VTfxvKN2ynOTOOs8cNYX9dOU0sT7R1dVI0sJz8nlU8219HY0CZWk/RikJ+dxVmjBlKem0GqKDYrTCBjESloTcjUeCBu6PQZ46rjYEb9W/AjcMxGwAcIx+zU+QM/PiMgK6itFk7HCCC208JBEHXFmGcSVZZJWishKIZJnkVbr0E0FiE3PUjYM2jrjZFqeuSmyLEmUUdaCh0l3GwbJmEsAmJOJX83TXWtLMtW/ABxfRSPhx47SJfrkZxkkSHX8vSx7Z5BwHHIMC3ChonrSfnDJGjK+Tx1bmUjaULEUBYO6rxi/Cy/66ZNT4EDMXzSXQwimaRNnXyO4vH5VPt3dWxGwAcIx+a8+aM+jiOg7Kel0KC21tpF0VTujyaucoP0MMRxUY5ygzimVPVtTAERZlC5NCZhE3Sl4KDFljzDxTIUtCBqBOOKhmovr/4cQhweDQxb7J89YkYyYTGCwiNkx89iCmhxlDqj5YXwTFF6tJXNM574Q7pK/dF0RUpZ/izARjIFwqUwkYqCcCrkf64CCNLMuR8SKG7CIShFHMdT79+aH4GjKgI+QDiqpsMfjB8BsZrWxs62IYuuLPyuWnQ918K1ZJ/uYRgehuvhuQaOZWG6MUzDxjaTcWRH79i6W8DRYktOwMA0JZ9gq8yE7jPU1tECAizPJmZass6rnbxtiHuji+lpboBwCMXSWSylJcvgOKa2qTYiuFZQWUcqUEAA0xFg4eKZEQU2HCNZGU/plk2NEqRpwTGUkXU8h6Cv6wME/xPgR+DoiYAPEI6eufBH4kdARyAOEDwjpvgH8ndDwIFn4RgWsmbLL1lQZdGVnbjpiZRSTPIGKmsQcAVYqO07GBa2Jbt6AQgxXOmOUADABFcDBLlORACC/EyuZ7oEXEcBE8e0cEwDS64Zs9W1JfOgwIIRxjOT8FRWwlXgw1LnlAyC+E262F5QjSGgNA9024KUTqQ0sU8oqQ848DmK/gfBj8DREQEfIBwd8+CPwo/AZyKQ6P+L/1jt5PVSrv4Yf8mOW2Xt48bQknNQC7wnR+4/Sr9dfiZLcp9Kv/oH3TvvBFsAAABZSURBVEogwkVyRKIMoM7hyfX2X9OUrEVc7tCQdIMwIgwZhR6JzkgkXqq4IT0L+wWREv8kIOczd+wDA/9D4Efg6IqADxCOrvnwR+NHwI+AHwE/An4EjooI/F+B4vVK7Bb5MgAAAABJRU5ErkJggg==;" vertex="1" parent="1">
          <mxGeometry x="69" y="450" width="349.85" height="220" as="geometry" />
        </mxCell>
        <mxCell id="rCl-pQb8tw7mzpqOau90-3" value="" style="endArrow=classic;html=1;rounded=0;exitX=0.5;exitY=0;exitDx=0;exitDy=0;entryX=0.5;entryY=1;entryDx=0;entryDy=0;" edge="1" parent="1" source="rCl-pQb8tw7mzpqOau90-1" target="rCl-pQb8tw7mzpqOau90-6">
          <mxGeometry width="50" height="50" relative="1" as="geometry">
            <mxPoint x="299" y="310" as="sourcePoint" />
            <mxPoint x="244" y="380" as="targetPoint" />
          </mxGeometry>
        </mxCell>
        <mxCell id="rCl-pQb8tw7mzpqOau90-4" value="抽取实际流量数据" style="text;html=1;strokeColor=none;fillColor=none;align=center;verticalAlign=middle;whiteSpace=wrap;rounded=0;" vertex="1" parent="1">
          <mxGeometry x="169" y="390" width="60" height="30" as="geometry" />
        </mxCell>
        <mxCell id="rCl-pQb8tw7mzpqOau90-21" value="" style="edgeStyle=orthogonalEdgeStyle;rounded=0;orthogonalLoop=1;jettySize=auto;html=1;" edge="1" parent="1" source="rCl-pQb8tw7mzpqOau90-6" target="rCl-pQb8tw7mzpqOau90-19">
          <mxGeometry relative="1" as="geometry" />
        </mxCell>
        <mxCell id="rCl-pQb8tw7mzpqOau90-6" value="车联网&lt;br&gt;数据集" style="shape=datastore;whiteSpace=wrap;html=1;" vertex="1" parent="1">
          <mxGeometry x="211.42" y="295" width="65" height="70" as="geometry" />
        </mxCell>
        <mxCell id="rCl-pQb8tw7mzpqOau90-7" value="例如&lt;br&gt;Car-Hacking Dataset" style="text;html=1;strokeColor=none;fillColor=none;align=center;verticalAlign=middle;whiteSpace=wrap;rounded=0;" vertex="1" parent="1">
          <mxGeometry x="79" y="315" width="120" height="30" as="geometry" />
        </mxCell>
        <mxCell id="rCl-pQb8tw7mzpqOau90-8" value="源域数据集" style="shape=datastore;whiteSpace=wrap;html=1;fillColor=#fff2cc;strokeColor=#d6b656;" vertex="1" parent="1">
          <mxGeometry x="639" y="140" width="120" height="150" as="geometry" />
        </mxCell>
        <mxCell id="rCl-pQb8tw7mzpqOau90-10" value="" style="sketch=0;outlineConnect=0;fontColor=#232F3E;gradientColor=none;fillColor=#067F68;strokeColor=none;dashed=0;verticalLabelPosition=bottom;verticalAlign=top;align=center;html=1;fontSize=12;fontStyle=0;aspect=fixed;pointerEvents=1;shape=mxgraph.aws4.sagemaker_model;labelBackgroundColor=#FFFF99;" vertex="1" parent="1">
          <mxGeometry x="439.85" y="176" width="78" height="78" as="geometry" />
        </mxCell>
        <mxCell id="rCl-pQb8tw7mzpqOau90-11" value="" style="endArrow=classic;html=1;rounded=0;exitX=0;exitY=0.5;exitDx=0;exitDy=0;" edge="1" parent="1" source="rCl-pQb8tw7mzpqOau90-8" target="rCl-pQb8tw7mzpqOau90-10">
          <mxGeometry width="50" height="50" relative="1" as="geometry">
            <mxPoint x="589" y="490" as="sourcePoint" />
            <mxPoint x="639" y="440" as="targetPoint" />
          </mxGeometry>
        </mxCell>
        <mxCell id="rCl-pQb8tw7mzpqOau90-12" value="&lt;span style=&quot;background-color: rgb(255, 255, 255);&quot;&gt;预训练&lt;/span&gt;" style="text;html=1;strokeColor=none;fillColor=none;align=center;verticalAlign=middle;whiteSpace=wrap;rounded=0;labelBackgroundColor=#FFFF99;" vertex="1" parent="1">
          <mxGeometry x="549" y="190" width="60" height="30" as="geometry" />
        </mxCell>
        <mxCell id="rCl-pQb8tw7mzpqOau90-20" value="" style="edgeStyle=orthogonalEdgeStyle;rounded=0;orthogonalLoop=1;jettySize=auto;html=1;" edge="1" parent="1" source="rCl-pQb8tw7mzpqOau90-15" target="rCl-pQb8tw7mzpqOau90-19">
          <mxGeometry relative="1" as="geometry" />
        </mxCell>
        <mxCell id="rCl-pQb8tw7mzpqOau90-15" value="结构微调，&lt;br&gt;知识特征迁移" style="rounded=0;whiteSpace=wrap;html=1;labelBackgroundColor=#FFFFFF;" vertex="1" parent="1">
          <mxGeometry x="529" y="300" width="120" height="60" as="geometry" />
        </mxCell>
        <mxCell id="rCl-pQb8tw7mzpqOau90-16" value="源模型" style="text;html=1;strokeColor=none;fillColor=none;align=center;verticalAlign=middle;whiteSpace=wrap;rounded=0;labelBackgroundColor=#FFFFFF;" vertex="1" parent="1">
          <mxGeometry x="379.85" y="170" width="60" height="30" as="geometry" />
        </mxCell>
        <mxCell id="rCl-pQb8tw7mzpqOau90-18" value="" style="endArrow=classic;html=1;rounded=0;exitX=0.502;exitY=1.077;exitDx=0;exitDy=0;exitPerimeter=0;" edge="1" parent="1" source="rCl-pQb8tw7mzpqOau90-10" target="rCl-pQb8tw7mzpqOau90-15">
          <mxGeometry width="50" height="50" relative="1" as="geometry">
            <mxPoint x="579" y="520" as="sourcePoint" />
            <mxPoint x="629" y="470" as="targetPoint" />
            <Array as="points">
              <mxPoint x="589" y="270" />
            </Array>
          </mxGeometry>
        </mxCell>
        <mxCell id="rCl-pQb8tw7mzpqOau90-19" value="参数微调" style="whiteSpace=wrap;html=1;rounded=0;labelBackgroundColor=#FFFFFF;" vertex="1" parent="1">
          <mxGeometry x="349.85" y="300" width="120" height="60" as="geometry" />
        </mxCell>
        <mxCell id="rCl-pQb8tw7mzpqOau90-22" value="训练" style="text;html=1;strokeColor=none;fillColor=none;align=center;verticalAlign=middle;whiteSpace=wrap;rounded=0;labelBackgroundColor=#FFFFFF;" vertex="1" parent="1">
          <mxGeometry x="276.42" y="300" width="60" height="30" as="geometry" />
        </mxCell>
        <mxCell id="rCl-pQb8tw7mzpqOau90-30" value="" style="edgeStyle=orthogonalEdgeStyle;rounded=0;orthogonalLoop=1;jettySize=auto;html=1;" edge="1" parent="1" source="rCl-pQb8tw7mzpqOau90-24" target="rCl-pQb8tw7mzpqOau90-28">
          <mxGeometry relative="1" as="geometry" />
        </mxCell>
        <mxCell id="rCl-pQb8tw7mzpqOau90-24" value="" style="sketch=0;outlineConnect=0;fontColor=#232F3E;gradientColor=none;fillColor=#067F68;strokeColor=none;dashed=0;verticalLabelPosition=bottom;verticalAlign=top;align=center;html=1;fontSize=12;fontStyle=0;aspect=fixed;pointerEvents=1;shape=mxgraph.aws4.sagemaker_model;labelBackgroundColor=#FFFF99;" vertex="1" parent="1">
          <mxGeometry x="609" y="430" width="78" height="78" as="geometry" />
        </mxCell>
        <mxCell id="rCl-pQb8tw7mzpqOau90-25" value="" style="endArrow=classic;html=1;rounded=0;exitX=0.5;exitY=1;exitDx=0;exitDy=0;" edge="1" parent="1" source="rCl-pQb8tw7mzpqOau90-19" target="rCl-pQb8tw7mzpqOau90-24">
          <mxGeometry width="50" height="50" relative="1" as="geometry">
            <mxPoint x="459" y="440" as="sourcePoint" />
            <mxPoint x="719" y="390" as="targetPoint" />
            <Array as="points">
              <mxPoint x="409" y="390" />
              <mxPoint x="649" y="390" />
            </Array>
          </mxGeometry>
        </mxCell>
        <mxCell id="rCl-pQb8tw7mzpqOau90-26" value="新模型" style="text;html=1;strokeColor=none;fillColor=none;align=center;verticalAlign=middle;whiteSpace=wrap;rounded=0;labelBackgroundColor=#FFFFFF;" vertex="1" parent="1">
          <mxGeometry x="687" y="430" width="60" height="30" as="geometry" />
        </mxCell>
        <mxCell id="rCl-pQb8tw7mzpqOau90-28" value="" style="fillColor=#28A8E0;verticalLabelPosition=bottom;sketch=0;html=1;strokeColor=#ffffff;verticalAlign=top;align=center;points=[[0.145,0.145,0],[0.5,0,0],[0.855,0.145,0],[1,0.5,0],[0.855,0.855,0],[0.5,1,0],[0.145,0.855,0],[0,0.5,0]];pointerEvents=1;shape=mxgraph.cisco_safe.compositeIcon;bgIcon=ellipse;resIcon=mxgraph.cisco_safe.capability.anti_virus;labelBackgroundColor=#FFFFFF;" vertex="1" parent="1">
          <mxGeometry x="593" y="550" width="110" height="110" as="geometry" />
        </mxCell>
        <mxCell id="rCl-pQb8tw7mzpqOau90-31" value="车联网入侵检测系统" style="text;html=1;strokeColor=none;fillColor=none;align=center;verticalAlign=middle;whiteSpace=wrap;rounded=0;labelBackgroundColor=#FFFFFF;" vertex="1" parent="1">
          <mxGeometry x="593" y="670" width="111" height="30" as="geometry" />
        </mxCell>
        <mxCell id="rCl-pQb8tw7mzpqOau90-32" value="嵌入" style="text;html=1;strokeColor=none;fillColor=none;align=center;verticalAlign=middle;whiteSpace=wrap;rounded=0;labelBackgroundColor=#FFFFFF;" vertex="1" parent="1">
          <mxGeometry x="589" y="510" width="60" height="30" as="geometry" />
        </mxCell>
        <mxCell id="rCl-pQb8tw7mzpqOau90-33" value="" style="endArrow=classic;html=1;rounded=0;exitX=0;exitY=0.5;exitDx=0;exitDy=0;exitPerimeter=0;" edge="1" parent="1" source="rCl-pQb8tw7mzpqOau90-28">
          <mxGeometry width="50" height="50" relative="1" as="geometry">
            <mxPoint x="509" y="580" as="sourcePoint" />
            <mxPoint x="419" y="605" as="targetPoint" />
          </mxGeometry>
        </mxCell>
        <mxCell id="rCl-pQb8tw7mzpqOau90-34" value="应用" style="text;html=1;strokeColor=none;fillColor=none;align=center;verticalAlign=middle;whiteSpace=wrap;rounded=0;labelBackgroundColor=#FFFFFF;" vertex="1" parent="1">
          <mxGeometry x="479" y="570" width="60" height="30" as="geometry" />
        </mxCell>
        <mxCell id="rCl-pQb8tw7mzpqOau90-35" value="生成" style="text;html=1;strokeColor=none;fillColor=none;align=center;verticalAlign=middle;whiteSpace=wrap;rounded=0;labelBackgroundColor=#FFFFFF;" vertex="1" parent="1">
          <mxGeometry x="500" y="400" width="60" height="30" as="geometry" />
        </mxCell>
        <mxCell id="rCl-pQb8tw7mzpqOau90-36" value="车联网系统" style="text;html=1;strokeColor=none;fillColor=none;align=center;verticalAlign=middle;whiteSpace=wrap;rounded=0;labelBackgroundColor=#FFFFFF;" vertex="1" parent="1">
          <mxGeometry x="205.92" y="680" width="76" height="30" as="geometry" />
        </mxCell>
      </root>
    </mxGraphModel>
  </diagram>
</mxfile>
